<?xml version="1.0" encoding="UTF-8"?>
<svg width="16px" height="20px" viewBox="0 0 16 20" version="1.1" xmlns="http://www.w3.org/2000/svg" xmlns:xlink="http://www.w3.org/1999/xlink">
    <!-- Generator: Sketch 50.2 (55047) - http://www.bohemiancoding.com/sketch -->
    <title>Page 1</title>
    <desc>Created with Sketch.</desc>
    <defs></defs>
    <g id="Page-1" stroke="none" stroke-width="1" fill="none" fill-rule="evenodd">
        <g id="Enrolment:-Fees-and-Subsidies" transform="translate(-300.000000, -2523.000000)" fill="#000000">
            <g id="Page-1" transform="translate(300.000000, 2523.000000)">
                <path d="M8,14.375 C7.84375024,14.375 7.68749268,14.314062 7.56860488,14.192188 L5.12958049,11.692188 C4.89100488,11.447648 4.89100488,11.053128 5.12958049,10.808588 C5.3681561,10.564048 5.75305366,10.564048 5.99162927,10.808588 L8.00001951,12.866388 L10.0076293,10.808588 C10.2462049,10.564048 10.6311024,10.564048 10.869678,10.808588 C11.1082537,11.053128 11.1082537,11.447648 10.869678,11.692188 L8.43065366,14.192188 C8.31251317,14.314062 8.15627317,14.375 8.00001951,14.375 L8,14.375 Z" id="Fill-1"></path>
                <path d="M8,14.375 C7.66310244,14.375 7.3902439,14.09532 7.3902439,13.75 L7.3902439,7.5 C7.3902439,7.15468 7.66310244,6.875 8,6.875 C8.33689756,6.875 8.6097561,7.15468 8.6097561,7.5 L8.6097561,13.75 C8.6097561,14.09532 8.33689756,14.375 8,14.375 Z" id="Fill-2"></path>
                <path d="M11.6585366,16.875 L4.34146341,16.875 C4.00456585,16.875 3.73170732,16.59532 3.73170732,16.25 C3.73170732,15.90468 4.00456585,15.625 4.34146341,15.625 L11.6585366,15.625 C11.9954341,15.625 12.2682927,15.90468 12.2682927,16.25 C12.2682927,16.59532 11.9954341,16.875 11.6585366,16.875 Z" id="Fill-3"></path>
                <path d="M14.3627317,20 L1.63863415,20 C0.77582439,20 0.0730930732,19.29844 0.0730930732,18.43594 L0.0730930732,5.59614 C0.0730930732,5.05318 0.288039024,4.52114 0.66302439,4.13676 L4.10887805,0.60476 C4.48920976,0.21414 4.99531707,8e-05 5.53266341,8e-05 L14.3619317,8e-05 C15.2247415,8e-05 15.9267122,0.70164 15.9267122,1.56336 L15.9267122,18.43676 C15.9267122,19.2984798 15.2254829,20.0000399 14.3626927,20.0000399 L14.3627317,20 Z M5.53268293,1.25 C5.3208,1.25 5.12109268,1.334376 4.97094634,1.48828 L1.52509268,5.02028 C1.37722732,5.171842 1.29262439,5.382 1.29262439,5.59606 L1.29262439,18.43506 C1.29262439,18.608498 1.44811317,18.7499 1.63865366,18.7499 L14.3619707,18.7499 C14.552519,18.7499 14.707239,18.609276 14.707239,18.43662 L14.707239,1.56322 C14.707239,1.390564 14.5525132,1.24994 14.3619707,1.24994 L5.53268293,1.25 Z" id="Fill-4"></path>
                <path d="M4.6462439,6.25 L2.512,6.25 C2.17510244,6.25 1.9022439,5.97032 1.9022439,5.625 C1.9022439,5.27968 2.17510244,5 2.512,5 L4.6462439,5 C4.81468878,5 4.95112195,4.860156 4.95112195,4.6875 L4.95112195,2.4999 C4.95112195,2.15458 5.22398049,1.8749 5.56087805,1.8749 C5.89777561,1.8749 6.17063415,2.15458 6.17063415,2.4999 L6.17063415,4.6875 C6.17063415,5.54844 5.48618537,6.25 4.6462439,6.25 Z" id="Fill-5"></path>
            </g>
        </g>
    </g>
</svg>