<svg width="15px" height="25px" viewBox="0 0 15 25" version="1.1"><defs></defs>
    <g id="Page-1" stroke="none" strokeWidth="1" fill="none" fillRule="evenodd"><g id="Parent-Info:-Health-&amp;-Medication" transform="translate(-1763.000000, -242.000000)" fill="#FFFFFF" fillRule="nonzero"><g id="Group-2-Copy-19" transform="translate(1740.000000, 220.000000)"><g id="noun_78826" transform="translate(30.500000, 34.500000) rotate(90.000000) translate(-30.500000, -34.500000) translate(18.000000, 27.000000)"><path d="M24.9008342,7.28542198 C23.4847348,6.0588003 18.3406111,0 12.5001042,0 C6.65959728,0 1.51547348,6.0588003 0.0993741719,7.28542198 C-0.033124724,7.39984564 -0.033124724,7.60015436 0.0993741719,7.71457802 C1.51547348,8.9411997 6.3990439,15 12.5001042,15 C18.6011644,15 23.4847348,8.94093047 24.9008342,7.71430879 C25.0330553,7.60015436 25.0330553,7.39984564 24.9008342,7.28542198 M12.5001042,11.8268299 C10.0345692,11.8268299 8.0359747,9.88943533 8.0359747,7.5 C8.0359747,5.11056467 10.0345692,3.17317012 12.5001042,3.17317012 C14.9653614,3.17317012 16.9642336,5.11056467 16.9642336,7.5 C16.9642336,9.88943533 14.9653614,11.8268299 12.5001042,11.8268299" id="Shape"></path><path d="M12.5,5.55555556 C11.4258889,5.55555556 10.5555556,6.42614815 10.5555556,7.5 C10.5555556,8.57385185 11.4258889,9.44444444 12.5,9.44444444 C13.5738519,9.44444444 14.4444444,8.57385185 14.4444444,7.5 C14.4444444,6.42614815 13.5738519,5.55555556 12.5,5.55555556" id="Shape"></path></g></g></g></g></svg>