<?xml version="1.0" encoding="UTF-8"?>
<svg width="41px" height="50px" viewBox="0 0 41 50" version="1.1" xmlns="http://www.w3.org/2000/svg" xmlns:xlink="http://www.w3.org/1999/xlink">
    <!-- Generator: Sketch 50.2 (55047) - http://www.bohemiancoding.com/sketch -->
    <title>Page 1 Copy 5</title>
    <desc>Created with Sketch.</desc>
    <defs></defs>
    <g id="Page-1" stroke="none" stroke-width="1" fill="none" fill-rule="evenodd">
        <g id="Contact:-Contact-Us" transform="translate(-380.000000, -927.000000)" fill="#F16668">
            <g id="Group" transform="translate(200.000000, 561.000000)">
                <g id="Page-1-Copy-5" transform="translate(180.000000, 366.000000)">
                    <path d="M5.96206087,6.04715184 C13.9690553,-2.04478641 26.9877598,-1.98659565 34.9947542,6.04715184 C43.0017486,14.0808993 43.0017486,27.2377154 34.9947542,35.3296537 L20.4784075,50 L5.96206087,35.3296537 C-1.98735362,27.2382859 -1.98735362,14.1390901 5.96206087,6.04715184 Z M20.5,9.7826087 C26.4377632,9.7826087 31.2894737,14.6720814 31.2894737,20.6533011 C31.2894737,26.6345207 26.4377632,31.5217391 20.5,31.5217391 C14.5622368,31.5217391 9.71052632,26.6322664 9.71052632,20.6510468 C9.71052632,14.6698272 14.5622928,9.7826087 20.5,9.7826087 Z M20.5,28.0698759 C24.5539552,28.0698759 27.8649277,24.7347842 27.8649277,20.6533011 C27.8649277,16.5696764 24.5539552,13.234472 20.5,13.234472 C16.4460448,13.234472 13.1350723,16.5695636 13.1350723,20.6510468 C13.1350723,24.7346715 16.4459888,28.0698759 20.5,28.0698759 Z" id="Fill-1"></path>
                </g>
            </g>
        </g>
    </g>
</svg>