<svg width="276" height="10" xmlns="http://www.w3.org/2000/svg"><g stroke="#f16668" stroke-width="3" fill="none" fill-rule="evenodd"><path d="M23 8c-5.834 0-5.667-6-11.5-6C5.665 2 5.834 8 0 8M46 8c-5.834 0-5.667-6-11.5-6-5.835 0-5.666 6-11.5 6M69 8c-5.834 0-5.667-6-11.5-6-5.835 0-5.666 6-11.5 6M92 8c-5.834 0-5.667-6-11.5-6-5.835 0-5.666 6-11.5 6"/><g><path d="M115 8c-5.834 0-5.667-6-11.5-6-5.835 0-5.666 6-11.5 6M138 8c-5.834 0-5.667-6-11.5-6-5.835 0-5.666 6-11.5 6M161 8c-5.834 0-5.667-6-11.5-6-5.835 0-5.666 6-11.5 6M184 8c-5.834 0-5.667-6-11.5-6-5.835 0-5.666 6-11.5 6"/></g><g><path d="M207 8c-5.834 0-5.667-6-11.5-6-5.835 0-5.666 6-11.5 6M230 8c-5.834 0-5.667-6-11.5-6-5.835 0-5.666 6-11.5 6M253 8c-5.834 0-5.667-6-11.5-6-5.835 0-5.666 6-11.5 6M276 8c-5.834 0-5.667-6-11.5-6-5.835 0-5.666 6-11.5 6"/></g></g></svg>
