<?xml version="1.0" encoding="UTF-8"?>
<svg width="92px" height="10px" viewBox="0 0 92 10" version="1.1" xmlns="http://www.w3.org/2000/svg" xmlns:xlink="http://www.w3.org/1999/xlink">
    <!-- Generator: Sketch 50.2 (55047) - http://www.bohemiancoding.com/sketch -->
    <title>Group 2 Copy 3</title>
    <desc>Created with Sketch.</desc>
    <defs></defs>
    <g id="Page-1" stroke="none" stroke-width="1" fill="none" fill-rule="evenodd">
        <g id="About:-Team-(Popup)" transform="translate(-942.000000, -429.000000)" stroke="#FAED87" stroke-width="3">
            <g id="bio" transform="translate(501.000000, 200.000000)">
                <g id="Group-2-Copy-3" transform="translate(441.000000, 231.000000)">
                    <path d="M14.5,-8.5 C14.5,-2.66575 8.5,-2.8335 8.5,3 C8.5,8.835 14.5,8.66575 14.5,14.5" id="squiggle" transform="translate(11.500000, 3.000000) rotate(90.000000) translate(-11.500000, -3.000000) "></path>
                    <path d="M37.5,-8.5 C37.5,-2.66575 31.5,-2.8335 31.5,3 C31.5,8.835 37.5,8.66575 37.5,14.5" id="squiggle" transform="translate(34.500000, 3.000000) rotate(90.000000) translate(-34.500000, -3.000000) "></path>
                    <path d="M60.5,-8.5 C60.5,-2.66575 54.5,-2.8335 54.5,3 C54.5,8.835 60.5,8.66575 60.5,14.5" id="squiggle" transform="translate(57.500000, 3.000000) rotate(90.000000) translate(-57.500000, -3.000000) "></path>
                    <path d="M83.5,-8.5 C83.5,-2.66575 77.5,-2.8335 77.5,3 C77.5,8.835 83.5,8.66575 83.5,14.5" id="squiggle" transform="translate(80.500000, 3.000000) rotate(90.000000) translate(-80.500000, -3.000000) "></path>
                </g>
            </g>
        </g>
    </g>
</svg>