<svg width="18px" height="21px" viewBox="0 0 18 21" version="1.1" xmlns="http://www.w3.org/2000/svg" xmlns:xlink="http://www.w3.org/1999/xlink">
    <!-- Generator: Sketch 50.2 (55047) - http://www.bohemiancoding.com/sketch -->
    <desc>Created with Sketch.</desc>
    <defs></defs>
    <g id="Symbols" stroke="none" stroke-width="1" fill="none" fill-rule="evenodd">
        <g id="Menu" transform="translate(-1328.000000, -40.000000)" fill="#5DBF88">
            <g id="login" transform="translate(1328.000000, 40.000000)">
                <g id="Page-1">
                    <path d="M17.6991483,16.9111531 C17.0734787,13.4706994 14.1254961,10.9565217 10.6822787,10.9565217 L7.10862651,10.9565217 C3.58688738,10.9565217 0.613496076,13.5503062 0.0385395545,17.0704726 C-0.248834359,18.8434178 1.10852216,20.4312671 2.85619173,20.4312671 L14.9081048,20.4312671 C16.6822265,20.4312671 18.0385396,18.7906465 17.7257569,17.0178072 L17.6991483,16.9111531 Z" id="Fill-1"></path>
                    <path d="M5.01497506,8.43623927 C7.04996636,10.5007232 10.3361924,10.5534415 12.423149,8.54168653 L12.4751194,8.4889629 C14.274702,6.74184758 14.4581455,3.91024834 12.8664238,1.95236554 C10.7009977,-0.694137293 6.68407593,-0.641418957 4.5971194,2.0578128 C3.13583245,3.96308312 3.29277158,6.68919276 4.98842375,8.40941961 L5.01497506,8.43623927 Z" id="Fill-2"></path>
                </g>
            </g>
        </g>
    </g>
</svg>
