<?xml version="1.0" encoding="UTF-8"?>
<svg width="61px" height="61px" viewBox="0 0 61 61" version="1.1" xmlns="http://www.w3.org/2000/svg" xmlns:xlink="http://www.w3.org/1999/xlink">
    <!-- Generator: Sketch 50.2 (55047) - http://www.bohemiancoding.com/sketch -->
    <title>noun_593866</title>
    <desc>Created with Sketch.</desc>
    <defs></defs>
    <g id="Page-1" stroke="none" stroke-width="1" fill="none" fill-rule="evenodd">
        <g id="Homepage" transform="translate(-980.000000, -2620.000000)" fill="#F16668" fill-rule="nonzero">
            <g id="why-us" transform="translate(200.000000, 2372.000000)">
                <g id="Group-11" transform="translate(780.000000, 248.000000)">
                    <g id="noun_593866">
                        <path d="M24.8054913,60.9469565 C26.7624277,60.9469565 28.684104,60.6286957 30.5,59.9921739 C32.333526,60.6286957 34.2375723,60.9469565 36.1945087,60.9469565 C45.6618497,60.9469565 55.0057803,53.3971014 58.9196532,42.6115942 C61.2820809,36.1226087 61.4760116,29.2623188 59.466185,23.3037681 C57.4210983,17.2391304 53.3485549,12.8011594 47.9890173,10.8562319 C42.8939306,8.99971014 37.0760116,9.68927536 31.8751445,12.6597101 C31.5225434,7.93884058 29.3187861,3.55391304 25.6517341,0.495072464 L23.800578,2.70521739 C26.7800578,5.19826087 28.6135838,8.73449275 28.983815,12.5713043 C23.800578,9.6715942 18.0531792,8.99971014 13.0109827,10.8562319 C7.65144509,12.8188406 3.57890173,17.2391304 1.53381503,23.3037681 C-0.476011561,29.2623188 -0.282080925,36.1226087 2.08034682,42.6115942 C5.99421965,53.3971014 15.3381503,60.9469565 24.8054913,60.9469565 Z M4.26647399,24.2231884 C6.02947977,19.0072464 9.4849711,15.2234783 13.9982659,13.5791304 C18.9346821,11.7756522 24.6820809,12.8365217 29.6537572,16.4081159 L30.5,17.0092754 L31.3462428,16.4081159 C36.3179191,12.8365217 42.0653179,11.7756522 47.0017341,13.5791304 C51.5150289,15.2234783 54.9705202,19.0072464 56.715896,24.2231884 C58.5141618,29.5628986 58.3202312,35.7336232 56.1869942,41.6214493 C52.6786127,51.2930435 44.4453757,58.0472464 36.1768786,58.0472464 C32.633237,58.0472464 30.4823699,56.897971 30.4823699,56.897971 C30.4823699,56.897971 28.5606936,58.0472464 24.7878613,58.0472464 C16.5193642,58.0472464 8.28612717,51.2930435 4.77774566,41.6214493 C2.66213873,35.7336232 2.46820809,29.5628986 4.26647399,24.2231884 Z" id="Shape"></path>
                        <path d="M45.3092486,1.98028986 L45.5560694,0.548115942 L44.1280347,0.30057971 C39.1210983,-0.60115942 33.7615607,3.51855072 32.950578,8.15101449 L32.7037572,9.58318841 L34.1317919,9.83072464 C40.0554913,10.3788406 44.4806358,6.61275362 45.3092486,1.98028986 Z M41.9771676,3.05884058 C40.9722543,5.32202899 38.7861272,6.89565217 36.2650289,7.07246377 C37.2699422,4.80927536 39.4560694,3.23565217 41.9771676,3.05884058 Z" id="Shape"></path>
                        <path d="M20.9797688,17.522029 L20.9797688,14.6223188 C12.2881503,14.6223188 5.21849711,21.7124638 5.21849711,30.4469565 L8.10982659,30.4469565 C8.10982659,23.3214493 13.8748555,17.522029 20.9797688,17.522029 Z" id="Shape"></path>
                    </g>
                </g>
            </g>
        </g>
    </g>
</svg>