<?xml version="1.0" encoding="UTF-8"?>
<svg width="94px" height="92px" viewBox="0 0 94 92" version="1.1" xmlns="http://www.w3.org/2000/svg" xmlns:xlink="http://www.w3.org/1999/xlink">
    <!-- Generator: Sketch 50.2 (55047) - http://www.bohemiancoding.com/sketch -->
    <title>baby</title>
    <desc>Created with Sketch.</desc>
    <defs></defs>
    <g id="Page-1" stroke="none" stroke-width="1" fill="none" fill-rule="evenodd">
        <g id="Centre:-Overview-|-Centre" transform="translate(-692.000000, -3263.000000)" fill="#5DBF88" fill-rule="nonzero" stroke="#5DBF88">
            <g id="services" transform="translate(0.000000, 3020.000000)">
                <g id="baby" transform="translate(693.000000, 243.000000)">
                    <g id="Group" transform="translate(0.000000, 19.558824)">
                        <path d="M46.1029412,71.6691176 C28.9330882,71.6691176 13.8755882,60.3892647 9.84926471,44.6919118 C4.40073529,44.5941176 0,40.1319118 0,34.6610294 C0,29.1286765 4.50132353,24.6245588 10.0364706,24.6245588 L10.8970588,24.6245588 C16.1360294,10.4416176 30.1541176,0.983529412 46.1057353,0.983529412 C62.0573529,0.983529412 76.0754412,10.4416176 81.3144118,24.6245588 L82.1777941,24.6245588 C87.7073529,24.6245588 92.2114706,29.1258824 92.2114706,34.6610294 C92.2114706,40.1319118 87.8107353,44.5941176 82.365,44.6919118 C78.3330882,60.3892647 63.2727941,71.6691176 46.1029412,71.6691176 Z M10.0364706,27.4186765 C6.04367647,27.4186765 2.79411765,30.6710294 2.79411765,34.6610294 C2.79411765,38.6510294 6.04367647,41.9005882 10.0364706,41.9005882 L10.9529412,41.9005882 C11.6067647,41.9005882 12.1767647,42.3560294 12.3164706,42.9986765 C15.6302941,57.9919118 29.8383824,68.8777941 46.1029412,68.8777941 C62.3675,68.8777941 76.5783824,57.9919118 79.8922059,42.9986765 C80.0347059,42.3588235 80.6019118,41.9005882 81.2557353,41.9005882 L82.1722059,41.9005882 C86.165,41.9005882 89.4117647,38.6538235 89.4117647,34.6610294 C89.4117647,30.6682353 86.165,27.4186765 82.1722059,27.4186765 L80.3225,27.4186765 C79.7217647,27.4186765 79.1908824,27.0358824 78.9980882,26.4658824 C74.4269118,12.8976471 61.2079412,3.77764706 46.1029412,3.77764706 C30.9979412,3.77764706 17.7761765,12.8976471 13.2077941,26.4658824 C13.0177941,27.0358824 12.4841176,27.4186765 11.8833824,27.4186765 L10.0364706,27.4186765 Z" id="Shape"></path>
                        <circle id="Oval" cx="57.8102941" cy="40.0508824" r="3.37529412"></circle>
                        <circle id="Oval" cx="35.6836765" cy="40.0508824" r="3.37529412"></circle>
                        <path d="M46.1001471,58.3132353 C42.6829412,58.3132353 39.2713235,57.3772059 36.2285294,55.5023529 L35.6780882,55.1642647 C35.0242647,54.7563235 34.8175,53.8985294 35.2226471,53.2419118 C35.6305882,52.5852941 36.4911765,52.3869118 37.145,52.7864706 L37.6926471,53.1245588 C42.8757353,56.3182353 49.3189706,56.3210294 54.5160294,53.1217647 L55.0608824,52.7836765 C55.7147059,52.3841176 56.5780882,52.5825 56.9832353,53.2391176 C57.3883824,53.8957353 57.1816176,54.7563235 56.5277941,55.1614706 L55.9801471,55.4995588 C52.9317647,57.3744118 49.5145588,58.3132353 46.1001471,58.3132353 Z" id="Shape"></path>
                    </g>
                    <path d="M49.1764706,23.5180882 C42.3588235,23.5180882 36.8097059,17.9717647 36.8097059,11.1513235 C36.8097059,5.54073529 41.3725,0.975147059 46.9830882,0.975147059 C51.6241176,0.975147059 55.4017647,4.75279412 55.4017647,9.39382353 C55.4017647,13.2636765 52.2555882,16.4098529 48.3857353,16.4098529 C45.1389706,16.4098529 42.4985294,13.7666176 42.4985294,10.5198529 C42.4985294,9.74867647 43.1244118,9.12279412 43.8955882,9.12279412 C44.6667647,9.12279412 45.2926471,9.74867647 45.2926471,10.5198529 C45.2926471,12.2270588 46.6813235,13.6157353 48.3857353,13.6157353 C50.7132353,13.6157353 52.6076471,11.7213235 52.6076471,9.39382353 C52.6076471,6.29514706 50.0845588,3.76926471 46.9830882,3.76926471 C42.9148529,3.76926471 39.6038235,7.08029412 39.6038235,11.1513235 C39.6038235,16.4294118 43.8983824,20.7239706 49.1764706,20.7239706 C49.9476471,20.7239706 50.5735294,21.3498529 50.5735294,22.1210294 C50.5735294,22.8922059 49.9476471,23.5180882 49.1764706,23.5180882 Z" id="Shape"></path>
                </g>
            </g>
        </g>
    </g>
</svg>