<?xml version="1.0" encoding="UTF-8"?>
<svg width="75px" height="66px" viewBox="0 0 75 66" version="1.1" xmlns="http://www.w3.org/2000/svg" xmlns:xlink="http://www.w3.org/1999/xlink">
    <!-- Generator: Sketch 50.2 (55047) - http://www.bohemiancoding.com/sketch -->
    <title>Page 1</title>
    <desc>Created with Sketch.</desc>
    <defs></defs>
    <g id="Page-1" stroke="none" stroke-width="1" fill="none" fill-rule="evenodd">
        <g id="Learning:-Programs" transform="translate(-286.000000, -3674.000000)" fill="#F16668">
            <g id="inclusions" transform="translate(286.000000, 2226.000000)">
                <g id="Page-1" transform="translate(0.000000, 1448.000000)">
                    <path d="M37.4263407,65.5534468 C20.3770074,65.5534468 6.5056,50.8494894 6.5056,32.7767234 C6.5056,14.7039574 20.3770074,0 37.4263407,0 C54.4770815,0 68.3484889,14.7039574 68.3484889,32.7767234 C68.3484889,50.8494894 54.4770815,65.5534468 37.4263407,65.5534468 M37.4263407,3.26068085 C22.1461185,3.26068085 9.71448889,16.5014043 9.71448889,32.7767234 C9.71448889,49.0506383 22.1461185,62.2913617 37.4263407,62.2913617 C52.7079704,62.2913617 65.1410074,49.0506383 65.1410074,32.7767234 C65.1410074,16.5014043 52.7079704,3.26068085 37.4263407,3.26068085" id="Fill-1"></path>
                    <path d="M22.7693185,27.9182809 C22.6581333,27.9182809 22.5455407,27.9070468 22.4329481,27.8817702 C21.5659852,27.6936 21.0142815,26.8271745 21.1986519,25.9481106 C21.9586519,22.3293447 25.4687259,20.0109191 29.0266519,20.7832596 C31.569837,21.3309191 33.5655407,23.3586638 34.1102074,25.9481106 C34.2945778,26.8285787 33.7414667,27.6936 32.8759111,27.8817702 C32.0075407,28.0685362 31.1560593,27.5082383 30.9716889,26.6277702 C30.6930222,25.2965362 29.6670222,24.2531745 28.3595407,23.9723234 C26.5299111,23.5735149 24.7270222,24.7671319 24.335763,26.6277702 C24.1739111,27.3930894 23.5096148,27.9182809 22.7693185,27.9182809" id="Fill-3"></path>
                    <path d="M43.5363185,27.9182809 C43.4251333,27.9182809 43.3125407,27.9070468 43.1999481,27.8817702 C42.3343926,27.6950043 41.7812815,26.8285787 41.9656519,25.9481106 C42.7242444,22.3293447 46.2371333,20.0137277 49.7964667,20.7832596 C52.3438741,21.3323234 54.3381704,23.3614723 54.8758,25.9509191 C55.058763,26.8313872 54.5056519,27.6964085 53.6386889,27.8817702 C52.7703185,28.0671319 51.9216519,27.5054298 51.7386889,26.6249617 C51.462837,25.2965362 50.4382444,24.2545787 49.1293556,23.9723234 C47.2983185,23.5749191 45.4926148,24.7671319 45.102763,26.6277702 C44.9423185,27.3930894 44.2766148,27.9182809 43.5363185,27.9182809" id="Fill-5"></path>
                    <path d="M37.4425259,50.5654085 C32.8473407,50.5654085 28.291563,48.5362596 25.1854148,44.6296213 C24.6294889,43.9288979 24.7364519,42.9023872 25.4246741,42.3364723 C26.1114889,41.7705574 27.1220074,41.8786851 27.6807481,42.5794085 C32.0240074,48.0447702 39.933637,48.8971532 45.3071185,44.479366 C45.9911185,43.9176638 46.621637,43.2787277 47.177563,42.5794085 C47.7348963,41.8786851 48.7440074,41.7719617 49.4322296,42.3378766 C50.1204519,42.9037915 50.2274148,43.9303021 49.6700815,44.6296213 C48.9720074,45.5072809 48.1824519,46.3091106 47.3239333,47.0154511 C44.4162296,49.4040894 40.9174148,50.5654085 37.4425259,50.5654085" id="Fill-7"></path>
                    <path d="M9.49352593,46.148183 C9.32322963,46.148183 9.15011852,46.1200979 8.97982222,46.0611191 C5.10241481,44.7298851 2.00611852,41.5801404 0.695822222,37.6369915 C-1.63484444,30.6199277 2.08211852,22.9849915 8.97982222,20.617417 C9.81863704,20.3267362 10.7292296,20.7873319 11.0121185,21.6397149 C11.2964148,22.4935021 10.844637,23.4189064 10.0058222,23.7053745 C4.78434074,25.5000128 1.96952593,31.2799277 3.73300741,36.5936298 C4.72663704,39.5790766 7.07137778,41.9635021 10.0072296,42.9731617 C10.8460444,43.261034 11.2964148,44.1864383 11.0121185,45.0402255 C10.7869333,45.7198851 10.1620444,46.148183 9.49352593,46.148183" id="Fill-9"></path>
                    <path d="M65.1394593,46.1463574 C64.4709407,46.1463574 63.8460519,45.7166553 63.6208667,45.0369957 C63.3365704,44.1846128 63.7869407,43.2592085 64.6257556,42.9713362 C67.5630148,41.9616766 69.909163,39.5772511 70.9027926,36.5889957 C71.7570889,34.0178043 71.5741259,31.2598468 70.3890889,28.8262723 C69.2026444,26.3912936 67.1576815,24.572783 64.6257556,23.7035489 C63.7883481,23.4156766 63.3365704,22.4902723 63.6208667,21.6378894 C63.9037556,20.7841021 64.8143481,20.3206979 65.6517556,20.6141872 C68.9943481,21.7614638 71.6979778,24.1641447 73.2630148,27.3798894 C74.8294593,30.5942298 75.0687185,34.2354638 73.9399778,37.6337617 C72.6296815,41.5783149 69.5305704,44.7280596 65.6517556,46.0592936 C65.4828667,46.1196766 65.3097556,46.1463574 65.1394593,46.1463574" id="Fill-11"></path>
                    <path d="M38.6509259,11.0479787 C38.5172222,11.0479787 38.3807037,11.0311277 38.2455926,10.994617 C34.5215926,10.0074255 31.7053704,7.53031915 29.8743333,3.63070213 C29.4929259,2.8176383 29.8307037,1.84448936 30.6301111,1.45691489 C31.4252963,1.06793617 32.3865556,1.41057447 32.767963,2.22504255 C34.1936667,5.2596383 36.2498889,7.095 39.0548519,7.83925532 C39.911963,8.06674468 40.4242593,8.95704255 40.2018889,9.82768085 C40.0132963,10.5621064 39.3630741,11.0479787 38.6509259,11.0479787" id="Fill-13"></path>
                    <path d="M38.6500815,17.5367617 C33.9859333,17.5367617 29.1641556,13.9179957 23.9103037,6.47544255 C23.3937852,5.74382553 23.5584519,4.72574043 24.277637,4.20054894 C24.999637,3.6767617 25.9988963,3.84246383 26.5154148,4.57548511 C31.0599333,11.0125915 35.1428222,14.2760809 38.6500815,14.2760809 C39.5353407,14.2760809 40.2545259,15.0062936 40.2545259,15.9064213 C40.2545259,16.8065489 39.5353407,17.5367617 38.6500815,17.5367617" id="Fill-15"></path>
                    <path d="M39.8698815,37.0022681 L34.9847704,37.0022681 C34.0995111,37.0022681 33.3803259,36.2720553 33.3803259,35.3719277 C33.3803259,34.4718 34.0995111,33.740183 34.9847704,33.740183 L39.8698815,33.740183 C40.7551407,33.740183 41.4743259,34.4718 41.4743259,35.3719277 C41.4743259,36.2720553 40.7551407,37.0022681 39.8698815,37.0022681" id="Fill-17"></path>
                </g>
            </g>
        </g>
    </g>
</svg>