<?xml version="1.0" encoding="UTF-8"?>
<svg width="65px" height="58px" viewBox="0 0 65 58" version="1.1" xmlns="http://www.w3.org/2000/svg" xmlns:xlink="http://www.w3.org/1999/xlink">
    <!-- Generator: Sketch 50.2 (55047) - http://www.bohemiancoding.com/sketch -->
    <title>Group 3</title>
    <desc>Created with Sketch.</desc>
    <defs>
        <polygon id="path-1" points="0.000144444444 0 64.4872222 0 64.4872222 69.7777778 0.000144444444 69.7777778"></polygon>
    </defs>
    <g id="Page-1" stroke="none" stroke-width="1" fill="none" fill-rule="evenodd">
        <g id="Learning:-Programs" transform="translate(-290.000000, -3239.000000)">
            <g id="inclusions" transform="translate(286.000000, 2226.000000)">
                <g id="Page-1" transform="translate(4.000000, 1006.000000)">
                    <g id="Group-3" transform="translate(0.000000, 0.205111)">
                        <mask id="mask-2" fill="white">
                            <use xlink:href="#path-1"></use>
                        </mask>
                        <g id="Clip-2"></g>
                        <path d="M35.8108111,58.9518889 C35.6071444,59.157 35.3861444,59.3447778 35.1521444,59.5123333 L34.9542556,59.651 L34.9542556,59.6481111 C34.7592556,59.7781111 34.5541444,59.8965556 34.3432556,59.9976667 L34.2508111,60.0438889 L33.9807,60.1565556 L33.9807,60.1536667 C33.8160333,60.2157778 33.6484778,60.2648889 33.4794778,60.3053333 L33.2093667,60.3717778 C32.8930333,60.444 32.5694778,60.483 32.2430333,60.4902222 L31.9599222,60.4902222 C31.7389222,60.4772222 31.5179222,60.4497778 31.3027,60.405 C31.1712556,60.405 31.0585889,60.3544444 30.9213667,60.3125556 L30.9184778,60.3125556 C30.7855889,60.2764444 30.6498111,60.236 30.5183667,60.1868889 L30.2222556,60.0612222 L30.1038111,60.002 L30.1038111,60.0048889 C29.9059222,59.9066667 29.7167,59.7968889 29.5303667,59.6755556 L29.2992556,59.5123333 L29.3021444,59.5123333 C29.0941444,59.3548889 28.8962556,59.183 28.7157,58.9981111 L28.5900333,58.8594444 C26.1099222,56.0731111 22.5522556,54.4755556 18.8198111,54.4755556 L3.2877,54.4755556 L3.2877,17.1005556 L7.39281111,17.1005556 L7.39281111,48.7237778 C7.39281111,49.1571111 7.56758889,49.576 7.8767,49.8836667 C8.18581111,50.1927778 8.6047,50.3675556 9.03803333,50.3675556 L19.2791444,50.3675556 C23.7598111,50.3718889 28.0295889,52.2828889 31.0109222,55.6267778 C31.3243667,55.9748889 31.7692556,56.1727778 32.2387,56.1727778 C32.7067,56.1727778 33.1544778,55.9748889 33.4650333,55.6267778 C36.4507,52.2857778 40.7175889,50.3718889 45.1997,50.3675556 L55.4451444,50.3675556 C55.8799222,50.3675556 56.2988111,50.1927778 56.6079222,49.8836667 C56.9155889,49.576 57.0903667,49.1571111 57.0903667,48.7237778 L57.0903667,17.1005556 L61.1954778,17.1005556 L61.1954778,54.5058889 L45.6648111,54.5058889 C41.9395889,54.4827778 38.3877,56.0702222 35.9191444,58.8594444 L35.8108111,58.9518889 Z M10.6832556,10.5254444 L19.2791444,10.5254444 C23.5489222,10.5283333 27.6338111,12.2645556 30.5978111,15.3311111 L30.5978111,50.785 C27.3218111,48.3641111 23.3539222,47.054 19.2791444,47.0511111 L10.6832556,47.0511111 L10.6832556,10.5254444 Z M45.2054778,10.5254444 L53.8013667,10.5254444 L53.8013667,47.0525556 L45.2054778,47.0525556 C41.1321444,47.054 37.1628111,48.3641111 33.8882556,50.7864444 L33.8882556,15.3643333 C36.8464778,12.2847778 40.9342556,10.5384444 45.2054778,10.5268889 L45.2054778,10.5254444 Z M61.9985889,13.813 L57.0918111,13.813 L57.0918111,8.89466667 C57.0947,8.45555556 56.9228111,8.03522222 56.6137,7.72466667 C56.3060333,7.41411111 55.8842556,7.23933333 55.4465889,7.23933333 L45.2069222,7.23933333 C40.3940333,7.24944444 35.7645889,9.07233333 32.2430333,12.3468889 C28.7243667,9.06944444 24.0920333,7.24366667 19.2805889,7.23933333 L9.03947778,7.23933333 C8.13236667,7.23933333 7.3957,7.976 7.3957,8.88311111 L7.3957,13.813 L2.48747778,13.813 C1.12536667,13.813 0.0174777778,14.905 0.000144444444,16.2656667 L0.000144444444,55.2772222 C0.000144444444,56.648 1.11236667,57.7631111 2.48747778,57.7631111 L18.8212556,57.7631111 C21.6090333,57.7703333 24.2653667,58.9648889 26.1185889,61.0506667 L26.3497,61.2991111 L26.3468111,61.2991111 C26.6429222,61.6053333 26.9621444,61.8841111 27.3015889,62.1412222 C27.4402556,62.2466667 27.5789222,62.3391111 27.7017,62.4243333 L27.7045889,62.4243333 C28.0007,62.6222222 28.3112556,62.7984444 28.6319222,62.9558889 L28.8168111,63.0411111 C28.9901444,63.1248889 29.1591444,63.1971111 29.3440333,63.2635556 L29.3411444,63.2635556 C29.5679222,63.3487778 29.7990333,63.4224444 30.0330333,63.4816667 C30.1977,63.5278889 30.4085889,63.5871111 30.6527,63.6333333 L30.6498111,63.6333333 C31.0094778,63.7026667 31.3720333,63.7488889 31.7374778,63.7691111 L32.2444778,63.7777778 C32.7890333,63.7748889 33.3292556,63.7214444 33.8637,63.6131111 C34.0745889,63.5741111 34.2508111,63.5206667 34.3432556,63.4946667 C34.6003667,63.4311111 34.8560333,63.3516667 35.1073667,63.2592222 L35.2330333,63.213 L35.6475889,63.0353333 L35.7992556,62.9631111 L35.7963667,62.9631111 C36.1387,62.797 36.4694778,62.6092222 36.7829222,62.3954444 L37.1194778,62.16 C37.5008111,61.874 37.8575889,61.5591111 38.1869222,61.2138889 L38.2461444,61.1561111 L38.3775889,61.0116667 L38.3775889,61.0087778 C40.2120333,58.9417778 42.8495889,57.766 45.6157,57.7804444 L62.0000333,57.7804444 C62.6630333,57.7804444 63.3000333,57.5161111 63.7651444,57.0466667 C64.2331444,56.5772222 64.4931444,55.9402222 64.4873667,55.2772222 L64.4873667,16.2656667 C64.4700333,14.905 63.3621444,13.813 62.0000333,13.813 L61.9985889,13.813 Z" id="Fill-1" stroke="#FFFFFF" stroke-width="0.5" fill="#F16668" mask="url(#mask-2)"></path>
                    </g>
                </g>
            </g>
        </g>
    </g>
</svg>