<?xml version="1.0" encoding="UTF-8"?>
<svg width="67px" height="69px" viewBox="0 0 67 69" version="1.1" xmlns="http://www.w3.org/2000/svg" xmlns:xlink="http://www.w3.org/1999/xlink">
    <!-- Generator: Sketch 50.2 (55047) - http://www.bohemiancoding.com/sketch -->
    <title>Page 1</title>
    <desc>Created with Sketch.</desc>
    <defs>
        <polygon id="path-1" points="0 0 66.93376 0 66.93376 68.6653137 0 68.6653137"></polygon>
    </defs>
    <g id="Page-1" stroke="none" stroke-width="1" fill="none" fill-rule="evenodd">
        <g id="Learning:-Programs" transform="translate(-290.000000, -4559.000000)">
            <g id="inclusions" transform="translate(286.000000, 2226.000000)">
                <g id="Page-1" transform="translate(4.000000, 2333.000000)">
                    <mask id="mask-2" fill="white">
                        <use xlink:href="#path-1"></use>
                    </mask>
                    <g id="Clip-2"></g>
                    <path d="M62.71912,28.7224 C61.29928,29.7283958 59.09744,30.6910063 56.35024,31.5153263 C53.41944,32.3911663 49.98816,33.0812632 46.15024,33.5666358 C42.1396,34.0764126 37.87056,34.3340126 33.46688,34.3340126 C29.06456,34.3340126 24.79416,34.0764126 20.78352,33.5666358 C16.9456,33.0812632 13.51568,32.3925221 10.58488,31.5153263 C7.83632,30.6910063 5.63176,29.7283958 4.21464,28.7224 C3.05184,27.8994358 2.79072,27.3191579 2.79072,27.1795116 C2.79072,27.0412211 3.05184,26.4609432 4.21464,25.6379789 C5.63176,24.6346947 7.83632,23.6693726 10.58488,22.8450526 C12.104,22.3895074 13.76048,21.9868379 15.53664,21.6329768 C15.58016,22.2118989 15.64136,22.7976 15.71344,23.3873684 C12.01152,24.3987874 9.76344,25.7261053 9.76344,27.1768 C9.76344,30.3371453 20.37552,32.9009432 33.46688,32.9009432 C46.5596,32.9009432 57.17168,30.3398568 57.17168,27.1768 C57.17168,25.7233937 54.92496,24.3960758 51.22032,23.3873684 C51.29376,22.8003116 51.3536,22.2118989 51.39848,21.6329768 C53.17328,21.9841263 54.8284,22.3895074 56.35024,22.8450526 C59.0988,23.6666611 61.29928,24.6319832 62.71912,25.6379789 C63.88328,26.4609432 64.1444,27.0412211 64.1444,27.1795116 C64.1444,27.3191579 63.88328,27.9021474 62.71912,28.7224 Z M54.3388,63.3573979 C53.55952,63.7085474 51.76568,64.32272 48.01888,64.8745263 C43.94024,65.4764968 38.77224,65.8059537 33.46688,65.8059537 C28.16152,65.8059537 22.99216,65.4764968 18.91352,64.8745263 C15.16672,64.32272 13.37288,63.7085474 12.5936,63.3573979 L13.68976,35.2600168 C19.2304,36.4775158 26.06712,37.1960842 33.4696,37.1960842 C40.86936,37.1960842 47.7088,36.4775158 53.24944,35.2600168 L54.3388,63.3573979 Z M16.39344,27.2228968 C16.47368,27.5767579 16.56072,27.92384 16.64912,28.2641432 C15.2116,27.8831663 14.19704,27.5021895 13.50888,27.1808674 C14.11816,26.8961516 14.9872,26.5639832 16.17584,26.2250358 C16.24384,26.5558484 16.31456,26.8907284 16.39344,27.2228968 Z M18.44296,14.3673011 C18.77752,11.0835789 19.46024,7.73071158 20.24224,4.23548632 C20.59176,4.63002105 20.98752,5.11810526 21.42408,5.72143158 C22.49576,7.19653053 24.09376,9.75083789 25.62512,13.5267116 C27.08712,17.1317558 28.13568,20.9889768 28.74496,24.9831326 C28.99248,26.6277053 29.1652,28.2858358 29.2604,29.9507453 C28.3424,29.9114274 27.43936,29.8544842 26.554,29.7880505 C25.47416,21.0079579 23.834,15.8315537 23.664,15.3136421 C23.65856,15.2973726 23.65448,15.2865263 23.65176,15.2783916 C23.46272,14.7157389 22.94592,14.3076463 22.3312,14.3076463 C21.5628,14.3076463 20.93448,14.9489347 20.93448,15.7407158 C20.93448,15.9006989 20.96304,16.0566147 21.01064,16.1989726 C21.02696,16.2532042 22.62088,21.1232 23.70344,29.5196042 C22.30536,29.3609768 20.97392,29.1698105 19.72952,28.9447495 C19.5092,28.1936421 19.2984,27.4032168 19.10392,26.5653389 C18.19952,22.6498189 17.99008,18.7736168 18.44296,14.3659453 L18.44296,14.3673011 Z M33.46688,20.0290779 C34.42024,20.0290779 35.3668,20.0426358 36.30656,20.06704 C36.1964,20.5361432 36.08896,21.0106695 35.98696,21.4933305 C35.16008,21.4716379 34.31824,21.4621474 33.46688,21.4621474 C32.61416,21.4621474 31.77232,21.4743495 30.94544,21.4933305 C30.84344,21.0106695 30.73736,20.5361432 30.6272,20.06704 C31.5656,20.0426358 32.51216,20.0290779 33.46688,20.0290779 Z M32.0552,30.0307368 C31.95048,28.0648421 31.7492,26.1653811 31.4636,24.3418442 C32.12728,24.3282863 32.79504,24.3201516 33.46688,24.3201516 C34.136,24.3201516 34.80512,24.3282863 35.4688,24.3418442 C35.18456,26.1653811 34.98328,28.0648421 34.87856,30.0307368 C34.41072,30.03616 33.94016,30.0415832 33.46688,30.0415832 C32.9936,30.0415832 32.52304,30.03616 32.0552,30.0307368 Z M45.51104,5.71872 C45.94624,5.11810526 46.34336,4.62730947 46.69288,4.23277474 C47.47216,7.728 48.15488,11.0808674 48.49216,14.3645895 C48.94504,18.7736168 48.7356,22.6498189 47.82848,26.5612716 C47.63536,27.3977937 47.4232,28.1895747 47.20288,28.9393263 C45.9612,29.1657432 44.63112,29.3555537 43.22896,29.5141811 C44.31152,21.1421811 45.9068,16.2477811 45.92176,16.1935495 C45.96936,16.04848 45.99792,15.8966316 45.99792,15.7352926 C45.99792,14.9435116 45.37368,14.3022232 44.6012,14.3022232 C43.99056,14.3022232 43.46968,14.7103158 43.282,15.2743242 C43.27656,15.2824589 43.27656,15.2919495 43.2684,15.3082189 C43.0984,15.8261305 41.46232,21.0038905 40.37976,29.7826274 C39.49304,29.8490611 38.59136,29.9032926 37.67336,29.9466779 C37.7672,28.2831242 37.93992,26.6249937 38.1888,24.9777095 C38.79672,20.9849095 39.84528,17.1290442 41.30728,13.5212884 C42.84272,9.74812632 44.43936,7.19653053 45.51104,5.71872 Z M50.75656,26.2250358 C51.94656,26.5626274 52.81696,26.8961516 53.42352,27.1795116 C52.73808,27.5021895 51.71808,27.8831663 50.28328,28.2641432 C50.37168,27.9224842 50.456,27.5767579 50.53896,27.2228968 C50.61784,26.8907284 50.68856,26.5544926 50.75656,26.2250358 Z M66.93376,27.1795116 C66.93376,23.6395453 60.78656,20.5252968 51.51,18.7465011 C51.52224,12.8054316 50.218,7.12738526 48.78728,0.839233684 C48.65944,0.273869474 48.348,0.00271157895 47.90192,0.00271157895 C45.69464,0.00271157895 40.188,6.64472421 37.06408,17.2293726 C35.88224,17.1914105 34.68272,17.1697179 33.46688,17.1697179 C32.25104,17.1697179 31.05288,17.1886989 29.86832,17.2293726 C26.7444,6.64472421 21.23776,0 19.03184,0 C18.5844,0 18.27296,0.273869474 18.14512,0.836522105 C16.7144,7.12467368 15.41288,12.80272 15.42376,18.7437895 C6.1472,20.5252968 0,23.6395453 0,27.1795116 C0,30.1120842 4.21192,32.7518063 10.9208,34.5807663 L9.75936,64.3728842 C9.75936,66.74416 20.37144,68.6653137 33.46416,68.6653137 C46.55552,68.6653137 57.1676,66.74416 57.1676,64.3728842 L56.00752,34.5807663 C62.72048,32.7504505 66.93376,30.1147958 66.93376,27.1795116 Z" id="Fill-1" fill="#F16668" mask="url(#mask-2)"></path>
                </g>
            </g>
        </g>
    </g>
</svg>