<?xml version="1.0" encoding="UTF-8"?>
<svg width="38px" height="50px" viewBox="0 0 38 50" version="1.1" xmlns="http://www.w3.org/2000/svg" xmlns:xlink="http://www.w3.org/1999/xlink">
    <!-- Generator: Sketch 50.2 (55047) - http://www.bohemiancoding.com/sketch -->
    <title>Page 1</title>
    <desc>Created with Sketch.</desc>
    <defs></defs>
    <g id="Page-1" stroke="none" stroke-width="1" fill="none" fill-rule="evenodd">
        <g id="Learning:-QK-Portal" transform="translate(-325.000000, -1537.000000)" fill="#FFFFFF">
            <g id="features" transform="translate(300.000000, 1088.000000)">
                <g id="Page-1" transform="translate(25.000000, 449.000000)">
                    <path d="M30.9288333,7.23322851 L28.8692861,7.23322851 L28.8692861,5.13679245 C28.8692861,4.2687631 28.1600583,3.56446541 27.2859528,3.56446541 L24.0141528,3.56446541 C23.1008333,1.63590147 21.1464194,0.405503145 19.0002639,0.405503145 C16.8541083,0.405503145 14.8996944,1.63595388 13.986375,3.56446541 L10.6609528,3.56446541 C9.78684722,3.56446541 9.07761944,4.2687631 9.07761944,5.13679245 L9.07761944,7.23322851 L7.07164167,7.23322851 C3.28235556,7.23322851 0.210530556,10.2837002 0.210530556,14.0466457 L0.210530556,43.0303983 C0.210530556,46.7933428 3.28235556,49.8438145 7.07164167,49.8438145 L30.9287806,49.8438145 C34.7180667,49.8438145 37.7898917,46.7933428 37.7898917,43.0303983 L37.7898917,14.0466457 C37.7898917,10.2837002 34.7180667,7.23322851 30.9287806,7.23322851 L30.9288333,7.23322851 Z M12.29775,6.7091195 L15.1469056,6.7091195 C15.8911778,6.69888365 16.5282056,6.17479036 16.678675,5.45005241 C16.8518547,4.29743187 17.8517667,3.44371069 19.0268639,3.44371069 C20.2020139,3.44371069 21.1998306,4.29743187 21.3750528,5.45005241 C21.5234903,6.17479036 22.1605444,6.69889937 22.9047639,6.7091195 L25.7539194,6.7091195 L25.7539194,10.6399371 L12.2438639,10.6399371 L12.29775,6.7091195 Z M34.6232778,43.0303983 C34.6232778,44.0028826 34.23363,44.9364256 33.5409111,45.6243187 C32.8481922,46.3122133 31.9080722,46.6991625 30.9288333,46.6991625 L7.07169444,46.6991625 C5.03273056,46.6991625 3.37725,45.0551887 3.37725,43.0303983 L3.37725,14.0466457 C3.37725,12.0198113 5.03273056,10.3778826 7.07169444,10.3778826 L9.07767222,10.3778826 L9.07767222,12.2122642 C9.07767222,13.0802935 9.7869,13.7845912 10.6610056,13.7845912 L27.2860056,13.7845912 C28.1601111,13.7845912 28.8693389,13.0802935 28.8693389,12.2122642 L28.8693389,10.3778826 L30.8753167,10.3778826 C32.9163389,10.3778826 34.5697611,12.0198113 34.5697611,14.0466457 L34.6232778,43.0303983 Z" id="Fill-1"></path>
                    <path d="M10.4505278,22.3789308 L16.9939167,22.3789308 C17.8680222,22.3789308 18.57725,21.6746331 18.57725,20.8066038 C18.57725,19.9385744 17.8680222,19.2342767 16.9939167,19.2342767 L10.4505278,19.2342767 C9.57642222,19.2342767 8.86719444,19.9385744 8.86719444,20.8066038 C8.86719444,21.6746331 9.57642222,22.3789308 10.4505278,22.3789308 Z" id="Fill-2"></path>
                    <path d="M27.5494722,25.5235849 L10.4505278,25.5235849 C9.57642222,25.5235849 8.86719444,26.2278826 8.86719444,27.0959119 C8.86719444,27.9639413 9.57642222,28.668239 10.4505278,28.668239 L27.5494722,28.668239 C28.4235778,28.668239 29.1328056,27.9639413 29.1328056,27.0959119 C29.1328056,26.2278826 28.4235778,25.5235849 27.5494722,25.5235849 Z" id="Fill-3"></path>
                    <path d="M27.5494722,31.8128931 L10.4505278,31.8128931 C9.57642222,31.8128931 8.86719444,32.5171908 8.86719444,33.3852201 C8.86719444,34.2532495 9.57642222,34.9575472 10.4505278,34.9575472 L27.5494722,34.9575472 C28.4235778,34.9575472 29.1328056,34.2532495 29.1328056,33.3852201 C29.1328056,32.5171908 28.4235778,31.8128931 27.5494722,31.8128931 Z" id="Fill-4"></path>
                    <path d="M27.547526,38.1022013 L10.4503628,38.1022013 C9.57634834,38.1022013 8.86719444,38.806499 8.86719444,39.6745283 C8.86719444,40.5425577 9.57634834,41.2468553 10.4503628,41.2468553 L27.547526,41.2468553 C28.4215405,41.2468553 29.1306944,40.5425577 29.1306944,39.6745283 C29.1306944,38.806499 28.4215405,38.1022013 27.547526,38.1022013 Z" id="Fill-5"></path>
                </g>
            </g>
        </g>
    </g>
</svg>