<?xml version="1.0" encoding="UTF-8"?>
<svg width="66px" height="66px" viewBox="0 0 66 66" version="1.1" xmlns="http://www.w3.org/2000/svg" xmlns:xlink="http://www.w3.org/1999/xlink">
    <!-- Generator: Sketch 51.2 (57519) - http://www.bohemiancoding.com/sketch -->
    <title>Fill 1</title>
    <desc>Created with Sketch.</desc>
    <defs></defs>
    <g id="Page-1" stroke="none" stroke-width="1" fill="none" fill-rule="evenodd">
        <g id="Homepage" transform="translate(-1006.000000, -2720.000000)" fill="#C8E8E5">
            <path d="M1039,2720 C1020.79555,2720 1006,2734.79555 1006,2753 C1006,2771.20445 1020.79555,2786 1039,2786 C1057.20445,2786 1072,2771.20445 1072,2753 C1072,2734.79555 1057.20445,2720 1039,2720 Z M1039,2723.3 C1055.42245,2723.3 1068.7,2736.57755 1068.7,2753 C1068.7,2769.42245 1055.42245,2782.7 1039,2782.7 C1022.57755,2782.7 1009.3,2769.42245 1009.3,2753 C1009.3,2736.57755 1022.57755,2723.3 1039,2723.3 Z M1039,2729.075 C1038.08796,2729.075 1037.35,2729.81299 1037.35,2730.725 L1037.35,2753 C1037.35,2753.60908 1037.68193,2754.13116 1038.175,2754.41801 C1044.11434,2757.84366 1050.08883,2761.29513 1056.0412,2764.73051 C1056.83075,2765.1849 1057.8298,2764.92709 1058.28421,2764.13754 C1058.73862,2763.34799 1058.48079,2762.34894 1057.69124,2761.89453 L1040.65004,2752.04568 L1040.65004,2730.72438 C1040.65004,2729.81234 1039.91205,2729.07438 1039.00004,2729.07438 L1039,2729.075 Z" id="Fill-1"></path>
        </g>
    </g>
</svg>