<svg width="166" height="153" xmlns="http://www.w3.org/2000/svg" xmlns:xlink="http://www.w3.org/1999/xlink"><defs><path id="a" d="M0 162h172V0H0z"/></defs><g transform="translate(-4 -6)" fill="none" fill-rule="evenodd"><path d="M82 101.255s5.304-2.89 8 .1c0 0-1.767 5.481-3.72 5.58 0 0-1.676 1.096-4.28-5.68" fill="#2C2F4A"/><path d="M64.566 59.795s5.464-.48 9.108-.192c0 0-5.562-3.655-11.409-5.098 0 0-1.15-1.635 1.342-.961 0 0 10.621.728 19.059 10.923 0 0-5.349-15.637-13.211-21.215 0 0-.287-1.347 1.438-.481 0 0 10.546 7.31 12.56 14.138 0 0-.767-11.444-1.15-15.869 0 0-.097-9.426-4.986-13.082 0 0 0-1.25 1.247-.673 0 0 4.985 4.424 4.985 8.08 0 0 2.014-11.735 4.986-15.197 0 0 1.054-.673 1.054.674 0 0-5.56 17.119-4.986 23.276l1.631-2.404s.575-.867 1.247-.29c0 0 1.15.674-.097 2.02-1.246 1.347-3.835 9.137-.383 16.159 0 0-1.438-9.137 7.957-20.583 0 0 1.15-.673 1.533 1.057 0 0-3.354 3.175-3.643 7.888 0 0 5.85-2.983 7.192-4.81 0 0 2.685.386 1.15 2.405 0 0-10.642 4.81-11.409 18.274 0 0 6.71-7.213 7.286-9.426 0 0 1.55.121 1.534 1.155 0 0-2.013 2.982-2.3 5.58 0 0 4.506-7.889 15.052-8.753 0 0 1.15.768.383 2.018 0 0-8.053-.48-9.875 4.521 0 0 5.85-.288 6.807.866 0 0 2.397 1.924-.382 2.694 0 0-8.439-4.52-10.26 3.943l-.96 22.41s.193 2.598-1.053 4.425c-1.247 1.827-4.89 6.733-4.89 6.733s-1.438-.961-1.917-.961c-.48 0 5.56-8.272 5.56-8.272s-.286-1.828-3.355-.577l.48-20.102-1.631.575-.479 19.621s-2.78-2.307-5.657-.287l.096-17.41-.767-1.442-.767 1.634-.287 17.025s-2.11-1.444-3.643.673l5.272 8.465-2.014.865-4.889-7.597s-.671-1.637-.575-5.195c.096-3.56.383-19.237.383-19.237s.096-6.732-6.232-6.348l-6.135.577s-1.439-1.538 0-2.212" fill="#2C2F4A"/><path d="M44 42.488s1.39 13.797 15 9.778c0 0-1.294-12.902-15-9.778M54.767 32s-5.8 8.182 3.618 13c0 0 5.428-7.65-3.618-13M62.149 43s-4.725 4.03-.163 9c0 0 4.42-3.765.163-9M60.225 55s-7.088 4.926-.247 11c0 0 6.632-4.602.247-11M55 55.033s-9.538-1.07-8.976 8.938c0 0 8.919 1.007 8.976-8.938M49 54.753s-5.051-4.872-9 1.628c0 0 4.72 4.56 9-1.628M65.56 64s-6.495 1.456-3.982 9c0 0 6.077-1.359 3.983-9M68.573 64s-3.047 6.268 4.915 8c0 0 2.854-5.861-4.915-8M74.693 6s-9.448 9.429 1.88 18c0 0 8.842-8.812-1.88-18M89.843 8s-9.62.337-7.552 11c0 0 8.996-.312 7.552-11M86 20.17s-6.319-1.542-7 4.682c0 0 5.909 1.445 7-4.683M75 26.237s-8.125-2.158-9 6.555c0 0 7.596 2.023 9-6.555M72 23.393s-5.115-8.762-13-1.537c0 0 4.778 8.195 13 1.537M68.992 17.993s.539-7.704-6.985-6.94c0 0-.508 7.207 6.985 6.94M76.204 30s-8.629 5.328-1.162 13c0 0 8.072-4.98 1.162-13M61.353 32s-2.605 7.75 6.336 9c0 0 2.439-7.246-6.336-9M66 47.96s2.136 5.263 7 1.939c0 0-1.997-4.923-7-1.938M116 30.492s-10.742-8.233-17 5.23c0 0 10.041 7.706 17-5.23M95.948 22s-8.43 6.047-.655 14c0 0 7.885-5.651.655-14M106.678 18s-7.604.993-5.213 9c0 0 7.112-.924 5.213-9" fill="#5DBE89"/><path d="M87.32 39s6.397-.895 4.233-7c0 0-5.982.833-4.232 7M130 58.857s-4.854-13.215-17-5.368c0 0 4.534 12.361 17 5.368M123.43 72s3.518-9.03-6.923-11c0 0-3.296 8.443 6.923 11M112.884 64s3.485-4.878-1.862-8c0 0-3.26 4.561 1.862 8M113.327 51s5.225-6.71-2.793-11c0 0-4.89 6.272 2.793 11M117.468 49s8.974-1.452 5.885-11c0 0-8.393 1.353-5.885 11M124 49.337s6.634 2.993 9-3.74c0 0-6.203-2.802-9 3.74M120 20.198s-8.624-5.093-12 5.72c0 0 8.064 4.769 12-5.72M108 43.076s-2.092-6.624-8-2.983c0 0 1.953 6.195 8 2.983M107 45.11s-7.842-1.649-8 7.794c0 0 7.333 1.546 8-7.793" fill="#5DBE89"/><path d="M93.913 90.502l.074-.101-.02-.125a1.546 1.546 0 0 0-.744-1.025c-.608-.348-1.468-.333-2.557.05l.473-20.163-2.21.794-.465 19.347c-.884-.546-2.892-1.465-5.006-.276l.094-16.998-1.074-2.048-1.01 2.186-.304 16.722c-.761-.334-2.33-.72-3.55.99l-.119.166 5.134 8.367-1.441.629-4.67-7.36c-.006-.017-.637-1.644-.547-5.09.094-3.531.377-19.152.38-19.31.001-.133.023-3.271-1.98-5.219-1.113-1.083-2.625-1.577-4.503-1.457l-5.91.565c-.2-.255-.522-.763-.45-1.146.037-.189.17-.339.406-.462.573-.049 5.553-.46 8.895-.189l.187-.554c-.056-.037-5.53-3.665-11.25-5.127-.116-.2-.183-.429-.14-.492.002-.001.171-.2 1.26.093.103.007 10.461.837 18.622 10.854l.51-.292c-.216-.64-5.356-15.708-13.054-21.36-.003-.103.012-.224.07-.269.091-.069.391-.054.904.203.102.072 10.355 7.353 12.292 14.026l.582-.106c-.008-.115-.763-11.541-1.137-15.909-.004-.39-.15-9.483-4.91-13.264.022-.12.073-.278.179-.344.113-.075.318-.052.577.063.422.392 4.792 4.514 4.792 7.851l.59.052c.019-.116 1.994-11.647 4.827-15.068.128-.07.322-.133.413-.083.063.037.132.181.139.478-.383 1.199-5.484 17.366-4.926 23.435l.077.836 2.077-3.11c.042-.067.25-.32.468-.351.106-.017.21.026.367.155a.756.756 0 0 1 .324.494c.042.3-.125.668-.487 1.065-1.284 1.41-3.928 9.326-.428 16.556l.56-.18c-.014-.091-1.292-9.14 7.758-20.366.09-.042.312-.122.516-.027.208.094.373.353.481.751-.624.648-3.306 3.666-3.566 7.99l-.032.528.463-.24c.233-.12 5.56-2.891 7.092-4.763.362.082.974.302 1.14.718.116.289.009.665-.32 1.122-.94.468-10.65 5.615-11.374 18.564l-.049.835.563-.61c.262-.288 6.24-6.831 7.185-9.331.343.067.956.255 1.012.737-.334.518-2.004 3.215-2.269 5.65l.554.183c.043-.077 4.46-7.728 14.525-8.623.193.165.653.661.297 1.406-1.265-.043-8.146-.05-9.865 4.744l-.154.427.448-.02c2.176-.108 5.862 0 6.525.802.247.201.931.894.828 1.41-.076.367-.558.598-.991.733-.682-.35-4.264-2.035-7.164-.667-1.665.787-2.772 2.43-3.3 4.933l-.946 22.528c.003.024.165 2.525-.99 4.248-1.063 1.582-3.936 5.528-4.658 6.518-.377-.246-.997-.622-1.46-.783.573-1.108 3.496-5.29 5.37-7.896zM90.144 100l.168-.23c.036-.048 3.617-4.948 4.838-6.766 1.275-1.902 1.102-4.523 1.093-4.599l.942-22.44c.478-2.258 1.474-3.758 2.959-4.46 2.879-1.36 6.71.685 6.747.705l.104.057.114-.032c.899-.252 1.41-.664 1.523-1.224.196-.969-.91-1.903-.994-1.963-.88-1.075-5.025-1.045-6.5-.997 1.995-4.3 9.21-3.918 9.286-3.913l.176.01.093-.154c.72-1.19.01-2.114-.467-2.437l-.085-.058-.103.008c-7.92.66-12.485 5.401-14.25 7.698.622-2.071 1.905-4.018 1.922-4.041l.048-.075.001-.09c.017-1.044-1.117-1.413-1.789-1.465l-.249-.02-.061.245c-.446 1.746-4.935 6.881-6.553 8.69 1.125-12.513 10.935-17.172 11.036-17.218l.069-.032.045-.061c.497-.665.645-1.263.44-1.774-.366-.906-1.713-1.112-1.77-1.122l-.177-.026-.106.146c-1.05 1.453-5.12 3.726-6.522 4.482.48-4.253 3.43-7.14 3.46-7.171l.123-.117-.036-.168c-.152-.698-.444-1.147-.867-1.336-.541-.242-1.067.065-1.088.079l-.08.067c-4.832 5.981-6.732 11.33-7.474 14.765-.404 1.867-.52 3.376-.534 4.43-2.37-6.548-.025-13.263.97-14.357.496-.543.712-1.068.64-1.564-.09-.623-.582-.915-.569-.898-.305-.266-.597-.291-.79-.263-.514.073-.845.56-.88.612l-1.11 1.664c-.033-6.67 4.9-22.182 4.953-22.346l.016-.094c0-.535-.15-.888-.448-1.054-.449-.252-.992.083-1.05.125l-.067.057c-2.321 2.746-4.025 10.368-4.689 13.755-1.039-3.273-4.566-6.485-4.74-6.641l-.073-.05c-.482-.225-.88-.239-1.186-.041-.454.297-.467.921-.467.992v.152l.118.09c4.657 3.537 4.806 12.796 4.809 12.913.28 3.283.773 10.509 1.007 13.982-3.003-6.264-11.429-12.248-11.852-12.54-.725-.373-1.24-.425-1.568-.163-.4.317-.29.912-.276.978l.025.115.094.07c6.171 4.447 10.822 15.51 12.379 19.595-8.12-9.017-17.833-9.807-17.909-9.807-.998-.274-1.583-.224-1.844.156-.325.473.107 1.145.198 1.276l.065.092.107.028c4.23 1.058 8.349 3.346 10.186 4.453-3.48-.13-7.82.256-7.868.259l-.1.028c-.551.262-.729.645-.782.918-.157.832.605 1.688.692 1.783l.098.11 6.2-.593c1.693-.106 3.055.328 4.044 1.288 1.813 1.763 1.798 4.746 1.798 4.774-.003.158-.285 15.774-.378 19.303-.097 3.594.562 5.266.614 5.384l4.967 7.841 2.538-1.109-5.284-8.614c1.31-1.626 3-.493 3.073-.444l.454.311.292-17.576.48-1.037.443.848-.098 17.98.47-.336c2.619-1.867 5.125.187 5.23.275l.47.395.485-20.104L90.524 70l-.474 20.198.42-.174c1.377-.57 2.092-.453 2.45-.25.262.145.38.36.43.49-5.72 7.959-5.556 8.287-5.46 8.484l.106.178h.183c.237 0 1.082.475 1.73.916l.235.158zM54.93 44.437c3.392 2.37 4.264 6.35 4.436 7.366-4.076 1.062-7.439.751-9.998-.924-3.606-2.361-4.548-6.785-4.732-7.898 4.242-.842 7.705-.352 10.293 1.456m-5.901 6.919C50.699 52.452 52.682 53 54.954 53c1.487 0 3.099-.234 4.827-.705a.29.29 0 0 0 .217-.31c-.022-.208-.602-5.14-4.713-8.015-2.789-1.952-6.507-2.456-11.049-1.5a.291.291 0 0 0-.234.315c.026.231.671 5.717 5.026 8.571M55.277 32.7c2.771 1.545 4.427 3.43 4.924 5.607.638 2.791-.841 5.284-1.328 6.007-2.794-1.35-4.487-3.093-5.036-5.183-.756-2.887.904-5.644 1.44-6.432m3.562 12.27l.143.031c.099 0 .196-.044.258-.123.097-.126 2.398-3.12 1.587-6.689-.55-2.418-2.397-4.486-5.488-6.148a.335.335 0 0 0-.42.083c-.108.14-2.664 3.47-1.704 7.145.609 2.334 2.501 4.252 5.624 5.7" fill="#2C2F4A"/><path d="M64.374 46.93c-.157 1.725-1.387 2.953-1.873 3.375-1.334-1.301-1.967-2.641-1.886-3.99.11-1.8 1.484-3.15 2.02-3.61 1.282 1.414 1.867 2.835 1.74 4.226m-1.893-4.873c-.093.07-2.317 1.712-2.474 4.219-.098 1.595.665 3.155 2.266 4.642a.312.312 0 0 0 .21.081l.182-.059c.085-.061 2.088-1.54 2.313-3.952.154-1.635-.551-3.283-2.092-4.894a.311.311 0 0 0-.405-.037M61.404 60.593c-.206 2.453-1.847 4.168-2.408 4.69-1.706-1.802-2.516-3.664-2.413-5.538.143-2.561 1.976-4.452 2.591-5.018 1.642 1.959 2.393 3.932 2.23 5.866m-1.99-6.496a.275.275 0 0 0-.382-.036c-.116.091-2.832 2.289-3.022 5.642-.12 2.13.812 4.22 2.772 6.213a.277.277 0 0 0 .2.084l.17-.06c.104-.082 2.55-2.06 2.823-5.286.186-2.186-.675-4.393-2.562-6.557M52.675 62.475c-2.21 1.917-5.163 1.944-6.044 1.906-.118-2.971.645-5.237 2.265-6.732 2.239-2.065 5.512-2.076 6.481-2.027-.07 3.052-.978 5.356-2.702 6.853m3.05-7.436c-.179-.019-4.398-.46-7.248 2.166-1.811 1.669-2.635 4.183-2.452 7.476.01.147.124.267.273.284.042.004.322.035.765.035 1.28 0 3.916-.249 6.019-2.069 1.916-1.661 2.898-4.214 2.918-7.59a.308.308 0 0 0-.275-.302M44.9 57.326c-2.003.226-3.655-.986-4.205-1.448 1.181-1.898 2.56-2.97 4.097-3.19 2.075-.296 3.9 1.058 4.501 1.567-1.32 1.863-2.796 2.896-4.393 3.071m5.043-2.934a.345.345 0 0 0-.04-.43c-.095-.094-2.375-2.312-5.185-1.914-1.785.254-3.356 1.505-4.67 3.72a.342.342 0 0 0 .05.414c.08.079 1.866 1.818 4.306 1.818.18 0 .362-.01.548-.03 1.845-.2 3.523-1.405 4.99-3.578M65.692 69.802c-1.028 1.706-2.909 2.367-3.58 2.553-.706-1.967-.683-3.641.068-4.98 1.016-1.811 3.108-2.526 3.843-2.727.599 2.06.488 3.792-.331 5.154m.477-5.796c-.128.023-3.133.632-4.508 3.078-.876 1.555-.881 3.482-.015 5.726a.3.3 0 0 0 .278.19l.058-.006c.115-.021 2.82-.568 4.22-2.885.947-1.572 1.052-3.557.31-5.903a.3.3 0 0 0-.343-.2M73.067 71.345c-1.977-.55-3.32-1.534-3.99-2.927-.904-1.882-.334-4.024-.093-4.745 1.993.69 3.332 1.781 3.983 3.243.815 1.832.315 3.766.1 4.429m-4.173-8.332a.289.289 0 0 0-.35.169c-.05.118-1.207 2.951.014 5.497.778 1.62 2.332 2.734 4.62 3.313l.07.008a.286.286 0 0 0 .263-.18c.045-.108 1.088-2.658-.018-5.149-.749-1.69-2.296-2.919-4.599-3.658M75.18 6.723c3.332 2.864 5.084 5.963 5.207 9.217.162 4.265-2.57 7.55-3.3 8.349-3.41-2.587-5.246-5.49-5.46-8.635-.3-4.43 2.753-8.06 3.553-8.93m1.761 18.217l.18.059a.295.295 0 0 0 .21-.086c.157-.153 3.854-3.82 3.662-8.991-.13-3.507-2.03-6.823-5.642-9.853a.302.302 0 0 0-.403.015c-.175.173-4.287 4.252-3.926 9.606.23 3.399 2.221 6.512 5.92 9.25" fill="#2C2F4A"/><path d="M83.107 11.507c1.916-2.328 5.177-2.8 6.148-2.891.392 2.982-.163 5.355-1.654 7.056-1.91 2.18-4.845 2.627-5.732 2.715-.566-2.88-.15-5.193 1.238-6.88M81.617 19h.01c.163-.004 4.003-.156 6.448-2.942 1.657-1.887 2.25-4.513 1.757-7.802A.295.295 0 0 0 89.514 8c-.182.005-4.45.173-6.894 3.134-1.55 1.88-1.99 4.447-1.31 7.628.031.139.16.237.308.237M81.516 21.391c1.42-1.028 3.223-.804 3.877-.679-.33 1.862-1.065 3.19-2.186 3.95-1.388.945-3.016.758-3.615.644.217-1.83.864-3.146 1.924-3.915m-2.514 4.12a.294.294 0 0 0 .207.316c.047.013.62.173 1.425.173.824 0 1.89-.169 2.876-.836 1.32-.892 2.155-2.452 2.486-4.634a.297.297 0 0 0-.204-.334c-.106-.03-2.616-.727-4.593.703-1.258.91-1.998 2.461-2.197 4.612M66.659 32.224c.305-2.57 1.265-4.421 2.854-5.5 2.169-1.473 4.936-1.092 5.811-.923-.476 2.617-1.567 4.483-3.243 5.548-2.125 1.353-4.623 1.027-5.422.875m9.337-6.612a.309.309 0 0 0-.229-.347c-.152-.041-3.766-.98-6.607.945-1.807 1.226-2.869 3.32-3.159 6.226-.014.151.082.29.23.33.068.019.896.234 2.052.234 1.187 0 2.72-.227 4.136-1.125 1.896-1.204 3.1-3.31 3.577-6.263M59.805 20.96c2.31-1.847 4.592-2.623 6.78-2.31 3.024.436 5.037 2.857 5.593 3.604-2.488 1.756-4.891 2.449-7.143 2.057-2.89-.5-4.72-2.67-5.23-3.35m5.111 3.922c.45.078.9.117 1.358.117 2.096 0 4.28-.822 6.508-2.451l.218-.16-.144-.223c-.093-.145-2.323-3.534-6.173-4.09-2.444-.352-4.964.525-7.488 2.614l-.195.161.135.21c.084.13 2.09 3.178 5.781 3.822M67.673 13.016c1.558 1.453 1.703 3.638 1.703 4.392-2.263-.003-3.993-.549-5.15-1.695-1.451-1.437-1.598-3.406-1.603-4.095 2.201-.149 3.896.324 5.05 1.398M69.256 18c.142 0 .288-.003.433-.008a.303.303 0 0 0 .3-.272c.01-.128.228-3.155-1.877-5.122-1.337-1.25-3.297-1.77-5.82-1.548a.305.305 0 0 0-.283.273c-.008.113-.205 2.84 1.763 4.794 1.26 1.25 3.103 1.883 5.484 1.883" fill="#2C2F4A"/><path d="M71.63 36.491c.357-3.07 2.728-5.174 3.46-5.757 1.827 2.462 2.583 4.869 2.25 7.157-.425 2.935-2.553 4.85-3.218 5.384-1.913-2.279-2.751-4.56-2.492-6.784M74.08 44l.16-.05c.127-.088 3.128-2.207 3.676-5.957.371-2.544-.485-5.194-2.545-7.88a.28.28 0 0 0-.385-.062c-.142.098-3.477 2.452-3.935 6.358-.29 2.482.657 5.003 2.814 7.49.058.067.136.101.215.101M62.594 37.336c-1.413-2.17-.89-4.835-.673-5.673 2.667.581 4.536 1.724 5.555 3.396 1.29 2.121.836 4.528.642 5.295-2.632-.414-4.489-1.428-5.524-3.018zM68.35 41c.136 0 .26-.083.302-.21.046-.13 1.069-3.242-.624-6.032-1.148-1.892-3.259-3.155-6.27-3.752a.32.32 0 0 0-.366.204c-.05.146-1.187 3.604.66 6.444 1.174 1.807 3.278 2.93 6.251 3.345l.047.001zM69.137 47.732c1.245.414 1.954 1.481 2.21 1.939-1.211.72-2.329.937-3.326.638-1.309-.393-2.085-1.583-2.362-2.086 1.288-.665 2.457-.83 3.478-.49m-1.284 3.11a3.73 3.73 0 0 0 1.072.157c.926 0 1.911-.331 2.946-.992a.279.279 0 0 0 .106-.346c-.033-.075-.819-1.844-2.652-2.458-1.246-.416-2.652-.195-4.182.66a.277.277 0 0 0-.12.353c.037.084.908 2.048 2.83 2.626M99.685 35.463c1.907-3.664 4.391-5.888 7.386-6.615 4.224-1.02 8.253 1.269 9.23 1.883-2.185 3.636-4.874 5.814-7.992 6.471-4.085.866-7.727-1.18-8.624-1.739m17.276-4.677a.29.29 0 0 0-.084-.382c-.196-.138-4.843-3.357-9.945-2.123-3.239.784-5.898 3.19-7.9 7.154a.285.285 0 0 0 .092.364c.15.105 3.172 2.201 7.11 2.201.707 0 1.443-.066 2.196-.227 3.361-.705 6.231-3.058 8.53-6.987M92.663 27.608c.29-3.102 2.959-5.31 3.764-5.908 2.206 2.394 3.176 4.777 2.885 7.086-.376 2.97-2.768 4.974-3.501 5.525-2.299-2.209-3.359-4.463-3.148-6.703M95.783 35l.182-.054c.142-.093 3.5-2.323 3.98-6.085.323-2.552-.764-5.163-3.236-7.761a.336.336 0 0 0-.422-.046c-.16.105-3.89 2.584-4.258 6.498-.234 2.486.952 4.963 3.527 7.361a.337.337 0 0 0 .226.087M102.467 21.529c1.328-2.06 3.84-2.719 4.661-2.885.54 2.458.277 4.48-.776 6.012-1.335 1.937-3.595 2.548-4.343 2.703-.67-2.359-.516-4.32.458-5.83M101.795 28l.039-.001c.132-.017 3.243-.44 5.008-2.997 1.196-1.735 1.468-4.015.805-6.772a.304.304 0 0 0-.328-.228c-.147.02-3.605.49-5.353 3.198-1.11 1.721-1.265 3.937-.457 6.589a.3.3 0 0 0 .286.211M91.975 32.645c.583 1.778.486 3.265-.29 4.427-1.038 1.554-3.034 2.119-3.777 2.281-.476-1.856-.292-3.392.55-4.572 1.044-1.462 2.84-1.984 3.517-2.136m-4.057 1.803c-.99 1.386-1.182 3.18-.563 5.33a.32.32 0 0 0 .314.222l.048-.003c.125-.017 3.073-.447 4.518-2.609.92-1.374 1.01-3.117.27-5.183a.334.334 0 0 0-.357-.202c-.112.015-2.766.403-4.23 2.445M119.985 59.818c-3.923-1.435-5.86-5.107-6.304-6.06 3.64-2.105 6.969-2.68 9.898-1.707 4.125 1.37 6.252 5.461 6.735 6.503-3.861 1.934-7.337 2.36-10.33 1.264m10.995-1.237c-.089-.22-2.218-5.428-7.204-7.087-3.166-1.055-6.742-.417-10.63 1.891a.294.294 0 0 0-.125.36c.08.2 1.995 4.88 6.749 6.624 1.15.422 2.366.631 3.638.631 2.296 0 4.783-.684 7.433-2.051a.29.29 0 0 0 .139-.368M122.994 71.318c-2.777-.827-4.68-2.282-5.66-4.323-1.257-2.62-.62-5.482-.383-6.329 2.747.629 4.646 1.932 5.65 3.874 1.383 2.682.654 5.855.393 6.778m-6.18-11.311c-.138-.032-.272.051-.322.193-.052.15-1.27 3.726.332 7.072 1.087 2.271 3.203 3.858 6.285 4.719l.072.009a.286.286 0 0 0 .267-.199c.058-.166 1.412-4.143-.348-7.558-1.118-2.17-3.233-3.594-6.286-4.236M113.394 64.282c-1.569-1.061-2.488-2.315-2.736-3.729-.307-1.753.514-3.299.855-3.848 1.586.936 2.53 2.098 2.81 3.455.373 1.818-.551 3.524-.929 4.122m-1.833-8.246a.287.287 0 0 0-.37.08c-.063.085-1.54 2.086-1.114 4.54.29 1.662 1.38 3.11 3.243 4.299l.155.045c.088 0 .175-.04.231-.117.07-.093 1.71-2.315 1.194-4.843-.33-1.61-1.452-2.956-3.339-4.004M110.755 40.668c2.02 1.182 3.225 2.66 3.579 4.392.484 2.368-.768 4.578-1.206 5.26-2-1.344-3.173-2.938-3.488-4.74-.397-2.288.718-4.288 1.115-4.912m2.302 10.29l.145.042c.084 0 .167-.04.22-.112.086-.114 2.086-2.842 1.455-5.943-.4-1.971-1.771-3.622-4.076-4.91a.27.27 0 0 0-.35.076c-.077.103-1.877 2.557-1.357 5.565.353 2.04 1.686 3.817 3.963 5.281M123.818 37.652c.885 2.83.77 5.205-.34 7.064-1.533 2.567-4.562 3.425-5.47 3.632-.732-2.955-.493-5.407.712-7.294 1.545-2.419 4.27-3.21 5.098-3.402m-5.592 3.068c-1.34 2.095-1.583 4.807-.72 8.056a.3.3 0 0 0 .285.224l.047-.004c.17-.027 4.192-.697 6.145-3.963 1.24-2.074 1.347-4.707.317-7.827a.297.297 0 0 0-.328-.202c-.153.025-3.769.628-5.746 3.716M127.055 45.935c1.825-.724 3.67-.092 4.296.172-.655 1.998-1.692 3.315-3.085 3.917-1.88.814-3.918.095-4.604-.196.795-2.005 1.935-3.315 3.393-3.893m-3.896 4.315c.08.04 1.47.75 3.184.75.684 0 1.42-.114 2.146-.426 1.617-.697 2.793-2.226 3.499-4.542a.302.302 0 0 0-.147-.353c-.102-.052-2.509-1.28-4.991-.301-1.683.666-2.972 2.18-3.831 4.501a.3.3 0 0 0 .14.37M113.417 20.05c2.924-1.118 6.028.101 6.902.497-1.247 2.85-2.998 4.685-5.205 5.456-2.841.99-5.647-.089-6.448-.448 1.042-2.845 2.64-4.697 4.75-5.504m-5.26 5.909c.106.055 2 1.04 4.438 1.04.856 0 1.778-.121 2.713-.448 2.442-.85 4.348-2.88 5.67-6.037a.286.286 0 0 0-.133-.365c-.16-.084-3.95-2.053-7.64-.643-2.344.896-4.089 2.95-5.188 6.103a.29.29 0 0 0 .14.35M102.519 42.093c-1.68-.65-2.536-2.135-2.811-2.704 1.71-.837 3.249-1.024 4.575-.552 1.773.629 2.706 2.281 3.004 2.907-1.808.758-3.411.874-4.768.35m5.464-.3c-.042-.106-1.008-2.62-3.475-3.5-1.569-.559-3.368-.32-5.349.708a.287.287 0 0 0-.142.352c.037.094.908 2.36 3.257 3.275.635.247 1.311.371 2.03.371 1.085 0 2.262-.282 3.52-.846a.286.286 0 0 0 .159-.36M104.712 51.138c-1.925 1.436-4.336 1.312-5.109 1.226.096-2.457.868-4.279 2.3-5.418 1.96-1.555 4.633-1.398 5.477-1.3-.254 2.512-1.15 4.359-2.668 5.492m-3.18-4.646c-1.627 1.29-2.48 3.35-2.532 6.12-.001.141.1.264.242.29.052.01.543.098 1.273.098 1.183 0 2.99-.23 4.554-1.395 1.717-1.278 2.7-3.359 2.93-6.186a.293.293 0 0 0-.24-.309c-.15-.026-3.666-.65-6.227 1.382M127.503 94.264c1.163.605-.387 3.577-1.211 5.045a3.368 3.368 0 0 1-.423-.835c-.197-.633.567-4.764 1.634-4.21m26.584 12.693c-6.582 3.329-14.388 1.814-20.562-1.734a30.445 30.445 0 0 1-4.626-3.263c-.519-.445-1.192-1.015-1.778-1.63.255-.494.503-.996.74-1.504.671-1.438 2.678-7.126-1.147-5.554-1.988.818-2.575 3.631-2.007 5.522.184.612.497 1.194.891 1.751-.915 1.625-1.994 3.388-3.418 4.545-3.605 2.932-9.015.38-12.803-.974-3.22-1.15-6.715-2.308-10.129-1.292-3.466 1.033-5.855 4.153-9.666 4.208-.775.012-.777 1.213 0 1.202 4.285-.06 7.019-3.754 11.096-4.431 5.575-.925 10.58 3.13 16.004 3.7 4.806.507 7.648-2.282 9.762-5.931 1.606 1.706 3.892 3.107 5.577 4.153 6.715 4.17 15.373 5.964 22.674 2.27.693-.348.083-1.387-.608-1.038M4 145.971h166V145H4M11.967 118.207v8.55h.415c1.326 0 2.287-.419 2.883-1.255.596-.837.976-2.07 1.14-3.7h.585v10.994h-.585c-.123-1.197-.382-2.178-.778-2.942-.396-.765-.855-1.278-1.38-1.541-.522-.264-1.284-.395-2.28-.395v5.916c0 1.155.049 1.863.146 2.121.097.26.279.47.547.635.267.166.699.249 1.294.249h1.25c1.95 0 3.515-.455 4.692-1.364 1.176-.908 2.021-2.292 2.535-4.15H23L22.06 138H4v-.574h.693c.606 0 1.095-.109 1.465-.324.267-.145.472-.393.615-.744.113-.248.171-.898.171-1.952v-13.814c0-.949-.026-1.533-.078-1.75a1.49 1.49 0 0 0-.57-.837c-.39-.287-.924-.433-1.603-.433H4V117h17.49v6.21h-.586c-.297-1.518-.716-2.607-1.255-3.268-.54-.661-1.304-1.145-2.289-1.456-.576-.187-1.652-.279-3.236-.279h-2.157zM31.686 135.679C29.908 137.227 28.313 138 26.9 138c-.832 0-1.524-.269-2.074-.806-.552-.539-.826-1.213-.826-2.022 0-1.095.478-2.081 1.433-2.958.957-.877 3.04-2.041 6.253-3.496v-1.445c0-1.086-.06-1.77-.18-2.052-.119-.281-.345-.527-.678-.738a2.058 2.058 0 0 0-1.121-.314c-.677 0-1.234.148-1.67.444-.27.186-.405.4-.405.646 0 .216.145.483.436.799.397.442.594.867.594 1.276 0 .502-.19.931-.57 1.283-.38.354-.876.53-1.487.53-.657 0-1.206-.194-1.647-.583-.44-.39-.662-.846-.662-1.368 0-.739.296-1.442.89-2.113.591-.672 1.419-1.187 2.477-1.545a10.268 10.268 0 0 1 3.305-.538c1.383 0 2.479.29 3.282.87.807.577 1.327 1.205 1.567 1.881.146.43.22 1.419.22 2.967v5.579c0 .655.026 1.068.076 1.236.053.168.131.295.235.377a.56.56 0 0 0 .357.123c.271 0 .548-.19.826-.57l.469.37c-.52.759-1.058 1.309-1.614 1.652-.556.343-1.187.515-1.894.515-.832 0-1.48-.193-1.949-.576-.467-.384-.754-.966-.857-1.745m0-1.12v-4.812c-1.258.726-2.194 1.506-2.805 2.337-.408.552-.609 1.112-.609 1.674 0 .472.172.886.514 1.245.26.277.624.416 1.091.416.52 0 1.124-.287 1.81-.86M48.005 123.03l.234 4.828h-.53c-.632-1.432-1.289-2.41-1.966-2.936-.68-.525-1.356-.786-2.03-.786-.425 0-.79.137-1.089.414-.301.278-.45.6-.45.962 0 .274.103.536.31.787.332.414 1.26 1.124 2.784 2.127 1.525 1.004 2.527 1.857 3.01 2.56.482.7.722 1.485.722 2.352 0 .789-.202 1.56-.606 2.317a4.177 4.177 0 0 1-1.71 1.74 4.993 4.993 0 0 1-2.443.605c-.695 0-1.623-.21-2.783-.634-.311-.112-.523-.167-.638-.167-.343 0-.627.25-.855.757h-.513l-.249-5.086h.529c.467 1.332 1.106 2.33 1.92 2.997.814.665 1.584.998 2.31.998.498 0 .903-.149 1.22-.446a1.43 1.43 0 0 0 .475-1.082c0-.484-.156-.903-.466-1.256-.312-.354-1.007-.89-2.084-1.606-1.586-1.068-2.613-1.887-3.079-2.452-.685-.826-1.028-1.74-1.028-2.74 0-1.088.387-2.076 1.159-2.959.773-.882 1.89-1.324 3.352-1.324a5 5 0 0 1 2.286.56c.28.15.507.227.684.227a.82.82 0 0 0 .451-.113c.114-.077.296-.29.545-.644h.528zM55.442 118v5.302H59v1.535h-3.558v8.946c0 .837.04 1.378.12 1.62.079.244.222.44.424.588.205.15.391.226.563.226.692 0 1.35-.512 1.97-1.534l.481.34c-.866 1.985-2.27 2.977-4.216 2.977-.95 0-1.753-.257-2.41-.767-.658-.513-1.077-1.084-1.258-1.713-.108-.352-.16-1.303-.16-2.854v-7.829H49v-.542c1.347-.92 2.492-1.887 3.437-2.9A17.633 17.633 0 0 0 54.913 118h.529zM79.618 130.846L85.369 117H94v.574h-.689c-.626 0-1.125.107-1.502.324-.26.146-.468.388-.624.728-.115.249-.171.893-.171 1.937v13.845c0 1.073.056 1.745.171 2.013.116.27.349.503.703.705.355.2.828.302 1.423.302H94V138H82.932v-.572h.687c.626 0 1.126-.11 1.5-.324.261-.146.47-.394.626-.744.114-.249.172-.899.172-1.952v-15.564L77.787 138h-.374l-8.254-19.018v14.79c0 1.034.027 1.67.08 1.904.133.518.429.94.881 1.263.453.327 1.165.489 2.134.489V138H65v-.572h.22c.469.01.907-.065 1.313-.225.406-.16.714-.374.922-.643.209-.268.37-.644.485-1.131.022-.112.031-.639.031-1.578v-13.288c0-1.063-.057-1.726-.171-1.991-.116-.264-.35-.495-.704-.697-.355-.2-.829-.301-1.424-.301H65V117h8.662l5.956 13.846z" fill="#2C2F4A"/><path d="M100.686 135.679C98.908 137.227 97.313 138 95.9 138c-.832 0-1.524-.269-2.074-.806-.55-.539-.826-1.213-.826-2.022 0-1.095.478-2.081 1.435-2.958.955-.877 3.04-2.041 6.251-3.496v-1.445c0-1.086-.06-1.77-.178-2.052-.12-.281-.347-.527-.678-.738a2.063 2.063 0 0 0-1.123-.314c-.677 0-1.232.148-1.668.444-.273.186-.407.4-.407.646 0 .216.145.483.436.799.397.442.594.867.594 1.276 0 .502-.19.931-.57 1.283-.38.354-.876.53-1.487.53-.655 0-1.204-.194-1.647-.583-.44-.39-.662-.846-.662-1.368 0-.739.296-1.442.89-2.113.591-.672 1.419-1.187 2.477-1.545A10.277 10.277 0 0 1 99.97 123c1.38 0 2.477.29 3.28.87.807.577 1.327 1.205 1.567 1.881.147.43.22 1.419.22 2.967v5.579c0 .655.026 1.068.076 1.236.053.168.131.295.235.377a.564.564 0 0 0 .359.123c.27 0 .546-.19.826-.57l.467.37c-.52.759-1.058 1.309-1.614 1.652-.555.343-1.186.515-1.894.515-.832 0-1.48-.193-1.949-.576-.467-.384-.752-.966-.857-1.745m0-1.12v-4.812c-1.257.726-2.194 1.506-2.805 2.337-.406.552-.609 1.112-.609 1.674 0 .472.172.886.514 1.245.26.277.624.416 1.091.416.52 0 1.122-.287 1.81-.86M113.21 117v17.995c0 1.023.12 1.676.365 1.96.243.283.717.446 1.425.488V138h-8v-.557c.655-.022 1.14-.207 1.456-.56.213-.236.318-.865.318-1.888v-14.99c0-1.012-.12-1.66-.365-1.944-.243-.284-.712-.447-1.409-.489V117h6.21zM121.173 138l-4.786-11.293c-.578-1.36-1.028-2.223-1.354-2.586-.233-.27-.577-.451-1.033-.545V123h7.553v.576c-.476 0-.8.09-.973.265a1.075 1.075 0 0 0-.364.81c0 .384.223 1.105.669 2.164l2.34 5.469 1.87-4.72c.536-1.35.803-2.305.803-2.867 0-.32-.114-.584-.34-.787-.227-.201-.63-.312-1.208-.334V123H129v.576c-.446.061-.81.234-1.095.514-.284.28-.709 1.105-1.277 2.477L121.887 138h-.714zM141 129.993h-7.871c.09 1.877.597 3.36 1.518 4.45.707.838 1.554 1.256 2.548 1.256.614 0 1.17-.168 1.673-.506.5-.338 1.037-.947 1.61-1.825l.522.334c-.777 1.563-1.636 2.672-2.579 3.323-.941.65-2.03.975-3.268.975-2.128 0-3.74-.806-4.834-2.421-.88-1.303-1.319-2.917-1.319-4.844 0-2.363.646-4.242 1.941-5.64 1.294-1.396 2.81-2.095 4.55-2.095 1.453 0 2.714.588 3.783 1.762 1.068 1.176 1.644 2.919 1.726 5.23zm-3.775-1.015c0-1.625-.09-2.74-.268-3.345-.18-.606-.458-1.064-.836-1.376-.215-.183-.502-.274-.86-.274-.532 0-.966.259-1.304.772-.605.899-.906 2.13-.906 3.694v.529h4.174zM146.708 123.435v3.303c.927-1.506 1.739-2.505 2.436-3 .697-.492 1.37-.738 2.018-.738.557 0 1.004.178 1.336.537.335.357.502.864.502 1.518 0 .696-.162 1.237-.486 1.62-.325.385-.714.577-1.172.577-.53 0-.987-.177-1.376-.53-.388-.353-.618-.55-.688-.593a.645.645 0 0 0-.342-.091c-.29 0-.565.113-.822.341-.409.352-.717.856-.927 1.512-.32 1.006-.479 2.118-.479 3.333v3.349l.015.873c0 .59.035.971.105 1.138.12.28.297.484.53.613.235.131.63.211 1.187.242V138H141v-.561c.609-.052 1.02-.226 1.233-.521.215-.296.32-1.078.32-2.345v-8.054c0-.83-.04-1.36-.119-1.589-.1-.289-.244-.503-.434-.638-.188-.135-.523-.228-1-.28v-.577h5.708zM160.042 123.435v1.884c.761-.809 1.49-1.399 2.187-1.767a4.744 4.744 0 0 1 2.253-.552c.962 0 1.76.261 2.394.785a3.772 3.772 0 0 1 1.268 1.955c.17.593.254 1.73.254 3.412v5.67c0 1.12.103 1.82.309 2.096.207.275.637.45 1.293.521V138h-7.5v-.561c.56-.072.961-.302 1.204-.685.17-.26.256-.904.256-1.932v-6.48c0-1.195-.049-1.948-.144-2.259a1.376 1.376 0 0 0-.483-.723 1.218 1.218 0 0 0-.754-.259c-.909 0-1.755.64-2.537 1.917v7.804c0 1.09.103 1.781.308 2.072.207.291.59.473 1.15.545V138H154v-.561c.623-.063 1.067-.26 1.332-.593.179-.227.27-.903.27-2.024v-8.224c0-1.1-.104-1.786-.309-2.055-.207-.271-.638-.449-1.293-.532v-.576h6.042zM111.428 53.202a17.217 17.217 0 0 0-4.153.393c-2.977.673-4.955 2.137-5.718 4.239l-.103.281.298-.014c1.587-.08 5.863-.09 6.62.817.28.225.98.934.866 1.496-.072.344-.442.617-1.1.81-.574-.293-4.217-2.035-7.142-.675-1.642.765-2.736 2.369-3.255 4.802l-.952 22.302c.003.024.172 2.531-1.011 4.27-1.099 1.613-4.115 5.7-4.736 6.536-.363-.236-1.138-.715-1.631-.85.441-.938 3.499-5.259 5.454-7.94l.049-.067-.013-.083c-.004-.024-.1-.604-.698-.943-.61-.347-1.49-.31-2.622.106l.475-19.974-2.017.715-.47 19.269c-.79-.516-2.958-1.636-5.222-.276l.095-16.936-.971-1.88-.93 1.983-.299 16.676c-.672-.325-2.319-.859-3.583.886l-.078.11 5.18 8.33-1.631.702-4.742-7.379c-.006-.015-.649-1.64-.556-5.082.094-3.498.378-18.969.38-19.126.002-.13.023-3.197-1.956-5.095-1.096-1.053-2.585-1.532-4.443-1.417l-5.987.565c-.214-.256-.59-.816-.504-1.258.042-.224.198-.399.475-.537.476-.04 5.563-.458 8.966-.189l.776.062-.651-.427c-.055-.038-5.562-3.637-11.304-5.077-.113-.186-.248-.5-.157-.63.044-.06.264-.242 1.353.049.105.007 10.546.832 18.767 10.788l.693.84-.352-1.033c-.053-.155-5.384-15.576-13.109-21.138-.01-.119-.003-.314.104-.399.076-.058.326-.152 1.025.198.104.073 10.429 7.304 12.383 13.948l.51 1.733-.122-1.803c-.007-.114-.765-11.43-1.14-15.764-.004-.385-.15-9.403-4.939-13.097.018-.146.08-.37.234-.468.184-.117.47-.035.687.063.353.322 4.856 4.482 4.856 7.862l.395.033c.021-.115 2.013-11.594 4.88-14.985.1-.058.37-.181.527-.093.12.065.186.27.19.576-.338 1.049-5.505 17.169-4.945 23.188l.053.554 1.928-2.852c.003-.004.24-.35.54-.39.134-.022.267.027.43.165.005.002.32.196.374.562.05.332-.124.715-.513 1.136-1.279 1.385-3.908 9.168-.414 16.29l.579 1.179-.205-1.3c-.003-.022-.34-2.275.45-5.889.731-3.343 2.606-8.549 7.377-14.383.084-.04.358-.15.617-.036.248.11.44.41.558.867-.522.535-3.332 3.6-3.594 7.891l-.021.349.31-.159c.235-.12 5.66-2.904 7.129-4.74.368.074 1.08.31 1.273.785.132.324.016.736-.346 1.227-.778.378-10.656 5.424-11.388 18.314l-.032.553.375-.403c.267-.287 6.391-6.902 7.223-9.287.346.058 1.146.256 1.183.869-.28.424-2.012 3.14-2.281 5.58l-.104.954.475-.832c.044-.076 4.523-7.72 14.7-8.594.191.152.791.727.328 1.597m-.158-1.968l-.057-.04-.07.007c-8.442.693-13.064 5.962-14.551 8 .554-2.247 2.064-4.508 2.082-4.534l.034-.05v-.06c.018-1.2-1.635-1.342-1.704-1.349l-.167-.011-.042.16c-.473 1.825-5.38 7.31-6.8 8.867 1.005-12.68 11.062-17.385 11.164-17.43l.077-.063c.476-.628.62-1.186.428-1.66-.344-.845-1.645-1.04-1.699-1.048l-.118-.016-.07.096c-1.113 1.516-5.523 3.91-6.748 4.555.416-4.354 3.493-7.321 3.525-7.352l.082-.077-.025-.111c-.146-.66-.418-1.08-.813-1.253-.498-.219-.983.06-1.003.072l-.054.046c-4.84 5.907-6.74 11.19-7.483 14.58-.479 2.191-.555 3.875-.534 4.904-2.707-6.682-.233-13.703.802-14.823.477-.515.684-1.01.617-1.468-.08-.55-.532-.83-.537-.83v.002c-.225-.193-.467-.275-.715-.237-.481.065-.804.543-.816.563l-1.29 1.906c-.197-6.441 4.92-22.315 4.972-22.48l.011-.062c0-.49-.135-.81-.397-.957-.4-.224-.899.084-.955.119l-.045.039c-2.412 2.817-4.162 10.876-4.764 13.98-.854-3.341-4.663-6.764-4.845-6.924l-.048-.033c-.451-.207-.82-.225-1.096-.047-.417.269-.423.873-.423.899v.1l.08.06c4.715 3.53 4.865 12.752 4.867 12.86.296 3.435.832 11.218 1.049 14.39-2.777-6.351-11.656-12.572-12.08-12.864-.69-.348-1.171-.403-1.471-.17-.36.28-.244.844-.24.868l.017.076.063.046c6.496 4.619 11.312 16.397 12.655 19.957-8.208-9.291-18.224-10.082-18.29-10.082-.956-.26-1.509-.224-1.745.114-.293.423.148 1.076.2 1.148l.042.063.072.017c4.54 1.123 8.954 3.631 10.59 4.625-3.542-.172-8.227.236-8.279.242l-.065.016c-.414.196-.66.476-.729.84-.151.789.634 1.642.667 1.677l.068.073 6.177-.583c1.728-.108 3.123.333 4.136 1.304 1.854 1.779 1.838 4.774 1.835 4.803-.002.156-.285 15.624-.38 19.122-.095 3.539.558 5.177.603 5.276l4.942 7.695 2.365-1.019-5.282-8.494c1.377-1.765 3.183-.567 3.262-.516l.304.209.29-17.25.574-1.227.55 1.038-.096 17.643.315-.222c2.692-1.893 5.263.187 5.37.277l.317.261.483-19.78 1.215-.43-.477 20 .281-.115c1.126-.462 2.01-.545 2.55-.242.326.182.447.456.49.587-5.737 7.876-5.566 8.215-5.501 8.343l.077.122h.122c.286 0 1.22.54 1.792.924l.157.104.113-.152c.036-.048 3.632-4.9 4.856-6.7 1.26-1.853 1.088-4.416 1.079-4.502l.948-22.245c.487-2.268 1.507-3.778 3.028-4.488 2.936-1.368 6.822.681 6.861.702l.07.039.078-.023c.86-.239 1.35-.62 1.457-1.137.188-.915-.958-1.85-.978-1.86-.889-1.073-5.303-.993-6.607-.945 1.932-4.477 9.407-4.087 9.485-4.082l.12.008.062-.102c.682-1.114.011-1.978-.439-2.28M86.792 106.368l-.07-.003-.07.04c-.004.002-.151.067-.439-.035-.584-.204-1.795-1.102-3.422-4.785 1.06-.453 5.205-2.023 7.497.026-.549 1.446-2.075 4.693-3.496 4.757m-4.544-5.177l-.248.121.104.238c1.363 3.154 2.738 5.015 3.973 5.383.163.05.307.067.43.067.173 0 .3-.035.38-.064 2.135-.186 3.863-4.78 4.055-5.308l.058-.162-.126-.125c-2.911-2.867-8.393-.262-8.626-.15M4.939 156.446h2.679v-.943h-2.68v-1.56h3.024V153H4v6h4v-.943H4.939z" fill="#2C2F4A"/><path fill="#2C2F4A" d="M5.23 156.432v.095h3.314v-1.105H5.337v-1.317h3.617V153H4v6h5v-1.106H5.337v-1.462H5.23v.095-.095h-.107v1.657h3.664v.718H4.214v-5.614H8.74v.72H5.123v1.702H8.33v.72H5.123v.097zM13.997 156.634l.986-2.384.995 2.384h-1.981zm.534-3.634L12 159h1.035l.592-1.44h2.72l.585 1.44H18l-2.532-6h-.937z"/><path d="M14.385 156.613l.097.039 1-2.101.943 1.966h-2.04v.096l.097.039-.097-.039v.097h2.365l-1.269-2.647-1.259 2.647h.163v-.097zm.594-3.518l-.097-.038L12 159h1.385l.659-1.392h2.885l.648 1.392H19l-2.91-6h-1.18l-.028.057.097.038v.097h.972l2.723 5.616h-.954l-.65-1.392h-3.168l-.658 1.392h-.918l2.75-5.673-.097-.04v.097-.097zM23.033 155.975v-2.015h1.504c.766 0 1.219.351 1.219.994v.017c0 .61-.47 1.004-1.21 1.004h-1.513zm3.775-1.064v-.018c0-.522-.177-.967-.489-1.293-.378-.378-.957-.6-1.696-.6H22v6h1.033v-2.092h1.295L25.774 159H27l-1.588-2.271c.814-.24 1.396-.832 1.396-1.818z" fill="#2C2F4A"/><path d="M22.07 155.976h.093v-1.853h1.328c.349 0 .616.083.791.227.174.145.268.35.27.638v.016c-.004.53-.381.867-1.052.875h-1.43v.097h.093-.093v.096h1.43c.366 0 .673-.099.892-.286a.996.996 0 0 0 .345-.782v-.016c.001-.333-.119-.61-.34-.79-.221-.181-.53-.268-.906-.27h-1.514v2.144h.093v-.096zm3.568-1.03h.091v-.017c.002-.526-.175-.984-.487-1.319l-.001-.001c-.379-.387-.953-.609-1.669-.609H21v6h1.163v-2.023h1.083L24.612 159H26l-1.607-2.35-.074.056.025.093c.798-.236 1.39-.855 1.385-1.852h-.185c-.004.911-.508 1.436-1.252 1.666l-.125.037 1.473 2.157h-.931l-1.367-2.024h-1.365v2.024h-.791v-5.613h2.386c.68 0 1.203.21 1.539.553l.065-.07-.067.068c.277.297.435.701.435 1.184v.018h.094zM31.002 153H30v6h4v-.961h-2.998z" fill="#2C2F4A"/><path fill="#2C2F4A" d="M31.047 153.097V153H30v6h4v-1.122h-2.862V153h-.09v.097h-.092v4.974h2.863v.736h-3.637v-5.613h.865v-.097h-.09zM39.009 155.649L37.289 153H36l2.454 3.635V159h1.092v-2.392L42 153h-1.245z"/><path fill="#2C2F4A" d="M39.007 155.66l.083-.05-1.647-2.61H36l2.388 3.644V159h1.223v-2.381L42 153h-1.403l-1.67 2.608.08.052.083-.05-.083.05.081.052 1.615-2.517h.938l-2.225 3.366v2.245h-.835v-2.221l-2.223-3.39h.977l1.672 2.645.081-.128zM52.002 153H51v6h4v-.961h-2.998z"/><path fill="#2C2F4A" d="M51.047 153.097V153H50v6h4v-1.122h-2.862V153h-.09v.097h-.092v4.974h2.861v.736h-3.635v-5.613h.865v-.097h-.09zM58.939 156.446h2.68v-.943h-2.68v-1.56h3.025V153H58v6h4v-.943h-3.061z"/><path fill="#2C2F4A" d="M59.23 156.432v.095h3.312v-1.105h-3.206v-1.317h3.618V153H58v6h5v-1.106h-3.664v-1.462h-.106v.095-.095h-.107v1.657h3.663v.718h-4.572v-5.614h4.527v.72h-3.618v1.702h3.207v.72h-3.207v.097zM67.998 156.634l.986-2.384.994 2.384h-1.98zm.534-3.634L66 159h1.037l.591-1.44h2.72l.584 1.44H72l-2.532-6h-.936z"/><path d="M68.385 156.613l.097.039 1-2.101.943 1.966h-2.04v.096l.097.039-.097-.039v.097h2.365l-1.269-2.647-1.259 2.647h.163v-.097zm.594-3.518l-.098-.038L66 159h1.385l.659-1.392h2.885l.648 1.392H73l-2.91-6h-1.182l-.027.057.098.038v.097h.972l2.723 5.616h-.955l-.649-1.392h-3.168l-.658 1.392h-.918l2.75-5.673-.097-.04v.097-.097zM77.033 155.975v-2.015h1.506c.764 0 1.219.351 1.219.994v.017c0 .61-.471 1.004-1.212 1.004h-1.513zm3.775-1.064v-.018c0-.522-.177-.967-.489-1.293-.378-.378-.957-.6-1.696-.6H76v6h1.033v-2.092h1.295L79.774 159H81l-1.588-2.271c.816-.24 1.396-.832 1.396-1.818z" fill="#2C2F4A"/><path d="M77.069 155.976h.093v-1.853h1.33c.347 0 .615.083.79.227.174.145.268.35.27.638v.016c-.005.53-.382.867-1.053.875h-1.43v.097h.093-.093v.096h1.43c.366 0 .674-.099.894-.286a.999.999 0 0 0 .344-.782v-.016c0-.333-.119-.61-.341-.79-.22-.181-.53-.268-.903-.27h-1.516v2.144h.092v-.096zm3.569-1.03h.093v-.017c0-.526-.177-.984-.487-1.319l-.002-.001h-.002c-.378-.387-.951-.609-1.669-.609H76v6h1.162v-2.023h1.083L79.612 159H81l-1.607-2.35-.075.056.026.093c.798-.236 1.39-.855 1.387-1.852h-.187c-.004.911-.508 1.436-1.251 1.666l-.127.037 1.474 2.157h-.932l-1.367-2.024h-1.364v2.024h-.792v-5.613h2.386c.683 0 1.205.21 1.54.553l.065-.07-.067.068c.277.297.435.701.435 1.184v.018h.094zM88.008 157.148L84.935 153H84v6h.992v-4.27l3.163 4.27H89v-6h-.992z" fill="#2C2F4A"/><path fill="#2C2F4A" d="M87.953 157.112l.073-.06L85.037 153H84v6h1.14v-3.945L88.05 159H89v-6h-1.14v4.112h.093l.073-.06-.073.06h.093v-3.917h.77v5.612h-.676l-3.186-4.318v4.318h-.77v-5.612h.762l3.1 4.2v-.283z"/><mask id="b" fill="#fff"><use xlink:href="#a"/></mask><path fill="#2C2F4A" mask="url(#b)" d="M94 159h1v-6h-1z"/><path fill="#2C2F4A" mask="url(#b)" d="M94.08 158.904V159H95v-6h-1v6h.08v-.096h.08v-5.71h.68v5.613h-.76v.097h.08zM103.008 157.148L99.935 153H99v6h.992v-4.27l3.163 4.27H104v-6h-.992z"/><path fill="#2C2F4A" mask="url(#b)" d="M102.954 157.112l.072-.06-2.988-4.052H99v6h1.14v-3.945l2.91 3.945h.95v-6h-1.139v4.112h.093l.072-.06-.072.06h.09v-3.917h.773v5.612h-.677l-3.185-4.318v4.318h-.77v-5.612h.762l3.098 4.2v-.283zM111.27 156.548h1.641v1.085c-.395.266-.944.44-1.548.44-1.31 0-2.181-.878-2.181-2.073v-.016c0-1.11.896-2.048 2.078-2.048.816 0 1.303.242 1.797.622l.714-.77c-.66-.507-1.346-.788-2.464-.788-1.934 0-3.307 1.375-3.307 3v.018c0 1.69 1.318 2.982 3.325 2.982a4.342 4.342 0 0 0 2.675-.903v-2.436h-2.73v.887z"/><path d="M111.26 156.53v.092h1.48v.96h.105l-.063-.076c-.36.244-.871.408-1.432.407-1.21-.003-1.998-.798-2.004-1.914v-.016a1.892 1.892 0 0 1 1.904-1.889c.766.002 1.197.219 1.668.58l.079.06.824-.89-.079-.06c-.648-.5-1.348-.785-2.446-.784-.96 0-1.787.344-2.37.891A2.868 2.868 0 0 0 108 156v.017c-.001.84.327 1.588.909 2.125.58.536 1.411.859 2.404.859a4.294 4.294 0 0 0 2.65-.898l.037-.028v-2.498h-2.843v1.046h.103v-.092h.104v-.766h2.428v2.267h.104l-.066-.071a4.088 4.088 0 0 1-2.517.853c-1.884-.004-3.102-1.205-3.107-2.797v-.017c.002-1.525 1.281-2.811 3.09-2.813 1.06.002 1.687.262 2.313.742l.066-.072-.079-.06-.69.746.08.06.066-.072c-.485-.376-.99-.626-1.802-.623a2.088 2.088 0 0 0-2.11 2.076V156c0 .6.218 1.126.607 1.503.388.374.944.6 1.603.6.605-.003 1.155-.177 1.556-.447l.04-.026v-1.193h-1.686v.094h.104-.104zM124.812 158.056c-1.046 0-1.804-.92-1.804-2.055v-.017c0-1.136.766-2.048 1.804-2.048.625 0 1.094.29 1.531.722l.617-.754c-.523-.532-1.132-.904-2.14-.904-1.656 0-2.82 1.352-2.82 3.001v.017c0 1.666 1.188 2.982 2.78 2.982 1.024 0 1.65-.398 2.22-1.026l-.618-.663c-.468.464-.898.745-1.57.745" fill="#2C2F4A" mask="url(#b)"/><path d="M125.338 157.991v-.093c-1.141 0-1.967-.84-1.97-1.897v-.017c.003-1.056.838-1.89 1.97-1.89.687 0 1.195.265 1.69.674l.08.066.846-.872-.072-.061c-.612-.525-1.351-.904-2.534-.901-.98 0-1.82.337-2.411.882A2.86 2.86 0 0 0 122 156v.016c0 .83.351 1.578.94 2.116.59.538 1.42.867 2.362.867 1.204.003 1.964-.402 2.628-1.024l.07-.066-.852-.772-.076.061c-.534.444-.991.697-1.734.699v.186c.804.003 1.334-.29 1.878-.747l-.072-.068-.073.064.709.644.075-.065-.077-.066c-.646.6-1.325.965-2.476.968-1.776-.002-3.092-1.232-3.093-2.797V156c.003-1.55 1.29-2.811 3.14-2.814 1.133.003 1.795.347 2.388.85l.072-.068-.079-.061-.709.73.079.062.071-.069c-.512-.427-1.08-.725-1.833-.723a2.226 2.226 0 0 0-1.563.607 2.036 2.036 0 0 0-.616 1.469v.017c0 .571.225 1.092.613 1.47.386.379.936.614 1.566.613v-.093zM131.939 156.446h2.68v-.943h-2.68v-1.56h3.023V153H131v6h4v-.943h-3.061z" fill="#2C2F4A" mask="url(#b)"/><path fill="#2C2F4A" mask="url(#b)" d="M132.23 156.432v.095h3.313v-1.105h-3.207v-1.317h3.618V153H131v6h5v-1.106h-3.664v-1.462h-.106v.095-.095h-.107v1.657h3.663v.718h-4.572v-5.614h4.527v.72h-3.618v1.702h3.208v.72h-3.208v.097zM143.008 157.148L139.934 153H139v6h.992v-4.27l3.163 4.27H144v-6h-.992z"/><path fill="#2C2F4A" mask="url(#b)" d="M142.954 157.112l.072-.06-2.988-4.052H139v6h1.14v-3.945l2.91 3.945h.95v-6h-1.139v4.112h.093l.072-.06-.072.06h.09v-3.917h.772v5.612h-.676l-3.185-4.318v4.318h-.77v-5.612h.762l3.098 4.2v-.283zM148 153.978h1.956V159h1.09v-5.022H153V153h-5z"/><path fill="#2C2F4A" mask="url(#b)" d="M148.097 154.042v.096h1.78V159h1.246v-4.862H153V153h-5v1.138h.097v-.096h.1v-.85h4.604v.753h-1.877v4.862h-.85v-4.862h-1.977v.097h.1zM158.033 155.975v-2.015h1.504c.766 0 1.219.351 1.219.994v.017c0 .61-.47 1.004-1.21 1.004h-1.513zm3.775-1.064v-.018c0-.522-.177-.967-.489-1.293-.378-.378-.957-.6-1.696-.6H157v6h1.033v-2.092h1.295l1.446 2.092H162l-1.589-2.271c.817-.24 1.397-.832 1.397-1.818z"/><path d="M158.07 155.976h.093v-1.853h1.328c.349 0 .616.083.791.227.174.145.268.35.27.638v.016c-.004.53-.381.867-1.052.875h-1.43v.097h.093-.093v.096h1.43c.366 0 .673-.099.892-.286a.996.996 0 0 0 .345-.782v-.016c.001-.333-.119-.61-.34-.79-.221-.181-.53-.268-.906-.27h-1.514v2.144h.093v-.096zm3.568-1.03h.091v-.017c.002-.526-.175-.984-.487-1.319v-.001h-.001c-.379-.387-.952-.609-1.669-.609H157v6h1.163v-2.023h1.083l1.365 2.023H162l-1.607-2.35-.076.056.027.093c.798-.236 1.39-.855 1.385-1.852h-.185c-.004.911-.508 1.436-1.252 1.666l-.125.037 1.473 2.157h-.933l-1.365-2.024h-1.365v2.024h-.791v-5.613h2.386c.682 0 1.203.21 1.539.553l.065-.07-.067.068c.277.297.435.703.435 1.184v.018h.094zM165.939 158.057v-1.611h2.68v-.943h-2.68v-1.56h3.023V153H165v6h4v-.943z" fill="#2C2F4A" mask="url(#b)"/><path fill="#2C2F4A" mask="url(#b)" d="M166.23 157.992h.106v-1.463h3.208v-1.107h-3.208v-1.316h3.618V153H165v6h5v-1.105h-3.77v.097h.106-.106v.097h3.556v.718h-4.572v-5.612h4.527v.718h-3.618v1.702h3.207v.72h-3.207v1.754h.107z"/></g></svg>