<?xml version="1.0" encoding="UTF-8"?>
<svg width="47px" height="36px" viewBox="0 0 47 36" version="1.1" xmlns="http://www.w3.org/2000/svg" xmlns:xlink="http://www.w3.org/1999/xlink">
    <!-- Generator: Sketch 50.2 (55047) - http://www.bohemiancoding.com/sketch -->
    <title>Page 1</title>
    <desc>Created with Sketch.</desc>
    <defs></defs>
    <g id="Page-1" stroke="none" stroke-width="1" fill="none" fill-rule="evenodd">
        <g id="Learning:-QK-Portal" transform="translate(-321.000000, -1248.000000)" fill="#FFFFFF">
            <g id="features" transform="translate(300.000000, 1088.000000)">
                <path d="M23.9002598,160.039925 L31.5510398,160.039925 C32.2284798,160.039925 32.8855038,160.277817 33.4065758,160.712841 L35.9191358,162.806293 C36.023356,162.892388 36.1547608,162.939965 36.2906954,162.939965 L59.8601554,162.939965 C61.4619414,162.939965 62.7601554,164.238179 62.7601554,165.839965 L62.7601554,171.059965 C62.7601554,171.379418 63.020703,171.639965 63.3401554,171.639965 L65.6601554,171.639965 C66.9243814,171.639965 67.9506914,172.666275 67.9506914,173.930501 C67.9506914,174.109483 67.9302986,174.286204 67.8895188,174.460656 L63.2902928,193.770596 C62.9799,195.077858 61.8130908,196 60.4695788,196 L23.8999988,196 C22.2982128,196 21,194.701786 21,193.1 L21,162.94 C21,161.338214 22.2982128,160.04 23.8999988,160.04 L23.9002598,160.039925 Z M64.7177598,175.253325 C64.7290872,175.210277 64.733617,175.164967 64.733617,175.119652 C64.733617,174.8002 64.4753372,174.539652 64.153617,174.539652 L31.254277,174.539652 C30.7309198,174.539652 30.271003,174.890825 30.135051,175.398342 L25.547135,192.367982 C25.5335456,192.417827 25.526748,192.467672 25.526748,192.51978 C25.526748,192.839232 25.7872956,193.09978 26.106748,193.09978 L60.011808,193.09978 C60.2791532,193.09978 60.5125104,192.916262 60.5759508,192.653452 L64.7177598,175.253325 Z M24.4802598,162.939925 C24.1608074,162.939925 23.9002598,163.200472 23.9002598,163.519925 L23.9002598,185.990285 C23.9002598,186.096767 23.970492,186.187392 24.0701824,186.214582 C24.1947896,186.248564 24.3216646,186.176064 24.3556526,186.051457 L27.6702366,173.783297 C28.0123438,172.519071 29.1610106,171.640023 30.4705346,171.640023 L59.2802946,171.640023 C59.599747,171.640023 59.8602946,171.379476 59.8602946,171.060023 L59.8602946,166.420023 C59.8602946,166.100571 59.599747,165.840023 59.2802946,165.840023 L36.0802946,165.840023 C35.4028546,165.840023 34.7458306,165.60213 34.2247586,165.167107 L31.7121986,163.073655 C31.6079784,162.98756 31.4765736,162.939983 31.340639,162.939983 L24.4802598,162.939925 Z" id="Page-1"></path>
            </g>
        </g>
    </g>
</svg>