<?xml version="1.0" encoding="UTF-8"?>
<svg width="55px" height="65px" viewBox="0 0 55 65" version="1.1" xmlns="http://www.w3.org/2000/svg" xmlns:xlink="http://www.w3.org/1999/xlink">
    <!-- Generator: Sketch 50.2 (55047) - http://www.bohemiancoding.com/sketch -->
    <title>Group</title>
    <desc>Created with Sketch.</desc>
    <defs></defs>
    <g id="Page-1" stroke="none" stroke-width="1" fill="none" fill-rule="evenodd">
        <g id="Learning:-Programs" transform="translate(-299.000000, -4776.000000)" fill="#F16668" fill-rule="nonzero" stroke="#F16668" stroke-width="0.3">
            <g id="Group" transform="translate(300.000000, 4777.000000)">
                <path d="M42.9642857,63 L16.0357143,63 C15.464,63 15,62.552 15,62 C15,61.448 15.464,61 16.0357143,61 L42.9642857,61 C43.536,61 44,61.448 44,62 C44,62.552 43.536,63 42.9642857,63 Z" id="Shape"></path>
                <path d="M34,63 L23,63 L23,57 L34,57 L34,63 Z M25.2,61 L31.8,61 L31.8,59 L25.2,59 L25.2,61 Z" id="Shape"></path>
                <path d="M50.9998214,47 C50.7438397,47 50.487858,46.9020035 50.2928719,46.7070105 L45.2932291,41.707189 C44.902257,41.316203 44.902257,40.6842256 45.2932291,40.2932395 C45.6832012,39.9022535 46.3171559,39.9022535 46.7071281,40.2932395 L51.7067709,45.293061 C52.097743,45.684047 52.097743,46.3160244 51.7067709,46.7070105 C51.5117849,46.9020035 51.2558032,47 50.9998214,47 Z" id="Shape"></path>
                <path d="M28.6281116,53 C12.8423588,53 0,40.1574981 0,24.3715694 C0,14.5096053 4.99825622,5.45984028 13.3714487,0.164640934 C13.8655487,-0.14921149 14.5208144,-0.000767775983 14.8346633,0.494398041 C15.1474519,0.989563859 15.0000702,1.64377651 14.5049099,1.95762894 C6.74987253,6.86157306 2.12060086,15.2412207 2.12060086,24.3715694 C2.12060086,38.9879737 14.0118702,50.8793755 28.6281116,50.8793755 C37.7583586,50.8793755 46.1379128,46.2500523 51.0428626,38.4949285 C51.3567116,38.000823 52.0109169,37.8534396 52.5060772,38.1651714 C53.0012375,38.4779635 53.1486193,39.1332365 52.8358307,39.6284023 C47.53963,48.0016881 38.4899659,53 28.6281116,53 Z" id="Shape"></path>
                <path d="M32,58 L26,58 L26,51 L27.076,51.0801228 C28.543,51.1885818 29.508,51.1866276 30.923,51.0801228 L32,51 L32,58 Z M28,56.0457845 L30,56.0457845 L30,53.0929648 C29.303,53.1213009 28.696,53.1213009 28,53.0929648 L28,56.0457845 Z" id="Shape"></path>
                <path d="M29,48 C15.7666087,48 5,37.2333913 5,24 C5,10.7666087 15.7666087,0 29,0 C42.2333913,0 53,10.7666087 53,24 C53,37.2333913 42.2333913,48 29,48 Z M29,2.08695652 C16.9175652,2.08695652 7.08695652,11.9165217 7.08695652,24 C7.08695652,36.0834783 16.9175652,45.9130435 29,45.9130435 C41.0824348,45.9130435 50.9130435,36.0834783 50.9130435,24 C50.9130435,11.9165217 41.0824348,2.08695652 29,2.08695652 Z" id="Shape"></path>
                <path d="M11.9998214,9 C11.7438397,9 11.487858,8.9020035 11.2928719,8.70701046 L6.29322906,3.70718903 C5.90225698,3.31620299 5.90225698,2.68422556 6.29322906,2.29323953 C6.6832012,1.90225349 7.31715592,1.90225349 7.70712806,2.29323953 L12.7067709,7.29306096 C13.097743,7.684047 13.097743,8.31602443 12.7067709,8.70701046 C12.5117849,8.9020035 12.2558032,9 11.9998214,9 Z" id="Shape"></path>
                <path d="M37.943274,40 C37.6788298,40 37.4755708,39.9790368 37.3583857,39.9633144 C36.7164604,39.941303 36.1367573,39.6677332 35.6742392,39.1709053 C34.3520183,37.7443592 34.2234258,34.5181221 34.2825369,32.5549181 C32.8358716,32.319082 31.4866878,31.5287692 30.485948,30.3055663 C29.6065415,29.2322502 28.2262465,28.2742318 27.4816547,27.7994152 C26.6738036,27.2837204 26.023582,26.5583936 25.5994343,25.7030948 L24.4037317,23.2860374 C24.0698061,22.6099741 23.9391396,21.8615877 24.0262506,21.1205384 C24.3083244,18.7317813 25.4708418,15.8472444 26.396915,13.8484029 C26.7080258,13.1775804 27.3540992,12.7384013 28.0852096,12.7006675 C28.8194311,12.6629337 29.5100971,13.0350306 29.8886153,13.6733602 L30.918392,15.4080653 C31.1164659,15.7413803 31.4597248,15.8042699 31.7158727,15.7518619 C31.8579467,15.7225134 32.1949834,15.6093121 32.2509833,15.1921443 L32.2665388,15.0674133 C32.499872,13.0801015 33.7754263,11.3904673 35.5943874,10.655707 L37.9982369,9.68406245 C39.0425322,8.91680918 38.3425329,5.67589783 37.5222374,3.68439345 L36.8315714,2 L39.1566062,2.35951895 C47.5659313,6.29640867 53,14.8850334 53,24.2419595 L53,24.7660396 L50.3182249,26.7984222 C49.603707,27.3403211 48.6931894,27.5520494 47.8158569,27.3770067 C46.9405985,27.2030121 46.1742289,26.6600651 45.714822,25.8865229 L45.1517114,24.9368897 L43.6666758,31.6954267 C43.6480092,35.0715507 42.809047,37.4760302 41.1726042,38.8428311 C39.9976424,39.8239091 38.7127548,40 37.943274,40 Z M28.2003206,14.9007558 C27.4868398,16.45937 26.339878,19.2223203 26.0858042,21.3668561 C26.0463968,21.700171 26.1065449,22.0397749 26.2589892,22.347934 L27.4546917,24.7649914 C27.7087655,25.2785899 28.1007652,25.7146246 28.5881721,26.0259282 C29.6252081,26.6873173 31.0739474,27.7354775 32.0829835,28.969162 C32.8970567,29.9617697 34.0305371,30.5309207 35.1930545,30.5309207 C35.5259431,30.5309207 35.8463872,30.670326 36.072461,30.9145474 C36.2974979,31.1566724 36.4146829,31.4857947 36.3939422,31.8180615 C36.215572,34.6061676 36.5422384,37.0389474 37.1883118,37.735974 C37.3003117,37.8575605 37.3739412,37.8680421 37.4444597,37.8680421 L37.6394225,37.886909 C37.6777928,37.8921498 38.8506805,38.0808187 39.8752721,37.2056049 C40.9994192,36.2465383 41.5926038,34.301153 41.5926038,31.5790809 L41.6174926,31.3516302 L43.3431206,23.5019584 C43.4934908,22.8206543 44.0306755,22.3081039 44.7120081,22.1959508 C45.3943778,22.0817013 46.0632661,22.3982457 46.4189694,22.9977933 L47.4943758,24.8090142 C47.6540793,25.0783913 47.9102272,25.2607712 48.2151158,25.3205164 C48.5200044,25.3802615 48.824893,25.3100348 49.0737816,25.1224141 L50.9197057,23.7231202 C50.7402985,16.1197661 46.6398581,9.13273018 40.216457,5.28912672 C40.733938,7.40850665 40.9890488,10.3035251 39.0186804,11.513102 L38.865199,11.5896177 L36.3649052,12.6000441 C35.2511285,13.050753 34.4702404,14.0884316 34.3260924,15.3095383 L34.3053517,15.4751476 C34.1456481,16.6501352 33.2921675,17.5630827 32.1306871,17.8031114 C30.9360216,18.0473327 29.7610598,17.532686 29.1388382,16.4845258 L28.2003206,14.9007558 Z" id="Shape"></path>
                <path d="M26.0620044,47 L25.1007909,46.8114264 C16.044308,45.0310393 8.64519982,38.1749683 6.25014968,29.3436158 L6,28.4197107 L12.0163659,26.1873791 C12.9350007,25.8481574 13.9632756,25.9745754 14.7690769,26.5255473 C15.5738137,27.0786262 16.0549527,27.986729 16.0549527,28.9569873 L16.0549527,30.5424801 C16.0549527,31.9678433 16.9097195,33.2509863 18.2328516,33.812493 L21.515667,35.2051982 C22.5332972,35.6371265 23.4455452,36.2481469 24.2289927,37.0235108 L24.8729951,37.6608684 C26.7368763,39.5055181 27.4447467,42.2087568 26.7209093,44.7171012 L26.0620044,47 Z M8.57707394,29.7133885 C10.9135784,37.0245643 17.0417134,42.7060011 24.5600418,44.533795 L24.6750042,44.1376852 C25.1870127,42.3646724 24.6867134,40.4536533 23.3689036,39.1504941 L22.7249012,38.5131366 C22.1341222,37.9284532 21.4454122,37.4670274 20.6779317,37.141501 L17.3951163,35.7487957 C15.2874722,34.8554417 13.9260192,32.8116836 13.9260192,30.5424801 L13.9260192,28.9569873 C13.9260192,28.6736003 13.790832,28.4186572 13.5555848,28.2574743 C13.3203377,28.0952378 13.0318672,28.0594194 12.7625571,28.1605538 L8.57707394,29.7133885 Z" id="Shape"></path>
                <path d="M6.07329708,25 C5.84991998,25 5.62976467,24.9318498 5.44397506,24.797679 C5.14864476,24.5857744 4.98218587,24.239699 5.00151658,23.8787158 C5.43538363,15.7251797 9.9297738,8.35111191 17.0230706,4.15135402 C17.481638,3.8787531 18.0712247,3.98310814 18.4073642,4.39413921 C19.4340398,5.64852938 20,7.2191792 20,8.8164502 L20,10.2018166 C20,11.6840841 19.4179308,13.0769044 18.3611853,14.1236493 L15.2661238,17.1925393 C14.9697196,17.487502 14.8676964,17.9155707 14.9997896,18.310629 C15.5431973,19.9270673 14.7194943,21.6883248 13.1236367,22.321909 L6.46205914,24.9286552 C6.33748345,24.9755085 6.20539026,25 6.07329708,25 Z M17.2625566,6.51531511 C11.7565259,10.1134343 8.13309166,15.8774529 7.2975754,22.3187144 L12.325708,20.3423578 C12.8658939,20.1283234 13.1461892,19.5309441 12.9614736,18.9825477 C12.5694897,17.8176047 12.8701896,16.5546958 13.7454413,15.6857804 L16.8405028,12.6168903 C17.4934512,11.9715929 17.8521433,11.1143907 17.8521433,10.2007517 L17.8521433,8.8164502 C17.8521433,8.015685 17.647023,7.22343858 17.2625566,6.51531511 Z" id="Shape"></path>
            </g>
        </g>
    </g>
</svg>