<?xml version="1.0" encoding="UTF-8"?>
<svg width="45px" height="45px" viewBox="0 0 45 45" version="1.1" xmlns="http://www.w3.org/2000/svg" xmlns:xlink="http://www.w3.org/1999/xlink">
    <!-- Generator: Sketch 50.2 (55047) - http://www.bohemiancoding.com/sketch -->
    <title>Page 1</title>
    <desc>Created with Sketch.</desc>
    <defs></defs>
    <g id="Page-1" stroke="none" stroke-width="1" fill="none" fill-rule="evenodd">
        <g id="Learning:-QK-Portal" transform="translate(-940.000000, -1243.000000)" fill="#FFFFFF">
            <g id="features" transform="translate(300.000000, 1088.000000)">
                <path d="M651.658327,170.417817 C650.073471,170.417817 648.78531,169.127745 648.78531,167.542889 C648.78531,165.959944 650.073471,164.669872 651.658327,164.669872 C653.243183,164.669872 654.531344,165.959944 654.531344,167.542889 C654.531344,169.127745 653.243183,170.417817 651.658327,170.417817 Z M657.058127,167.542889 C657.058127,164.566531 654.63493,162.145049 651.658327,162.145049 C648.681724,162.145049 646.258527,164.566335 646.258527,167.542889 C646.258527,170.521158 648.681724,172.942689 651.658327,172.942689 C654.63493,172.942689 657.058127,170.521403 657.058127,167.542889 Z M681.573317,195.867339 C681.573317,196.753553 680.853605,197.475127 679.96744,197.475127 L650.34743,197.475127 C649.461216,197.475127 648.739642,196.753504 648.739642,195.867339 L648.739642,193.784839 L673.752672,193.784839 C676.03617,193.784839 677.885136,191.935873 677.885136,189.654286 L677.885136,164.641256 L679.967636,164.641256 C680.85385,164.641256 681.573513,165.360968 681.573513,166.247133 L681.573317,195.867339 Z M644.132412,191.260212 C643.395501,191.260212 642.779179,190.758746 642.589696,190.081174 L655.243456,179.750994 C655.848312,179.26291 656.606244,179.044708 657.377651,179.136583 C658.147098,179.228458 658.834274,179.617013 659.308937,180.229528 L660.340632,181.563651 C661.251738,182.738867 662.626041,183.493026 664.107507,183.632774 C665.587062,183.76676 667.076221,183.282502 668.195969,182.287185 L675.360259,175.844665 L675.360259,189.654825 C675.360259,190.539128 674.638636,191.260702 673.752471,191.260702 L644.132412,191.260212 Z M642.526535,160.032512 C642.526535,159.146298 643.246247,158.426635 644.132412,158.426635 L673.752427,158.426635 C674.638641,158.426635 675.360215,159.146347 675.360215,160.032512 L675.360215,172.447152 L666.513265,180.405732 C665.912231,180.937823 665.142784,181.192427 664.340801,181.117751 C663.540729,181.043104 662.830621,180.650722 662.33871,180.017162 L661.307015,178.683039 C660.413157,177.528844 659.123085,176.799577 657.674106,176.629253 C656.223265,176.4589 654.799178,176.866594 653.652676,177.78727 L642.526241,186.87334 L642.526535,160.032512 Z M679.96744,162.115012 L677.88494,162.115012 L677.88494,160.032512 C677.88494,157.750974 676.035974,155.900048 673.752476,155.900048 L644.132466,155.900048 C641.848966,155.900048 640,157.750925 640,160.032512 L640,189.654482 C640,191.93602 641.848966,193.785035 644.132466,193.785035 L646.214966,193.785035 L646.214966,195.867535 C646.214966,198.151034 648.063932,200 650.34743,200 L679.96744,200 C682.250938,200 684.099904,198.151034 684.099904,195.867535 L684.099904,166.247525 C684.099904,163.965987 682.250938,162.115061 679.96744,162.115061 L679.96744,162.115012 Z" id="Page-1"></path>
            </g>
        </g>
    </g>
</svg>