<?xml version="1.0" encoding="UTF-8"?>
<svg width="39px" height="45px" viewBox="0 0 39 45" version="1.1" xmlns="http://www.w3.org/2000/svg" xmlns:xlink="http://www.w3.org/1999/xlink">
    <!-- Generator: Sketch 50.2 (55047) - http://www.bohemiancoding.com/sketch -->
    <title>Page 1</title>
    <desc>Created with Sketch.</desc>
    <defs></defs>
    <g id="Page-1" stroke="none" stroke-width="1" fill="none" fill-rule="evenodd">
        <g id="Learning:-QK-Portal" transform="translate(-325.000000, -1392.000000)" fill="#FFFFFF">
            <g id="features" transform="translate(300.000000, 1088.000000)">
                <path d="M52.2057,304.9 L20.5125,304.9 C17.469159,304.901916 15.00392,307.369159 15,310.4125 L15,343.4875 C15.0038269,346.530841 17.469159,348.99804 20.5125,349 L52.2057,349 C52.967503,349 53.583825,348.383678 53.583825,347.623786 L53.583825,306.276116 C53.583825,305.912443 53.4383538,305.562186 53.1799572,305.30376 C52.9215606,305.045363 52.5712792,304.899892 52.2056902,304.899892 L52.2057,304.9 Z M20.5125,346.24571 C18.992716,346.243794 17.761983,345.013066 17.760072,343.493282 L17.760072,310.412402 C17.761983,308.890707 18.996538,307.658063 20.518233,307.658063 L23.266839,307.658063 L23.266839,346.24571 L20.5125,346.24571 Z M50.83321,346.24571 L26.025,346.24571 L26.025,307.65821 L37.05,307.65821 L37.05,320.7466 L41.186286,316.610314 L45.322572,320.7466 L45.322572,307.65821 L50.829192,307.65821 L50.83321,346.24571 Z" id="Page-1" transform="translate(39.500000, 324.500000) scale(-1, 1) translate(-39.500000, -324.500000) "></path>
            </g>
        </g>
    </g>
</svg>