<?xml version="1.0" encoding="UTF-8"?>
<svg width="128px" height="72px" viewBox="0 0 128 72" version="1.1" xmlns="http://www.w3.org/2000/svg" xmlns:xlink="http://www.w3.org/1999/xlink">
    <!-- Generator: Sketch 50.2 (55047) - http://www.bohemiancoding.com/sketch -->
    <title>Group 6</title>
    <desc>Created with Sketch.</desc>
    <defs></defs>
    <g id="Page-1" stroke="none" stroke-width="1" fill="none" fill-rule="evenodd">
        <g id="Centre:-Overview-|-Centre" transform="translate(-1311.000000, -3279.000000)" fill="#5DBF88" fill-rule="nonzero" stroke="#5DBF88" stroke-width="0.7">
            <g id="services" transform="translate(0.000000, 3020.000000)">
                <g id="Group-6" transform="translate(1312.000000, 260.000000)">
                    <g id="boy-broad-smile" transform="translate(64.540984, 0.000000)">
                        <path d="M17.4425474,40.4448471 C18.0835533,40.4448471 18.6861579,40.6953647 19.1394242,41.1502824 C19.3957609,41.4075529 19.73169,41.5363529 20.0677831,41.5361882 C20.4037122,41.5361882 20.7398054,41.4075529 20.9961421,41.1502824 C21.5089796,40.6357412 21.5089796,39.8015059 20.9961421,39.2868 C20.0469414,38.3341412 18.7849509,37.8095529 17.4427115,37.8095529 C16.1004722,37.8095529 14.8384816,38.3341412 13.8892809,39.2868 C13.3764434,39.8013412 13.3764434,40.6355765 13.8892809,41.1502824 C14.4021184,41.6649882 15.2333255,41.6648235 15.7458348,41.1502824 C16.198937,40.6953647 16.8015415,40.4448471 17.4425474,40.4448471 Z" id="Shape"></path>
                        <path d="M41.0759051,39.2868 C40.5630676,39.8013412 40.5630676,40.6355765 41.0759051,41.1502824 C41.5885786,41.6648235 42.4197856,41.6648235 42.932459,41.1502824 C43.8680387,40.2111294 45.3906328,40.2112941 46.3262125,41.1502824 C46.5825492,41.4075529 46.9184783,41.5361882 47.2545715,41.5361882 C47.5906647,41.5361882 47.9265938,41.4075529 48.1829305,41.1502824 C48.695768,40.6357412 48.695768,39.8015059 48.1829305,39.2868 C46.2238091,37.3203765 43.0355188,37.3202118 41.0759051,39.2868 Z" id="Shape"></path>
                        <path d="M44.6222791,52.2853882 C37.1307487,59.8042118 24.9412985,59.8042118 17.4496041,52.2853882 C16.9369306,51.7708471 16.1057236,51.7708471 15.5930502,52.2853882 C15.0802127,52.7999294 15.0802127,53.6343294 15.5930502,54.1488706 C19.8506683,58.422 25.4433049,60.5585647 31.0359416,60.5585647 C36.6287424,60.5585647 42.221379,58.422 46.4789971,54.1488706 C46.9918346,53.6343294 46.9918346,52.8000941 46.4789971,52.2853882 C45.9663237,51.7708471 45.1349525,51.7708471 44.6222791,52.2853882 Z" id="Shape"></path>
                        <path d="M62.0132966,41.8646118 C62.0132966,38.2853882 59.4351599,35.3009176 56.0453449,34.6784941 L56.0453449,12.6354118 C56.0453449,9.77578824 54.6279441,7.12468235 52.2537936,5.54367059 C50.02373,4.05884706 47.2555561,3.72185882 44.7522527,4.60715294 L36.5097641,1.79924706 C30.1761797,-0.358564706 23.5092921,-0.579929412 17.2300275,1.15887059 C9.00952941,3.43527059 4.29667576,8.24896471 3.56918498,15.0915059 C2.92538928,15.9436941 2.41386463,16.9008 2.06628388,17.9335059 L1.42691909,19.8327294 C1.08376926,20.8524235 1.46203821,21.924 2.36857082,22.4991529 C3.27493932,23.0743059 4.40186899,22.9580235 5.17252017,22.2094353 C5.43574941,21.9536471 5.72359485,21.7382118 6.02653823,21.5580235 L6.02653823,34.6784941 C2.6367233,35.3009176 0.0585865574,38.2852235 0.0585865574,41.8646118 C0.0585865574,45.5871294 2.84694565,48.6663059 6.43713645,49.1139765 C7.33874582,54.1104941 9.70797308,58.7194588 13.3306573,62.4077176 C18.060414,67.2230588 24.3480481,69.8748235 31.0359416,69.8748235 C31.0367621,69.8748235 31.0375827,69.8748235 31.0384032,69.8748235 C37.7177631,69.8741647 43.9971917,67.2632471 48.7202201,62.5231765 C52.4095321,58.8204235 54.8041961,54.1645176 55.6761019,49.1087059 C59.2462716,48.6424235 62.0132966,45.5726353 62.0132966,41.8646118 Z M50.8020942,7.73969412 C52.465657,8.84734118 53.4196169,10.6317647 53.4196169,12.6354118 L53.4196169,29.8783059 C49.344651,29.2427059 46.2157678,25.6975765 46.2157678,21.4323529 L46.1071283,6.94482353 C47.7102994,6.52070588 49.3820677,6.79411765 50.8020942,7.73969412 Z M4.29880916,19.5347765 L4.55399711,18.7769647 C5.22240901,16.7914353 6.7067659,15.1794588 8.62633722,14.3546118 C10.5457444,13.5297647 12.7324836,13.5640235 14.6254694,14.4489882 C18.6011499,16.3073647 23.407381,15.3026588 26.3130773,12.0059059 L26.6383394,11.6368 C27.1188476,11.0917882 27.0679742,10.2590353 26.5249408,9.77694118 C25.9817433,9.29484706 25.1520132,9.34574118 24.6716691,9.89075294 L24.346407,10.2598588 C22.2051258,12.6892706 18.663511,13.4294588 15.734019,12.0600941 C13.1652364,10.8592235 10.1976714,10.8126118 7.59278501,11.9321176 C7.35564895,12.0340706 7.1250772,12.1478824 6.89811583,12.2669647 C8.42415616,8.18374118 12.1175709,5.30830588 17.9286353,3.69912941 C23.6988368,2.10115294 29.8322094,2.3072 35.6660848,4.29454118 L43.4814003,6.95701176 L43.5838037,13.7654588 C40.1038934,18.5140941 35.0286893,21.7286588 29.245195,22.834 C23.3230295,23.9656941 17.2815575,22.7681176 12.233267,19.4618118 C9.76655963,17.8465412 6.65654885,17.9155529 4.29880916,19.5347765 Z M2.68431462,41.8646118 C2.68431462,39.746 4.09712042,37.9533412 6.02653823,37.3829647 L6.02653823,44.5249412 C6.02653823,45.1419294 6.04869281,45.7554588 6.09185321,46.3650353 C4.12928559,45.8160706 2.68431462,44.0071059 2.68431462,41.8646118 Z M46.8636662,60.6595294 C42.6365723,64.9020235 37.0163655,67.2387059 31.0382391,67.2393647 C31.0372544,67.2393647 31.0370903,67.2393647 31.0359416,67.2393647 C25.0569947,67.2393647 19.4326852,64.8661176 15.2005039,60.5575765 C10.9778408,56.2584235 8.65226629,50.5645412 8.65226629,44.5247765 L8.65226629,20.9367529 C9.39583965,20.9924235 10.1336692,21.2338824 10.7979784,21.6688706 C16.4180211,25.3495529 23.1434954,26.6828471 29.7360421,25.4228471 C35.08744,24.4000235 39.8948198,21.756 43.5898757,17.8565882 L43.5898757,21.4321882 C43.5898757,27.1525882 47.8922952,31.8806353 53.4194528,32.5350118 L53.4194528,44.7739765 C53.4196169,50.7748706 51.0914166,56.4165412 46.8636662,60.6595294 Z M55.9946356,46.3607529 C56.0271289,45.8346824 56.0453449,45.3058118 56.0453449,44.7741412 L56.0453449,37.3829647 C57.9747627,37.9533412 59.3875685,39.746 59.3875685,41.8646118 C59.3875685,44.0016706 57.9499824,45.8070118 55.9946356,46.3607529 Z" id="Shape"></path>
                    </g>
                    <g id="smiling-girl">
                        <path d="M34.9498035,52.8344076 C32.4270513,55.3663507 28.3222901,55.3663507 25.7997032,52.8344076 C25.2833852,52.3162085 24.4462691,52.3162085 23.9299511,52.8344076 C23.4134678,53.3526066 23.4134678,54.1927725 23.9299511,54.7109716 C25.7068188,56.4943128 28.0408274,57.3859005 30.374836,57.3859005 C32.7088446,57.3859005 35.0428532,56.4943128 36.8197209,54.7109716 C37.3362042,54.1927725 37.3362042,53.3526066 36.8197209,52.8344076 C36.3034029,52.3162085 35.4661215,52.3162085 34.9498035,52.8344076 Z" id="Shape"></path>
                        <path d="M60.2959931,65.9995498 C57.1987462,62.5572749 57.0676834,53.7860427 57.4342625,44.7105924 C58.7833995,43.4388152 59.628614,41.6344076 59.628614,39.6345972 C59.628614,37.8784597 58.9764403,36.2732701 57.9043036,35.0466114 C58.3548423,25.7900237 58.5938295,19.5998341 55.6683029,13.8840521 C53.6724463,9.98395735 50.4429796,6.72530806 46.0698124,4.19867299 C40.9729075,1.25402844 35.158876,-0.191421801 29.2555961,0.0204028436 C24.0702692,0.205853081 19.242762,2.63047393 15.9138001,6.6986019 C11.615337,6.95521327 7.70510411,9.30303318 5.60132311,12.9317536 C5.42067792,13.2432701 5.24598262,13.5635782 5.08203016,13.8838863 C2.15485087,19.6028199 2.39367273,25.7925118 2.84421142,35.0481043 C1.77273588,36.2745972 1.12122321,37.8791232 1.12122321,39.6345972 C1.12122321,41.6337441 1.96577667,43.437654 3.31425253,44.7094313 C3.6808317,53.785545 3.5497689,62.5574408 0.452521987,65.9997156 C0.15965531,66.3251659 0.0459463523,66.7750237 0.148747184,67.201327 C0.251548015,67.6276303 0.557636664,67.9754739 0.966360869,68.1305687 C4.45249903,69.4526066 7.82872955,69.9253555 10.8758982,69.9253555 C14.0414036,69.9253555 16.8517337,69.4147867 19.057985,68.8159716 C22.8915305,67.7755924 25.5954237,66.3152133 26.5179868,65.7762796 C27.7735783,65.9839573 29.0615636,66.0939336 30.374836,66.0939336 C31.6877778,66.0939336 32.9754326,65.9841232 34.2306935,65.7764455 C35.1534219,66.315545 37.8571499,67.7755924 41.6903648,68.8159716 C44.6334105,69.6146682 47.3617644,69.9270142 49.829976,69.9270142 C53.9415134,69.9270142 57.33047,69.0599763 59.7819889,68.130237 C60.1908784,67.9751422 60.4968018,67.6274645 60.5996026,67.2009953 C60.7025687,66.7748578 60.5888597,66.3251659 60.2959931,65.9995498 Z M54.0091107,42.3737204 L54.0091107,35.7859242 C54.0094413,35.7685071 54.0094413,35.7509242 54.0091107,35.7333412 L54.0091107,35.5314692 C55.7334211,36.0926303 56.9840544,37.7193839 56.9840544,39.6344313 C56.9840544,41.5647393 55.7139187,43.2029384 53.9682879,43.751327 C53.9944013,43.2953318 54.0091107,42.8363507 54.0091107,42.3737204 Z M7.43421896,15.0966114 C7.57718153,14.8174408 7.72939948,14.5381043 7.88690622,14.266564 C9.62840519,11.2627014 12.9591852,9.37104265 16.5793611,9.32973934 C16.5834929,9.32973934 16.5934094,9.32957346 16.5977066,9.32940758 C16.999324,9.32094787 17.3751585,9.12985782 17.6195997,8.81004739 C20.4730665,5.07433649 24.7485564,2.83732227 29.3498026,2.67260664 C34.7574238,2.47902844 40.0830688,3.80222749 44.7502596,6.49872038 C48.6747062,8.76609005 51.5566002,11.6588152 53.3157836,15.0966114 C55.6573948,19.6714929 55.7268101,24.6479621 55.3428771,33.1987441 C54.9177907,33.0214218 54.4715492,32.8859005 54.0091107,32.7958294 L54.0091107,31.4464218 C54.0091107,30.7135782 53.4170969,30.1194076 52.6869135,30.1194076 C51.9567301,30.1194076 51.3647163,30.7135782 51.3647163,31.4464218 L51.3647163,34.460237 C33.1516154,34.6554739 23.2919909,25.8509005 20.6611491,23.0961848 C20.3515897,22.7720616 19.8997288,22.6270853 19.4607593,22.7105213 C19.021294,22.7939573 18.6537232,23.0946919 18.4836556,23.5098815 C16.5623378,28.200545 13.2054444,30.6546919 7.9196306,31.2329384 C7.24878081,31.3062559 6.74072654,31.8748815 6.74072654,32.5521564 L6.74072654,32.7956635 C6.27779225,32.8857346 5.83105487,33.0214218 5.40563793,33.1990758 C5.02153964,24.6502844 5.09145082,19.673981 7.43421896,15.0966114 Z M6.7813841,43.7514929 C5.03575326,43.2031043 3.76561759,41.5649052 3.76561759,39.6345972 C3.76561759,37.7193839 5.01625085,36.0926303 6.74056126,35.5316351 L6.74056126,42.3737204 C6.74056126,42.8363507 6.75527071,43.2953318 6.7813841,43.7514929 Z M3.55142165,66.2085545 C5.90922978,62.169455 6.31811926,55.4549289 6.01831105,46.2925592 C6.3693544,46.4013744 6.73262808,46.4816588 7.10482659,46.5334123 C8.60866061,55.030782 14.6360618,61.9773697 22.5902348,64.7704028 C18.7646225,66.4225355 11.5239401,68.6117773 3.55142165,66.2085545 Z M30.374836,63.4399052 C18.8009829,63.4399052 9.38495564,53.9895735 9.38495564,42.3735545 L9.38512091,33.7103081 C14.3438562,32.8913744 17.874288,30.4413744 20.112272,26.2609479 C22.0172276,28.0051422 25.0972859,30.3972512 29.4380593,32.4937678 C35.9647551,35.64609 43.3355086,37.2008531 51.3647163,37.114763 L51.3647163,42.3735545 C51.3647163,53.9897393 41.9486891,63.4399052 30.374836,63.4399052 Z M42.4676515,66.2773934 C40.7722641,65.8225592 39.3094182,65.2730095 38.1546442,64.7720616 C46.1112964,61.9803555 52.1408461,55.0326066 53.6450107,46.5334123 C54.0168786,46.4816588 54.3796565,46.4015403 54.7303693,46.292891 C54.4303958,55.4564218 54.83912,62.1709479 57.1980851,66.2098815 C52.5285804,67.6256398 47.5819102,67.6495261 42.4676515,66.2773934 Z" id="Shape"></path>
                        <path d="M14.5712741,38.4409479 C14.0547908,38.9591469 14.0547908,39.7993128 14.5712741,40.3175118 C15.0875921,40.8357109 15.9247082,40.8357109 16.4410262,40.3175118 C17.2885546,39.4672275 18.6672757,39.4670616 19.5148041,40.3175118 C19.7729631,40.5766114 20.1112803,40.7061611 20.4497628,40.7061611 C20.7882453,40.7061611 21.1265625,40.5766114 21.3847215,40.3175118 C21.9012048,39.7993128 21.9012048,38.9591469 21.3847215,38.4409479 C19.5063751,36.5555924 16.4496205,36.5554265 14.5712741,38.4409479 Z" id="Shape"></path>
                        <path d="M46.1785631,40.3175118 C46.6950464,39.7993128 46.6950464,38.9591469 46.1785631,38.4409479 C44.3000515,36.5555924 41.2434621,36.5555924 39.3651158,38.4409479 C38.8486325,38.9591469 38.8486325,39.7993128 39.3651158,40.3175118 C39.8814338,40.8357109 40.7185499,40.8357109 41.2348679,40.3175118 C42.0823963,39.4670616 43.4612827,39.4672275 44.3086458,40.3175118 C44.5668048,40.5766114 44.905122,40.7061611 45.2436045,40.7061611 C45.5820869,40.7061611 45.9204041,40.5766114 46.1785631,40.3175118 Z" id="Shape"></path>
                    </g>
                </g>
            </g>
        </g>
    </g>
</svg>