<?xml version="1.0" encoding="UTF-8"?>
<svg width="54px" height="56px" viewBox="0 0 54 56" version="1.1" xmlns="http://www.w3.org/2000/svg" xmlns:xlink="http://www.w3.org/1999/xlink">
    <!-- Generator: Sketch 50.2 (55047) - http://www.bohemiancoding.com/sketch -->
    <title>Page 1</title>
    <desc>Created with Sketch.</desc>
    <defs></defs>
    <g id="Page-1" stroke="none" stroke-width="1" fill="none" fill-rule="evenodd">
        <g id="Learning:-Programs" transform="translate(-297.000000, -4077.000000)" fill="#F16668">
            <g id="inclusions" transform="translate(286.000000, 2226.000000)">
                <path d="M62.0009221,1879 C62.0009221,1892.72316 51.2334606,1903.88825 38.0005724,1903.88825 C31.9235745,1903.88825 26.3688521,1901.52905 22.1362739,1897.65188 L25.1225453,1894.55587 L45.5013077,1894.55587 C46.331225,1894.55587 47.0008824,1893.86056 47.0008824,1893.00072 C47.0008824,1892.13944 46.331225,1891.44413 45.5013077,1891.44413 L28.1216947,1891.44413 L34.1228553,1885.22206 L51.5010374,1885.22206 C52.3309547,1885.22206 53.0006121,1884.52675 53.0006121,1883.66691 C53.0006121,1882.80706 52.3309547,1882.11175 51.5010374,1882.11175 L37.1220047,1882.11175 L43.1217345,1875.88968 L54.5016177,1875.88968 C55.331535,1875.88968 56.0011924,1875.19437 56.0011924,1874.33309 C56.0011924,1873.47325 55.331535,1872.77794 54.5016177,1872.77794 L46.1223148,1872.77794 L55.5604777,1862.9906 C56.1457125,1862.38256 56.1457125,1861.39824 55.5604777,1860.7902 C54.973812,1860.18359 54.0251307,1860.18359 53.438465,1860.7902 L44.001733,1870.57897 L44.001733,1861.88897 C44.001733,1861.02912 43.3306447,1860.33381 42.5007274,1860.33381 C41.672241,1860.33381 41.0011527,1861.02912 41.0011527,1861.88897 L41.0011527,1873.68929 L35.0014229,1879.91135 L35.0014229,1865.00072 C35.0014229,1864.13944 34.3303346,1863.44413 33.5018482,1863.44413 C32.6719309,1863.44413 32.0008426,1864.13944 32.0008426,1865.00072 L32.0008426,1883.0231 L26.0011129,1889.24516 L26.0011129,1871.22278 C26.0011129,1870.3615 25.3314555,1869.66619 24.5015382,1869.66619 C23.6716209,1869.66619 23.0019635,1870.3615 23.0019635,1871.22278 L23.0019635,1892.35547 L20.0156921,1895.45292 C16.2767716,1891.06356 14.0016535,1885.30361 14.0016535,1879 C14.0016535,1865.27684 24.769115,1854.11175 38.0020032,1854.11175 L62.0009221,1854.11175 L62.0009221,1879 Z M63.5004968,1851 L38.0005724,1851 C23.1135731,1851 11.0010732,1863.56144 11.0010732,1879 C11.0010732,1886.16059 13.6095891,1892.7017 17.8893868,1897.65617 L11.4389261,1904.34321 C10.8536913,1904.95125 10.8536913,1905.93557 11.4389261,1906.54218 C11.7351207,1906.84835 12.1171688,1907 12.5006479,1907 C12.8855578,1907 13.2676059,1906.84835 13.5623697,1906.54504 L20.0128303,1899.85657 C24.7891475,1904.29457 31.096519,1907 38.0005724,1907 C52.8875716,1907 65.0000715,1894.43856 65.0000715,1879 L65.0000715,1852.55516 C65.0000715,1851.69531 64.3304141,1851 63.5004968,1851 Z" id="Page-1"></path>
            </g>
        </g>
    </g>
</svg>