<?xml version="1.0" encoding="UTF-8"?>
<svg width="51px" height="50px" viewBox="0 0 51 50" version="1.1" xmlns="http://www.w3.org/2000/svg" xmlns:xlink="http://www.w3.org/1999/xlink">
    <!-- Generator: Sketch 50.2 (55047) - http://www.bohemiancoding.com/sketch -->
    <title>Page 1</title>
    <desc>Created with Sketch.</desc>
    <defs></defs>
    <g id="Page-1" stroke="none" stroke-width="1" fill="none" fill-rule="evenodd">
        <g id="Learning:-QK-Portal" transform="translate(-940.000000, -1390.000000)" fill="#FFFFFF">
            <g id="features" transform="translate(300.000000, 1088.000000)">
                <g id="Page-1" transform="translate(640.000000, 302.000000)">
                    <path d="M42.7203061,29.8885881 C46.2330612,25.9717826 47.8207224,20.6965848 47.0543173,15.4904207 C46.2879122,10.286287 43.2488327,5.69033736 38.7564092,2.95293628 C34.2658592,0.215639317 28.7916337,-0.382236568 23.8149704,1.32397959 C18.8405969,3.02816535 14.8806031,6.85969388 13.0102561,11.7769159 C11.1420949,16.694294 11.5567561,22.1892441 14.1405306,26.7711891 C16.7263347,31.35303 21.2149592,34.5460746 26.3904184,35.4852666 C27.4454418,35.6784621 28.5167541,35.7760777 29.5900959,35.7760777 C31.7835122,35.7781133 33.9566327,35.3652801 35.9973612,34.5640306 L39.6768031,42.8938932 L39.6747683,42.8938932 C40.3882999,44.5066066 41.7828377,45.7145929 43.480253,46.1884059 C43.6632077,46.2412797 43.8441328,46.2819554 44.031157,46.3124584 L44.031157,46.3144924 C44.3747097,46.3755034 44.7223111,46.408042 45.0719734,46.408042 C47.4707428,46.3999073 49.6275744,44.9438099 50.5300142,42.7210381 C51.4346397,40.5002968 50.9060923,37.9520877 49.1944387,36.2721626 L42.7203061,29.8885881 Z M26.854102,32.9350271 C22.9063378,32.2273011 19.4039388,29.978082 17.1167449,26.6834652 C14.8277816,23.3889525 13.9454764,19.3193461 14.6631245,15.3720325 C15.3807153,11.4267493 17.6371531,7.92669721 20.9366449,5.64900042 C23.4532867,3.89395044 26.4456857,2.9523636 29.5129662,2.9523636 C30.4277397,2.95032799 31.3404836,3.03370991 32.2390203,3.19640254 C37.5487448,4.15834548 41.9420357,7.88195023 43.7650255,12.9642076 C45.5864541,18.0463088 44.5598449,23.7138953 41.0714969,27.8324917 C37.583149,31.952702 32.1636704,33.8966316 26.8539459,32.934949 L26.854102,32.9350271 Z M48.397954,40.7583299 C48.3146054,41.6897647 47.8450203,42.543888 47.1009928,43.1092253 C46.3569652,43.6745627 45.4096662,43.900302 44.488804,43.7315181 L44.1757472,43.658309 L44.177782,43.658309 C43.2223647,43.3918992 42.4376412,42.7126614 42.0392167,41.8056435 L38.329279,33.4226781 C38.7704082,33.1684715 39.201379,32.8959704 39.6242106,32.6051541 C40.0511066,32.3102718 40.4597259,31.9970741 40.8520616,31.6676281 L47.3977555,38.1040087 C48.1133167,38.793409 48.4792157,39.7675344 48.397928,40.757955 L48.397954,40.7583299 Z" id="Fill-1"></path>
                    <path d="M11.0222449,49.2388604 C11.2661862,49.4828993 11.5955265,49.619155 11.939048,49.619155 L30.6310684,49.619155 C32.6435908,49.619155 34.2739255,47.988168 34.2739255,45.9748402 L34.2739255,40.8784725 C34.2739255,40.1605945 33.6925255,39.5769315 32.9729051,39.5769315 C32.2553143,39.5769315 31.6718847,40.1605945 31.6718847,40.8784725 L31.6718847,45.9605753 C31.6718847,46.2351171 31.5621098,46.5015478 31.3669567,46.6967789 C31.1718037,46.8920101 30.9075352,47.0018289 30.6310476,47.0018289 L13.843721,47.0018289 L13.843721,38.8224229 C13.8396566,37.1446324 12.4817088,35.7841576 10.8046414,35.7821272 L2.60196796,35.7821272 L2.60196796,8.66321845 C2.60196796,8.08767701 3.06748867,7.62198563 3.64278429,7.62198563 L9.25330469,7.62198563 C9.97089551,7.62198563 10.5543251,7.03832257 10.5543251,6.32044461 C10.5543251,5.60053623 9.97089551,5.01890358 9.25330469,5.01890358 L3.64278429,5.01890358 C1.63026184,5.01890358 -7.27530612e-05,6.64989067 -7.27530612e-05,8.66321845 L-7.27530612e-05,37.6917482 C-7.27530612e-05,38.0354384 0.136128367,38.3649052 0.380069694,38.6089182 L11.0222449,49.2388604 Z M11.2621218,38.8265306 L11.2621218,45.8142456 L3.8140402,38.3689088 L10.8052035,38.3689088 C11.055244,38.3689088 11.2564962,38.572272 11.2564962,38.8224125 L11.2621218,38.8265306 Z" id="Fill-2"></path>
                </g>
            </g>
        </g>
    </g>
</svg>