<svg width="185" height="127" xmlns="http://www.w3.org/2000/svg" xmlns:xlink="http://www.w3.org/1999/xlink"><defs><path id="a" d="M0 142.137h190.938V.725H0z"/></defs><g fill="none" fill-rule="evenodd"><path fill="#2C2F4A" d="M.784 111.762H184.7v-.788H.784zM1.856 123.712h3.332v-1.052H1.856v-1.74h3.76v-1.051H.689v6.692h4.975v-1.051H1.856z"/><path d="M.8 126.45h4.753v-.83H1.745v-2.02h3.332v-.828H1.745v-1.963h3.76v-.828H.799v6.469zm4.974.223H.578v-6.915h5.148v1.274h-3.76v1.517H5.3v1.275H1.967v1.575h3.807v1.274zM11.532 123.903l1.14-2.676 1.149 2.676h-2.289zm.618-4.082l-2.925 6.74h1.195l.685-1.617h3.143l.673 1.617h1.235l-2.924-6.74H12.15z" fill="#2C2F4A"/><path d="M11.7 123.792h1.951l-.978-2.284-.973 2.284zm2.289.223h-2.625l1.307-3.072 1.318 3.072zm1.006 2.435h.991l-2.827-6.517h-.937l-2.827 6.517h.952l.684-1.617h3.29l.674 1.617zm1.33.223h-1.477l-.673-1.617h-2.997l-.684 1.617H9.056l3.02-6.963h1.228l3.021 6.963z" fill="#2C2F4A"/><g transform="translate(-3 -5.166)"><path d="M24.207 128.352v-2.246h1.7c.865 0 1.377.393 1.377 1.108v.019c0 .68-.533 1.12-1.367 1.12h-1.71zm4.263-1.186v-.019c0-.581-.198-1.08-.55-1.444-.427-.419-1.082-.668-1.918-.668H23.04v6.691h1.167v-2.332h1.462l1.634 2.332h1.386l-1.795-2.533c.921-.267 1.576-.926 1.576-2.027z" fill="#2C2F4A"/><path d="M24.318 128.24h1.598c.776 0 1.257-.384 1.257-1.007 0-.887-.793-1.016-1.266-1.016h-1.589v2.024zm1.598.224h-1.82v-2.47h1.81c.947 0 1.489.444 1.489 1.22 0 .766-.581 1.25-1.479 1.25zm1.445 3.152h1.113l-1.76-2.487.15-.043c.964-.28 1.497-.962 1.497-1.92v-.018c0-.543-.181-1.015-.52-1.366-.422-.415-1.058-.636-1.838-.636H23.15v6.47h.946v-2.334h1.63l.034.048 1.6 2.286zm1.543.223h-1.658l-.034-.048-1.6-2.286h-1.294v2.334h-1.389v-6.915h3.074c.839 0 1.53.242 1.994.7.382.395.584.922.584 1.524v.018c0 1.017-.533 1.753-1.508 2.088l1.831 2.585zM33.826 125.035H32.66v6.692h4.662v-1.07h-3.495z" fill="#2C2F4A"/><path d="M32.77 131.616h4.439v-.848h-3.493v-5.621h-.947v6.469zm4.66.223h-4.882v-6.915h1.389v5.62h3.493v1.295zM42.61 127.989l-1.853-2.955h-1.386l2.64 4.054v2.64h1.177v-2.668l2.64-4.026h-1.34z" fill="#2C2F4A"/><path d="M42.122 131.616h.955v-2.59l2.544-3.879h-1.072l-1.94 3.05-1.912-3.05h-1.12l2.545 3.907v2.562zm1.176.223H41.9v-2.718l-2.733-4.197h1.65l1.794 2.856 1.818-2.856h1.605l-2.736 4.17v2.745zM56.377 125.035h-1.168v6.692h4.663v-1.07h-3.495z" fill="#2C2F4A"/><path d="M55.32 131.616h4.44v-.848h-3.494v-5.621h-.946v6.469zm4.661.223h-4.882v-6.915h1.389v5.62h3.493v1.295zM65.008 128.878h3.332v-1.052h-3.332v-1.74h3.76v-1.051H63.84v6.692h4.975v-1.051h-3.808z" fill="#2C2F4A"/><path d="M63.951 131.616h4.754v-.83h-3.808v-2.02h3.332v-.828h-3.332v-1.963h3.76v-.828H63.95v6.469zm4.975.223H63.73v-6.915h5.148v1.274h-3.76v1.517h3.333v1.275h-3.332v1.575h3.807v1.274zM74.693 129.069l1.14-2.676 1.149 2.676h-2.289zm.618-4.082l-2.925 6.74h1.197l.683-1.617h3.143l.674 1.617h1.234l-2.925-6.74h-1.08z" fill="#2C2F4A"/><path d="M74.861 128.958h1.953l-.98-2.284-.973 2.284zm2.29.223h-2.626l1.307-3.072 1.32 3.072zm1.005 2.435h.991l-2.827-6.517h-.937l-2.827 6.517h.954l.682-1.617h3.29l.674 1.617zm1.33.223H78.01l-.673-1.617h-2.997l-.684 1.617h-1.438l3.022-6.963h1.226l3.021 6.963zM84.378 128.352v-2.246h1.7c.864 0 1.377.393 1.377 1.108v.019c0 .68-.531 1.12-1.367 1.12h-1.71zm4.263-1.186v-.019c0-.581-.198-1.08-.55-1.444-.427-.419-1.082-.668-1.918-.668H83.21v6.691h1.167v-2.332h1.463l1.632 2.332h1.386l-1.793-2.533c.92-.267 1.575-.926 1.575-2.027z" fill="#2C2F4A"/><path d="M84.49 128.24h1.597c.776 0 1.257-.384 1.257-1.007 0-.887-.792-1.016-1.266-1.016h-1.589v2.024zm1.597.224h-1.82v-2.47h1.81c.947 0 1.489.444 1.489 1.22 0 .766-.58 1.25-1.479 1.25zm1.443 3.152h1.115l-1.76-2.487.15-.043c.964-.28 1.497-.962 1.497-1.92v-.018c0-.543-.181-1.015-.52-1.366-.421-.415-1.058-.636-1.84-.636h-2.85v6.47h.946v-2.334h1.63l.034.048 1.598 2.286zm1.545.223h-1.658l-.034-.048-1.6-2.286H84.49v2.334H83.1v-6.915h3.072c.841 0 1.53.242 1.996.7.383.395.584.922.584 1.524v.018c0 1.017-.533 1.753-1.508 2.088l1.831 2.585zM97.472 129.661l-3.56-4.625h-1.083v6.691h1.149v-4.761l3.665 4.761h.978v-6.691h-1.149z" fill="#2C2F4A"/><path d="M97.697 131.616h.812v-6.469h-.925v4.841l-3.727-4.841h-.917v6.469h.927v-4.977l3.83 4.977zm1.034.223h-1.143l-.032-.044-3.467-4.504v4.548h-1.37v-6.915h1.246l.034.042 3.363 4.369v-4.411h1.369v6.915z" fill="#2C2F4A"/><mask id="b" fill="#fff"><use xlink:href="#a"/></mask><path fill="#2C2F4A" mask="url(#b)" d="M103.15 131.727h1.168v-6.692h-1.168z"/><path d="M103.26 131.616h.946v-6.469h-.946v6.47zm-.221.223h1.39v-6.914h-1.39v6.914zM113.49 129.661l-3.56-4.625h-1.083v6.691h1.15v-4.761l3.664 4.761h.979v-6.691h-1.15z" fill="#2C2F4A" mask="url(#b)"/><path d="M113.716 131.616h.813v-6.469h-.928v4.841l-3.725-4.841h-.918v6.469h.927v-4.977l3.831 4.977zm1.034.223h-1.142l-.034-.044-3.467-4.504v4.548h-1.37v-6.915h1.247l.034.042 3.362 4.369v-4.411h1.37v6.915zM122.197 129.012h1.7v1.252c-.408.306-.978.507-1.604.507-1.358 0-2.26-1.014-2.26-2.39v-.019c0-1.282.93-2.362 2.155-2.362.845 0 1.349.277 1.861.717l.74-.889c-.683-.583-1.395-.907-2.553-.907-2.004 0-3.428 1.586-3.428 3.46v.02c0 1.949 1.367 3.441 3.447 3.441a4.23 4.23 0 0 0 2.773-1.042v-2.81h-2.83v1.022z" fill="#2C2F4A" mask="url(#b)"/><path d="M122.236 125.032c-1.86 0-3.317 1.471-3.317 3.349 0 1.98 1.372 3.349 3.335 3.349a4.11 4.11 0 0 0 2.664-.981V128.1h-2.61v.8h1.7v1.42l-.044.035c-.45.335-1.058.528-1.671.528-1.397 0-2.37-1.029-2.37-2.502 0-1.383 1.015-2.492 2.265-2.492.836 0 1.355.265 1.848.672l.597-.719c-.705-.575-1.406-.81-2.397-.81m.018 6.92c-2.093 0-3.556-1.46-3.556-3.551 0-2.024 1.554-3.592 3.538-3.592 1.087 0 1.847.271 2.626.934l.083.071-.882 1.062-.085-.073c-.497-.427-.971-.69-1.79-.69-1.128 0-2.044 1.008-2.044 2.249 0 1.36.884 2.298 2.149 2.298.547 0 1.087-.165 1.494-.454v-1.082h-1.7v-1.245h3.05v2.973l-.038.033a4.321 4.321 0 0 1-2.845 1.068M138.026 130.752c-1.273 0-2.193-1.062-2.193-2.372v-.019c0-1.31.931-2.36 2.193-2.36.76 0 1.329.334 1.861.831l.75-.87c-.635-.611-1.377-1.042-2.602-1.042-2.013 0-3.426 1.558-3.426 3.46v.02c0 1.921 1.443 3.441 3.378 3.441 1.245 0 2.004-.458 2.698-1.184l-.75-.766c-.57.536-1.091.86-1.909.86" fill="#2C2F4A" mask="url(#b)"/><path d="M138.035 125.032c-1.89 0-3.316 1.439-3.316 3.349 0 1.917 1.406 3.349 3.268 3.349 1.046 0 1.789-.312 2.541-1.073l-.597-.611c-.54.494-1.083.817-1.905.817-1.314 0-2.304-1.067-2.304-2.482 0-1.407 1.013-2.492 2.304-2.492.67 0 1.247.242 1.852.784l.605-.703c-.512-.475-1.21-.938-2.448-.938m-.048 6.92c-1.957 0-3.49-1.56-3.49-3.551 0-2.057 1.52-3.592 3.538-3.592 1.379 0 2.128.542 2.68 1.072l.075.074-.893 1.038-.086-.08c-.593-.553-1.144-.8-1.785-.8-1.186 0-2.082.966-2.082 2.249 0 1.307.896 2.278 2.082 2.278.791 0 1.288-.318 1.833-.83l.078-.074.903.92-.075.077c-.816.855-1.646 1.22-2.778 1.22M145.831 128.878h3.332v-1.052h-3.332v-1.74h3.76v-1.051h-4.927v6.692h4.975v-1.051h-3.808z" fill="#2C2F4A" mask="url(#b)"/><path d="M144.775 131.616h4.753v-.83h-3.807v-2.02h3.333v-.828h-3.333v-1.963h3.76v-.828h-4.706v6.469zm4.974.223h-5.196v-6.915h5.15v1.274h-3.761v1.517h3.332v1.275h-3.332v1.575h3.807v1.274zM158.422 129.661l-3.561-4.625h-1.082v6.691h1.148v-4.761l3.665 4.761h.979v-6.691h-1.149z" fill="#2C2F4A" mask="url(#b)"/><path d="M158.647 131.616h.812v-6.469h-.926v4.841l-3.726-4.841h-.917v6.469h.927v-4.977l3.83 4.977zm1.034.223h-1.143l-.034-.044-3.465-4.504v4.548h-1.37v-6.915h1.246l.034.042 3.362 4.369v-4.411h1.37v6.915zM163.559 126.125h2.109v5.602h1.176v-5.602h2.108v-1.09h-5.393z" fill="#2C2F4A" mask="url(#b)"/><path d="M165.777 131.616h.957v-5.604h2.107v-.865h-5.171v.865h2.107v5.604zm1.178.223h-1.4v-5.602h-2.107v-1.313h5.615v1.313h-2.108v5.602zM174.108 128.352v-2.246h1.7c.864 0 1.376.393 1.376 1.108v.019c0 .68-.532 1.12-1.367 1.12h-1.71zm4.262-1.186v-.019c0-.581-.198-1.08-.55-1.444-.427-.419-1.082-.668-1.918-.668h-2.962v6.691h1.168v-2.332h1.463l1.632 2.332h1.386l-1.793-2.533c.92-.267 1.574-.926 1.574-2.027z" fill="#2C2F4A" mask="url(#b)"/><path d="M174.219 128.24h1.598c.775 0 1.257-.384 1.257-1.007 0-.887-.793-1.016-1.267-1.016h-1.588v2.024zm1.598.224h-1.82v-2.47h1.81c.932 0 1.488.455 1.488 1.22 0 .766-.58 1.25-1.478 1.25zm1.444 3.152h1.112l-1.759-2.487.15-.043c.965-.28 1.496-.962 1.496-1.92v-.018c0-.543-.18-1.015-.519-1.368-.42-.413-1.059-.634-1.84-.634h-2.85v6.47h.946v-2.334h1.63l.033.048 1.601 2.286zm1.542.223h-1.656l-.034-.048-1.6-2.286h-1.294v2.334h-1.39v-6.915h3.073c.839 0 1.53.242 1.996.699.382.397.583.923.583 1.525v.018c0 1.017-.534 1.753-1.508 2.088l1.83 2.585zM183.727 130.675v-1.797h3.332v-1.053h-3.332v-1.738h3.759v-1.053h-4.927v6.692h4.975v-1.05z" fill="#2C2F4A" mask="url(#b)"/><path d="M182.669 131.616h4.753v-.83h-3.807v-2.02h3.334v-.828h-3.334v-1.963h3.76v-.828h-4.706v6.469zm4.975.223h-5.197v-6.915h5.15v1.274h-3.76v1.517h3.331v1.275h-3.33v1.575h3.806v1.274z" fill="#2C2F4A" mask="url(#b)"/><path fill="#92818D" mask="url(#b)" d="M152.04 37.3l.1-.592.1-.595.102-.602.106-.603.029-.155-.22-.11-.452-.247-.427-.245-.408-.25-.38-.25-.366-.251-.344-.253-.326-.25-.312-.252-.295-.252-.284-.25-.27-.25-.26-.25-.253-.245-.245-.246-.238-.242-.236-.24-.23-.239-.23-.232-.23-.23-.23-.227-.235-.223-.238-.221-.243-.215-.253-.212-.261-.208-.273-.202-.283-.2-.3-.195-.061-.04-.01.179-.021.18-.028.182-.035.176-.036.153-.04.15-.042.155-.047.156-.05.16-.053.158-.058.164-.062.162-.066.164-.068.163-.075.164-.077.162-.082.16-.087.16-.093.156-.096.154-.102.151-.107.147-.113.143-.119.14-.128.129-.134.127-.144.117-.151.11-.165.1-.171.088-.185.075-.192.056-.2.04-.208.018-.202-.003.051.115.072.125.083.12.096.11.102.102.112.087.116.077.12.059.117.043.136.029.452.076.459.09.444.105.434.112.422.125.414.135.402.142.394.152.384.162.377.165.37.173.363.18.357.186.349.19.345.194.34.196.338.202.335.202.331.205.328.202.654.41.327.205.326.2.325.202.33.198.33.195.283.16.076-.464z"/><path d="M144.072 27.327l.015.172.002.045c3.211 1.905 3.991 4.464 8.463 6.782l.003-.025.073-.388-.427-.232-.41-.237-.386-.237-.364-.239-.347-.238-.327-.239-.31-.24-.297-.24-.281-.24-.271-.239-.26-.241-.253-.24-.246-.24-.238-.24-.236-.24-.232-.235-.232-.24-.234-.237-.234-.235-.238-.234-.244-.232-.25-.231-.259-.226-.266-.226-.28-.222-.29-.218-.307-.214-.32-.21-.345-.212-.152-.077-.054-.018.014.093.02.17zM151.793 38.782c-3.204-1.794-5.86-4.128-10.218-4.791-.643-.097-1.206-.69-1.364-1.332l-.168-.021-.198-.02-.068-.005.036.179.068.212.091.204.11.195.129.181.144.172.16.154.173.14.188.122.203.101.212.077.208.045.46.078.433.085.42.099.412.107.4.117.39.127.382.137.375.143.367.153.359.16.354.166.349.171.342.18.34.184.335.187.333.193.331.196.327.199.327.2.326.203.654.409.327.206.328.204.333.204.334.2.338.2.344.194.202.114.028-.168.044-.26zM152.93 39.835c.551.276.878-.492.36-.737l-.098-.047-.076.42c-.194-.09-.378-.188-.565-.283l-.072.426.096.05.355.171zM153.866 35.389c.475.13.757-.535.236-.777l-.52-.23-.195-.094-.03.16-.044.253c.206.095.405.19.625.287l-.072.4z" fill="#2C2F4A" mask="url(#b)"/><path d="M151.864 38.354l-.281-.16-.332-.197-.328-.197-.327-.202-.326-.201-.326-.205-.653-.41-.33-.202-.331-.205-.333-.2-.336-.202-.342-.198-.344-.193-.351-.189-.358-.185-.362-.18-.369-.174-.378-.167-.384-.16-.395-.15-.402-.145-.412-.136-.423-.123-.435-.114-.444-.103-.457-.09-.454-.077-.134-.03-.12-.043-.117-.06-.118-.074-.11-.088-.104-.102-.094-.111-.084-.12-.071-.123-.051-.117h-.01l-.185-.024-.217-.034-.026-.005c.16.641.721 1.237 1.365 1.335 4.358.66 7.015 2.995 10.218 4.79l.051-.314.02-.115zM144.098 27.847l-.004.18.062.037.3.197.283.2.271.202.262.209.25.21.245.217.239.218.234.225.232.227.23.23.23.234.23.237.233.24.238.241.246.245.251.248.264.246.269.251.285.251.294.253.311.253.329.252.343.25.363.25.384.252.405.248.428.247.453.245.217.11.076-.425c-4.47-2.318-5.25-4.878-8.464-6.782l.007.128.004.174zM153.192 39.051l-.254-.123-.316-.16-.07.413-.001.006c.187.097.373.193.565.284l.076-.42zM153.783 35.368l.082.022.074-.401c-.221-.095-.421-.192-.625-.29l-.062.352-.014.073.004.002.54.242z" fill="#2C2F4A" mask="url(#b)"/><path fill="#92818D" mask="url(#b)" d="M164.232 34.71l.16.282.43.845.379.82.331.8.107.287.218-.095.397-.164.4-.151.402-.144.404-.132.404-.127.404-.12.404-.114.405-.107.4-.106.4-.101.395-.099.392-.1.387-.098.38-.096.375-.1.369-.1.36-.106.354-.106.343-.112.333-.117.324-.125.313-.13.3-.135.287-.145.274-.153.258-.163.246-.174.234-.182.051-.047.05-.048.05-.05.047-.056.048-.058.047-.059.043-.062.042-.064.04-.069.039-.069.036-.07.035-.071.033-.075.03-.074.027-.077.025-.077.023-.076.02-.08.019-.08.015-.076.014-.08.01-.079.006-.076.006-.078.001-.076-.001-.075-.005-.077-.006-.071-.008-.072-.012-.072-.014-.067-.019-.067-.035-.115-.042-.119-.047-.114-.05-.113-.053-.113-.06-.11-.063-.11-.066-.109-.07-.107-.074-.11-.076-.105-.08-.106-.083-.11-.085-.104-.088-.105-.09-.106-.091-.106-.093-.106-.093-.106-.096-.106-.096-.106-.098-.107-.097-.108-.098-.109-.097-.108-.096-.112-.098-.112-.096-.112-.06-.074-.112.122-.433.446-.426.408-.418.375-.412.336-.406.31-.398.277-.391.25-.386.224-.38.202-.377.18-.368.163-.364.147-.36.13-.354.12-.349.11-.343.106-.342.098-.338.097-.333.095-.331.1-.327.103-.328.109-.325.117-.324.13-.327.141-.326.158-.329.176-.333.193-.046.031.127.192zM174.734 61.692l-.01-.13-.017-.12-.02-.118-.03-.109-.038-.101-.04-.092-.054-.094-.067-.104-.071-.119-.068-.115-.067-.117-.065-.115-.063-.117-.062-.114-.06-.116-.06-.113-.057-.114-.059-.112-.055-.113-.056-.109-.057-.109-.055-.108-.055-.106-.056-.106-.056-.103-.054-.1-.056-.1-.055-.094-.058-.097-.057-.093-.057-.09-.06-.088-.06-.086-.061-.083-.062-.079-.064-.076-.065-.077-.067-.07-.072-.076-.79-.794-.718-.783-.648-.764-.583-.747-.52-.732-.46-.718-.408-.703-.356-.693-.311-.68-.266-.674-.231-.664-.197-.658-.167-.652-.14-.645-.122-.64-.105-.64-.091-.638-.084-.638-.082-.64-.082-.644-.085-.647-.096-.655-.109-.663-.125-.67-.149-.683-.173-.699-.203-.71-.115-.355-.094.049-.36.202c-.518.276-.925-.452-.403-.712l.041-.023.336-.19.208-.108-.125-.34-.32-.769-.365-.792-.415-.814-.145-.257-.154-.253-.11-.166-.314.244-.082.04c-.457.235-.825-.386-.404-.7l.325-.252-.12-.16-.194-.247-.197-.248-.198-.249-.201-.248-.2-.25-.2-.255-.195-.257-.194-.26-.185-.267-.18-.268-.173-.276-.163-.283-.152-.29-.139-.296-.125-.305-.109-.314-.091-.324-.071-.334-.053-.341-.03-.353-.003-.209-.086.002-.356-.017-.383-.04-.409-.063-.435-.084-.458-.105-.477-.13-.499-.152-.512-.173-.528-.198-.34-.14-.002.007-.17.538-.165.548-.156.556-.15.566-.146.574-.14.58-.132.586-.13.591-.126.594-.12.599-.117.6-.113.604-.08.44.195.091.52.233c.519.243.239.907-.238.778l-.08-.022-.541-.242-.006-.003-.093.528-.103.6-.099.595-.1.59-.096.587-.098.581-.028.163.316.162.254.123.098.045c.521.245.192 1.014-.36.738l-.351-.172-.1-.05-.02.134-.098.56-.096.55-.098.541-.1.529-.098.52-.104.504-.104.493-.106.48-.11.463-.082.317-.09.31-.098.304-.102.3-.11.294-.113.29-.12.285-.125.281-.127.278-.13.276-.133.272-.138.27-.137.268-.14.269-.14.265-.142.265-.14.266-.14.265-.14.268-.14.269-.135.268-.135.271-.131.275-.127.274-.126.279-.12.284-.118.287-.111.291-.107.298-.101.3-.094.308-.09.315-.047.178-.041.184-.042.187-.036.19-.036.192-.032.198-.031.198-.03.203-.027.204-.027.207-.024.208-.024.213-.023.212-.025.214-.021.216-.024.217-.024.218-.025.219-.023.22-.027.22-.027.22-.03.222-.03.22-.033.22-.034.221-.04.219-.04.22-.043.216-.05.218-.05.217-.056.214-.057.209-.044.163-.039.164-.032.164-.026.162-.02.165-.016.166-.01.163-.002.164.001.162.008.16.014.157.018.154.024.15.03.15.033.14.04.14.044.132.05.127.052.121.057.114.062.108.067.098.071.094.071.085.078.078.079.069.082.06.085.054.091.045.092.037.097.03.11.025.777.128.782.118.787.108.788.096.79.088.79.08.792.066.794.061.793.05.798.044.797.034.796.028.799.019.797.012.8.008h.801l.8-.008.801-.01.8-.02.8-.021.8-.027.8-.032.798-.038.8-.039.798-.042.8-.047.797-.05.795-.053.796-.054.795-.056.792-.056.78-.06.098-.014.09-.02.088-.031.089-.042.09-.052.088-.064.09-.073.088-.084.087-.092.082-.101.08-.11.08-.115.07-.123.07-.13.063-.135.058-.137.054-.14.046-.143.04-.145.035-.146.026-.145.022-.142.01-.142.008-.139-.001-.134z"/><path d="M177.371 32.313l-.004-.106-.011-.105-.013-.106-.017-.104-.023-.103-.028-.101-.046-.152-.051-.146-.06-.144-.061-.141-.067-.138-.07-.135-.077-.13-.079-.13-.08-.127-.084-.122-.087-.121-.09-.12-.092-.117-.093-.117-.095-.114-.096-.112-.096-.11-.096-.11-.097-.11-.098-.11-.097-.107-.096-.106-.096-.107-.096-.106-.095-.106-.093-.106-.09-.106-.088-.106-.086-.106-.086-.104-.08-.108-.376-.51-.764.84-.412.426-.405.389-.395.352-.387.318-.378.287-.37.259-.367.232-.358.21-.353.185-.347.168-.343.151-.34.137-.34.124-.338.115-.336.106-.334.1-.334.098-.34.097-.336.096-.339.102-.34.107-.346.114-.345.126-.348.14-.353.154-.356.171-.358.19-.362.214-.093.06.045.061.19.262.006.008c3.393-2.139 6.284-.909 10.543-5.753.878 1.218 2.22 2.205 2.637 3.651.256.89-.12 2.06-.824 2.656-2.318 1.953-6.64 2.053-10.28 3.675l.038.102.091.286.265-.117.375-.154.382-.145.386-.136.388-.131.394-.12.393-.116.395-.112.395-.107.396-.102.396-.101.394-.1.391-.098.389-.098.386-.1.382-.101.378-.103.37-.106.368-.114.36-.116.353-.124.343-.131.336-.139.327-.151.317-.16.307-.17.296-.186.282-.198.266-.212.08-.069.076-.073.073-.075.068-.08.068-.082.064-.083.062-.087.056-.088.055-.09.051-.092.05-.095.046-.097.044-.098.038-.097.036-.1.036-.104.03-.103.025-.103.025-.103.02-.104.017-.106.014-.104.01-.108.006-.106.003-.106-.002-.106zM164.357 38.395l-.042.023c-.522.26-.115.99.404.714l.36-.204.094-.048-.123-.376-.007-.014c-.175.092-.35.18-.52.282l-.166-.377zM162.87 34.992l-.163-.37c.112-.088.219-.172.327-.253l-.178-.242-.063-.089-.327.254c-.421.314-.053.934.404.7" fill="#2C2F4A" mask="url(#b)"/><path d="M163.937 34.241l.046-.031.332-.195.328-.174.328-.158.324-.143.325-.128.327-.117.325-.11.33-.105.331-.097.333-.095.336-.098.34-.1.346-.103.35-.11.353-.122.36-.13.365-.146.368-.162.375-.181.38-.203.388-.225.392-.249.398-.278.404-.307.412-.338.418-.373.425-.408.434-.448.111-.123.062.077.096.112.096.11.098.111.097.111.096.11.098.107.098.106.094.107.096.106.096.106.093.106.09.103.091.108.087.106.085.104.082.106.08.11.078.104.073.108.07.11.066.11.063.109.058.11.055.11.052.116.044.114.042.115.036.119.017.065.015.07.013.07.01.07.005.074.003.075.003.075-.003.076-.004.077-.008.08-.01.077-.012.08-.015.078-.019.08-.02.077-.023.077-.025.077-.028.077-.03.075-.032.073-.035.073-.037.07-.038.069-.041.066-.042.067-.045.06-.043.061-.048.058-.048.053-.05.053-.053.048-.05.044-.231.185-.247.172-.26.164-.274.152-.288.145-.299.138-.31.129-.325.123-.332.117-.346.11-.351.108-.361.106-.37.102-.375.098-.38.098-.388.098-.392.099-.396.098-.398.103-.402.104-.403.11-.404.112-.404.12-.406.126-.403.134-.402.142-.4.153-.398.16-.218.099.144.388c3.64-1.622 7.964-1.723 10.28-3.677.708-.595 1.08-1.765.824-2.656-.415-1.444-1.758-2.434-2.639-3.652-4.258 4.844-7.147 3.616-10.541 5.755l.18.259.052.08zM164.357 38.395l.165.377c.17-.101.346-.19.52-.282l-.142-.393-.207.108-.336.19zM162.87 34.992l.082-.04.314-.245-.055-.084-.174-.25-.003-.004a13.43 13.43 0 0 0-.327.254l.163.37zM153.051 34.126c.22-1.105.454-2.192.717-3.243.344-1.372.697-2.742 1.047-4.113l-.423-.19-.006-.003-.028.08-.173.551-.17.56-.157.57-.153.576-.148.583-.142.59-.136.594-.13.595-.129.604-.12.603-.118.606-.115.607-.039.215.007.003.416.212z" fill="#2C2F4A" mask="url(#b)"/><path d="M165.512 38.706c1.355 4.047.788 7.423 2.346 11.039 1.64 3.812 4.8 7.05 7.016 10.971.706 1.25-.225 3.876-1.65 3.984-8.441.634-17.154 1.111-25.55-.334-1.489-.256-2.022-2.462-1.484-4.314.616-2.114.585-4.584 1.16-6.707.47-1.744 1.554-3.137 2.006-4.885 1.287-2.518 2.041-5.729 2.694-9.07l-.185-.098-.143-.08-.07.397-.096.556-.096.547-.097.537-.096.525-.1.513-.101.498-.101.484-.105.47-.109.45-.076.297-.083.288-.09.285-.098.28-.1.278-.109.275-.114.27-.116.268-.124.266-.126.267-.13.264-.133.265-.136.261-.138.264-.138.262-.139.267-.142.265-.143.268-.14.271-.143.271-.138.276-.14.278-.134.282-.133.288-.13.292-.127.296-.123.301-.117.307-.113.314-.107.32-.102.325-.093.334-.051.196-.047.2-.043.201-.04.203-.036.206-.036.205-.032.21-.03.21-.028.212-.027.212-.027.215-.024.214-.024.215-.023.216-.025.216-.023.218-.023.217-.022.216-.026.215-.025.217-.028.215-.028.214-.028.214-.032.212-.034.21-.036.21-.038.208-.04.206-.047.204-.047.2-.05.2-.058.202-.05.182-.043.192-.04.19-.03.192-.024.195-.016.19-.012.195-.005.192.002.188.01.19.016.186.022.186.028.18.035.181.044.177.048.171.057.169.063.163.07.16.077.152.087.148.091.142.103.134.108.126.12.119.125.11.134.102.143.089.15.075.158.065.166.05.164.036.799.132.797.12.796.11.797.098.801.089.8.078.803.07.802.06.803.052.804.042.805.035.805.028.805.02.807.012.805.008.807-.001.807-.007.805-.012.805-.017.805-.022.805-.028.805-.033.804-.037.8-.038.804-.043.8-.047.8-.052.799-.053.799-.053.794-.056.796-.057.803-.06.166-.022.172-.042.164-.059.156-.073.15-.087.143-.102.135-.11.128-.12.121-.13.113-.137.107-.145.1-.151.092-.158.087-.16.079-.167.07-.172.066-.173.059-.176.05-.178.043-.18.032-.183.026-.181.016-.18.01-.182-.002-.18-.013-.177-.023-.174-.034-.173-.045-.169-.059-.162-.072-.16-.081-.142-.073-.114-.063-.106-.065-.108-.06-.107-.063-.11-.058-.109-.06-.109-.057-.11-.058-.111-.058-.11-.055-.112-.056-.11-.057-.113-.056-.109-.058-.11-.057-.11-.059-.11-.057-.108-.059-.109-.06-.106-.062-.108-.064-.106-.063-.103-.067-.104-.068-.101-.071-.102-.073-.096-.076-.099-.077-.095-.08-.092-.084-.092-.084-.082-.779-.786-.696-.76-.628-.738-.56-.72-.497-.7-.441-.685-.387-.67-.338-.657-.294-.647-.254-.636-.218-.63-.188-.624-.16-.622-.134-.617-.116-.622-.102-.623-.092-.625-.083-.63-.08-.637-.081-.647-.087-.655-.098-.668-.111-.678-.13-.692-.155-.706-.178-.724-.212-.74-.153-.474-.109.05-.29.137zM160.073 27.988c.132 2.072 1.58 4.007 2.911 5.91l.207-.149.271-.176-.148-.196-.198-.254-.202-.253-.198-.25-.2-.249-.198-.246-.193-.248-.19-.247-.184-.249-.174-.25-.168-.249-.158-.253-.147-.255-.134-.258-.123-.263-.108-.265-.096-.271-.076-.275-.062-.284-.045-.29-.025-.294-.003-.222-.128.02-.231.016z" fill="#2C2F4A" mask="url(#b)"/><path d="M159.618 28.006l.003.209.031.352.051.343.072.332.092.324.109.314.125.305.138.296.153.289.161.284.172.274.181.27.188.266.192.26.196.258.199.254.2.251.2.248.2.25.195.248.194.246.12.16.033-.026.161-.115c-1.333-1.903-2.779-3.837-2.91-5.91l-.157.011-.299.007zM165.171 38.88l.115.355.204.711.174.697.147.685.127.67.108.663.096.655.087.647.082.642.08.64.086.638.09.638.105.64.12.642.141.645.168.652.195.656.23.665.268.672.31.682.358.694.405.703.463.718.52.73.581.746.649.764.72.783.788.797.071.074.067.072.066.075.064.076.062.081.06.083.06.086.06.087.057.09.057.093.057.095.058.098.054.098.057.101.056.103.054.105.054.106.058.106.054.11.057.111.054.11.059.115.059.114.059.112.062.115.062.116.06.115.065.117.068.115.068.117.071.116.069.106.052.093.042.094.034.101.031.11.023.115.016.123.008.13.001.132-.005.14-.013.142-.02.142-.027.145-.034.145-.042.145-.045.143-.052.14-.06.138-.063.135-.068.127-.073.124-.077.117-.082.11-.084.1-.085.093-.088.084-.088.072-.092.064-.09.053-.088.042-.088.03-.087.021-.1.013-.78.059-.794.058-.792.056-.796.053-.798.053-.795.05-.8.045-.798.044-.798.04-.8.036-.8.031-.801.028-.8.024-.8.018-.8.011-.8.005-.8.001-.799-.006-.8-.012-.796-.019-.8-.03-.797-.032-.794-.046-.794-.05-.795-.06-.79-.069-.794-.076-.788-.09-.788-.096-.786-.107-.784-.119-.776-.128-.11-.023-.097-.03-.093-.037-.088-.045-.087-.055-.082-.06-.08-.07-.075-.077-.074-.086-.07-.092-.065-.098-.062-.108-.059-.115-.054-.12-.05-.127-.043-.134-.04-.138-.033-.144-.03-.146-.024-.15-.018-.156-.013-.156-.007-.16-.002-.163.003-.162.01-.165.013-.164.022-.165.028-.165.03-.163.038-.162.045-.166.059-.208.054-.213.053-.217.046-.217.043-.218.042-.218.037-.22.037-.22.031-.22.031-.223.03-.22.026-.221.026-.22.027-.218.023-.219.023-.218.023-.218.024-.215.023-.215.023-.213.023-.212.025-.207.028-.207.028-.206.028-.201.032-.2.031-.196.036-.194.039-.188.04-.189.042-.182.046-.178.088-.315.096-.309.1-.3.106-.297.113-.291.116-.289.121-.282.126-.28.128-.277.132-.273.133-.27.138-.269.136-.27.14-.265.142-.266.14-.265.142-.265.139-.267.14-.268.139-.268.136-.27.133-.273.132-.274.127-.278.125-.284.118-.283.116-.29.108-.294.102-.299.096-.306.09-.31.082-.315.11-.463.107-.48.107-.493.1-.506.101-.518.098-.53.097-.54.098-.55.096-.56.023-.134-.262-.134-.167-.09c-.653 3.342-1.407 6.551-2.694 9.07-.452 1.747-1.536 3.142-2.007 4.884-.574 2.123-.543 4.593-1.16 6.707-.537 1.853-.004 4.06 1.485 4.316 8.397 1.444 17.109.967 25.55.332 1.425-.106 2.356-2.733 1.65-3.983-2.216-3.922-5.377-7.158-7.016-10.972-1.555-3.616-.991-6.988-2.346-11.039l-.074.038-.267.137zM153.387 34.288l.08-.442.114-.601.116-.6.122-.6.124-.593.13-.593.135-.585.14-.58.143-.573.152-.565.155-.56.164-.545.17-.538.002-.008-.195-.08-.124-.056c-.35 1.371-.703 2.741-1.047 4.115a66.044 66.044 0 0 0-.717 3.242l.043.023.293.139zM152.737 34.886l-.26-.133-.028.155-.106.602-.102.603-.102.596-.099.592-.098.586-.077.466.05.03.297.165c.227-1.194.446-2.4.677-3.59l-.152-.072z" fill="#2C2F4A" mask="url(#b)"/><path d="M152.745 38.024l.1-.588.097-.59.1-.596.104-.6.092-.526-.35-.167c-.23 1.191-.45 2.395-.675 3.59l.04.023.34.182.028.014.027-.16.097-.582zM152.552 34.326c.139.072.27.145.418.215.026-.138.052-.277.082-.414l-.417-.212-.008-.005-.07.393-.005.023zM152.05 39.39c.026-.142.054-.28.083-.423a17.57 17.57 0 0 1-.34-.184l-.044.26-.03.168.146.08.185.099z" fill="#2C2F4A" mask="url(#b)"/><path d="M153.358 34.448l.029-.16-.291-.14-.045-.02c-.028.136-.054.275-.082.414.11.053.23.104.344.159l.045-.253zM152.479 39.613l.071-.425-.416-.22c-.03.14-.058.28-.084.422l.169.09.26.133zM152.737 34.886l.152.072.08-.417c-.147-.071-.279-.143-.418-.215l-.074.427.26.133zM151.916 38.383l-.051-.028-.019.114-.054.312c.112.064.228.126.34.187.029-.14.053-.28.08-.42l-.296-.165z" fill="#2C2F4A" mask="url(#b)"/><path d="M152.552 39.18l.07-.414-.03-.014-.338-.183-.042-.022c-.025.14-.051.28-.08.42.14.076.278.15.419.221l.001-.008zM153.238 35.124l.014-.073.062-.35c-.115-.054-.237-.107-.346-.16-.026.14-.052.28-.08.417l.35.166zM165.232 37.931l.233-.11.173-.077-.107-.287-.33-.798-.38-.822-.431-.845-.158-.282-.169-.277-.127-.192-.286.187-.201.145c.38.563.74 1.124 1.032 1.688.296.573.54 1.128.751 1.67" fill="#2C2F4A" mask="url(#b)"/><path d="M163.265 34.706l.11.168.157.253.144.255.415.816.364.79.319.769.125.341.178-.092.155-.074a16.892 16.892 0 0 0-.751-1.67 17.055 17.055 0 0 0-1.033-1.689l-.138.097-.045.036zM162.984 33.898l.234.337c.163-.119.325-.23.488-.332l-.008-.008-.189-.26-.046-.061-.27.176-.209.148zM165.781 38.133c-.135.06-.27.12-.401.185.046.13.088.26.132.389l.29-.14.11-.048-.094-.285-.037-.101z" fill="#2C2F4A" mask="url(#b)"/><path d="M162.79 34.038l.066.088.178.243.183-.136c-.078-.11-.154-.223-.233-.334l-.159.114-.034.025zM165.05 38.505l.122.376.264-.139.076-.037c-.043-.128-.085-.258-.131-.387-.115.055-.226.114-.336.172l.004.015zM163.448 34.572l.2-.144.29-.188-.055-.078-.178-.259c-.162.103-.323.214-.487.33.079.114.153.227.23.339M165.464 37.821l-.233.11c.053.13.103.258.147.386.134-.064.268-.125.403-.184l-.142-.39-.175.078z" fill="#2C2F4A" mask="url(#b)"/><path d="M165.076 38.006l-.177.092.144.391c.11-.059.223-.117.336-.171a15.064 15.064 0 0 0-.147-.387l-.156.075zM163.038 34.373l.173.25.053.084.047-.036.137-.1-.23-.336-.185.132.005.006z" fill="#2C2F4A" mask="url(#b)"/><path d="M154.784 25.857c.079.037.158.07.235.106l.036-.137a.379.379 0 0 0-.27.03M160.637 26.527l.119-.374c.183-.63-.592-.792-.79-.206l.401.077a4.682 4.682 0 0 0-.266 1.136 6.15 6.15 0 0 0 .406-.053l.041-.226.089-.354z" fill="#92818D" mask="url(#b)"/><path d="M155.055 25.825l-.036.137c.097.044.193.088.29.128a.363.363 0 0 0-.254-.265" fill="#92818D" mask="url(#b)"/><path d="M155.587 6.439c-3.933-.002-8.289 5.229-8.408 8.796-.181 5.478 3.913 8.906 7.604 10.623a.38.38 0 0 1 .271-.033.37.37 0 0 1 .256.267c1.708.726 3.282 1.08 4.233 1.094l.127-.006c.144 0 .286-.008.43-.02a4.71 4.71 0 0 1 .268-1.135l-.4-.078c.196-.584.972-.425.787.205l-.119.375-.088.355-.042.228c3.345-.51 6.966-3.716 7.115-6.73.302-6.149-4.786-13.938-12.034-13.941" fill="#92818D" mask="url(#b)"/><path d="M154.784 25.857c-3.691-1.714-7.785-5.144-7.604-10.623.118-3.565 4.475-8.798 8.408-8.796 7.248.004 12.334 7.792 12.032 13.945-.147 3.012-3.77 6.219-7.113 6.726l-.022.112-.038.327-.016.319.002.087.258-.034.387-.074.383-.092.382-.112.38-.128.376-.145.37-.164.365-.177.36-.192.353-.207.346-.22.338-.234.33-.245.319-.257.31-.265.295-.278.287-.287.272-.297.259-.306.244-.313.226-.322.212-.33.194-.337.177-.343.154-.348.134-.357.111-.36.087-.365.059-.37.034-.367.014-.632-.02-.633-.053-.634-.084-.638-.114-.64-.144-.64-.174-.636-.204-.635-.23-.628-.258-.62-.285-.615-.311-.602-.336-.592-.364-.579-.387-.56-.412-.55-.435-.527-.46-.508-.48-.485-.505-.464-.526-.435-.548-.412-.57-.379-.59-.35-.61-.314-.627-.28-.647-.242-.666-.205-.683-.16-.698-.119-.714-.071-.73-.025-.433.018-.43.05-.43.084-.424.113-.418.142-.412.166-.407.192-.398.214-.393.234-.384.252-.373.273-.367.29-.358.304-.345.318-.336.334-.324.343-.312.354-.3.365-.286.374-.27.38-.255.387-.24.391-.224.398-.206.4-.187.401-.168.404-.148.404-.126.405-.103.402-.08.403-.055.4-.027.395.004.826.062.798.116.772.173.744.22.714.268.686.31.653.348.627.384.594.416.566.443.535.468.508.492.479.507.452.523.423.536.397.545.37.55.346.555.316.556.295.544.267.125-.373c.06-.181.163-.29.274-.346" fill="#2C2F4A" mask="url(#b)"/><path d="M156.003 27.243l.512.174.499.152.477.128.458.107.435.084.409.063.382.039.357.017.086-.002-.001-.154.017-.371.035-.3-.127.005c-.949-.01-2.523-.366-4.231-1.094a.548.548 0 0 1-.016.338l-.16.476.341.141.527.197zM160.447 27.55l.038-.33.022-.111c-.136.02-.272.04-.406.051-.032.28-.045.554-.028.83l.231-.02.127-.016-.001-.088.017-.316zM154.815 26.769c.068-.27.134-.538.205-.806-.078-.036-.157-.069-.235-.106a.563.563 0 0 0-.274.348l-.125.37.006.004.423.19z" fill="#2C2F4A" mask="url(#b)"/><path d="M159.635 27.48l-.02.372.002.152.3-.004.157-.011a4.5 4.5 0 0 1 .027-.828 5.68 5.68 0 0 1-.43.02l-.036.3zM155.134 26.905l.161-.475a.56.56 0 0 0 .016-.339c-.098-.04-.195-.087-.291-.128-.07.267-.137.537-.205.806l.123.055.196.081z" fill="#2C2F4A" mask="url(#b)"/><path fill="#F16E65" mask="url(#b)" d="M73.025 37.53l.1-.593.1-.598.102-.6.106-.603.029-.156-.218-.11-.454-.246-.427-.247-.406-.247-.382-.25-.366-.252-.344-.252-.326-.253-.312-.25-.295-.252-.284-.251-.27-.251-.26-.248-.253-.246-.245-.245-.238-.243-.236-.24-.23-.237-.23-.233-.23-.23-.23-.228-.235-.223-.238-.22-.243-.215-.253-.212-.261-.208-.271-.202-.285-.201-.299-.195-.304-.187-.072-.035.006.11.003.176-.003.176-.012.18-.02.18-.028.18-.036.179-.037.152-.037.15-.042.154-.048.158-.05.157-.054.161-.057.162-.062.164-.065.162-.071.165-.073.164-.08.16-.081.163-.087.157-.09.158-.097.154-.101.151-.107.147-.114.143-.12.137-.127.131-.136.127-.144.118-.152.11-.16.1-.176.088-.18.073-.194.058-.164.031.07.102.095.11.104.102.11.088.116.077.12.058.117.043.136.03.452.076.459.09.444.104.434.113.422.125.414.134.402.142.394.153.384.16.377.167.37.173.363.181.357.184.349.19.345.194.34.196.338.201.335.203.331.204.328.203.654.412.325.202.328.203.325.2.33.197.33.197.283.16.076-.466z"/><path d="M72.778 39.01c-3.203-1.795-5.86-4.129-10.218-4.79-.524-.08-.995-.494-1.24-.992h-.008l-.185-.021-.216-.035-.066-.01.021.07.09.204.11.193.13.184.143.17.16.156.174.139.19.121.202.102.21.076.208.045.461.078.432.086.422.098.411.108.4.118.392.125.38.137.375.144.367.152.36.161.354.167.348.171.343.178.339.184.336.187.333.194.33.196.328.198.326.203.327.2.652.41.328.205.329.206.332.203.335.2.337.2.344.195.203.112.028-.168.043-.26zM64.702 27.499l.02.137a.99.99 0 0 1 .312.11c3.248 1.909 4.012 4.482 8.503 6.808l.005-.025.07-.39-.426-.232-.409-.236-.387-.237-.365-.238-.346-.239-.326-.238-.312-.24-.295-.24-.282-.24-.271-.24-.26-.24-.253-.24-.246-.24-.238-.24-.236-.24-.232-.237-.232-.238-.232-.236-.236-.237-.238-.234-.243-.232-.251-.23-.259-.227-.266-.226-.28-.221-.29-.22-.306-.214-.32-.209-.345-.21-.153-.078-.17-.058-.174-.035-.085-.01.026.126.028.166zM74.85 35.616c.476.13.758-.535.237-.775l-.518-.233-.197-.092-.03.16-.044.252c.207.095.405.193.625.288l-.072.4zM73.915 40.063c.551.276.881-.493.36-.738l-.098-.046-.076.419c-.192-.09-.378-.187-.565-.282l-.072.425.096.05.355.172z" fill="#2C2F4A" mask="url(#b)"/><path d="M64.747 27.836l.015.171.003.064.072.036.305.185.299.197.283.2.272.202.26.208.253.212.245.215.238.22.234.223.23.227.231.23.228.233.23.237.236.24.24.244.243.243.252.248.26.248.272.25.284.252.296.25.31.253.328.253.344.25.364.252.382.25.406.247.427.248.455.245.217.112.076-.427c-4.49-2.328-5.255-4.9-8.502-6.809a1.012 1.012 0 0 0-.311-.107l.003.028.02.17zM72.85 38.582l-.282-.161-.331-.197-.329-.196-.326-.201-.327-.203-.327-.202-.652-.412-.33-.203-.33-.204-.334-.201-.336-.201-.342-.198-.345-.194-.35-.19-.358-.184-.362-.18-.37-.174-.376-.167-.384-.159-.395-.15-.403-.146-.412-.135-.422-.124-.435-.113-.445-.102-.457-.092-.453-.076-.135-.03-.12-.043-.117-.06-.118-.075-.11-.087-.103-.103-.095-.11-.07-.102-.038.006-.206.02-.204-.004c.244.499.715.912 1.24.992 4.357.66 7.014 2.995 10.218 4.79l.05-.314.02-.115zM74.177 39.279l-.254-.123-.316-.16-.07.412v.007c.186.096.372.193.562.283l.078-.42zM74.768 35.595l.083.022.073-.4c-.221-.096-.42-.192-.625-.29l-.064.352-.012.073.006.001.539.242z" fill="#2C2F4A" mask="url(#b)"/><path fill="#F37D6F" mask="url(#b)" d="M96.223 30.766l-.435-.203-.4-.223-.357-.24-.316-.257-.158-.16-.322.308-.417.373-.413.338-.404.309-.396.276-.394.25-.385.225-.381.201-.376.18-.369.163-.365.147-.36.131-.353.12-.35.11-.343.105-.341.098-.338.097-.33.097-.335.098-.327.103-.327.109-.325.119-.325.129-.325.14-.327.16-.328.174-.332.195-.046.03.125.191.17.278.159.282.43.845.38.822.33.798.106.287.218-.097.397-.162.4-.151.402-.144.404-.13.404-.128.406-.119.404-.115.403-.108.4-.104.4-.102.396-.1.39-.1.39-.096.379-.097.376-.1.367-.1.364-.105.351-.108.344-.112.333-.119.325-.123.31-.128.3-.137.288-.145.274-.153.259-.163.246-.173.232-.183.051-.047.053-.048.048-.05.048-.056.046-.056.047-.06.045-.063.04-.064.042-.067.039-.069.037-.072.034-.071.032-.075.031-.075.027-.076.024-.075.024-.078.02-.08.018-.078.014-.078.014-.079.011-.078.006-.078.005-.076.001-.078v-.074l-.004-.076-.006-.073-.008-.072-.013-.07-.015-.069-.019-.067-.034-.115-.042-.117-.048-.115-.05-.113-.053-.114-.058-.11-.063-.11-.067-.109-.07-.107-.024-.033-.36-.164z"/><path d="M95.719 61.92l-.01-.13-.015-.123-.021-.115-.031-.11-.038-.1-.04-.093-.054-.093-.067-.105-.07-.118-.069-.116-.067-.117-.065-.115-.063-.117-.062-.114-.06-.114-.06-.115-.058-.114-.057-.112-.056-.112-.056-.11-.057-.109-.054-.107-.056-.106-.056-.105-.056-.104-.054-.101-.056-.099-.055-.095-.058-.096-.057-.094-.057-.09-.06-.088-.06-.085-.061-.083-.062-.081-.064-.075-.065-.076-.066-.07-.073-.074-.79-.798-.718-.781-.647-.764-.584-.747-.519-.733-.461-.715-.408-.705-.356-.694-.31-.68-.267-.673-.23-.665-.198-.657-.167-.652-.14-.646-.12-.639-.107-.64-.091-.638-.084-.638-.082-.64-.08-.645-.085-.647-.098-.655-.108-.66-.126-.673-.148-.683-.174-.698-.203-.711-.114-.354-.095.048-.359.203c-.519.276-.926-.452-.404-.713l.042-.023.336-.19.207-.108-.125-.34-.32-.768-.363-.79-.417-.816-.145-.258-.153-.25-.11-.169-.315.245-.082.04c-.457.234-.825-.386-.404-.7l.324-.252-.12-.16-.192-.249-.198-.246-.198-.25-.201-.247-.2-.251-.198-.255-.195-.257-.195-.26-.188-.265-.18-.27-.171-.276-.163-.282-.151-.29-.14-.296-.124-.306-.11-.313-.091-.325-.071-.332-.053-.343-.03-.35-.002-.211-.087.001-.356-.017-.383-.04-.41-.061-.434-.084-.458-.108-.477-.128-.498-.15-.513-.176-.528-.198-.34-.14-.004.006-.168.54-.165.549-.156.555-.15.566-.146.573-.139.58-.133.587-.13.59-.126.595-.12.598-.117.6-.113.604-.08.44.195.092.519.232c.52.243.24.909-.237.778l-.082-.022-.54-.242-.005-.003-.093.529-.1.599-.101.595-.101.591-.096.586-.098.582-.026.162.316.162.254.123.096.046c.522.244.192 1.015-.36.737l-.354-.171-.096-.05-.022.134-.097.56-.096.55-.1.542-.098.529-.1.518-.102.505-.103.493-.107.48-.11.463-.082.316-.09.31-.098.305-.102.299-.11.295-.113.29-.12.285-.124.28-.127.28-.13.274-.135.273-.136.27-.138.268-.14.266-.139.267-.142.265-.141.267-.14.265-.14.268-.138.267-.137.27-.134.269-.13.276-.129.274-.125.28-.123.283-.116.287-.111.292-.107.297-.102.301-.095.308-.086.315-.048.177-.044.184-.039.187-.037.19-.035.192-.033.198-.03.198-.03.203-.028.204-.026.208-.025.207-.023.214-.025.213-.023.212-.022.217-.023.217-.025.218-.025.218-.025.222-.024.218-.028.221-.03.222-.03.22-.033.22-.034.22-.039.22-.04.219-.044.217-.05.22-.05.213-.056.215-.056.21-.045.163-.038.164-.033.163-.026.162-.02.166-.016.165-.01.164-.002.163.001.163.008.159.014.155.019.156.023.15.028.148.035.144.04.138.044.133.048.126.056.122.055.114.062.107.067.098.071.094.071.086.078.078.077.068.084.061.085.053.091.045.092.04.097.029.11.025.774.128.785.117.787.107.788.097.79.089.79.076.794.07.793.06.792.051.798.042.797.034.796.029.8.02.798.01.799.009h.8l.8-.008.802-.011.799-.019.8-.022.8-.026.801-.033.797-.037.801-.038.797-.045.8-.045.797-.05.794-.053.798-.055.794-.056.793-.056.78-.06.1-.013.087-.02.089-.032.088-.042.09-.051.088-.064.091-.073.087-.085.087-.092.083-.101.08-.11.078-.115.073-.123.068-.13.064-.132.059-.138.052-.14.047-.144.04-.145.034-.147.026-.145.02-.142.013-.141.008-.14-.002-.133z" fill="#F16E65" mask="url(#b)"/><path d="M97.744 31.468l-.124-.06c.099.197.187.403.25.62.256.892-.117 2.061-.825 2.657-2.316 1.953-6.64 2.055-10.28 3.676l.04.102.09.283.265-.115.375-.154.384-.144.383-.137.39-.13.392-.123.394-.115.395-.112.395-.105.396-.104.397-.102.393-.1.392-.096.388-.1.386-.098.384-.1.376-.104.372-.108.367-.11.36-.119.35-.123.346-.131.336-.14.327-.149.317-.16.307-.172.294-.184.283-.198.266-.213.081-.07.076-.072.073-.077.07-.08.066-.079.062-.084.062-.086.057-.09.054-.09.053-.092.05-.094.046-.097.043-.098.037-.098.038-.101.035-.1.031-.105.026-.103.024-.102.018-.106.02-.105.013-.106.01-.106.005-.106.003-.106-.001-.106-.005-.106-.01-.106-.013-.105-.019-.102-.021-.103-.028-.103-.047-.151-.024-.072-.069-.035-.377-.19zM84.685 34.123l.006.008c3.135-1.979 5.842-1.079 9.597-4.757l-.08-.1-.153-.243-.37.356-.396.352-.386.318-.379.287-.372.259-.362.232-.36.209-.352.185-.349.169-.343.151-.34.136-.338.124-.338.116-.336.106-.336.101-.334.097-.336.095-.338.098-.34.102-.341.107-.343.115-.348.125-.348.139-.353.154-.353.172-.361.19-.36.214-.095.06.046.06.19.263zM83.855 35.22l-.161-.37c.11-.089.217-.173.325-.254l-.178-.242-.063-.087-.327.253c-.421.313-.053.934.404.7M85.342 38.622l-.042.024c-.522.26-.114.99.404.714l.36-.204.094-.049-.122-.374-.007-.016c-.176.092-.351.181-.521.283l-.166-.378z" fill="#2C2F4A" mask="url(#b)"/><path d="M84.922 34.469l.047-.032.33-.194.33-.175.327-.157.324-.144.325-.128.327-.117.325-.11.33-.102.331-.1.333-.095.336-.098.34-.1.346-.103.35-.11.355-.119.359-.132.364-.147.368-.162.375-.18.38-.204.388-.224.392-.25.398-.277.405-.307.41-.339.42-.372.32-.307-.117-.117-.152-.194c-3.755 3.677-6.461 2.78-9.598 4.757l.181.26.051.079zM96.988 31.105l-.019-.009.025.034.07.108.064.11.064.111.059.11.054.112.05.112.046.115.04.117.037.116.017.068.016.069.01.07.012.072.006.071.003.077.001.075-.003.074-.003.078-.01.078-.008.078-.011.08-.016.08-.018.076-.02.08-.024.077-.024.077-.03.076-.03.076-.03.072-.036.072-.037.072-.039.068-.038.067-.045.064-.044.063-.045.06-.046.056-.048.057-.051.053-.051.048-.05.044-.232.185-.246.172-.26.162-.274.153-.288.145-.3.137-.312.13-.322.124-.335.117-.343.11-.352.108-.362.105-.369.1-.373.1-.384.097-.385.099-.392.098-.396.1-.398.103-.403.104-.403.11-.404.111-.404.12-.405.127-.403.134-.403.14-.4.153-.395.162-.22.097.144.388c3.64-1.62 7.963-1.723 10.28-3.675.705-.596 1.079-1.766.822-2.657a3.416 3.416 0 0 0-.25-.62l-.254-.125-.377-.178zM83.855 35.22l.082-.04.314-.246-.055-.084-.174-.25-.003-.004c-.108.081-.215.165-.325.254l.161.37zM85.342 38.622l.166.378c.17-.102.345-.19.521-.283l-.144-.392-.207.107-.336.19zM74.036 34.355c.22-1.106.454-2.194.717-3.243.345-1.372.697-2.744 1.047-4.115l-.423-.19-.006-.003-.028.08-.175.551-.166.562-.16.567-.152.577-.148.583-.142.591-.136.592-.13.598-.127.603-.123.603-.117.605-.115.607-.039.217.007.003.416.212zM81.059 28.217c.131 2.072 1.576 4.007 2.91 5.907l.208-.148.271-.176-.148-.197-.2-.254-.2-.25-.201-.25-.198-.25-.197-.248-.194-.246-.188-.248-.185-.248-.175-.25-.167-.25-.16-.253-.146-.254-.135-.259-.123-.262-.11-.265-.092-.271-.078-.276-.062-.282-.043-.29-.025-.295-.003-.221-.128.017-.231.019z" fill="#2C2F4A" mask="url(#b)"/><path d="M86.497 38.933c1.355 4.05.788 7.423 2.346 11.04 1.64 3.811 4.8 7.048 7.016 10.972.706 1.25-.225 3.875-1.65 3.982-8.443.635-17.152 1.112-25.55-.332-1.49-.257-2.021-2.463-1.484-4.316.615-2.114.585-4.583 1.161-6.707.47-1.743 1.552-3.137 2.005-4.885 1.289-2.518 2.041-5.728 2.695-9.07l-.186-.097-.144-.082-.068.4-.095.556-.097.546-.096.536-.098.526-.1.511-.1.499-.102.485-.105.47-.107.45-.077.296-.084.288-.09.286-.097.28-.101.278-.11.273-.113.271-.116.268-.124.267-.125.266-.13.264-.134.263-.136.264-.138.263-.138.262-.14.267-.141.267-.143.266-.14.272-.142.272-.139.273-.14.28-.134.283-.133.287-.13.292-.127.296-.123.3-.119.308-.111.313-.107.32-.1.326-.095.332-.051.198-.047.198-.043.202-.04.203-.036.206-.036.206-.032.209-.03.21-.027.212-.028.212-.027.214-.023.215-.025.215-.023.217-.023.215-.022.218-.026.217-.023.217-.023.215-.027.217-.026.215-.03.213-.027.214-.031.212-.034.21-.038.211-.038.207-.042.206-.045.204-.046.2-.052.201-.057.201-.048.183-.045.192-.038.191-.031.19-.024.195-.018.192-.01.194-.004.19.001.19.01.19.015.186.022.185.028.181.037.18.042.177.048.172.057.168.063.164.07.159.078.153.086.148.092.142.102.134.11.126.117.12.126.11.135.1.142.09.152.074.156.066.166.051.164.034.8.131.796.122.798.108.796.1.8.088.8.08.803.068.802.061.802.05.805.044.804.036.805.026.805.02.807.014.805.007.807-.002.806-.005.805-.014.806-.017.805-.022.805-.028.805-.032.804-.038.803-.037.802-.044.8-.047.801-.051.798-.053.799-.053.796-.055.794-.059.804-.06.165-.021.172-.042.164-.06.157-.073.15-.087.144-.101.133-.111.128-.12.121-.13.113-.137.107-.145.1-.151.092-.157.087-.161.079-.167.071-.171.067-.173.057-.177.051-.177.042-.181.032-.183.027-.18.015-.181.01-.181-.002-.181-.013-.176-.023-.175-.034-.173-.045-.168-.057-.162-.074-.161-.08-.142-.074-.114-.063-.106-.064-.107-.062-.108-.061-.11-.06-.108-.058-.11-.057-.11-.06-.11-.057-.111-.055-.111-.056-.11-.057-.113-.058-.11-.055-.11-.058-.11-.058-.11-.058-.107-.059-.111-.06-.105-.062-.107-.063-.105-.064-.104-.066-.105-.069-.1-.07-.102-.074-.097-.075-.098-.078-.095-.08-.092-.084-.092-.084-.083-.775-.786-.7-.759-.627-.739-.56-.72-.498-.699-.441-.684-.387-.672-.338-.658-.294-.646-.254-.636-.218-.63-.186-.623-.16-.622-.136-.618-.116-.62-.1-.624-.094-.625-.082-.63-.08-.638-.082-.647-.087-.655-.097-.665-.112-.68-.13-.693-.153-.706-.18-.723-.212-.74-.153-.475-.109.05-.29.137z" fill="#2C2F4A" mask="url(#b)"/><path d="M86.156 39.107l.117.356.202.71.175.698.146.684.127.67.108.663.096.655.087.647.082.642.08.641.084.638.093.638.104.639.12.642.142.646.167.651.196.655.23.668.267.67.312.683.356.694.405.703.463.717.52.73.583.748.647.763.72.782.788.797.071.075.069.072.065.074.063.077.062.08.06.084.06.085.06.088.058.09.056.094.058.093.057.098.054.099.056.1.057.104.054.104.054.106.058.106.054.111.056.11.057.111.059.114.057.114.059.112.06.117.06.114.064.115.067.117.066.116.068.117.073.115.064.106.055.094.042.093.036.102.03.109.023.115.015.123.008.13.001.132-.004.14-.013.142-.02.142-.03.145-.032.145-.04.145-.047.144-.052.14-.059.137-.062.136-.07.126-.072.126-.078.116-.082.109-.083.101-.086.092-.088.084-.088.072-.092.066-.09.051-.088.042-.088.03-.087.022-.1.014-.78.056-.793.06-.793.055-.796.053-.796.053-.797.05-.8.047-.798.042-.798.04-.8.036-.8.032-.801.03-.8.021-.8.019-.8.01-.8.005-.8.002-.799-.006-.8-.013-.798-.022-.797-.026-.796-.033-.796-.044-.794-.051-.794-.06-.792-.07-.792-.076-.789-.087-.788-.098-.786-.108-.784-.118-.775-.127-.11-.025-.096-.03-.095-.037-.09-.045-.085-.054-.082-.061-.08-.067-.075-.078-.074-.086-.07-.094-.065-.098-.062-.107-.059-.116-.052-.12-.051-.128-.044-.132-.04-.139-.032-.143-.031-.147-.024-.15-.018-.156-.013-.155-.007-.161-.002-.162.003-.162.01-.164.015-.165.022-.166.024-.163.033-.164.037-.162.045-.167.059-.207.056-.214.05-.217.047-.216.044-.219.041-.218.038-.22.037-.22.03-.22.033-.222.028-.22.026-.22.028-.22.025-.22.023-.218.023-.218.024-.217.023-.217.023-.213.023-.214.024-.212.026-.207.026-.208.028-.204.03-.203.029-.2.034-.196.034-.195.039-.187.04-.188.042-.183.046-.178.089-.315.096-.308.1-.301.107-.296.112-.292.116-.287.12-.284.126-.279.128-.277.132-.273.135-.27.136-.27.14-.27.137-.264.141-.265.14-.267.142-.265.14-.267.14-.268.138-.266.136-.272.133-.273.132-.274.128-.277.124-.284.118-.284.116-.288.108-.295.104-.3.095-.305.09-.31.082-.315.11-.463.106-.48.104-.493.104-.507.1-.518.1-.53.096-.54.097-.55.096-.56.023-.133-.261-.134-.168-.09c-.653 3.342-1.406 6.55-2.694 9.07-.452 1.746-1.534 3.142-2.006 4.883-.575 2.126-.544 4.594-1.159 6.708-.539 1.852-.007 4.06 1.484 4.316 8.397 1.443 17.108.966 25.55.332 1.424-.106 2.355-2.734 1.649-3.984-2.216-3.921-5.376-7.158-7.016-10.972-1.556-3.615-.991-6.988-2.346-11.037l-.074.036-.267.137zM74.372 34.515l.08-.441.114-.602.117-.6.12-.599.125-.594.13-.592.135-.585.14-.58.143-.574.15-.564.158-.56.163-.546.17-.538.002-.007-.197-.08-.122-.056c-.35 1.37-.703 2.74-1.047 4.115a69.839 69.839 0 0 0-.717 3.241l.043.023.293.14zM80.603 28.233l.003.209.031.352.051.343.072.332.093.325.108.313.125.306.138.296.152.29.163.282.171.275.182.27.187.266.193.26.196.258.198.252.201.253.2.248.198.25.197.247.193.246.12.16.033-.024.161-.117c-1.333-1.902-2.779-3.837-2.909-5.91l-.158.012-.299.006zM73.722 35.113l-.26-.132-.03.154-.105.604-.1.601-.103.596-.099.592-.097.587-.078.466.05.03.297.165c.228-1.194.446-2.4.677-3.59l-.152-.073z" fill="#2C2F4A" mask="url(#b)"/><path d="M73.73 38.252l.1-.588.098-.591.1-.596.104-.598.09-.527-.349-.167c-.229 1.191-.45 2.395-.675 3.59l.04.022.341.183.028.014.026-.16.098-.582zM73.537 34.554c.14.072.271.145.418.215.027-.139.053-.278.082-.415l-.416-.21-.008-.006-.071.392-.005.024zM73.035 39.617c.026-.14.056-.28.084-.422-.113-.061-.23-.122-.341-.184l-.043.26-.03.169.146.077.184.1z" fill="#2C2F4A" mask="url(#b)"/><path d="M73.464 39.84l.071-.425c-.139-.072-.278-.146-.416-.22-.03.14-.057.281-.084.423l.169.09.26.133zM74.343 34.677l.03-.163-.292-.137-.046-.022-.08.414c.108.053.23.106.343.16l.045-.252zM72.901 38.61l-.051-.028-.019.114-.054.314.34.185.08-.42-.296-.164zM73.722 35.113l.152.072.08-.416c-.147-.072-.278-.144-.418-.215l-.074.427.26.132z" fill="#2C2F4A" mask="url(#b)"/><path d="M74.223 35.352l.014-.073.062-.351c-.115-.053-.237-.106-.346-.16-.026.14-.052.28-.08.417l.35.167zM73.538 39.408l.07-.415-.03-.014-.34-.182-.041-.022-.08.42c.14.076.278.149.419.222l.002-.01zM86.186 36.885l-.38-.821-.43-.844-.158-.282-.171-.278-.124-.191-.288.187-.202.143c.383.564.739 1.127 1.032 1.692.297.569.542 1.125.754 1.668l.23-.11.174-.077-.105-.289-.332-.798z" fill="#2C2F4A" mask="url(#b)"/><path d="M84.434 34.8l-.14.1-.043.033.111.168.154.254.144.256.416.814.364.79.319.769.125.341.177-.09.156-.076a16.72 16.72 0 0 0-.752-1.67 16.574 16.574 0 0 0-1.031-1.689M83.97 34.126c.078.113.154.224.233.336.164-.118.327-.229.488-.33l-.006-.01-.19-.26-.047-.06-.27.174-.209.15zM86.766 38.36c-.135.061-.27.122-.402.186.048.13.091.259.133.388l.29-.139.11-.048-.094-.285-.037-.102z" fill="#2C2F4A" mask="url(#b)"/><path d="M83.776 34.266l.065.087.177.243.184-.135c-.076-.111-.153-.223-.234-.334l-.158.114-.034.025zM86.034 38.733l.123.375.265-.138.075-.038c-.043-.128-.085-.257-.133-.388-.113.056-.224.115-.334.173l.004.016zM86.45 38.049l-.233.11c.05.13.102.258.147.385.134-.063.268-.124.403-.185l-.144-.387-.173.077zM84.635 34.656l.288-.187-.053-.081-.178-.257a8.216 8.216 0 0 0-.49.332l.233.337.2-.144z" fill="#2C2F4A" mask="url(#b)"/><path d="M84.023 34.6l.174.25.055.085.044-.036.14-.1-.233-.337-.183.134.003.005zM86.061 38.234l-.178.092.146.39c.113-.057.223-.116.336-.17a13.055 13.055 0 0 0-.148-.386l-.156.074z" fill="#2C2F4A" mask="url(#b)"/><path d="M75.77 26.084c.078.038.156.07.235.106l.035-.137a.378.378 0 0 0-.27.031" fill="#F4E79C" mask="url(#b)"/><path d="M76.04 26.053l-.036.137c.098.044.194.087.29.128a.363.363 0 0 0-.254-.265" fill="#F37D6F" mask="url(#b)"/><path d="M76.572 6.666c-3.934-.001-8.288 5.23-8.408 8.797-.18 5.477 3.864 9.029 7.555 10.744.09-.045.178.048.265.072.12.032.248-.07.288.068 1.708.727 3.306 1.053 4.256 1.067l.127-.007a6 6 0 0 0 .836-.07c3.345-.508 6.967-3.715 7.115-6.729.302-6.15-4.786-13.939-12.034-13.942" fill="#F16E65" mask="url(#b)"/><path d="M75.77 26.084c-3.692-1.713-7.786-5.143-7.605-10.622.118-3.566 4.474-8.798 8.408-8.797 7.248.006 12.334 7.793 12.033 13.945-.148 3.012-3.77 6.22-7.115 6.726l-.02.113-.04.327-.016.318.001.087.262-.034.386-.073.384-.092.38-.111.38-.13.376-.144.37-.164.366-.178.36-.192.352-.207.345-.22.34-.234.329-.244.319-.258.308-.265.297-.277.287-.287.272-.298.259-.306.243-.313.23-.321.21-.33.193-.337.177-.343.155-.348.133-.356.11-.361.087-.367.06-.368.034-.368.014-.631-.02-.632-.053-.636-.083-.637-.115-.641-.144-.64-.175-.636-.203-.634-.23-.628-.258-.621-.285-.614-.31-.602-.338-.593-.363-.578-.387-.561-.41-.548-.437-.528-.46-.507-.48-.488-.506-.463-.525-.435-.548-.412-.57-.378-.59-.35-.608-.313-.629-.282-.649-.242-.664-.204-.683-.16-.698-.12-.714-.071-.73-.025-.433.019-.43.051-.429.083-.424.112-.42.142-.41.167-.407.192-.398.213-.394.234-.384.254-.374.271-.366.29-.357.305-.346.318-.336.333-.323.343-.313.354-.299.365-.286.374-.27.38-.255.387-.242.392-.223.397-.206.4-.187.402-.167.403-.149.404-.125.406-.104.402-.08.402-.055.4-.026.395.003.827.062.798.116.772.173.743.22.715.268.686.31.654.348.626.384.594.415.566.445.536.467.507.493.48.507.45.522.425.536.396.545.37.551.345.555.317.555.294.544.267.125-.373c.06-.18.163-.29.274-.346" fill="#2C2F4A" mask="url(#b)"/><path d="M76.988 27.47l.513.175.498.151.477.128.458.108.434.084.41.062.383.04.354.016.089-.001-.003-.153.018-.373.036-.299-.127.006c-.951-.012-2.524-.368-4.234-1.096a.535.535 0 0 1-.013.339l-.162.475.343.142.526.196zM75.8 26.997c.068-.27.135-.538.206-.807-.08-.035-.158-.068-.236-.106a.558.558 0 0 0-.274.348l-.125.371.006.003.423.19zM81.432 27.777l.039-.329.021-.112c-.138.02-.272.04-.405.052a4.66 4.66 0 0 0-.028.829l.23-.019.127-.017-.001-.087.017-.317z" fill="#2C2F4A" mask="url(#b)"/><path d="M80.62 27.708l-.019.371.002.153.299-.005.158-.01a4.5 4.5 0 0 1 .026-.829 5.757 5.757 0 0 1-.43.02l-.036.3zM76.12 27.133l.16-.476a.535.535 0 0 0 .015-.338c-.096-.04-.194-.088-.29-.128-.07.267-.136.536-.204.806l.122.055.197.08z" fill="#2C2F4A" mask="url(#b)"/><path d="M63.944 28.136a6.497 6.497 0 0 0-.107-.833c-.206-.957-.612-1.919-.782-2.876-4.721 1.728-7.953 5.827-12.279 7.1l-.091.255-.266.82-.25.824-.23.831-.214.838-.147.634c1.203-.226 2.415-.514 3.752-1.344 2.635-1.632 5.244-2.284 7.416-2.05.138.016.274.027.408.048l.09.01c.11.02.216.018.32.01 1.21-.112 2.027-2.059 2.316-3.328.07-.312.08-.625.064-.939" fill="#5DBE89" mask="url(#b)"/><path d="M60.752 32.8l-.018-.227.012-.228.002-.009c-2.174-.234-4.783.418-7.419 2.049-1.336.83-2.548 1.12-3.75 1.344l-.048.209-.14.66.042-.007.188-.034.19-.036.19-.036.194-.039.195-.042.195-.044.2-.047.2-.051.203-.056.204-.058.206-.065.21-.07.208-.075.212-.081.214-.09.214-.093.216-.103.22-.11.22-.117.22-.125.217-.131.262-.157.252-.149.252-.14.253-.136.25-.127.248-.122.25-.115.249-.11.244-.104.247-.097.243-.09.243-.086.24-.078.238-.072.239-.067.234-.06.233-.055.231-.048.228-.042.226-.036.224-.031.22-.024.218-.02.216-.014.212-.006.21-.002.206.003.205.008.2.016.196.018.126.017-.047-.143-.045-.22zM50.775 31.526c4.327-1.272 7.56-5.37 12.28-7.1.17.957.575 1.92.781 2.878l.053-.017.162-.042.169-.03.169-.015h.172l.086.008-.006-.038-.034-.162-.039-.159-.04-.157-.042-.156-.043-.153-.045-.155-.045-.15-.048-.147-.09-.293-.043-.144-.043-.14-.042-.142-.04-.139-.04-.135-.035-.136-.034-.134-.03-.13-.027-.129-.04-.212c-.103-.47-.607-.697-1.077-.536l-.52.202-.518.223-.508.24-.497.254-.485.267-.474.276-.464.284-.456.293-.45.298-.44.302-.435.304-.427.306-.425.305-.42.303-.416.3-.413.295-.41.289-.41.279-.41.273-.407.26-.41.25-.409.237-.41.221-.414.206-.415.189-.42.171-.173.062-.16.421-.193.555zM62.125 33.119l.185-.074.172-.087.16-.101.155-.11.143-.118.135-.126.127-.133.119-.135.114-.144.107-.148.102-.15.096-.154.093-.157.087-.158.08-.162.08-.164.074-.162.068-.164.067-.162.062-.163.057-.164.052-.16.052-.158.046-.156.042-.154.039-.15.035-.153.037-.176.027-.182.02-.181.012-.18.003-.176-.001-.176-.007-.11-.003-.002-.07-.024-.081-.015-.087-.01h-.095l-.102.01-.105.017-.108.03-.109.034-.06.025c.015.313.006.627-.065.94-.29 1.27-1.109 3.213-2.315 3.327l-.01.04-.004.118.01.12.026.128.04.126.057.13.07.124.014.019.165-.032.192-.057z" fill="#2C2F4A" mask="url(#b)"/><path d="M61.128 33.206l.185.024h.007a1.535 1.535 0 0 1-.168-.847c-.131-.022-.27-.031-.405-.047l-.002.01-.012.227.018.226.045.22.048.144.068.007.216.036zM64.39 27.2l-.17.016-.168.03-.165.042-.051.017c.03.136.05.273.068.412.275-.096.562-.131.819-.08l-.02-.139-.03-.165-.024-.125-.087-.008h-.172z" fill="#2C2F4A" mask="url(#b)"/><path d="M64.005 28.111l.108-.034.108-.03.106-.018.102-.008h.094l.089.008.079.017.072.023.002.002-.003-.064-.016-.172-.02-.17-.003-.028a1.59 1.59 0 0 0-.82.08c.021.138.033.28.041.42l.06-.026zM61.732 33.215l.037-.006-.014-.02-.07-.125-.057-.128-.042-.128-.026-.126-.011-.122.008-.115.007-.042a1.12 1.12 0 0 1-.322-.01l-.088-.01c-.037.285.033.576.167.847l.203.004.208-.02z" fill="#2C2F4A" mask="url(#b)"/><path fill="#5DBE89" mask="url(#b)" d="M26.395 35.553l-.045-.562-.037-.562-.028-.561-.02-.558-.011-.558-.002-.559.008-.555.014-.553.023-.554.033-.552.03-.43-.151-.114-.417-.338-.396-.345-.376-.349-.358-.355-.34-.359-.326-.365-.314-.363-.302-.366-.294-.367-.287-.366-.278-.365-.276-.363-.274-.36-.273-.36-.272-.353-.276-.348-.283-.343-.286-.337-.296-.33-.307-.323-.317-.315-.33-.308-.347-.297-.364-.288-.258-.193-.149-.125-.099.15-.14.274-.229.402-.226.4-.226.397-.224.396-.219.391-.213.388-.208.384-.196.38-.186.375-.174.368-.16.361-.145.353-.127.347-.106.336-.089.327-.065.317-.043.302-.019.293.005.28.031.269.056.254.082.246.111.234.143.228.175.22.215.215.254.209.297.2.344.19.4.187.382.165.388.176.39.184.388.189.385.195.386.2.384.204.385.207.384.213.384.217.383.217.384.221.382.223.383.225.382.226.383.224.382.228.384.226.383.225.385.226.386.221.384.221.385.217.32.18zM49.703 24.925c-.7-.002-1.4.008-2.1.01l-.377.397-.418.405-.432.389-.444.372-.46.35-.47.332-.478.307-.49.285-.5.26-.507.236-.514.209-.52.18-.529.152-.53.117-.535.087-.537.052-.524.012-.53-.022-.529-.053-.53-.087-.53-.116-.527-.146-.525-.176-.518-.201-.514-.225-.507-.252-.5-.275-.49-.298-.48-.318-.467-.34-.452-.358-.44-.38-.424-.394-.238-.241c-1.12.022-2.24.045-3.357.06a36.176 36.176 0 0 0-.562 3.908l.347.24.463.296.493.285.522.276.479.231c.55.27.294.788-.095.8a.44.44 0 0 1-.244-.055l-.505-.243-.55-.29-.52-.302-.457-.292c-.124 1.95-.1 3.925.109 5.917l.366.193.39.2.392.195.394.189.393.184.232.104.152.067c.557.264.209.982-.355.74l-.365-.165-.404-.188-.403-.194-.4-.2-.256-.13c.25 1.88.638 3.771 1.206 5.664 2.036 6.758 3.792 13.471 3.464 20.582 4.677.593 9.747.398 14.835.166 2.197-1.687 2.654-3.583 1.977-6.804-1.423-6.792-1.59-13.542-.348-19.873.055-.29.122-.579.186-.867a40.351 40.351 0 0 1 1.127-4.138c.099-.306.207-.603.314-.906a39.03 39.03 0 0 1 1.03-2.599c1.124-2.548.554-3.316-1.484-3.321"/><path d="M26.443 36.048c-3.18-1.745-6.24-3.815-9.377-5.147-4.703-1.997-1.286-6.358.987-10.624 3.696 2.348 4.785 5.976 8.348 8.784l.017-.179.03-.304-.134-.11-.375-.327-.356-.332-.34-.338-.326-.341-.312-.348-.302-.353-.294-.353-.285-.358-.28-.36-.278-.361-.272-.362-.274-.362-.276-.36-.28-.36-.284-.357-.29-.354-.3-.35-.31-.347-.321-.34-.336-.334-.352-.325-.371-.319-.387-.31-.41-.3c-.747-.567-.888-.406-1.222.263l-.22.397-.223.398-.225.398-.227.399-.225.397-.221.395-.217.396-.212.391-.203.39-.194.39-.182.385-.17.38-.154.379-.136.377-.12.371-.099.368-.074.367-.053.36-.023.36.008.352.04.348.075.342.111.333.153.321.194.308.232.293.276.276.316.259.354.238.401.225.435.2.387.17.378.17.378.178.38.186.376.19.377.195.378.203.38.204.377.209.38.213.378.216.38.22.38.22.38.224.383.226.383.226.382.226.384.225.387.227.386.226.387.226.39.222.389.22.391.218.394.215.035.019-.05-.43-.005-.07zM28.052 37.351l.403.194.404.188.365.164c.564.243.91-.476.355-.74l-.152-.066v.449a34.799 34.799 0 0 1-2.1-1.024c.02.168.046.336.069.506l.255.131.401.198zM29.428 31.292c.387-.014.644-.53.093-.803l-.477-.228-.524-.277-.492-.287-.465-.295-.345-.238c-.014.154-.032.308-.043.463.664.453 1.403.884 2.253 1.274v.39z" fill="#2C2F4A" mask="url(#b)"/><path d="M26.075 35.379l-.386-.219-.386-.221-.385-.223-.384-.223-.383-.226-.384-.226-.382-.226-.382-.226-.384-.225-.383-.226-.382-.223-.383-.221-.382-.217-.384-.217-.386-.212-.384-.209-.384-.204-.385-.2-.387-.194-.386-.189-.39-.182-.389-.178-.382-.165-.4-.188-.344-.191-.297-.2-.254-.207-.213-.214-.177-.221-.14-.228-.114-.235-.084-.245-.054-.256-.03-.266-.005-.28.018-.293.044-.304.065-.316.086-.326.109-.337.125-.347.146-.353.16-.362.173-.368.187-.374.197-.379.207-.383.214-.39.218-.391.225-.395.224-.397.228-.401.226-.402.142-.275.098-.15.15.125.259.192.362.29.347.298.33.307.317.315.307.323.297.329.286.338.282.343.277.35.274.352.271.357.274.361.276.364.28.365.285.366.293.366.302.367.314.363.327.365.34.357.358.357.376.35.397.345.416.337.152.114.008-.12.032-.366c-3.563-2.81-4.651-6.44-8.347-8.786-2.273 4.266-5.692 8.626-.99 10.622 3.139 1.333 6.197 3.404 9.377 5.148l-.046-.49-.32-.178zM27.608 30.4l.52.303.551.291.503.242c.084.047.166.06.247.056V30.9c-.852-.39-1.589-.82-2.253-1.274-.014.159-.016.323-.027.482l.459.291zM29.428 37.09l-.233-.105-.394-.182-.392-.189-.393-.195-.39-.2-.366-.192c.015.162.046.325.067.49a34.33 34.33 0 0 0 2.1 1.022v-.45z" fill="#2C2F4A" mask="url(#b)"/><path d="M49.061 36.658l-.184.033-.181.035-.166.032c-1.242 6.329-1.075 13.078.348 19.868.677 3.225.222 5.12-1.977 6.806-5.09.232-10.157.429-14.837-.165.332-7.108-1.426-13.825-3.46-20.582a36.079 36.079 0 0 1-1.208-5.663l-.142-.074-.397-.207-.36-.193.015.132.074.565.08.566.094.567.097.566.112.568.117.567.129.57.138.568.148.568.157.57.165.565.19.635.188.63.184.63.182.63.18.63.174.629.172.63.169.628.164.629.158.628.153.63.149.628.142.632.138.628.132.631.124.632.116.63.11.631.102.633.096.635.085.634.077.636.07.637.059.637.051.64.042.639.03.642.02.644.01.646-.003.647-.01.647-.025.669c.024.531.328.78.802.845l.359.043.449.052.452.045.452.04.457.036.458.033.459.03.46.023.462.022.463.019.463.015.466.013.468.007.47.007.468.003h.47l.47-.002.472-.004.474-.007.474-.009.472-.01.477-.01.476-.014.475-.016.477-.016.477-.017.477-.018.477-.02.476-.02.479-.021.477-.022.738-.034.417-.328.209-.176.201-.18.19-.183.183-.187.174-.192.162-.197.154-.2.144-.205.133-.207.124-.215.113-.219.103-.224.092-.23.082-.232.073-.237.06-.24.053-.246.042-.247.032-.254.023-.255.014-.26.005-.266-.003-.268-.011-.274-.02-.278-.028-.282-.033-.29-.043-.292-.048-.299-.056-.307-.062-.304-.187-.928-.169-.915-.153-.918-.136-.916-.123-.913-.105-.914-.09-.91-.074-.908-.059-.906-.039-.903-.026-.9-.008-.896.008-.895.026-.89.04-.885.061-.884.076-.878.091-.872.109-.87.127-.865.144-.86.162-.854.039-.187-.144.025-.186.034zM47.63 24.909l-.025.026c.7-.003 1.4-.012 2.098-.01 2.038.005 2.61.774 1.483 3.319a39.777 39.777 0 0 0-1.028 2.602l.291-.073.43-.133.249-.09.144-.384.32-.798.342-.797.104-.242.098-.24.088-.232.077-.226.07-.218.059-.212.05-.208.04-.204.027-.198.017-.198.005-.192-.008-.195-.023-.191-.042-.188-.058-.187-.08-.18-.099-.17-.114-.158-.13-.143-.144-.127-.153-.11-.162-.094-.165-.08-.17-.065-.175-.054-.177-.046-.183-.034-.186-.03-.192-.018-.195-.014-.2-.01-.202-.003-.694-.001-.686.001h-.015l-.3.367-.386.438zM27.124 29.098l.093.066c.12-1.32.303-2.623.562-3.907 1.12-.018 2.237-.041 3.358-.063l-.168-.17-.387-.429-.17-.202-.592.01-.685.012-.682.01-.595.011c-.465.004-.777.222-.89.729l-.092.464-.096.538-.088.538-.08.543-.073.542-.065.544-.025.243.259.211.416.31zM49.939 34.257l.23-.831.25-.823.266-.82.09-.258a8.857 8.857 0 0 1-.934.225 40.855 40.855 0 0 0-1.125 4.138c.288-.053.574-.105.862-.16l.147-.632.214-.839z" fill="#2C2F4A" mask="url(#b)"/><path d="M49.578 35.729c-.288.055-.574.106-.862.157-.064.29-.13.58-.186.87l.166-.03.182-.035.183-.033.184-.034.146-.025.14-.661.047-.21zM50.45 30.772l-.292.073c-.108.3-.216.602-.317.906.317-.061.629-.134.934-.225l.193-.555.16-.42-.251.09-.427.13zM27.15 30.11l-.035-.022-.466-.321-.288-.219-.033.432-.03.552-.024.55-.015.556-.006.556.001.557.011.558.019.56.027.561.038.561.046.562v.004l.065.038.389.212.388.209.022.01a35.224 35.224 0 0 1-.108-5.916M26.402 29.063c.244.192.504.38.772.563.013-.155.03-.307.045-.462l-.096-.065-.413-.312-.262-.21-.03.303-.016.183zM27.254 36.949l.142.072c-.023-.169-.051-.337-.071-.504-.293-.156-.589-.309-.881-.47l.006.07.048.43.36.193.396.209z" fill="#2C2F4A" mask="url(#b)"/><path d="M26.36 29.548l.29.217.466.321.034.024c.011-.161.013-.325.023-.485-.267-.183-.528-.37-.77-.562l-.035.365-.007.12zM27.237 36.015l-.388-.208-.388-.213-.066-.036.046.49c.295.16.59.314.884.469-.018-.164-.05-.326-.066-.49l-.022-.012z" fill="#2C2F4A" mask="url(#b)"/><path d="M42.12 6.832c-2.42-.753-5.478.02-7.418 1.66-2.874 2.428-5.772 5.687-5.933 9.461-.1 2.303 1.016 4.587 2.711 6.418.259.279.53.546.811.801 2.176 1.968 5.017 3.228 7.521 3.072 2.338-.142 4.724-1.444 6.635-3.304.275-.267.54-.544.791-.834 1.878-2.135 3.134-4.805 3.125-7.314-.033-7.45-4.446-8.778-8.242-9.96" fill="#5DBE89" mask="url(#b)"/><path d="M31.189 24.377l.292-.005c-1.697-1.832-2.811-4.114-2.712-6.419.16-3.773 3.06-7.032 5.935-9.46 1.938-1.64 4.998-2.414 7.416-1.661 3.799 1.182 8.212 2.51 8.243 9.96.01 2.508-1.247 5.18-3.124 7.315l.406-.001.672-.002.068-.084.353-.463.333-.479.311-.488.293-.496.27-.506.244-.515.223-.52.197-.53.168-.53.143-.537.111-.54.082-.544.048-.54.016-.537-.017-.719-.042-.68-.068-.647-.091-.617-.12-.588-.14-.56-.163-.53-.186-.502-.206-.475-.226-.453-.248-.422-.263-.4-.283-.373-.296-.35-.31-.326-.325-.305-.333-.284-.345-.26-.35-.244-.36-.226-.363-.209-.37-.193-.372-.18-.374-.166-.377-.156-.374-.145-.377-.139-.374-.13-.372-.124-.368-.117-.364-.114-.366-.115-.252-.072-.263-.065-.265-.055-.268-.045-.268-.036-.27-.026-.272-.017-.272-.007h-.274l-.274.011-.271.017-.273.028-.272.035-.273.042-.27.051-.267.058-.268.065-.265.075-.263.081-.26.088-.257.095-.254.103-.251.109-.248.117-.243.121-.237.13-.234.137-.23.143-.225.149-.217.155-.213.161-.203.167-.279.238-.275.242-.276.245-.274.252-.274.256-.271.262-.266.267-.267.27-.261.277-.258.284-.252.285-.25.292-.24.297-.236.301-.23.307-.222.312-.215.318-.206.322-.197.327-.187.332-.178.337-.168.341-.155.35-.144.35-.131.359-.12.362-.105.368-.088.372-.076.376-.059.382-.041.385-.028.396-.002.557.039.558.077.553.115.548.15.538.183.53.215.52.245.509.27.497.3.487.323.472.347.457.197.241.092-.001.685-.014zM31.8 25.832l.44.376.453.362.466.338.48.318.49.298.498.275.508.25.514.228.519.201.524.173.528.147.53.117.53.089.53.053.529.022.521-.016.54-.05.535-.086.531-.12.527-.15.52-.179.515-.209.507-.235.498-.26.49-.287.481-.307.47-.333.458-.35.446-.37.43-.39.418-.407.38-.394-1.159.005c-1.912 1.858-4.296 3.16-6.635 3.303-2.503.155-5.345-1.103-7.52-3.071l-1.154.022.237.241.425.396z" fill="#2C2F4A" mask="url(#b)"/><path d="M30.97 25.024l.167.17c.386-.006.77-.014 1.154-.022a13.14 13.14 0 0 1-.81-.8l-.293.005-.684.013-.09.001.169.205.387.428zM47.24 24.107c-.255.29-.516.568-.792.835.386-.004.771-.005 1.155-.007l.027-.026.387-.438.3-.367-.672.002-.406.001zM139.748 32.346l.013-.228.043-.229.032-.087c-2.126-.164-4.643.502-7.181 2.075-1.336.828-2.55 1.118-3.752 1.344l-.05.207-.137.663.042-.008.189-.034.188-.036.19-.037.196-.038.194-.043.196-.043.2-.048.2-.05.203-.056.202-.06.208-.065.207-.068.21-.077.213-.08.212-.09.215-.093.217-.103.22-.11.218-.116.222-.126.215-.13.262-.159.254-.148.25-.14.251-.134.251-.13.251-.121.25-.116.247-.109.246-.103.246-.097.244-.091.243-.086.238-.077.239-.071.236-.067.237-.061.233-.055.229-.048.229-.042.228-.038.22-.03.224-.024.217-.019.215-.014.212-.006.21-.005.208.006.203.008.13.01-.01-.041-.018-.226zM130.1 31.017c4.327-1.27 7.558-5.371 12.28-7.1.182 1.024.63 2.053.817 3.08l.037-.009.17-.015h.174l.171.015.172.036.116.04-.01-.076-.028-.163-.033-.164-.035-.162-.038-.16-.04-.155-.043-.158-.042-.152-.046-.153-.045-.15-.047-.15-.09-.291-.043-.145-.043-.14-.042-.142-.04-.138-.039-.137-.037-.134-.033-.132-.03-.131-.027-.13-.04-.212c-.106-.47-.607-.698-1.078-.536l-.519.201-.521.225-.507.24-.495.254-.485.265-.474.276-.464.284-.457.293-.449.298-.441.302-.434.306-.427.305-.426.304-.418.303-.417.3-.413.295-.412.29-.409.28-.408.272-.408.26-.41.248-.409.239-.412.22-.412.206-.416.19-.418.171-.175.063-.158.42-.194.554zM141.057 32.706l.2-.039.193-.057.183-.074.173-.087.163-.101.151-.11.144-.118.135-.125.127-.134.12-.137.114-.14.107-.148.102-.153.096-.153.091-.156.087-.16.082-.16.079-.163.073-.164.07-.162.065-.165.061-.16.06-.165.052-.16.051-.16.046-.155.042-.154.039-.149.037-.154.034-.176.03-.183.02-.179.01-.178-.24-.148-.077-.037-.071-.025-.079-.017-.088-.008-.096.002-.1.007-.069.013c.003.25-.012.502-.07.751-.305 1.344-1.204 3.441-2.528 3.328l-.003.01-.037.083-.044.122-.022.109-.006.117.011.12.025.126.042.128.004.014.203.003.208-.019z" fill="#2C2F4A" mask="url(#b)"/><path d="M140.043 32.638l.167.022c-.068-.275-.068-.555.043-.811-.139-.019-.275-.037-.418-.05l-.03.09-.044.228-.012.23.018.225.008.041.071.005.197.02zM143.75 26.989l-.174-.017h-.172l-.17.017-.039.008c.025.134.051.27.064.405.283-.044.562-.017.79.117l.04.025-.002-.045-.015-.172-.02-.17-.014-.093-.117-.04-.171-.035z" fill="#2C2F4A" mask="url(#b)"/><path d="M140.452 32.698l.186.023h.01l-.005-.01-.042-.13-.026-.127-.011-.121.006-.116.022-.11.045-.12.034-.085.004-.009-.11-.008c-.099-.018-.209-.021-.314-.037-.11.257-.11.538-.04.81l.026.004.215.036zM143.342 27.802l.103-.011h.094l.087.01.08.016.071.025.075.036.241.148v-.001l.007-.178-.005-.175-.006-.127-.04-.025c-.23-.136-.507-.163-.789-.119.014.139.014.275.016.413l.066-.012z" fill="#2C2F4A" mask="url(#b)"/><path d="M142.07 28.017a2.18 2.18 0 0 1 1.19-.616c-.014-.136-.04-.27-.064-.407l-.128.023-.166.042-.16.053-.157.064-.152.072-.147.081-.14.09-.131.099-.126.104-.111.11-.096.107-.093.107-.087.114-.085.117-.08.12-.08.125-.074.126-.07.13-.072.13-.067.135-.065.134-.063.136-.062.137-.059.137-.057.137-.056.137-.054.14-.053.135-.053.134-.05.135-.047.13-.047.132-.048.127-.044.124-.045.122-.044.119-.041.112-.042.109-.042.106-.04.1-.038.092-.046.104-.043.119c.142.01.278.03.418.048l.003-.016c.438-.974.913-2.87 1.815-3.816" fill="#91D5F5" mask="url(#b)"/><path d="M140.307 30.566l.048-.13.05-.132.05-.132.049-.138.054-.135.053-.136.057-.139.057-.138.059-.136.06-.137.065-.136.065-.134.069-.134.068-.133.072-.126.076-.128.078-.123.08-.121.084-.117.088-.114.092-.11.099-.107.111-.11.124-.104.132-.096.139-.09.145-.082.154-.073.156-.062.161-.053.164-.042.129-.022c-.186-1.025-.635-2.054-.815-3.078-4.72 1.73-7.952 5.826-12.28 7.099l-.09.257-.266.82-.25.825-.23.83-.214.837-.147.634c1.202-.224 2.416-.514 3.752-1.344 2.54-1.571 5.057-2.239 7.181-2.075l.042-.12.045-.105.04-.092.04-.098.04-.106.043-.107.043-.116.043-.117.044-.121.045-.125.046-.128z" fill="#91D5F5" mask="url(#b)"/><path d="M143.26 27.401a2.16 2.16 0 0 0-1.19.616c-.9.946-1.376 2.842-1.814 3.818l-.004.013c.104.015.213.018.315.037l.108.008c1.326.114 2.224-1.985 2.53-3.326.056-.25.071-.502.07-.754-.002-.136 0-.275-.016-.412" fill="#91D5F5" mask="url(#b)"/><path fill="#344D63" mask="url(#b)" d="M95.129 29.1l.131.13.254.21.143.095-.002-.003-.097-.108-.096-.11-.098-.113-.096-.114-.062-.075z"/><path d="M97.408 30.31l-.093-.119-.091-.115-.094-.114-.096-.112-.096-.113-.098-.109-.098-.109-.096-.108-.099-.107-.096-.108-.096-.107-.094-.105-.096-.106-.091-.106-.09-.104-.089-.106-.086-.106-.085-.106-.082-.106-.375-.512-.613.675.076.163.134.215c.121-.133.243-.267.37-.409.428.594.967 1.135 1.454 1.698l.251.11.389.175.182.086-.013-.017-.089-.118z" fill="#91D5F5" mask="url(#b)"/><path fill="#91D5F5" mask="url(#b)" d="M105.72 35.045l-.046-.563-.037-.561-.028-.561-.02-.559-.01-.56-.002-.556.008-.555.013-.555.024-.552.032-.552.031-.43-.152-.114-.416-.338-.396-.345-.377-.35-.357-.355-.341-.36-.327-.363-.313-.363-.301-.367-.295-.366-.285-.367-.278-.365-.277-.363-.271-.36-.276-.359-.273-.353-.275-.348-.284-.343-.286-.337-.296-.33-.306-.323-.318-.315-.33-.309-.346-.298-.364-.288-.259-.192-.15-.125-.096.15-.142.274-.228.403-.226.399-.226.397-.223.396-.22.392-.215.388-.206.384-.198.38-.185.373-.173.37-.161.36-.144.353-.127.348-.107.335-.088.328-.065.316-.044.303-.018.293.005.28.03.268.058.255.08.244.036.074.613-.675.376.51.082.107.084.106.087.104.088.107.09.106.093.106.094.106.095.106.097.106.098.107.096.108.096.107.097.11.1.109.094.112.097.112.093.114.095.117.09.117.09.12.012.015.206.099.388.187.386.196.385.2.384.204.386.207.384.212.384.219.382.218.384.22.383.223.382.224.383.226.382.225.383.228.384.226.384.224.384.225.385.223.384.22.386.218.32.18z"/><path d="M94.863 28.784l.01.014.174.22.082.08.08-.086.061.075.095.113.094.113.1.11.095.11.002.003.156.104.344.192.4.185.131.056c-.488-.562-1.025-1.102-1.454-1.697-.124.141-.248.277-.37.408M129.028 24.416c-.7-.001-1.4.008-2.1.01l-.378.397-.416.406-.434.388-.444.373-.46.349-.469.332-.478.307-.491.285-.499.262-.506.236-.514.207-.522.181-.528.151-.531.119-.534.086-.54.051-.521.014-.53-.023-.53-.053-.529-.088-.53-.117-.527-.146-.524-.175-.52-.201-.514-.226-.506-.251-.5-.274-.49-.298-.48-.318-.464-.34-.455-.359-.44-.379-.424-.394-.239-.242c-1.12.022-2.237.045-3.357.061a36.148 36.148 0 0 0-.562 3.909l.347.238.465.297.492.285.522.276.478.23c.551.27.294.788-.094.8a.44.44 0 0 1-.245-.054l-.505-.243-.55-.29-.521-.303-.455-.291c-.124 1.949-.1 3.924.108 5.917l.367.193.39.201.392.192.393.192.393.182.233.104.151.067c.558.264.211.983-.354.74l-.366-.164-.404-.189-.402-.193-.4-.2-.257-.13c.25 1.88.638 3.77 1.208 5.664 2.033 6.757 3.79 13.47 3.462 20.583 4.678.591 9.747.396 14.835.164 2.197-1.687 2.654-3.58 1.978-6.806-1.422-6.79-1.59-13.54-.349-19.87.056-.29.123-.58.186-.87a41.523 41.523 0 0 1 1.126-4.139c.1-.3.21-.602.316-.903.315-.877.651-1.746 1.03-2.6 1.123-2.546.554-3.315-1.484-3.32" fill="#91D5F5" mask="url(#b)"/><path d="M94.353 28.727c-1.194-2.276 1.26-5.645 3.026-8.958 3.694 2.346 4.783 5.976 8.349 8.785l.014-.182.032-.304-.136-.11-.373-.325-.356-.332-.341-.338-.327-.343-.31-.347-.304-.352-.293-.354-.287-.359-.278-.358-.277-.362-.274-.362-.275-.361-.275-.362-.279-.357-.285-.359-.29-.354-.298-.35-.31-.345-.322-.341-.336-.334-.351-.327-.37-.319-.39-.31-.41-.298c-.747-.567-.888-.407-1.221.262l-.22.396-.224.4-.225.399-.228.396-.223.399-.223.394-.216.396-.212.392-.203.391-.194.388-.181.385-.169.382-.153.378-.14.375-.117.375-.1.368-.075.364-.051.362-.025.357.008.354.04.348.074.341.113.334.152.321.042.065.033-.032.264-.272zM105.767 35.54c-2.659-1.46-5.235-3.145-7.843-4.44l.051.096.067.137.063.14.056.144.03.078.308.159.378.202.379.204.378.21.38.213.378.215.381.222.378.218.381.224.384.226.381.225.382.228.386.224.386.228.385.226.387.223.39.223.389.221.393.218.392.216.036.018-.048-.43-.008-.069zM94.846 29.393l-.184.189-.106.1.16.16.316.258.356.24.4.224.436.201.385.169.36.162-.05-.073-.077-.108-.08-.106-.083-.106-.085-.106-.088-.106-.064-.075-.052-.025c-.674-.287-1.177-.622-1.544-.998" fill="#2C2F4A" mask="url(#b)"/><path d="M98.105 31.473l-.062-.14-.068-.138-.048-.093c-.228-.112-.457-.21-.683-.317.14.201.268.407.375.622l.125.061.378.19.068.035-.028-.077-.057-.143zM94.288 29.375c.096-.096.192-.192.29-.294a2.609 2.609 0 0 1-.225-.354l-.264.27-.034.034.154.242.079.102z" fill="#2C2F4A" mask="url(#b)"/><path d="M96.506 30.49l.088.107.086.106.082.106.079.106.079.107.05.075.018.008.378.178.253.124a5.225 5.225 0 0 0-.376-.622c-.266-.125-.532-.254-.8-.368l.063.074zM94.557 29.683l.105-.101.184-.189a3.11 3.11 0 0 1-.27-.31c-.095.098-.193.198-.289.293l.155.19.115.117zM108.752 30.783c.387-.014.646-.53.095-.8l-.479-.231-.523-.276-.493-.287-.464-.296-.345-.239c-.014.155-.031.309-.044.463.665.454 1.403.886 2.253 1.274v.392zM107.376 36.843l.403.193.404.189.366.162c.563.245.91-.474.354-.738l-.15-.067v.45a34.838 34.838 0 0 1-2.103-1.025c.02.168.047.335.07.504l.257.134.4.198zM105.4 34.87l-.386-.218-.387-.222-.384-.222-.384-.223-.384-.227-.383-.226-.382-.227-.384-.225-.383-.224-.382-.226-.382-.223-.384-.222-.381-.218-.384-.215-.386-.212-.384-.21-.384-.205-.385-.198-.388-.195-.388-.188-.206-.097.076.103.083.123.082.126.08.13.074.132.021.04c2.606 1.293 5.183 2.98 7.841 4.438l-.046-.491-.32-.178zM94.653 28.408l-.036-.073-.08-.245-.058-.256-.03-.268-.005-.278.018-.293.044-.305.065-.317.088-.327.108-.337.127-.345.143-.354.16-.36.173-.368.187-.374.197-.38.207-.384.214-.388.218-.391.225-.396.227-.396.225-.401.226-.402.144-.275.096-.15.15.125.259.192.363.29.347.298.329.305.317.317.308.323.296.329.286.338.282.343.277.35.274.352.273.357.272.361.278.364.278.364.285.367.294.366.302.365.313.365.327.363.34.359.36.355.374.353.397.344.416.335.15.114.011-.118.033-.367c-3.563-2.81-4.653-6.439-8.348-8.785-1.766 3.311-4.22 6.682-3.027 8.958l.152-.154.149-.165zM95.26 29.232l-.13-.133-.035.036-.25.26c.368.375.871.71 1.543.995l.056.025-.027-.03-.09-.105-.094-.106-.096-.106-.094-.106-.096-.106-.098-.108-.096-.108-.096-.106-.142-.093-.254-.209z" fill="#2C2F4A" mask="url(#b)"/><path d="M94.73 28.57l-.078-.161-.147.165-.152.153c.065.121.14.24.225.355.096-.097.19-.195.285-.3l-.134-.213zM97.83 30.929l-.08-.13-.081-.126-.086-.123-.074-.103-.181-.086-.389-.177-.25-.11c.198.231.383.468.554.712.227.106.457.202.684.314l-.022-.04-.075-.131z" fill="#2C2F4A" mask="url(#b)"/><path d="M96.555 30.017l-.4-.186-.343-.192-.156-.102.096.102.097.108.096.11.098.105.094.106.096.106.093.105.092.106.026.03c.266.115.533.246.799.37a9.165 9.165 0 0 0-.556-.71l-.132-.058zM94.846 29.393l.25-.257.033-.037-.082-.081-.175-.22-.008-.014c-.097.103-.192.2-.288.298.08.107.17.21.27.311M108.752 36.581l-.232-.104-.393-.182-.394-.19-.391-.194-.392-.2-.366-.193c.017.162.047.326.067.488a33.47 33.47 0 0 0 2.101 1.025v-.45zM106.932 29.892l.52.302.55.292.505.241a.466.466 0 0 0 .246.056v-.391c-.851-.39-1.588-.82-2.254-1.274-.013.16-.014.323-.025.482l.458.292zM106.449 28.59l.094.065c.118-1.319.302-2.622.56-3.907 1.12-.017 2.238-.04 3.359-.062l-.169-.17-.387-.43-.169-.202-.593.01-.684.012-.685.01-.593.01c-.464.005-.777.223-.89.73l-.091.465-.096.534-.088.541-.081.541-.074.545-.064.544-.025.243.259.21.417.31zM126.954 24.4l-.025.027c.7-.004 1.4-.013 2.098-.01 2.038.005 2.61.774 1.484 3.318a39.433 39.433 0 0 0-1.028 2.602l.29-.076.43-.13.249-.088.144-.386.32-.796.343-.8.103-.24.096-.24.09-.233.078-.224.07-.22.06-.212.048-.207.04-.205.028-.198.017-.196.004-.195-.007-.193-.025-.192-.04-.187-.06-.187-.078-.181-.098-.169-.116-.159-.13-.143-.144-.126-.153-.111-.161-.094-.166-.079-.17-.066-.175-.054-.177-.045-.182-.035-.186-.03-.19-.018-.197-.014-.2-.008-.203-.004-.69-.002h-.703l-.302.37-.386.436z" fill="#2C2F4A" mask="url(#b)"/><path d="M128.386 36.15l-.184.034-.181.032-.166.033c-1.242 6.329-1.075 13.081.348 19.871.675 3.223.222 5.116-1.977 6.806-5.09.23-10.159.426-14.837-.167.332-7.11-1.426-13.826-3.46-20.582a35.929 35.929 0 0 1-1.21-5.664l-.14-.072-.397-.21-.36-.192.015.132.074.566.08.566.092.566.1.566.11.57.118.567.129.567.136.57.147.568.158.57.167.565.19.633.188.632.183.63.183.63.18.63.174.63.172.628.169.63.162.626.16.63.153.629.149.63.142.63.137.63.133.63.122.63.118.63.11.634.102.633.094.633.087.634.077.636.069.636.06.638.051.64.04.64.031.642.02.644.01.644-.002.647-.01.649-.025.667c.024.534.328.783.802.845l.356.046.452.05.452.045.452.04.457.038.457.03.46.032.46.025.46.02.464.019.464.014.466.012.468.008.468.006.47.005h.47l.47-.001.472-.007.473-.004.473-.008.474-.013.477-.01.474-.015.477-.015.475-.014.479-.019.475-.019.477-.018.478-.02.477-.022.479-.02.738-.035.417-.329.207-.176.202-.178.192-.184.18-.189.173-.19.164-.196.153-.2.144-.206.135-.208.122-.216.115-.218.103-.224.092-.228.082-.232.071-.237.062-.242.051-.245.043-.248.033-.254.022-.256.015-.26.005-.263-.003-.27-.011-.275-.022-.277-.026-.282-.033-.29-.043-.292-.048-.3-.056-.306-.062-.304-.187-.925-.169-.918-.153-.917-.138-.917-.12-.914-.106-.913-.091-.91-.073-.908-.059-.904-.04-.905-.025-.9-.008-.896.008-.895.025-.889.042-.887.058-.882.075-.88.094-.871.109-.87.127-.865.144-.86.16-.854.04-.187-.143.027-.186.032zM129.775 30.263l-.292.073c-.108.301-.216.6-.317.906.317-.06.629-.135.935-.224l.192-.555.16-.423-.251.092-.427.131z" fill="#2C2F4A" mask="url(#b)"/><path d="M128.903 35.22c-.288.055-.575.107-.863.158-.063.29-.13.58-.187.87l.169-.031.18-.035.185-.032.183-.035.145-.025.14-.66.048-.21z" fill="#2C2F4A" mask="url(#b)"/><path d="M129.264 33.749l.23-.832.248-.823.268-.82.09-.257a9.703 9.703 0 0 1-.934.224 40.855 40.855 0 0 0-1.125 4.138l.862-.159.147-.634.214-.837zM106.475 29.601l-.035-.022-.465-.32-.29-.22-.032.433-.031.552-.023.552-.016.553-.007.555.001.558.012.559.02.56.027.559.037.563.047.561v.005l.065.037.388.212.389.21.022.01a35.224 35.224 0 0 1-.109-5.917M105.726 28.554c.243.192.505.38.773.563.012-.154.03-.307.045-.461l-.095-.066-.416-.312-.26-.21-.03.304-.017.182zM106.578 36.44l.143.071c-.024-.168-.051-.335-.072-.503-.292-.154-.59-.309-.884-.47l.008.07.05.433.359.19.396.209z" fill="#2C2F4A" mask="url(#b)"/><path d="M106.562 35.506l-.389-.209-.387-.212-.066-.036.048.49c.292.16.588.313.882.47-.018-.165-.048-.328-.066-.49l-.022-.013zM105.686 29.04l.288.217.466.32.035.024c.01-.16.011-.324.024-.485-.27-.182-.528-.37-.772-.563l-.034.367-.007.12z" fill="#2C2F4A" mask="url(#b)"/><path d="M121.445 6.323c-2.418-.753-5.478.02-7.418 1.66-2.874 2.428-5.774 5.689-5.933 9.462-.1 2.303 1.015 4.587 2.71 6.417.26.28.53.546.812.802 2.176 1.969 5.019 3.225 7.52 3.071 2.339-.143 4.725-1.445 6.636-3.304.275-.266.538-.544.79-.834 1.879-2.134 3.135-4.805 3.125-7.314-.032-7.45-4.445-8.778-8.242-9.96" fill="#91D5F5" mask="url(#b)"/><path d="M110.513 23.868l.293-.004c-1.697-1.832-2.812-4.115-2.713-6.42.161-3.773 3.061-7.031 5.935-9.46 1.939-1.64 4.998-2.414 7.417-1.66 3.798 1.181 8.211 2.51 8.24 9.959.013 2.509-1.244 5.18-3.12 7.316l.406-.002.67-.002.069-.084.353-.463.333-.479.31-.488.294-.495.269-.507.246-.515.222-.52.196-.529.169-.532.142-.537.112-.538.082-.543.048-.543.015-.536-.017-.719-.041-.68-.068-.646-.092-.618-.12-.59-.14-.557-.163-.53-.185-.503-.205-.475-.227-.452-.248-.423-.265-.399-.282-.374-.295-.35-.312-.325-.323-.304-.335-.286-.343-.26-.35-.245-.36-.224-.363-.21-.37-.192-.374-.18-.373-.167-.376-.156-.375-.146-.376-.137-.375-.13-.371-.124-.369-.117-.364-.114-.365-.116-.253-.071-.261-.066-.267-.054-.267-.046-.268-.035-.271-.027-.271-.017-.274-.006-.273.001-.272.01-.274.017-.271.028-.274.034-.271.042-.27.052-.268.057-.268.066-.264.075-.264.08-.26.088-.257.095-.254.103-.25.11-.248.116-.243.122-.237.13-.234.136-.23.144-.225.148-.217.156-.214.16-.203.167-.278.239-.276.241-.276.245-.274.253-.274.256-.27.26-.267.268-.265.27-.263.277-.257.283-.252.286-.25.292-.241.298-.236.302-.229.306-.223.312-.215.318-.206.32-.197.328-.187.332-.178.337-.167.342-.155.349-.144.35-.132.36-.119.361-.105.368-.088.373-.076.375-.06.38-.04.388-.027.396-.003.555.038.56.078.553.114.547.15.538.183.53.216.52.246.51.27.496.298.487.324.47.346.46.2.24h.09l.684-.015zM111.124 25.324l.44.378.455.357.464.34.48.318.49.298.5.275.508.25.512.227.519.202.525.173.528.147.53.117.529.089.531.053.528.022.522-.016.539-.05.535-.086.531-.118.527-.151.52-.18.516-.209.506-.235.499-.26.489-.287.482-.307.469-.332.458-.351.444-.37.432-.388.418-.408.38-.395-1.158.005c-1.913 1.858-4.296 3.16-6.635 3.304-2.504.154-5.345-1.104-7.52-3.072l-1.154.022.237.242.424.396z" fill="#2C2F4A" mask="url(#b)"/><path d="M126.564 23.599c-.254.29-.517.567-.791.834l1.155-.007.026-.026.387-.438.3-.367-.671.002-.406.002zM110.295 24.516l.167.17 1.153-.022a13.14 13.14 0 0 1-.81-.802l-.292.007-.685.012-.09.002.17.204.387.429z" fill="#2C2F4A" mask="url(#b)"/><path d="M95.59 28.023l-.902.426s.28.728 1.124 1.19l.697-.35-.92-1.266z" fill="#91D5F5" mask="url(#b)"/><path d="M39.292 81.756c.333.797.946 2.061 1.841 3.79.897 1.731 1.782 3.487 2.659 5.267a120.816 120.816 0 0 0 2.963 5.624c.883 1.556 1.382 2.47 1.496 2.74 3.2-7.216 5.622-13.023 7.267-17.42 3.066 0 5.896-.077 8.49-.232.243-.014.422-.02.537-.02.523 0 .786.206.786.618 0 .36-.206.54-.613.54-1.457 0-2.41.498-2.864 1.494-.454.998-.68 3.424-.68 7.283l-.02 9.453c0 1.929.252 3.279.757 4.05.505.772 1.325 1.178 2.462 1.217.55.012.824.198.824.558 0 .193-.115.354-.344.483l-5.376-.039c-1.646 0-3.896.064-6.753.194-.243-.167-.363-.348-.363-.541 0-.297.33-.495.99-.598.674-.116 1.159-.283 1.458-.502.298-.22.524-.625.676-1.216.152-.592.23-1.46.23-2.608l.075-8.63c0-4.415.006-6.958.019-7.627-3.469 8.128-5.618 13.316-6.446 15.568l-1.932 5.226c-.217.553-.436.831-.652.831-.23 0-.505-.341-.824-1.023-.934-1.98-4.266-8.52-9.993-19.618-.064 3.193-.096 7.499-.096 12.917 0 2.86.16 4.665.478 5.416.32.754 1.214 1.195 2.683 1.324.485.052.728.23.728.54 0 .333-.198.502-.594.502-.141 0-.295-.008-.46-.022-1.532-.114-2.631-.172-3.295-.172-1.813 0-3.187.066-4.119.194-.18.025-.313.039-.403.039-.445 0-.67-.187-.67-.56 0-.18.054-.306.163-.376.108-.072.4-.157.871-.26 1.227-.233 2.029-.677 2.405-1.333.376-.657.565-1.732.565-3.225l.096-11.024c0-2.509-.063-4.17-.192-4.98-.127-.81-.44-1.436-.938-1.873-.499-.438-1.31-.767-2.433-.985-.422-.09-.633-.303-.633-.636 0-.36.23-.541.69-.541.101 0 .242.008.422.022 1.302.113 3.988.171 8.062.171M73.72 83.647c0 .76-.272 1.41-.814 1.958-.543.546-1.19.82-1.944.82a2.64 2.64 0 0 1-1.954-.82 2.702 2.702 0 0 1-.806-1.958c0-.772.27-1.428.806-1.968a2.655 2.655 0 0 1 1.954-.81c.754 0 1.4.27 1.944.81.542.54.815 1.196.815 1.968zm.269 6.52c.05 1.8.077 5.01.077 9.626l-.057 4.148c0 .835.136 1.395.412 1.677.274.284.724.471 1.35.56.715.09 1.073.296 1.073.617 0 .348-.282.521-.844.521-.268 0-.734-.019-1.398-.058a65.004 65.004 0 0 0-4.176-.134c-.678 0-1.367.035-2.07.106a7.642 7.642 0 0 1-.861.086c-.562 0-.844-.173-.844-.52 0-.334.37-.534 1.112-.6.983-.088 1.533-.419 1.647-.993.115-.57.172-1.732.172-3.481 0-2.264-.036-4.344-.105-6.241-.07-1.896-.2-2.98-.392-3.25s-.69-.45-1.494-.54c-.627-.065-.94-.25-.94-.559 0-.31.319-.49.958-.54l.403-.038 5.977-.387zM85.406 80.753l.057 16.185c.013 5.17.147 7.994.403 8.47.255.475.766.732 1.533.771.893.037 1.34.218 1.34.54 0 .399-.275.598-.823.598a8.02 8.02 0 0 1-.67-.039 43.543 43.543 0 0 0-3.602-.154c-1.89 0-3.289.05-4.196.15a6.42 6.42 0 0 1-.69.043c-.574 0-.862-.174-.862-.522 0-.334.326-.52.977-.558.702-.04 1.216-.169 1.543-.387.325-.218.523-.524.593-.917.07-.393.105-1.31.105-2.752l-.076-7.586.057-6.025c0-2.498-.117-4.013-.354-4.546-.236-.535-.935-.898-2.098-1.092-.702-.103-1.053-.307-1.053-.617 0-.194.079-.325.238-.395.161-.071.553-.132 1.18-.182 2.617-.22 4.75-.547 6.398-.985M93.75 98.799c0 2.454.323 4.249.967 5.385.646 1.137 1.465 1.704 2.462 1.704.958 0 1.777-.542 2.462-1.627.683-1.086 1.023-3.047 1.023-5.886 0-2.31-.286-4.045-.86-5.201-.577-1.156-1.444-1.734-2.607-1.734-1.149 0-2.011.613-2.585 1.84-.575 1.227-.863 3.066-.863 5.519m6.955-6.78c0-3.718-.02-6.195-.058-7.438-.038-1.24-.141-1.967-.307-2.178-.166-.214-.62-.384-1.36-.513-.498-.076-.747-.256-.747-.54 0-.218.086-.356.258-.414.172-.058.725-.087 1.659-.087h5.057l-.04 13.697-.094 8.508c0 1.311.11 2.14.335 2.488.223.346.737.572 1.542.675.472.052.71.231.71.54 0 .335-.25.502-.749.502h-6.206v-2.643c-.55.99-1.22 1.73-2.012 2.219-.792.488-1.711.733-2.758.733-1.956 0-3.67-.764-5.144-2.294-1.475-1.53-2.214-3.5-2.214-5.915 0-2.646.844-4.821 2.53-6.524 1.686-1.7 3.563-2.552 5.631-2.552.78 0 1.498.143 2.156.433.658.29 1.262.724 1.811 1.302M114.145 90.553c.064 1.324.096 3.13.096 5.42 0 3.473.033 5.694.096 6.665.064.971.316 1.701.757 2.189.44.49.942.734 1.504.734.664 0 1.338-.25 2.02-.753a4.436 4.436 0 0 0 1.515-1.967c.325-.81.487-2.135.487-3.975l.04-4.262c0-1.132-.061-1.877-.182-2.238-.122-.36-.534-.553-1.237-.578-.767-.039-1.15-.239-1.15-.599 0-.218.094-.357.278-.414.186-.058.674-.088 1.466-.088 1.775 0 3.43-.043 4.963-.134.05.502.076 3.246.076 8.237 0 4.012.039 6.202.114 6.569.078.366.493.581 1.245.645.448.052.672.239.672.56 0 .373-.255.56-.766.56-.102 0-.263-.007-.48-.019a17.424 17.424 0 0 0-1.264-.039c-1.698 0-2.638.006-2.816.019-.204.014-.378.02-.517.02-.243 0-.394-.042-.45-.126-.058-.083-.086-.33-.086-.742 0-.67.043-1.344.133-2.026-.88 1.08-1.81 1.89-2.787 2.43-.977.54-2.002.812-3.075.812-3.258 0-4.885-1.84-4.885-5.518v-5.962c0-2.057-.075-3.262-.222-3.616-.145-.354-.532-.575-1.158-.666-.562-.076-.844-.244-.844-.502 0-.347.251-.52.748-.52 3.424 0 5.327-.04 5.71-.116M135.458 94.064c.638-1.3 1.374-2.27 2.204-2.913.83-.644 1.755-.965 2.777-.965.97 0 1.747.284 2.328.848.58.566.871 1.274.871 2.122 0 .67-.207 1.24-.622 1.708-.415.47-.923.704-1.524.704-.446 0-.817-.115-1.11-.347-.294-.231-.607-.643-.94-1.234-.46-.85-.862-1.274-1.206-1.274-.472 0-1.01.482-1.609 1.446-.6.962-.901 2.831-.901 5.605 0 3.506.118 5.455.355 5.847.235.391.757.586 1.562.586.701 0 1.053.193 1.053.58 0 .36-.345.54-1.034.54-.384 0-.94-.036-1.668-.107a21.763 21.763 0 0 0-1.877-.087 51.62 51.62 0 0 0-3.756.136c-.523.039-.83.057-.918.057-.538 0-.805-.202-.805-.608 0-.352.312-.542.94-.569.611-.025 1.04-.17 1.281-.433.244-.262.364-.837.364-1.723l.078-4.818c0-.976-.039-2.189-.115-3.64-.077-1.45-.147-2.316-.21-2.59-.065-.278-.228-.526-.49-.742-.261-.219-.616-.348-1.062-.385-.46-.053-.75-.114-.873-.184-.121-.07-.181-.216-.181-.435 0-.346.319-.526.958-.54 1.174-.012 3.173-.167 5.995-.463l.135 3.878zM153.54 97.555c-.306.375-1.04.87-2.203 1.49-1.06.567-1.768 1.07-2.126 1.507-.358.452-.537 1.104-.537 1.954 0 .902.19 1.59.565 2.06.378.472.84.706 1.389.706.742 0 1.43-.345 2.07-1.034.638-.69.957-1.905.957-3.647 0-.541-.037-1.553-.115-3.036m-.249 7.737c-.791.758-1.589 1.327-2.394 1.706-.805.378-1.616.569-2.432.569-1.304 0-2.309-.396-3.018-1.188-.71-.792-1.064-1.754-1.064-2.89 0-.876.214-1.658.641-2.348.426-.689.956-1.224 1.586-1.602.632-.38 1.674-.835 3.126-1.365 1.225-.436 2.044-.782 2.457-1.033.414-.251.762-.618 1.042-1.1.28-.483.42-1.108.42-1.875 0-.845-.21-1.52-.629-2.026-.42-.505-.997-.757-1.735-.757-.635 0-1.087.159-1.355.48-.267.332-.47.864-.61 1.593-.293 1.46-1.08 2.19-2.357 2.19-.523 0-.97-.155-1.34-.464-.37-.308-.555-.751-.555-1.331 0-1.233.667-2.156 2-2.768 1.335-.61 2.928-.916 4.782-.916 1.595 0 2.894.244 3.897.734 1.003.488 1.644 1.054 1.926 1.696.28.643.421 1.647.421 3.01l-.038 4.572c0 2.405.08 3.948.24 4.63.16.68.501 1.022 1.025 1.022.076 0 .18-.006.306-.02.256-.025.428-.037.517-.037.524 0 .785.146.785.442 0 .194-.108.357-.325.493-.216.136-.871.306-1.963.511-1.093.206-2.08.31-2.96.31-.882 0-1.485-.17-1.81-.508-.326-.338-.522-.915-.586-1.73" fill="#2C2F4A" mask="url(#b)"/></g></g></svg>