<svg width="192" height="169" xmlns="http://www.w3.org/2000/svg" xmlns:xlink="http://www.w3.org/1999/xlink"><defs><path id="a" d="M1.17 181.523h198.063V0H1.17z"/></defs><g transform="translate(-5 -2)" fill="none" fill-rule="evenodd"><path d="M97.877 105.61s5.733-3.012 8.65.104c0 0-1.91 5.712-4.024 5.817 0 0-1.81 1.142-4.626-5.92M78.391 60.304s5.94-.52 9.898-.207c0 0-6.042-3.948-12.4-5.505 0 0-1.25-1.766 1.46-1.04 0 0 11.544.787 20.714 11.798 0 0-5.813-16.887-14.357-22.91 0 0-.313-1.454 1.562-.52 0 0 11.462 7.894 13.65 15.268 0 0-.832-12.359-1.248-17.136 0 0-.105-10.18-5.42-14.126 0 0 0-1.351 1.356-.729 0 0 5.418 4.78 5.418 8.726 0 0 2.188-12.671 5.42-16.41 0 0 1.145-.727 1.145.727 0 0-6.044 18.486-5.42 25.135l1.773-2.598s.624-.935 1.354-.31c0 0 1.25.727-.103 2.18-1.356 1.455-4.17 9.866-.418 17.45 0 0-1.563-9.868 8.649-22.227 0 0 1.25-.727 1.669 1.142 0 0-3.648 3.428-3.961 8.516 0 0 6.357-3.218 7.816-5.192 0 0 2.917.415 1.25 2.596 0 0-11.568 5.193-12.4 19.735 0 0 7.295-7.79 7.92-10.18 0 0 1.683.131 1.666 1.247 0 0-2.188 3.22-2.501 6.024 0 0 4.898-8.517 16.36-9.452 0 0 1.251.832.417 2.181 0 0-8.753-.52-10.733 4.882 0 0 6.357-.312 7.398.935 0 0 2.607 2.077-.416 2.908 0 0-9.17-4.882-11.15 4.258l-1.042 24.2s.208 2.804-1.147 4.778c-1.354 1.974-5.313 7.271-5.313 7.271s-1.564-1.039-2.086-1.039c-.52 0 6.045-8.933 6.045-8.933s-.312-1.972-3.648-.622l.521-21.707-1.77.623-.521 21.188s-3.023-2.493-6.148-.312l.103-18.8-.834-1.557-.833 1.765-.313 18.385s-2.293-1.559-3.96.727l5.732 9.14-2.188.935-5.315-8.206s-.73-1.766-.625-5.61c.103-3.842.417-20.771.417-20.771s.103-7.271-6.774-6.855l-6.669.623s-1.564-1.662 0-2.389" fill="#2C2F49"/><path d="M56.668 42.483s1.554 14.671 16.783 10.398c0 0-1.445-13.72-16.783-10.398M67.975 30.688s-6.228 8.508 3.885 13.518c0 0 5.828-7.954-3.885-13.518M76.23 42.355s-5.57 4.138-.193 9.243c0 0 5.212-3.868.194-9.243M73.273 55.07s-7.288 5.416-.252 12.094c0 0 6.818-5.062.252-12.094M68.724 56.013s-10.5-1.203-9.882 10.039c0 0 9.818 1.129 9.882-10.04M62.472 55.01s-5.78-5.258-10.3 1.756c0 0 5.405 4.922 10.3-1.756M80.38 65.27s-7.678 1.506-4.706 9.3c0 0 7.182-1.404 4.706-9.3M83.214 65.035s-3.11 7.158 5.016 9.135c0 0 2.911-6.692-5.016-9.135M89.812 2.528s-10.64 10.258 2.118 19.583c0 0 9.955-9.586-2.118-19.583M106 4.948s-10.56.35-8.292 11.377c0 0 9.877-.323 8.292-11.377M101.7 18.464s-6.702-1.825-7.425 5.542c0 0 6.267 1.71 7.425-5.542M89.829 23.973s-8.77-2.387-9.715 7.25c0 0 8.198 2.238 9.715-7.25M86.527 20.794s-5.517-8.985-14.02-1.577c0 0 5.153 8.405 14.02 1.577M83.946 15.596s.596-7.778-7.731-7.005c0 0-.563 7.273 7.73 7.005M90.668 28.765s-8.857 5.743-1.192 14.01c0 0 8.286-5.367 1.192-14.01M74.988 30.379s-2.81 8.647 6.836 10.042c0 0 2.631-8.086-6.836-10.042M79.718 48.372s2.263 5.26 7.414 1.937c0 0-2.113-4.92-7.414-1.937M135.204 29.039s-11.99-8.652-18.977 5.495c0 0 11.209 8.097 18.977-5.495M112.898 19.468s-9.09 6.385-.706 14.782c0 0 8.505-5.967.706-14.782M125.17 15.99s-8.837 1.126-6.056 10.201c0 0 8.264-1.047 6.056-10.2M103.283 38.673s6.887-1.032 4.556-8.076c0 0-6.441.962-4.556 8.076M150.436 59.402s-5.413-13.732-18.952-5.578c0 0 5.054 12.844 18.952 5.578M142.779 73.748s3.734-9.853-7.351-12.001c0 0-3.498 9.212 7.35 12.001M132.12 65.47s4.266-5.465-2.28-8.962c0 0-3.991 5.11 2.28 8.962M131.839 51.094s5.582-7.152-2.982-11.725c0 0-5.223 6.684 2.982 11.725M136.58 49.234s10.442-1.623 6.849-12.296c0 0-9.766 1.513-6.85 12.296M142.96 50.039s6.975 3.537 9.46-4.423c0 0-6.521-3.312-9.46 4.423" fill="#5CBE89"/><path d="M139.712 17.826s-9.775-5.284-13.602 5.933c0 0 9.14 4.946 13.602-5.933M125.623 41.817s-2.3-6.534-8.794-2.943c0 0 2.15 6.111 8.794 2.943M125.315 45.382s-9.023-1.709-9.207 8.075c0 0 8.438 1.601 9.207-8.075" fill="#5CBE89"/><path d="M111.48 93.94l.08-.11-.021-.134c-.005-.027-.12-.707-.819-1.1-.67-.377-1.613-.359-2.813.055l.52-21.697-2.43.854-.51 20.815c-.975-.585-3.181-1.573-5.507-.294l.1-18.292-1.18-2.202-1.109 2.352-.336 17.992c-.838-.36-2.564-.773-3.907 1.067l-.13.176 5.648 9.005-1.585.676-5.136-7.92c-.008-.018-.703-1.768-.602-5.477.104-3.8.414-20.607.417-20.777.001-.143.024-3.52-2.177-5.615-1.225-1.165-2.887-1.696-4.953-1.567l-6.503.607c-.22-.274-.574-.82-.492-1.233.038-.204.184-.366.443-.497.633-.052 6.11-.495 9.787-.202l.205-.598c-.061-.04-6.084-3.943-12.376-5.517-.126-.215-.201-.46-.152-.529 0-.002.187-.214 1.385.1.113.008 11.508.9 20.485 11.679l.561-.314c-.24-.69-5.893-16.903-14.36-22.984-.004-.11.012-.24.076-.29.1-.073.43-.057.994.22.113.078 11.393 7.911 13.523 15.092l.64-.114c-.01-.124-.839-12.42-1.25-17.119-.005-.418-.166-10.202-5.403-14.27.026-.133.082-.3.198-.373.125-.08.35-.054.633.07.467.422 5.274 4.856 5.274 8.447l.647.056c.023-.126 2.194-12.534 5.31-16.213.143-.077.356-.144.456-.089.069.038.144.195.15.513-.42 1.291-6.03 18.688-5.416 25.217l.085.9 2.284-3.348c.047-.072.275-.345.515-.377.116-.018.23.028.403.166.003.002.305.187.356.533.047.322-.136.717-.535 1.145-1.413 1.517-4.321 10.034-.47 17.815l.615-.194c-.015-.098-1.422-9.833 8.534-21.915.1-.044.343-.13.569-.027.228.101.408.379.53.807-.69.698-3.64 3.946-3.925 8.598l-.035.568.509-.258c.255-.129 6.118-3.113 7.801-5.127.399.09 1.07.327 1.256.774.126.31.008.716-.353 1.206-1.034.503-11.714 6.042-12.513 19.977l-.052.898.616-.658c.29-.31 6.866-7.35 7.905-10.04.377.073 1.053.275 1.113.793-.365.557-2.203 3.46-2.495 6.08l.61.198c.048-.083 4.905-8.317 15.979-9.278.211.177.718.711.326 1.512-1.392-.046-8.96-.056-10.853 5.104l-.168.46.491-.024c2.396-.116 6.448.002 7.18.865.271.217 1.024.962.907 1.518-.08.395-.611.642-1.087.787-.75-.376-4.691-2.19-7.882-.715-1.83.844-3.049 2.612-3.629 5.307l-1.041 24.239c.002.026.182 2.716-1.09 4.57-1.169 1.703-4.33 5.95-5.123 7.014-.415-.263-1.095-.67-1.607-.841.633-1.193 3.848-5.694 5.909-8.498zm-4.146 10.22l.183-.247c.041-.053 3.98-5.325 5.323-7.28 1.403-2.046 1.212-4.868 1.203-4.948l1.035-24.146c.526-2.43 1.623-4.044 3.256-4.799 3.165-1.464 7.38.737 7.42.76l.117.06.125-.034c.987-.271 1.55-.714 1.675-1.319.215-1.04-1.001-2.045-1.095-2.11-.967-1.157-5.526-1.125-7.15-1.072 2.194-4.628 10.132-4.218 10.216-4.213l.195.012.102-.165c.79-1.28.01-2.275-.514-2.623l-.095-.064-.113.01c-8.713.711-13.734 5.812-15.677 8.283.687-2.229 2.097-4.324 2.115-4.348l.054-.08.002-.098c.018-1.123-1.23-1.518-1.97-1.575l-.271-.022-.07.263c-.49 1.878-5.429 7.404-7.207 9.351 1.237-13.465 12.027-18.478 12.139-18.527l.075-.034.051-.065c.546-.718.71-1.36.482-1.91-.4-.976-1.883-1.198-1.946-1.206l-.193-.028-.117.157c-1.155 1.563-5.632 4.008-7.175 4.821.528-4.576 3.772-7.682 3.807-7.715l.134-.127-.04-.18c-.167-.752-.488-1.234-.952-1.436-.597-.262-1.174.068-1.198.083l-.087.074c-5.318 6.434-7.407 12.19-8.221 15.885-.445 2.011-.574 3.633-.589 4.767-2.606-7.045-.028-14.27 1.067-15.447.548-.585.784-1.152.705-1.684-.1-.669-.64-.984-.626-.966-.336-.286-.657-.312-.87-.283-.564.079-.93.603-.968.659l-1.22 1.789c-.037-7.176 5.39-23.867 5.448-24.043l.017-.1c0-.575-.166-.957-.492-1.136-.495-.27-1.09.09-1.158.134l-.072.063c-2.55 2.954-4.426 11.156-5.157 14.8-1.143-3.521-5.023-6.977-5.217-7.147l-.078-.05c-.53-.244-.969-.259-1.305-.047-.498.32-.513.992-.513 1.067v.165l.13.097c5.124 3.805 5.286 13.769 5.29 13.893.308 3.533.85 11.307 1.108 15.045-3.304-6.74-12.57-13.177-13.038-13.494-.797-.399-1.362-.455-1.726-.173-.441.34-.318.98-.302 1.05l.026.124.105.074c6.789 4.786 11.902 16.69 13.615 21.087C88.201 54.09 77.516 53.24 77.434 53.24c-1.097-.296-1.743-.242-2.028.166-.358.51.118 1.234.216 1.375l.07.1.119.029c4.652 1.139 9.185 3.6 11.205 4.79-3.827-.137-8.6.276-8.655.281l-.108.028c-.608.283-.803.695-.86.989-.174.895.664 1.817.759 1.92l.11.116 6.818-.638c1.862-.114 3.362.355 4.449 1.388 1.995 1.895 1.978 5.106 1.977 5.135-.002.17-.313 16.973-.417 20.77-.103 3.868.62 5.667.679 5.794l5.462 8.436 2.794-1.192-5.813-9.271c1.439-1.747 3.298-.53 3.378-.477l.5.336.323-18.913.527-1.114.486.912-.106 19.346.516-.362c2.88-2.01 5.638.201 5.754.296l.518.425.532-21.632 1.113-.39-.522 21.731.461-.186c1.516-.614 2.303-.487 2.695-.27.289.157.418.39.472.526-6.29 8.565-6.11 8.918-6.001 9.13l.114.192h.2c.261 0 1.192.511 1.904.984l.259.171zM68.252 44.373c3.697 2.661 4.648 7.128 4.835 8.272-4.443 1.191-8.107.842-10.895-1.039-3.93-2.65-4.958-7.619-5.158-8.867 4.625-.946 8.397-.396 11.218 1.634m-6.43 7.769c1.819 1.23 3.981 1.846 6.457 1.846 1.62 0 3.377-.264 5.26-.792a.326.326 0 0 0 .238-.348c-.026-.234-.656-5.771-5.136-8.998-3.04-2.193-7.092-2.76-12.043-1.685a.329.329 0 0 0-.256.353c.028.26.732 6.418 5.48 9.624M68.076 31.125c2.832 1.684 4.523 3.74 5.03 6.112.65 3.041-.86 5.758-1.357 6.546-2.853-1.47-4.584-3.371-5.143-5.65-.774-3.144.921-6.149 1.47-7.008m3.64 13.372a.323.323 0 0 0 .408-.1c.1-.137 2.45-3.402 1.623-7.289-.562-2.637-2.45-4.892-5.608-6.702a.327.327 0 0 0-.428.091c-.112.152-2.723 3.781-1.741 7.786.623 2.544 2.556 4.635 5.746 6.214" fill="#2C2F49"/><path d="M78.067 47.45c-.17 1.895-1.49 3.245-2.013 3.71-1.432-1.431-2.112-2.905-2.023-4.385.118-1.98 1.591-3.464 2.167-3.97 1.377 1.553 2.005 3.115 1.869 4.645m-2.031-5.356c-.102.075-2.49 1.88-2.656 4.637-.108 1.753.711 3.47 2.433 5.102a.32.32 0 0 0 .224.09.32.32 0 0 0 .195-.063c.092-.069 2.243-1.693 2.484-4.345.164-1.799-.592-3.61-2.246-5.382a.328.328 0 0 0-.434-.04M75.776 61.747c-.234 2.604-2.1 4.428-2.738 4.98-1.939-1.913-2.862-3.89-2.744-5.88.162-2.721 2.246-4.73 2.946-5.33 1.869 2.08 2.721 4.174 2.536 6.23m-2.264-6.899a.326.326 0 0 0-.434-.039c-.131.096-3.22 2.431-3.435 5.993-.137 2.262.923 4.482 3.151 6.598a.332.332 0 0 0 .421.025c.118-.087 2.899-2.188 3.21-5.613.213-2.323-.769-4.666-2.913-6.964M65.54 63.694c-2.335 2.065-5.455 2.091-6.384 2.053-.123-3.2.68-5.638 2.393-7.25 2.364-2.221 5.821-2.234 6.844-2.18-.073 3.284-1.033 5.766-2.854 7.377m3.221-8.005c-.188-.02-4.644-.495-7.655 2.332-1.913 1.795-2.784 4.503-2.589 8.048a.326.326 0 0 0 .289.306c.044.005.34.036.806.036 1.354 0 4.138-.266 6.358-2.226 2.024-1.787 3.06-4.537 3.082-8.17a.327.327 0 0 0-.29-.326M57.213 58.16c-2.193.23-4.001-.995-4.605-1.459 1.294-1.913 2.802-2.995 4.486-3.215 2.273-.3 4.273 1.065 4.93 1.578-1.445 1.88-3.062 2.92-4.81 3.097m5.522-2.96a.325.325 0 0 0-.042-.433c-.105-.094-2.602-2.33-5.68-1.928-1.955.255-3.676 1.517-5.115 3.75a.328.328 0 0 0 .054.417c.088.08 2.044 1.832 4.718 1.832.196 0 .396-.009.601-.03 2.018-.2 3.856-1.415 5.464-3.608M79.795 71.36c-1.124 1.885-3.182 2.614-3.916 2.821-.772-2.175-.748-4.026.075-5.506 1.11-2 3.4-2.791 4.204-3.013.655 2.274.536 4.19-.363 5.697m.523-6.408c-.14.028-3.428.7-4.934 3.403-.958 1.72-.963 3.848-.017 6.33a.328.328 0 0 0 .37.203c.125-.023 3.086-.628 4.617-3.19 1.038-1.736 1.151-3.93.338-6.524a.328.328 0 0 0-.374-.222M88.026 73.782c-2.236-.598-3.752-1.668-4.51-3.182-1.022-2.046-.378-4.374-.106-5.16 2.254.751 3.767 1.937 4.503 3.527.922 1.992.358 4.097.113 4.815m-4.716-9.058a.328.328 0 0 0-.397.181c-.055.131-1.364 3.211.017 5.98.877 1.76 2.636 2.973 5.223 3.602a.327.327 0 0 0 .377-.186c.05-.117 1.23-2.891-.02-5.6-.848-1.837-2.597-3.175-5.2-3.977M89.836 2.973c3.595 3.05 5.485 6.35 5.618 9.815.173 4.543-2.773 8.04-3.561 8.892-3.679-2.755-5.66-5.848-5.89-9.196-.325-4.718 2.969-8.584 3.833-9.51m1.901 19.4a.326.326 0 0 0 .42-.03c.17-.162 4.157-4.067 3.95-9.574-.142-3.735-2.19-7.266-6.086-10.493a.33.33 0 0 0-.436.017c-.189.183-4.623 4.527-4.235 10.23.248 3.619 2.395 6.934 6.387 9.85M99.272 8.457c2.01-2.544 5.428-3.062 6.446-3.162.411 3.26-.17 5.855-1.735 7.716-2.003 2.384-5.08 2.872-6.01 2.967-.594-3.149-.157-5.676 1.299-7.52m-1.564 8.192h.012c.17-.005 4.198-.172 6.76-3.216 1.74-2.065 2.36-4.936 1.843-8.532a.313.313 0 0 0-.335-.28c-.188.007-4.665.191-7.226 3.428-1.628 2.056-2.088 4.863-1.374 8.34.032.152.166.26.32.26M96.851 19.459c1.638-1.127 3.72-.882 4.474-.743-.38 2.039-1.228 3.494-2.521 4.328-1.603 1.034-3.48.83-4.172.704.249-2.003.995-3.446 2.22-4.29m-2.902 4.517a.325.325 0 0 0 .238.345c.055.015.72.19 1.645.19.953 0 2.182-.185 3.318-.916 1.523-.978 2.489-2.687 2.871-5.08a.325.325 0 0 0-.236-.364c-.123-.033-3.02-.797-5.302.77-1.45.996-2.303 2.697-2.534 5.055M80.469 30.969c.318-2.701 1.313-4.644 2.959-5.778 2.249-1.547 5.12-1.147 6.026-.969-.493 2.748-1.623 4.709-3.362 5.828-2.203 1.422-4.792 1.079-5.623.919m9.682-6.945a.325.325 0 0 0-.238-.366c-.157-.042-3.903-1.03-6.85.994-1.874 1.287-2.976 3.487-3.276 6.54a.327.327 0 0 0 .24.345c.07.02.927.247 2.127.247 1.23 0 2.818-.239 4.287-1.183 1.967-1.265 3.215-3.477 3.71-6.577M72.939 19.276c2.454-2.069 4.879-2.935 7.205-2.585 3.211.487 5.35 3.196 5.94 4.03-2.643 1.966-5.196 2.74-7.59 2.303-3.07-.56-5.014-2.989-5.555-3.748m5.431 4.387c.477.088.956.13 1.443.13 2.226 0 4.546-.918 6.913-2.741l.231-.178-.15-.249c-.1-.162-2.471-3.954-6.56-4.576-2.598-.394-5.275.588-7.956 2.924l-.208.18.145.235c.088.144 2.22 3.556 6.142 4.275M81.838 10.434c1.636 1.601 1.788 4.011 1.788 4.843-2.377-.003-4.195-.606-5.411-1.87-1.523-1.584-1.677-3.756-1.682-4.515 2.311-.164 4.093.357 5.305 1.542m1.664 5.495c.149 0 .3-.003.454-.008a.323.323 0 0 0 .315-.301c.011-.14.239-3.479-1.972-5.647-1.405-1.379-3.463-1.95-6.115-1.707a.327.327 0 0 0-.295.3c-.01.126-.217 3.133 1.85 5.286 1.323 1.38 3.26 2.077 5.763 2.077M86.731 35.237c.4-3.214 3.058-5.42 3.876-6.03 2.044 2.58 2.892 5.099 2.521 7.496-.477 3.075-2.859 5.078-3.607 5.638-2.14-2.385-3.08-4.776-2.79-7.104m2.745 7.864a.335.335 0 0 0 .178-.052c.143-.093 3.505-2.312 4.118-6.238.415-2.665-.544-5.441-2.85-8.252a.326.326 0 0 0-.432-.067c-.159.103-3.895 2.569-4.406 6.66-.325 2.598.736 5.237 3.152 7.845.064.068.151.104.24.104M75.913 36.828c-1.451-2.32-.915-5.168-.692-6.065 2.74.621 4.657 1.842 5.703 3.63 1.325 2.269.86 4.84.66 5.66-2.7-.442-4.607-1.527-5.671-3.225m5.911 3.917c.14 0 .266-.088.31-.224.046-.14 1.097-3.466-.64-6.45-1.181-2.022-3.347-3.372-6.44-4.01a.328.328 0 0 0-.377.218c-.05.156-1.218 3.852.678 6.89 1.205 1.929 3.368 3.131 6.422 3.574.016.002.03.002.047.002M84.16 47.937c1.433.48 2.252 1.722 2.546 2.255-1.395.838-2.682 1.088-3.831.742-1.512-.458-2.405-1.842-2.725-2.427 1.485-.773 2.833-.965 4.01-.57m-1.48 3.618c.4.12.811.183 1.236.183 1.067 0 2.203-.388 3.395-1.154a.328.328 0 0 0 .123-.402c-.038-.088-.944-2.147-3.06-2.86-1.435-.483-3.055-.225-4.817.767a.326.326 0 0 0-.14.412c.041.096 1.046 2.38 3.263 3.054M116.648 34.423c2.079-4.09 4.788-6.575 8.056-7.386 4.605-1.14 8.998 1.417 10.065 2.102-2.383 4.06-5.315 6.491-8.716 7.227-4.454.965-8.426-1.319-9.405-1.943m18.84-5.222a.324.324 0 0 0-.093-.427c-.213-.153-5.28-3.748-10.844-2.369-3.533.874-6.433 3.56-8.616 7.985a.325.325 0 0 0 .101.409c.161.116 3.46 2.457 7.753 2.457.77 0 1.574-.075 2.395-.253 3.666-.79 6.795-3.415 9.303-7.802M108.994 26.426c.296-3.42 3.036-5.854 3.859-6.513 2.262 2.64 3.259 5.266 2.959 7.812-.384 3.274-2.838 5.483-3.589 6.09-2.357-2.435-3.444-4.918-3.23-7.389m3.199 8.148c.066 0 .131-.02.188-.058.146-.103 3.589-2.56 4.08-6.708.334-2.813-.783-5.692-3.317-8.555a.325.325 0 0 0-.433-.05c-.162.114-3.99 2.847-4.367 7.16-.24 2.743.977 5.471 3.618 8.117a.33.33 0 0 0 .231.094M119.843 19.494c1.447-2.235 4.183-2.95 5.078-3.13.587 2.668.304 4.86-.845 6.522-1.455 2.103-3.915 2.766-4.733 2.933-.728-2.559-.56-4.684.5-6.325m-.731 7.023l.042-.002c.143-.018 3.533-.477 5.456-3.253 1.303-1.882 1.598-4.356.877-7.348a.332.332 0 0 0-.359-.247c-.159.02-3.926.531-5.831 3.47-1.21 1.867-1.377 4.274-.497 7.15.043.138.17.23.312.23M107.615 30.975c.587 1.938.489 3.562-.291 4.83-1.045 1.696-3.053 2.31-3.8 2.487-.48-2.023-.295-3.7.552-4.987 1.05-1.595 2.857-2.165 3.54-2.33m-4.083 1.967c-.996 1.512-1.188 3.468-.567 5.814a.329.329 0 0 0 .366.24c.124-.02 3.092-.488 4.546-2.846.924-1.498 1.016-3.402.27-5.655a.329.329 0 0 0-.359-.22c-.113.016-2.783.439-4.256 2.667M138.764 60.65c-4.274-1.585-6.382-5.64-6.867-6.693 3.966-2.325 7.592-2.96 10.78-1.887 4.495 1.515 6.812 6.032 7.338 7.183-4.205 2.137-7.99 2.606-11.25 1.397m11.975-1.368c-.097-.243-2.417-5.993-7.848-7.826-3.447-1.164-7.342-.461-11.579 2.09a.327.327 0 0 0-.134.398c.087.219 2.17 5.389 7.35 7.313 1.253.466 2.576.698 3.963.698 2.5 0 5.21-.756 8.095-2.264a.327.327 0 0 0 .153-.409M142.565 73.354c-3.178-.873-5.357-2.406-6.48-4.56-1.438-2.759-.707-5.778-.438-6.67 3.144.661 5.318 2.035 6.467 4.083 1.584 2.828.75 6.171.451 7.147m-7.075-11.926a.323.323 0 0 0-.367.204c-.061.158-1.456 3.928.38 7.457 1.244 2.392 3.666 4.067 7.193 4.974a.327.327 0 0 0 .389-.2c.067-.178 1.616-4.369-.398-7.968-1.28-2.288-3.7-3.791-7.197-4.467M132.031 65.028c-1.741-1.134-2.764-2.472-3.04-3.983-.34-1.873.571-3.523.951-4.11 1.761 1 2.81 2.24 3.12 3.691.415 1.942-.611 3.762-1.031 4.402m-2.036-8.807a.326.326 0 0 0-.412.087c-.07.09-1.71 2.227-1.236 4.846.322 1.778 1.533 3.324 3.602 4.593a.329.329 0 0 0 .43-.077c.077-.1 1.898-2.472 1.324-5.174-.365-1.718-1.613-3.157-3.708-4.275M128.957 39.794c2.38 1.33 3.796 2.991 4.213 4.942.57 2.665-.904 5.152-1.418 5.918-2.356-1.511-3.736-3.303-4.105-5.334-.47-2.572.842-4.824 1.31-5.526m2.711 11.578a.329.329 0 0 0 .43-.078c.1-.13 2.454-3.198 1.713-6.687-.472-2.219-2.087-4.076-4.799-5.526a.33.33 0 0 0-.413.087c-.09.116-2.21 2.877-1.598 6.261.416 2.296 1.987 4.296 4.667 5.943M143.207 37.315c.973 3.052.848 5.616-.373 7.62-1.687 2.77-5.018 3.697-6.017 3.919-.805-3.186-.542-5.832.784-7.87 1.698-2.607 4.695-3.463 5.606-3.669m-6.15 3.31c-1.476 2.26-1.741 5.185-.794 8.693.04.144.17.24.317.24.016 0 .034 0 .049-.003.188-.03 4.611-.753 6.76-4.276 1.364-2.239 1.482-5.078.348-8.444a.323.323 0 0 0-.36-.218c-.168.026-4.145.677-6.32 4.008M147.19 45.608c2.051-.794 4.124-.1 4.83.188-.738 2.186-1.903 3.627-3.469 4.287-2.111.89-4.403.103-5.172-.214.89-2.196 2.172-3.627 3.812-4.261m-4.379 4.72c.092.046 1.65.824 3.579.824a6.19 6.19 0 0 0 2.411-.468c1.817-.763 3.14-2.436 3.93-4.97a.323.323 0 0 0-.163-.387c-.114-.057-2.82-1.402-5.608-.329-1.892.73-3.34 2.386-4.306 4.925-.06.157.01.33.157.405M131.723 17.429c3.207-1.253 6.61.113 7.569.555-1.367 3.193-3.287 5.249-5.71 6.111-3.113 1.11-6.19-.101-7.067-.501 1.14-3.187 2.893-5.26 5.208-6.165m-5.769 6.616c.116.063 2.195 1.165 4.867 1.165a8.81 8.81 0 0 0 2.976-.5c2.675-.951 4.769-3.226 6.218-6.76a.327.327 0 0 0-.146-.41c-.177-.093-4.333-2.299-8.379-.719-2.57 1.003-4.485 3.3-5.688 6.833a.323.323 0 0 0 .152.39M120.196 42.043c-1.764-.727-2.662-2.386-2.952-3.021 1.796-.935 3.411-1.144 4.803-.616 1.862.702 2.843 2.549 3.154 3.246-1.898.847-3.582.977-5.005.39m5.736-.333c-.042-.119-1.057-2.93-3.647-3.911-1.648-.624-3.536-.358-5.613.79a.327.327 0 0 0-.151.394c.038.107.952 2.638 3.42 3.66a5.53 5.53 0 0 0 2.129.414c1.14 0 2.374-.316 3.693-.945a.327.327 0 0 0 .17-.402M122.039 51.803c-2.11 1.606-4.75 1.467-5.595 1.372.103-2.75.95-4.787 2.52-6.06 2.146-1.74 5.073-1.565 5.998-1.454-.277 2.809-1.259 4.874-2.923 6.142m-3.484-5.196c-1.782 1.443-2.716 3.746-2.773 6.844a.325.325 0 0 0 .265.326c.056.01.595.107 1.394.107 1.296 0 3.277-.256 4.99-1.56 1.879-1.43 2.959-3.756 3.21-6.916a.326.326 0 0 0-.264-.345c-.164-.031-4.015-.729-6.822 1.544M147.394 97.512c1.262.655-.418 3.874-1.311 5.467a3.634 3.634 0 0 1-.461-.905c-.215-.687.615-5.164 1.772-4.562m28.844 13.752c-7.14 3.608-15.61 1.964-22.31-1.879a33.008 33.008 0 0 1-5.018-3.534c-.565-.483-1.293-1.1-1.93-1.768.276-.536.545-1.078.803-1.629.73-1.558 2.906-7.722-1.245-6.017-2.155.885-2.793 3.934-2.177 5.983.2.662.538 1.294.966 1.897-.992 1.761-2.164 3.671-3.707 4.925-3.913 3.176-9.782.41-13.893-1.056-3.494-1.247-7.284-2.501-10.989-1.398-3.76 1.117-6.352 4.5-10.488 4.558-.84.012-.843 1.314 0 1.302 4.649-.067 7.616-4.066 12.04-4.8 6.047-1.003 11.478 3.39 17.363 4.008 5.215.549 8.3-2.472 10.594-6.426 1.742 1.85 4.22 3.366 6.05 4.5 7.286 4.516 16.677 6.46 24.602 2.459.75-.38.089-1.502-.66-1.125" fill="#2C2F49"/><path d="M129.538 54.265a18.962 18.962 0 0 0-4.549.426c-3.264.73-5.431 2.322-6.266 4.603l-.113.307.328-.014c1.738-.087 6.423-.098 7.251.887.307.245 1.075 1.014.95 1.624-.08.374-.484.67-1.206.882-.63-.318-4.62-2.214-7.826-.733-1.798.83-2.997 2.571-3.566 5.213l-1.04 24.227c0 .028.186 2.75-1.11 4.638-1.204 1.754-4.509 6.19-5.187 7.1-.399-.257-1.25-.778-1.787-.923.483-1.017 3.833-5.71 5.974-8.626l.054-.072-.013-.09c-.005-.027-.112-.655-.766-1.024-.667-.377-1.633-.337-2.872.116l.521-21.699-2.211.778-.515 20.93c-.867-.56-3.241-1.777-5.721-.298l.103-18.398-1.062-2.043-1.02 2.157-.326 18.112c-.736-.353-2.543-.933-3.926.963l-.086.119 5.676 9.05-1.787.763-5.197-8.016c-.006-.018-.71-1.782-.61-5.52.105-3.801.415-20.606.418-20.776.002-.14.025-3.472-2.144-5.536-1.2-1.144-2.831-1.663-4.867-1.54l-6.56.615c-.234-.278-.647-.887-.553-1.367.047-.244.218-.433.521-.582.521-.044 6.095-.5 9.825-.206l.849.067-.712-.464c-.06-.04-6.096-3.95-12.387-5.514-.124-.201-.27-.543-.172-.685.048-.067.29-.263 1.482.054.115.008 11.556.903 20.563 11.717l.759.913-.386-1.12c-.057-.17-5.9-16.922-14.362-22.962-.011-.131-.003-.342.115-.433.082-.064.356-.167 1.123.214.113.078 11.424 7.932 13.565 15.151l.56 1.88-.133-1.955c-.009-.124-.84-12.418-1.251-17.127-.004-.417-.164-10.212-5.412-14.225.022-.158.087-.402.258-.508.203-.128.514-.038.752.067.389.35 5.321 4.869 5.321 8.54l.433.038c.022-.126 2.203-12.596 5.348-16.279.108-.063.403-.197.577-.101.13.072.203.292.208.626-.372 1.139-6.033 18.651-5.418 25.188l.056.602 2.114-3.098c.002-.004.261-.38.59-.425.148-.023.294.03.473.181.003 0 .35.213.41.61.054.36-.136.776-.564 1.235-1.4 1.503-4.28 9.957-.453 17.694l.635 1.28-.223-1.41c-.005-.025-.376-2.473.493-6.398.8-3.63 2.853-9.285 8.08-15.623.094-.045.392-.162.676-.04.272.12.482.443.611.942-.572.581-3.65 3.91-3.937 8.571l-.023.38.34-.172c.256-.131 6.202-3.155 7.809-5.15.405.081 1.185.338 1.397.852.144.352.016.801-.38 1.334-.853.41-11.675 5.892-12.478 19.894l-.034.6.411-.438c.292-.312 7.004-7.498 7.915-10.088.377.062 1.254.278 1.293.943-.304.462-2.201 3.412-2.496 6.064l-.117 1.035.522-.903c.047-.085 4.955-8.389 16.108-9.336.206.165.865.79.357 1.735m-.174-2.139l-.062-.042-.075.006c-9.251.755-14.315 6.477-15.945 8.691.609-2.441 2.263-4.897 2.282-4.925l.036-.054.002-.065c.02-1.304-1.792-1.459-1.869-1.466l-.182-.014-.046.176c-.518 1.982-5.893 7.94-7.449 9.632 1.1-13.772 12.118-18.885 12.231-18.935l.084-.066c.523-.684.68-1.29.469-1.804-.377-.918-1.802-1.13-1.862-1.138l-.128-.02-.077.104c-1.22 1.65-6.051 4.249-7.394 4.95.458-4.73 3.828-7.953 3.862-7.985l.09-.085-.026-.121c-.16-.716-.46-1.173-.891-1.361-.546-.237-1.077.065-1.1.078l-.058.05c-5.303 6.417-7.385 12.156-8.198 15.838-.526 2.38-.608 4.211-.585 5.327-2.968-7.258-.254-14.885.878-16.102.523-.56.75-1.097.676-1.595a1.333 1.333 0 0 0-.59-.899h.001c-.246-.209-.511-.299-.783-.258-.527.074-.88.592-.894.613l-1.413 2.07c-.216-6.998 5.389-24.24 5.448-24.419l.011-.067c0-.533-.146-.882-.436-1.04-.438-.243-.984.09-1.046.13l-.047.04c-2.645 3.061-4.563 11.816-5.222 15.187-.934-3.63-5.108-7.347-5.306-7.521L93.696 25c-.494-.225-.899-.245-1.2-.052-.458.292-.464.948-.464.975v.11l.088.065c5.166 3.837 5.331 13.853 5.333 13.97.325 3.73.911 12.186 1.147 15.632-3.042-6.9-12.768-13.658-13.234-13.975-.757-.377-1.284-.436-1.611-.185-.394.306-.27.919-.263.945l.018.082.07.049c7.117 5.017 12.393 17.813 13.865 21.68-8.992-10.094-19.967-10.952-20.04-10.954-1.047-.282-1.654-.241-1.911.125-.321.46.16 1.17.218 1.248l.046.067.08.02c4.974 1.218 9.81 3.944 11.603 5.022-3.881-.186-9.014.258-9.07.263l-.072.02c-.454.21-.723.516-.799.91-.167.856.696 1.784.732 1.823l.073.077 6.768-.632c1.893-.116 3.42.363 4.532 1.418 2.03 1.931 2.012 5.185 2.01 5.217-.003.169-.313 16.972-.416 20.77-.105 3.845.611 5.625.66 5.733l5.414 8.359 2.591-1.108-5.786-9.227c1.51-1.916 3.486-.616 3.573-.559l.333.224.318-18.738.63-1.331.603 1.127-.107 19.164.346-.24c2.95-2.057 5.766.203 5.884.3l.346.284.528-21.483 1.332-.47-.52 21.725.307-.125c1.233-.5 2.2-.59 2.792-.262.357.198.49.495.538.637-6.287 8.556-6.099 8.925-6.028 9.064l.085.132h.133c.315 0 1.338.587 1.964 1.002l.172.114.125-.165c.039-.052 3.977-5.323 5.318-7.276 1.382-2.014 1.191-4.8 1.185-4.892l1.036-24.164c.534-2.464 1.65-4.104 3.318-4.876 3.216-1.486 7.475.74 7.518.763l.075.041.084-.023c.946-.26 1.482-.674 1.598-1.235.205-.995-1.049-2.01-1.072-2.021-.972-1.165-5.808-1.078-7.239-1.026 2.12-4.864 10.308-4.44 10.395-4.435l.13.009.067-.112c.747-1.209.013-2.148-.48-2.475" fill="#2C2F49"/><path d="M102.488 111.206l-.074-.004-.072.046c-.007.003-.16.075-.46-.04-.612-.233-1.883-1.252-3.59-5.439 1.114-.514 5.456-2.299 7.861.03-.577 1.644-2.177 5.333-3.665 5.407m-4.763-5.884l-.26.137.108.273c1.43 3.581 2.869 5.697 4.164 6.117.172.056.323.075.45.075.181 0 .317-.039.4-.073 2.238-.213 4.048-5.433 4.25-6.034l.06-.183-.13-.142c-3.053-3.26-8.799-.298-9.042-.17" fill="#2C2F49"/><path d="M5.145 154.336h191.317" stroke="#2C2F49" stroke-width=".469"/><path d="M12.203 126.746c.246.583.698 1.507 1.359 2.77.66 1.264 1.315 2.545 1.962 3.848a86.11 86.11 0 0 0 2.189 4.109c.65 1.137 1.018 1.804 1.103 2.001 2.362-5.272 4.15-9.514 5.364-12.728 2.264 0 4.354-.057 6.269-.17.179-.008.311-.013.395-.013.387 0 .58.15.58.451 0 .263-.15.394-.452.394-1.076 0-1.78.364-2.115 1.093-.334.729-.502 2.502-.502 5.322l-.014 6.906c0 1.409.187 2.396.559 2.96.372.565.978.859 1.818.888.405.008.608.146.608.409 0 .14-.085.258-.254.353l-3.969-.028c-1.215 0-2.875.046-4.985.14-.179-.122-.268-.255-.268-.395 0-.216.243-.361.732-.436.496-.085.855-.208 1.075-.368.22-.16.387-.456.5-.889.112-.431.169-1.067.169-1.903l.056-6.307c0-3.226.005-5.085.014-5.574-2.56 5.94-4.147 9.73-4.759 11.376l-1.426 3.82c-.16.403-.321.604-.482.604-.169 0-.372-.248-.608-.746-.689-1.446-3.148-6.226-7.377-14.335-.048 2.334-.07 5.479-.07 9.44 0 2.088.117 3.406.354 3.957.234.55.895.872 1.978.967.36.038.538.168.538.394 0 .245-.146.368-.438.368-.103 0-.218-.007-.34-.017-1.13-.083-1.942-.126-2.432-.126-1.34 0-2.352.048-3.04.143a2.443 2.443 0 0 1-.298.027c-.33 0-.495-.137-.495-.41 0-.13.04-.222.12-.274.08-.05.295-.115.644-.19.905-.17 1.497-.493 1.776-.974.277-.48.416-1.264.416-2.356l.07-8.055c0-1.833-.047-3.047-.14-3.639-.094-.593-.325-1.049-.694-1.369-.367-.319-.965-.559-1.795-.719-.311-.065-.467-.22-.467-.466 0-.263.169-.393.51-.393.073 0 .178.005.31.014.962.084 2.945.126 5.952.126M37.618 128.127c0 .554-.2 1.031-.602 1.43-.4.4-.878.6-1.434.6-.566 0-1.048-.2-1.443-.6a1.957 1.957 0 0 1-.595-1.43c0-.563.198-1.042.595-1.438a1.97 1.97 0 0 1 1.443-.591c.556 0 1.034.198 1.434.591.402.396.602.875.602 1.438zm.198 4.765c.038 1.315.056 3.66.056 7.034l-.043 3.03c0 .61.102 1.02.305 1.226.204.208.535.343.997.409.528.067.792.215.792.45 0 .254-.207.381-.622.381-.198 0-.542-.014-1.032-.042a49.05 49.05 0 0 0-3.084-.098c-.5 0-1.008.026-1.528.078-.31.041-.523.062-.636.062-.415 0-.621-.127-.621-.38 0-.244.272-.39.82-.437.726-.067 1.13-.308 1.216-.725.085-.418.128-1.268.128-2.546 0-1.653-.026-3.173-.079-4.56-.052-1.386-.147-2.176-.29-2.374-.141-.198-.508-.328-1.103-.395-.461-.046-.692-.183-.692-.409 0-.225.234-.358.706-.395l.297-.027 4.413-.282zM46.244 126.013l.043 11.826c.008 3.778.108 5.84.297 6.188.188.348.565.536 1.13.563.66.028.99.16.99.396 0 .29-.202.436-.607.436-.113 0-.279-.01-.495-.028-.915-.075-1.8-.112-2.66-.112-1.394 0-2.427.037-3.096.109a4.587 4.587 0 0 1-.51.031c-.423 0-.636-.126-.636-.38 0-.244.241-.38.721-.41.518-.027.899-.122 1.14-.282a.983.983 0 0 0 .437-.67c.053-.286.077-.956.077-2.01l-.055-5.543.042-4.402c0-1.824-.087-2.931-.262-3.322-.174-.39-.69-.657-1.55-.797-.517-.075-.776-.226-.776-.451 0-.142.059-.237.177-.29.118-.05.408-.096.87-.133 1.931-.159 3.507-.4 4.723-.72M52.403 139.199c0 1.792.237 3.104.715 3.936.475.83 1.082 1.245 1.816 1.245.708 0 1.313-.397 1.818-1.19.505-.794.756-2.227.756-4.3 0-1.69-.212-2.956-.636-3.8-.425-.845-1.066-1.268-1.923-1.268-.85 0-1.486.449-1.909 1.344-.426.897-.637 2.24-.637 4.033m5.134-4.954c0-2.716-.015-4.528-.042-5.433-.028-.909-.105-1.44-.227-1.595-.123-.153-.457-.278-1.005-.372-.367-.058-.55-.188-.55-.396 0-.158.064-.26.19-.302.128-.043.536-.064 1.223-.064h3.734l-.03 10.008-.07 6.216c0 .959.084 1.565.248 1.818.165.255.546.418 1.139.494.348.039.523.17.523.395 0 .243-.184.366-.55.366h-4.583v-1.931c-.406.723-.9 1.264-1.485 1.62-.585.358-1.264.536-2.036.536-1.443 0-2.71-.557-3.798-1.674-1.089-1.118-1.633-2.56-1.633-4.324 0-1.933.621-3.52 1.867-4.766 1.244-1.243 2.63-1.864 4.157-1.864a3.92 3.92 0 0 1 1.59.317c.486.21.932.528 1.338.95M67.46 133.174a85.5 85.5 0 0 1 .07 3.96c0 2.538.025 4.16.07 4.87.048.71.235 1.243.56 1.6.326.357.695.537 1.11.537.49 0 .988-.185 1.493-.551a3.253 3.253 0 0 0 1.116-1.438c.241-.591.36-1.559.36-2.903l.029-3.115c0-.826-.045-1.372-.135-1.635-.088-.263-.393-.405-.911-.423-.567-.028-.85-.174-.85-.438 0-.159.07-.26.206-.303.136-.042.496-.063 1.082-.063 1.31 0 2.53-.033 3.663-.098.038.366.056 2.372.056 6.02 0 2.93.028 4.53.085 4.798.056.268.363.425.92.472.33.038.494.173.494.409 0 .272-.189.408-.564.408a6.04 6.04 0 0 1-.354-.013c-.264-.02-.576-.03-.935-.03-1.254 0-1.946.006-2.079.015-.15.01-.277.015-.382.015-.178 0-.288-.031-.332-.091-.041-.063-.064-.242-.064-.543 0-.488.034-.984.1-1.48-.651.789-1.336 1.38-2.058 1.774a4.66 4.66 0 0 1-2.27.593c-2.403 0-3.605-1.343-3.605-4.032v-4.355c0-1.503-.056-2.384-.164-2.643-.108-.257-.393-.42-.856-.486-.415-.057-.621-.178-.621-.367 0-.254.184-.38.55-.38 2.527 0 3.934-.029 4.216-.084M83.192 135.739c.472-.95 1.013-1.659 1.626-2.13a3.295 3.295 0 0 1 2.051-.703c.717 0 1.289.207 1.718.62.43.414.644.93.644 1.551 0 .489-.154.904-.46 1.247a1.45 1.45 0 0 1-1.125.514c-.33 0-.601-.085-.82-.253-.216-.17-.447-.47-.693-.903-.34-.62-.636-.93-.89-.93-.35 0-.744.353-1.189 1.055-.442.705-.664 2.07-.664 4.097 0 2.562.087 3.986.263 4.272.174.286.557.428 1.152.428.518 0 .777.143.777.424 0 .263-.254.395-.764.395-.282 0-.693-.026-1.23-.077a16.133 16.133 0 0 0-1.386-.063 38.9 38.9 0 0 0-2.772.098c-.385.027-.613.042-.679.042-.395 0-.593-.149-.593-.444 0-.259.23-.397.692-.415.454-.02.77-.126.949-.317.178-.193.269-.613.269-1.26l.055-3.52c0-.714-.028-1.6-.085-2.66-.056-1.06-.108-1.692-.156-1.893-.046-.203-.167-.383-.359-.543-.195-.158-.455-.253-.785-.28-.341-.038-.554-.083-.644-.135-.089-.052-.135-.157-.135-.317 0-.253.236-.385.707-.395.869-.008 2.344-.123 4.428-.338l.098 2.833zM96.541 138.29c-.226.273-.769.635-1.626 1.088-.784.415-1.307.783-1.57 1.103-.265.33-.396.805-.396 1.426 0 .66.14 1.162.417 1.505.278.345.62.517 1.024.517.548 0 1.058-.252 1.528-.757.472-.503.708-1.392.708-2.663 0-.396-.027-1.136-.085-2.22m-.183 5.654c-.586.554-1.174.97-1.77 1.247a4.196 4.196 0 0 1-1.794.415c-.961 0-1.705-.29-2.228-.868-.523-.578-.786-1.282-.786-2.11 0-.641.158-1.213.474-1.716a3.484 3.484 0 0 1 1.17-1.172c.466-.278 1.237-.61 2.309-.997.903-.318 1.508-.571 1.813-.754.307-.185.562-.453.769-.804.206-.353.311-.81.311-1.37 0-.617-.155-1.11-.465-1.48-.31-.37-.736-.555-1.28-.555-.47 0-.804.117-1 .352-.199.242-.348.631-.451 1.164-.217 1.067-.797 1.6-1.74 1.6-.387 0-.716-.113-.99-.339-.274-.225-.41-.549-.41-.972 0-.902.492-1.577 1.479-2.023.984-.446 2.16-.67 3.528-.67 1.179 0 2.138.18 2.877.536.74.356 1.215.77 1.421 1.24.208.471.312 1.203.312 2.2l-.028 3.34c0 1.758.059 2.885.177 3.383.118.499.369.747.756.747.057 0 .132-.005.226-.013.188-.02.316-.03.382-.03.387 0 .58.108.58.324 0 .142-.08.261-.24.361-.161.098-.643.224-1.45.373a12.03 12.03 0 0 1-2.185.225c-.651 0-1.095-.122-1.336-.37-.241-.247-.384-.667-.431-1.264M123.193 127.958c.198-.243.405-.516.623-.817.254-.366.467-.55.636-.55.188 0 .311.047.367.14.058.095.105.386.143.874l.283 4.399.028.563c0 .376-.15.564-.454.564-.197 0-.357-.155-.48-.465-.387-.996-1.084-2.102-2.089-3.319s-2.272-1.827-3.801-1.827c-1.133 0-2.084.329-2.853.98-.77.654-1.369 1.55-1.798 2.687-.431 1.135-.646 2.5-.646 4.086 0 2.717.6 4.876 1.797 6.477 1.198 1.603 2.69 2.404 4.472 2.404 1.934 0 3.708-1.165 5.321-3.495.197-.283.384-.423.562-.423.299 0 .45.15.45.45 0 .621-.743 1.608-2.228 2.961-1.484 1.353-3.345 2.03-5.579 2.03-2.96 0-5.298-.912-7.015-2.736-1.716-1.822-2.573-4.063-2.573-6.723 0-2.65.865-4.95 2.596-6.899 1.731-1.95 3.92-2.924 6.563-2.924 1.859 0 3.75.52 5.675 1.563M130.707 137.825c1.395.02 2.202.028 2.418.028 1.066 0 1.718-.075 1.96-.226.24-.15.36-.455.36-.916 0-.77-.221-1.451-.664-2.044-.444-.592-.972-.887-1.585-.887-1.45 0-2.28 1.35-2.489 4.045zm-.085 1.03c-.01.272-.013.47-.013.591 0 1.335.326 2.464.982 3.389.656.928 1.54 1.39 2.65 1.39 1.142 0 2.265-.495 3.368-1.48.226-.198.387-.297.48-.297.246 0 .368.132.368.395 0 .207-.282.577-.848 1.114-.566.536-1.259.938-2.08 1.211a8 8 0 0 1-2.545.41c-1.923 0-3.43-.585-4.518-1.755-1.09-1.171-1.634-2.549-1.634-4.137 0-1.908.625-3.508 1.874-4.799 1.249-1.294 2.808-1.94 4.674-1.94 1.754 0 3.09.587 4.01 1.762.919 1.175 1.378 2.294 1.378 3.356 0 .339-.088.541-.269.605-.179.067-.757.1-1.74.1l-6.137.085zM144.543 135.64c.64-.902 1.336-1.578 2.085-2.03a4.603 4.603 0 0 1 2.411-.676c.717 0 1.372.183 1.966.55.595.365.998.803 1.21 1.311.211.507.318 1.226.318 2.157l-.126 5.624c0 .77.07 1.283.211 1.536.141.253.44.418.892.493.375.066.564.216.564.451 0 .244-.184.366-.551.366-.312 0-.995-.037-2.05-.112a19.28 19.28 0 0 0-.891-.028c-.218 0-.84.047-1.867.14h-.694c-.387 0-.58-.126-.58-.38 0-.206.175-.344.525-.409.32-.065.573-.173.762-.323.19-.152.315-.89.375-2.218.063-1.326.092-2.643.092-3.952 0-1.45-.115-2.441-.346-2.977-.231-.538-.672-.806-1.323-.806-.801 0-1.544.585-2.226 1.755-.684 1.17-1.026 2.967-1.026 5.392 0 .94.047 1.621.14 2.044.096.423.21.688.348.796.136.11.427.2.87.274.263.048.396.185.396.409 0 .265-.194.395-.58.395a7.93 7.93 0 0 1-.623-.026 49.256 49.256 0 0 0-1.47-.114c-1.358 0-2.47.047-3.339.14-.14.02-.254.03-.339.03-.347 0-.523-.138-.523-.41 0-.234.156-.371.467-.409.48-.057.807-.188.976-.395.169-.208.295-.855.375-1.941.08-1.085.12-2.383.12-3.89 0-1.917-.07-3.105-.212-3.561-.142-.458-.482-.79-1.02-.997-.385-.149-.578-.296-.578-.436 0-.226.277-.338.833-.338 1.565 0 2.834-.06 3.805-.183.359.817.565 1.733.623 2.748M159.251 133.13a60.103 60.103 0 0 1 2.645-.042c.537 0 .98.048 1.33.14-.142.707-.268 1.083-.376 1.13-.109.046-1.309.136-3.599.268l-.155 6.215c0 .884.044 1.531.134 1.945.089.415.293.761.615 1.044.321.282.736.423 1.244.423.434 0 1.05-.23 1.854-.691a.684.684 0 0 1 .31-.098c.179 0 .269.093.269.28 0 .274-.382.645-1.146 1.115-.764.47-1.66.704-2.687.704-1.216 0-2.17-.295-2.864-.887-.693-.593-1.04-1.841-1.04-3.75 0-2.104.038-4.205.114-6.3-.933 0-1.594-.025-1.98-.07-.386-.048-.58-.185-.58-.41 0-.187.222-.339.665-.451a6.165 6.165 0 0 0 2.356-1.07c.691-.519 1.283-1.34 1.773-2.468.199-.46.333-.74.404-.838a.35.35 0 0 1 .304-.149c.274 0 .41.226.41.677v3.284zM169.242 135.739c.47-.95 1.013-1.659 1.626-2.13a3.291 3.291 0 0 1 2.05-.703c.717 0 1.29.207 1.719.62.428.414.644.93.644 1.551 0 .489-.154.904-.46 1.247a1.45 1.45 0 0 1-1.125.514c-.33 0-.604-.085-.82-.253-.216-.17-.447-.47-.693-.903-.34-.62-.636-.93-.89-.93-.35 0-.746.353-1.19 1.055-.442.705-.665 2.07-.665 4.097 0 2.562.089 3.986.263 4.272.175.286.559.428 1.152.428.518 0 .779.143.779.424 0 .263-.254.395-.764.395-.284 0-.694-.026-1.231-.077-.49-.042-.953-.063-1.386-.063a38.9 38.9 0 0 0-2.772.098c-.387.027-.613.042-.678.042-.397 0-.594-.149-.594-.444 0-.259.23-.397.692-.415.452-.02.769-.126.948-.317.178-.193.268-.613.268-1.26l.056-3.52c0-.714-.026-1.6-.083-2.66-.058-1.06-.109-1.692-.156-1.893a1 1 0 0 0-.36-.543c-.194-.158-.455-.253-.784-.28-.341-.038-.556-.083-.645-.135-.09-.052-.134-.157-.134-.317 0-.253.236-.385.706-.395.87-.008 2.343-.123 4.428-.338l.099 2.833zM182.27 138.29c-.226.273-.769.635-1.626 1.088-.784.415-1.307.783-1.569 1.103-.265.33-.397.805-.397 1.426 0 .66.14 1.162.417 1.505.278.345.62.517 1.026.517.548 0 1.056-.252 1.526-.757.472-.503.708-1.392.708-2.663 0-.396-.027-1.136-.085-2.22m-.183 5.654c-.586.554-1.174.97-1.768 1.247a4.209 4.209 0 0 1-1.796.415c-.963 0-1.705-.29-2.228-.868-.523-.578-.784-1.282-.784-2.11 0-.641.158-1.213.472-1.716a3.484 3.484 0 0 1 1.17-1.172c.468-.278 1.237-.61 2.309-.997.903-.318 1.508-.571 1.813-.754.307-.185.562-.453.769-.804.208-.353.311-.81.311-1.37 0-.617-.155-1.11-.464-1.48-.311-.37-.737-.555-1.281-.555-.47 0-.804.117-1 .352-.197.242-.348.631-.451 1.164-.217 1.067-.797 1.6-1.74 1.6-.387 0-.716-.113-.99-.339-.274-.225-.41-.549-.41-.972 0-.902.492-1.577 1.479-2.023.984-.446 2.16-.67 3.528-.67 1.179 0 2.138.18 2.877.536.74.356 1.215.77 1.423 1.24.206.471.31 1.203.31 2.2l-.028 3.34c0 1.758.059 2.885.177 3.383.118.499.37.747.756.747.057 0 .132-.005.226-.013.188-.02.316-.03.383-.03.386 0 .58.108.58.324 0 .142-.081.261-.24.361-.16.098-.644.224-1.451.373a12.03 12.03 0 0 1-2.185.225c-.651 0-1.095-.122-1.336-.37-.241-.247-.384-.667-.431-1.264M194.045 126.013l.043 11.826c.008 3.778.108 5.84.296 6.188.189.348.566.536 1.132.563.66.028.99.16.99.396 0 .29-.204.436-.608.436a6.62 6.62 0 0 1-.496-.028c-.914-.075-1.8-.112-2.659-.112-1.395 0-2.427.037-3.096.109a4.583 4.583 0 0 1-.508.031c-.425 0-.638-.126-.638-.38 0-.244.24-.38.721-.41.518-.027.898-.122 1.14-.282a.983.983 0 0 0 .437-.67c.053-.286.077-.956.077-2.01l-.056-5.543.043-4.402c0-1.824-.087-2.931-.262-3.322-.174-.39-.69-.657-1.548-.797-.52-.075-.778-.226-.778-.451 0-.142.059-.237.177-.29.118-.05.408-.096.87-.133 1.933-.159 3.507-.4 4.723-.72M6.468 167.096h3.467v-1.085H6.468v-1.791h3.913v-1.084H5.253v6.894h5.177v-1.083H6.468z" fill="#2C2F49"/><path stroke="#2C2F49" stroke-width=".133" d="M6.468 167.096h3.467v-1.085H6.468v-1.791h3.913v-1.084H5.253v6.894h5.177v-1.083H6.468z"/><path d="M16.536 167.291l1.185-2.756 1.196 2.756h-2.38zm.643-4.204l-3.044 6.943h1.245l.712-1.665h3.269l.701 1.665h1.286l-3.043-6.943H17.18z" fill="#2C2F49"/><path d="M16.536 167.291l1.185-2.756 1.196 2.756h-2.38zm.643-4.204l-3.044 6.943h1.245l.712-1.665h3.269l.701 1.665h1.286l-3.043-6.943H17.18z" stroke="#2C2F49" stroke-width=".133"/><path d="M26.604 166.554v-2.315h1.769c.898 0 1.433.405 1.433 1.142v.02c0 .699-.555 1.153-1.423 1.153h-1.78zm4.436-1.222v-.02c0-.6-.208-1.11-.574-1.486-.444-.433-1.126-.688-1.995-.688H25.39v6.892h1.215v-2.404h1.521l1.7 2.404h1.443l-1.867-2.61c.957-.276 1.639-.954 1.639-2.088z" fill="#2C2F49"/><path d="M26.604 166.554v-2.315h1.769c.898 0 1.433.405 1.433 1.142v.02c0 .699-.555 1.153-1.423 1.153h-1.78zm4.436-1.222v-.02c0-.6-.208-1.11-.574-1.486-.444-.433-1.126-.688-1.995-.688H25.39v6.892h1.215v-2.404h1.521l1.7 2.404h1.443l-1.867-2.61c.957-.276 1.639-.954 1.639-2.088z" stroke="#2C2F49" stroke-width=".133"/><path fill="#2C2F49" d="M36.612 163.137h-1.214v6.892h4.85v-1.101h-3.636z"/><path stroke="#2C2F49" stroke-width=".133" d="M36.612 163.137h-1.214v6.892h4.85v-1.101h-3.636z"/><path fill="#2C2F49" d="M45.752 166.18l-1.926-3.043h-1.443l2.746 4.175v2.717h1.224v-2.746l2.748-4.146h-1.393z"/><path stroke="#2C2F49" stroke-width=".133" d="M45.752 166.18l-1.926-3.043h-1.443l2.746 4.175v2.717h1.224v-2.746l2.748-4.146h-1.393z"/><path fill="#2C2F49" d="M60.078 163.137h-1.215v6.892h4.851v-1.101h-3.636z"/><path stroke="#2C2F49" stroke-width=".133" d="M60.078 163.137h-1.215v6.892h4.851v-1.101h-3.636z"/><path fill="#2C2F49" d="M69.059 167.096h3.467v-1.085H69.06v-1.791h3.913v-1.084h-5.128v6.894h5.177v-1.083H69.06z"/><path stroke="#2C2F49" stroke-width=".133" d="M69.059 167.096h3.467v-1.085H69.06v-1.791h3.913v-1.084h-5.128v6.894h5.177v-1.083H69.06z"/><path d="M79.137 167.291l1.185-2.756 1.197 2.756h-2.382zm.643-4.204l-3.043 6.943h1.244l.712-1.665h3.27l.7 1.665h1.285l-3.042-6.943H79.78z" fill="#2C2F49"/><path d="M79.137 167.291l1.185-2.756 1.197 2.756h-2.382zm.643-4.204l-3.043 6.943h1.244l.712-1.665h3.27l.7 1.665h1.285l-3.042-6.943H79.78z" stroke="#2C2F49" stroke-width=".133"/><path d="M89.215 166.554v-2.315h1.769c.898 0 1.432.405 1.432 1.142v.02c0 .699-.554 1.153-1.423 1.153h-1.778zm4.436-1.222v-.02c0-.6-.208-1.11-.574-1.486-.444-.433-1.126-.688-1.995-.688H88v6.892h1.215v-2.404h1.521l1.7 2.404h1.441l-1.867-2.61c.959-.276 1.64-.954 1.64-2.088z" fill="#2C2F49"/><path d="M89.215 166.554v-2.315h1.769c.898 0 1.432.405 1.432 1.142v.02c0 .699-.554 1.153-1.423 1.153h-1.778zm4.436-1.222v-.02c0-.6-.208-1.11-.574-1.486-.444-.433-1.126-.688-1.995-.688H88v6.892h1.215v-2.404h1.521l1.7 2.404h1.441l-1.867-2.61c.959-.276 1.64-.954 1.64-2.088z" stroke="#2C2F49" stroke-width=".133"/><path fill="#2C2F49" d="M102.84 167.903l-3.705-4.767h-1.127v6.894h1.195v-4.905l3.814 4.905h1.018v-6.894h-1.195z"/><path stroke="#2C2F49" stroke-width=".133" d="M102.84 167.903l-3.705-4.767h-1.127v6.894h1.195v-4.905l3.814 4.905h1.018v-6.894h-1.195z"/><mask id="b" fill="#fff"><use xlink:href="#a"/></mask><path fill="#2C2F49" mask="url(#b)" d="M108.75 170.03h1.214v-6.892h-1.215z"/><path stroke="#2C2F49" stroke-width=".133" mask="url(#b)" d="M108.75 170.03h1.214v-6.892h-1.215z"/><path fill="#2C2F49" mask="url(#b)" d="M119.507 167.903l-3.705-4.767h-1.126v6.894h1.195v-4.905l3.813 4.905h1.018v-6.894h-1.195z"/><path stroke="#2C2F49" stroke-width=".133" mask="url(#b)" d="M119.507 167.903l-3.705-4.767h-1.126v6.894h1.195v-4.905l3.813 4.905h1.018v-6.894h-1.195z"/><path d="M128.567 167.233h1.77v1.29c-.426.315-1.019.522-1.671.522-1.412 0-2.351-1.044-2.351-2.462v-.02c0-1.32.967-2.43 2.242-2.43.88 0 1.404.284 1.936.736l.77-.915c-.71-.601-1.452-.934-2.656-.934-2.084 0-3.566 1.633-3.566 3.563v.02c0 2.008 1.421 3.545 3.585 3.545a4.425 4.425 0 0 0 2.885-1.073v-2.895h-2.944v1.053z" fill="#2C2F49" mask="url(#b)"/><path d="M128.567 167.233h1.77v1.29c-.426.315-1.019.522-1.671.522-1.412 0-2.351-1.044-2.351-2.462v-.02c0-1.32.967-2.43 2.242-2.43.88 0 1.404.284 1.936.736l.77-.915c-.71-.601-1.452-.934-2.656-.934-2.084 0-3.566 1.633-3.566 3.563v.02c0 2.008 1.421 3.545 3.585 3.545a4.425 4.425 0 0 0 2.885-1.073v-2.895h-2.944v1.053z" stroke="#2C2F49" stroke-width=".133" mask="url(#b)"/><path d="M145.038 169.025c-1.325 0-2.282-1.093-2.282-2.441v-.021c0-1.348.967-2.432 2.282-2.432.79 0 1.382.345 1.936.857l.78-.896c-.662-.63-1.432-1.073-2.706-1.073-2.095 0-3.567 1.604-3.567 3.565v.02c0 1.978 1.503 3.544 3.518 3.544 1.293 0 2.083-.473 2.805-1.221l-.78-.788c-.593.553-1.137.886-1.986.886" fill="#2C2F49" mask="url(#b)"/><path d="M145.038 169.025c-1.325 0-2.282-1.093-2.282-2.441v-.021c0-1.348.967-2.432 2.282-2.432.79 0 1.382.345 1.936.857l.78-.896c-.662-.63-1.432-1.073-2.706-1.073-2.095 0-3.567 1.604-3.567 3.565v.02c0 1.978 1.503 3.544 3.518 3.544 1.293 0 2.083-.473 2.805-1.221l-.78-.788c-.593.553-1.137.886-1.986.886z" stroke="#2C2F49" stroke-width=".133" mask="url(#b)"/><path fill="#2C2F49" mask="url(#b)" d="M153.159 167.096h3.469v-1.085h-3.47v-1.791h3.914v-1.084h-5.128v6.894h5.177v-1.083h-3.962z"/><path stroke="#2C2F49" stroke-width=".133" mask="url(#b)" d="M153.159 167.096h3.469v-1.085h-3.47v-1.791h3.914v-1.084h-5.128v6.894h5.177v-1.083h-3.962z"/><path fill="#2C2F49" mask="url(#b)" d="M166.26 167.903l-3.705-4.767h-1.126v6.894h1.195v-4.905l3.813 4.905h1.018v-6.894h-1.195z"/><path stroke="#2C2F49" stroke-width=".133" mask="url(#b)" d="M166.26 167.903l-3.705-4.767h-1.126v6.894h1.195v-4.905l3.813 4.905h1.018v-6.894h-1.195z"/><path fill="#2C2F49" mask="url(#b)" d="M171.605 164.26h2.194v5.769h1.224v-5.77h2.194v-1.122h-5.612z"/><path stroke="#2C2F49" stroke-width=".133" mask="url(#b)" d="M171.605 164.26h2.194v5.769h1.224v-5.77h2.194v-1.122h-5.612z"/><path d="M182.582 166.554v-2.315h1.769c.898 0 1.433.405 1.433 1.142v.02c0 .699-.554 1.153-1.423 1.153h-1.779zm4.436-1.222v-.02c0-.6-.206-1.11-.572-1.486-.446-.433-1.126-.688-1.997-.688h-3.082v6.892h1.215v-2.404h1.521l1.7 2.404h1.441l-1.865-2.61c.957-.276 1.64-.954 1.64-2.088z" fill="#2C2F49" mask="url(#b)"/><path d="M182.582 166.554v-2.315h1.769c.898 0 1.433.405 1.433 1.142v.02c0 .699-.554 1.153-1.423 1.153h-1.779zm4.436-1.222v-.02c0-.6-.206-1.11-.572-1.486-.446-.433-1.126-.688-1.997-.688h-3.082v6.892h1.215v-2.404h1.521l1.7 2.404h1.441l-1.865-2.61c.957-.276 1.64-.954 1.64-2.088z" stroke="#2C2F49" stroke-width=".133" mask="url(#b)"/><path fill="#2C2F49" mask="url(#b)" d="M192.591 168.947v-1.851h3.467v-1.085h-3.467v-1.791h3.913v-1.083h-5.128v6.893h5.177v-1.083z"/><path stroke="#2C2F49" stroke-width=".133" mask="url(#b)" d="M192.591 168.947v-1.851h3.467v-1.085h-3.467v-1.791h3.913v-1.083h-5.128v6.893h5.177v-1.083z"/></g></svg>