<?xml version="1.0" encoding="UTF-8"?>
<svg width="57px" height="76px" viewBox="0 0 57 76" version="1.1" xmlns="http://www.w3.org/2000/svg" xmlns:xlink="http://www.w3.org/1999/xlink">
    <!-- Generator: Sketch 50.2 (55047) - http://www.bohemiancoding.com/sketch -->
    <title>noun_593016</title>
    <desc>Created with Sketch.</desc>
    <defs></defs>
    <g id="Page-1" stroke="none" stroke-width="1" fill="none" fill-rule="evenodd">
        <g id="Homepage" transform="translate(-982.000000, -2481.000000)" fill="#5DBF88" fill-rule="nonzero">
            <g id="why-us" transform="translate(200.000000, 2372.000000)">
                <g id="Group-10" transform="translate(782.000000, 109.000000)">
                    <g id="noun_593016">
                        <path d="M8.64518664,0 C3.92691552,0 0.0746561886,3.83732809 0.0746561886,8.57053045 L0.0746561886,67.2950884 C0.0746561886,72.0133595 3.91198428,75.8656189 8.64518664,75.8656189 L56.3654224,75.8656189 L56.3654224,0 L8.64518664,0 Z M36.7905697,2.44872299 L46.5705305,2.44872299 L46.5705305,18.9925344 L41.6730845,17.0365422 L36.7756385,18.9925344 L36.7756385,2.44872299 L36.7905697,2.44872299 Z M12.3182711,73.4019646 L8.64518664,73.4019646 C5.27072692,73.4019646 2.52337917,70.6546169 2.52337917,67.2801572 L2.52337917,8.57053045 C2.52337917,5.19607073 5.27072692,2.44872299 8.64518664,2.44872299 L12.3182711,2.44872299 L12.3182711,73.4019646 Z M53.9166994,73.4019646 L14.7669941,73.4019646 L14.7669941,2.44872299 L34.3418468,2.44872299 L34.3418468,22.6058939 L41.6880157,19.6644401 L49.0341847,22.6058939 L49.0341847,2.44872299 L53.9316306,2.44872299 L53.9316306,73.4019646 L53.9166994,73.4019646 Z" id="Shape"></path>
                        <path d="M20.8738703,62.3976424 L47.7799607,62.3976424 L47.7799607,50.1689587 L20.8738703,50.1689587 L20.8738703,62.3976424 Z M23.3225933,52.6027505 L45.346169,52.6027505 L45.346169,59.9489194 L23.3225933,59.9489194 L23.3225933,52.6027505 Z" id="Shape"></path>
                    </g>
                </g>
            </g>
        </g>
    </g>
</svg>