<?xml version="1.0" encoding="UTF-8"?>
<svg width="60px" height="63px" viewBox="0 0 60 63" version="1.1" xmlns="http://www.w3.org/2000/svg" xmlns:xlink="http://www.w3.org/1999/xlink">
    <!-- Generator: Sketch 50.2 (55047) - http://www.bohemiancoding.com/sketch -->
    <title>Page 1</title>
    <desc>Created with Sketch.</desc>
    <defs></defs>
    <g id="Page-1" stroke="none" stroke-width="1" fill="none" fill-rule="evenodd">
        <g id="Learning:-Programs" transform="translate(-294.000000, -4372.000000)" fill="#F16668">
            <g id="inclusions" transform="translate(286.000000, 2226.000000)">
                <path d="M54.5398606,2204.54292 C52.3667461,2203.75156 50.6908811,2202.71744 49.5593026,2201.47407 C48.3390256,2200.13279 47.7450141,2198.52996 47.7450141,2196.569 C47.7450141,2194.57586 48.4599781,2192.70209 49.7662659,2191.28838 C51.0685219,2189.87869 52.8008314,2189.10209 54.6446862,2189.10209 C58.4520042,2189.10209 61.5457022,2192.45261 61.5457022,2196.569 C61.5457022,2199.64858 63.061641,2202.65037 64.2805741,2205.06334 C64.4606591,2205.4228 64.6810615,2205.85604 64.8826491,2206.2772 C62.1894386,2206.20343 58.114681,2205.84665 54.5398606,2204.54292 Z M41.089935,2185.63353 L44.6230939,2181.8082 L50.0605838,2187.68972 C48.5822746,2188.58838 47.3499023,2189.90149 46.5005465,2191.48957 L41.089935,2185.63353 Z M20.076442,2204.54829 L18.6142599,2204.54829 L13.0101242,2198.48435 L13.0101242,2196.89896 L50.9287545,2155.86647 L53.5856792,2158.74218 L19.3520705,2195.78569 C18.8615407,2196.31416 18.8615407,2197.17124 19.3520705,2197.69836 C19.8385686,2198.22548 20.6314799,2198.22548 21.1193219,2197.69836 L55.3515867,2160.65484 L57.9950723,2163.5158 L20.076442,2204.54829 Z M13.0074363,2204.54829 L13.0074363,2202.30835 L15.0770692,2204.54829 L13.0074363,2204.54829 Z M11.2307775,2153.32206 C10.2564374,2152.26781 10.2564374,2150.55231 11.2307775,2149.49806 C11.7051804,2148.98838 12.3327898,2148.70671 13.0007168,2148.70671 C13.6659559,2148.70671 14.2949092,2148.98838 14.7679682,2149.49806 L34.0209293,2170.33219 L30.4877704,2174.15753 L11.2307775,2153.32206 Z M57.9977601,2150.45708 C59.3336141,2150.45708 60.587489,2151.01908 61.5309191,2152.04113 C63.4782554,2154.15231 63.4782554,2157.58331 61.5309191,2159.69046 L59.7636676,2161.60313 L52.6960059,2153.9538 L54.4632573,2152.04113 C55.4053434,2151.01908 56.6592184,2150.45708 57.9977601,2150.45708 Z M64.0440447,2196.57168 C64.0440447,2190.9544 59.8362392,2186.40209 54.6460301,2186.40209 C53.9498808,2186.40209 53.2738904,2186.48256 52.6234343,2186.63815 L46.3930331,2179.89687 L63.2981705,2161.60313 C66.2252226,2158.43502 66.2252226,2153.29657 63.2981705,2150.12846 C61.8359883,2148.54307 59.9168742,2147.75171 57.9977601,2147.75171 C56.0773021,2147.75171 54.158188,2148.54307 52.693318,2150.12846 L35.7881807,2168.42221 L16.5352196,2147.58539 C15.5595355,2146.52981 14.2801261,2146 13.0007168,2146 C11.7213074,2146 10.4405541,2146.52712 9.46352608,2147.58539 C7.51215797,2149.69791 7.51215797,2153.12086 9.46352608,2155.23338 L28.719175,2176.06885 L10.5077499,2195.77765 L10.5077499,2207.25097 L21.1126024,2207.25097 L39.3226835,2187.54486 L45.4966402,2194.22444 C45.3326823,2194.97824 45.2439837,2195.76155 45.2439837,2196.569 C45.2439837,2208.08793 60.9409393,2209 66.1324923,2209 C71.3240454,2209 64.0440447,2202.18897 64.0440447,2196.57034 L64.0440447,2196.57168 Z" id="Page-1"></path>
            </g>
        </g>
    </g>
</svg>