<?xml version="1.0" encoding="UTF-8"?>
<svg width="100px" height="87px" viewBox="0 0 100 87" version="1.1" xmlns="http://www.w3.org/2000/svg" xmlns:xlink="http://www.w3.org/1999/xlink">
    <!-- Generator: Sketch 50.2 (55047) - http://www.bohemiancoding.com/sketch -->
    <title>Page 1</title>
    <desc>Created with Sketch.</desc>
    <defs></defs>
    <g id="Page-1" stroke="none" stroke-width="1" fill="none" fill-rule="evenodd">
        <g id="Centre:-Overview-|-Centre" transform="translate(-1000.000000, -3268.000000)" fill="#5DBF88">
            <g id="services" transform="translate(0.000000, 3020.000000)">
                <g id="Page-1" transform="translate(1000.000000, 248.000000)">
                    <polygon id="Fill-1" points="52.17 32.3941154 52.1743444 32.3984765 52.1786778 32.3984765"></polygon>
                    <path d="M86.2888889,44.1536154 L98.2555556,28.1422692 C99.1583333,26.9310731 99.5706667,25.4801808 99.5706667,24.0553885 C99.5663333,22.30825 98.9586889,20.5437115 97.6696667,19.2148423 L97.6392889,19.1843477 L97.5915444,19.1320585 L97.6349444,19.1756254 C96.3892778,17.8990677 94.7139444,17.2760138 93.0559444,17.2760138 C91.5802778,17.2760138 90.0785,17.7727058 88.8806111,18.8140177 L88.8849556,18.8096677 L78.4291778,27.8808677 C77.5871667,28.6128388 76.6322889,29.2968485 75.8294,29.7630792 C75.4344333,29.9983585 75.0698556,30.1769873 74.8137778,30.2859158 C74.6835667,30.3381938 74.5794,30.3730496 74.5229778,30.3861219 L74.4969333,30.3948331 L66.8971556,30.3948331 C66.8407333,30.3817608 66.6497556,30.3120492 66.4023667,30.1813373 C65.5863889,29.7630681 64.2887,28.7827565 63.2470333,27.7021719 L54.2019222,18.3956258 C53.0257,17.1844296 51.4544778,16.5700758 49.9007,16.5700758 C48.3512556,16.5657258 46.7800333,17.1800573 45.6081444,18.3869258 L36.5065889,27.7065219 C35.7340222,28.4994935 34.8442556,29.2358258 34.1020333,29.7412065 C33.7331111,29.9939081 33.3945667,30.1856204 33.1601889,30.2945377 C33.0473444,30.3468269 32.9605333,30.3773215 32.9214778,30.3903938 L25.1828111,30.3903938 C25.1177111,30.3686104 24.9354111,30.30761 24.7097222,30.1899704 C23.8894111,29.7891235 22.5439444,28.8741512 21.3980556,27.8590396 L11.0508333,18.7572781 C9.86594444,17.711605 8.37283333,17.2062242 6.90583333,17.2062242 C5.24783778,17.2062242 3.56817111,17.8510504 2.33550444,19.1494473 L2.30512333,19.1843031 C1.03345667,20.5305723 0.43879,22.3082723 0.434456667,24.0641108 C0.438796667,25.4887915 0.833767778,26.9353338 1.71479,28.1553415 L12.4439,42.9475723 C13.1079667,43.8581835 13.7199,44.8820954 14.1496778,45.7360338 C14.3623556,46.1630142 14.5316222,46.5464277 14.6314444,46.829635 C14.6835333,46.9734192 14.7139111,47.0866977 14.7312667,47.1607704 L14.7442889,47.2217708 C14.7442889,48.18466 14.8094,50.8685208 14.8831778,53.3127746 L15.7165111,80.0864669 C15.7686,81.6898323 16.3458556,83.1624746 17.3007333,84.2735092 C18.2469111,85.3801827 19.6315111,86.1644208 21.2069556,86.1644208 L37.2491778,86.1644208 C38.8160667,86.1600596 40.1875111,85.3670992 41.1120667,84.2561092 C42.0452222,83.1407246 42.6095111,81.6767823 42.6615111,80.0821169 L43.4948444,53.2392708 C43.5686333,50.7732669 43.6337333,48.0326554 43.6337333,47.0566938 C43.6337333,47.0261881 43.6728,46.7604254 43.7682778,46.42929 C44.0504,45.4141115 44.7535222,43.70184 45.5391667,42.2378977 L46.9193889,39.6629208 C47.4792889,38.6216088 48.1216111,37.5236131 48.6946111,36.6217131 C48.9810667,36.1685881 49.2501667,35.7633912 49.4758556,35.4453169 C49.6581444,35.1838931 49.8187333,34.9834808 49.9098778,34.8789135 C49.9836667,34.9791196 50.0748111,35.0967592 50.1746333,35.2361823 C50.8300111,36.1511435 51.8673,37.7937592 52.7484111,39.3404631 L55.0617444,43.3924323 C55.5001111,44.1592592 55.8733778,45.0131977 56.1251111,45.7800246 C56.3811889,46.5381404 56.4983778,47.2352669 56.4896889,47.5489131 L56.4810111,47.6709138 C56.2813556,48.2111838 55.9818778,49.1174562 55.6303222,50.1979292 C55.2700778,51.3002415 54.8664333,52.5768215 54.5062111,53.7575677 L51.6719889,62.9987523 C51.4028889,63.8832188 51.1858778,64.7110908 51.0339667,65.4386562 C50.8820556,66.1706273 50.7865667,66.7588254 50.7822333,67.3339177 C50.7909111,67.5691969 50.7865778,67.7957538 50.9037667,68.1748173 C50.9688667,68.3621685 51.0687,68.61487 51.3421333,68.9024273 C51.4766778,69.0418504 51.6633111,69.1856346 51.8890111,69.2814796 C52.1103667,69.3816858 52.3664444,69.433975 52.5964778,69.4296138 L55.8387,69.4296138 L58.6989222,69.4296138 C58.8595111,70.0395954 58.9940556,71.0722408 58.9897222,72.2180754 L58.9897222,80.0257677 C58.9940667,81.5420215 59.3673222,82.9362523 60.0747889,84.0733869 C60.4306889,84.6397904 60.8820778,85.1408435 61.4463444,85.5286292 C62.0105778,85.9120427 62.7180111,86.1647442 63.4689,86.1647442 L77.0022333,86.1647442 C77.7617778,86.1647442 78.4865667,85.9468985 79.0985667,85.5852685 C80.0187,85.0406485 80.7001222,84.2127877 81.1689,83.2586877 C81.6376778,82.3045877 81.8893889,81.1977915 81.8893889,80.0302069 L81.8893889,72.2225146 C81.8850444,71.10713 82.0022333,70.0875569 82.1541444,69.4558031 C82.1541444,69.4470919 82.1584889,69.4427308 82.1584889,69.4340196 L84.8538222,69.4340196 L88.0091556,69.4340196 C88.2391889,69.4340196 88.4996111,69.3817304 88.7253,69.2815242 C89.1246111,69.0985342 89.3763444,68.8066158 89.5065556,68.58877 C89.7062111,68.2489235 89.7452667,68.0223665 89.7799889,67.8350154 C89.8103667,67.6476642 89.8147111,67.4951688 89.8147111,67.3470346 C89.8103667,66.77627 89.7148778,66.1880385 89.5673111,65.4561231 C89.4154,64.7328631 89.2027333,63.9007192 88.9379667,63.0118692 L85.1706333,50.5072923 C85.0317444,50.0454562 84.9492778,49.4485469 84.9492778,48.7994154 C84.9492778,47.9672381 85.0794889,47.0479269 85.3225444,46.2200885 C85.5656,45.38355 85.9171667,44.6428231 86.2904222,44.1548423 L86.2888889,44.1536154 Z M56.4933333,47.6348423 L56.4933333,47.6304812 L56.4933333,47.6348423 Z M83.6242222,42.1404577 C82.9428,43.0554188 82.4566667,44.1359923 82.1224444,45.2731269 C81.7925778,46.4102615 81.6146333,47.6128692 81.6146333,48.7891538 C81.6146333,49.704115 81.7231444,50.6103538 81.9792111,51.4642923 L85.7465444,63.9688692 C85.9852556,64.7531296 86.1675556,65.4807731 86.2934222,66.0819654 L84.8567556,66.0819654 L81.2716444,66.0819654 C80.6987333,66.0776042 80.2299778,66.3433892 79.9652,66.5830185 C79.7221444,66.7965142 79.5745778,67.0099988 79.4573889,67.2060612 C79.2534,67.5546188 79.1318667,67.8857542 79.0233667,68.2473731 C78.7152111,69.3148296 78.5633,70.6742269 78.5546111,72.2122308 L78.5546111,80.0199231 C78.5589556,80.9174619 78.2811778,81.70605 77.9252667,82.1896808 C77.7516556,82.4336712 77.5650222,82.5948777 77.4087778,82.6863727 C77.2481889,82.7778677 77.1266556,82.8040123 77.0007889,82.8083735 L71.9616778,82.8083735 L71.9616778,68.3083735 C71.9616778,67.38469 71.2151444,66.6352965 70.2950111,66.6352965 C69.3748778,66.6352965 68.6283444,67.38469 68.6283444,68.3083735 L68.6283444,82.8083735 L63.4677889,82.8083735 C63.4460889,82.8040123 63.4113667,82.8083735 63.3028556,82.7386619 C63.1466111,82.6384558 62.8731667,82.337815 62.6691778,81.8498342 C62.4608444,81.3662146 62.3219556,80.7213996 62.3219556,80.0199342 L62.3219556,72.2122419 C62.3176222,70.8703227 62.1917444,69.650315 61.9486889,68.6569535 C61.8228222,68.1559004 61.6795889,67.7114865 61.4191778,67.2583727 C61.2846333,67.0318158 61.1197,66.7965365 60.8375778,66.5525462 C60.5641444,66.3172669 60.0997333,66.0732765 59.5529111,66.0776377 L55.8375778,66.0776377 L54.3098,66.0776377 C54.4356667,65.4850896 54.6223,64.7574685 54.8610111,63.9775915 L57.6952333,54.7364069 C58.0511333,53.5730608 58.4504444,52.3139031 58.802,51.22908 C59.1535667,50.14419 59.4660667,49.2204954 59.6266556,48.7848262 L59.631,48.780465 C59.7915889,48.3360512 59.8263111,47.9352154 59.8263111,47.5474073 C59.8219667,46.6498685 59.6136333,45.7262073 59.2924556,44.7328458 C58.9669333,43.7438119 58.5155444,42.7112112 57.9556778,41.7265496 L55.6423444,37.6745804 C55.0173444,36.5809792 54.3359,35.4655612 53.7282333,34.5332112 C53.4244111,34.0670138 53.1423,33.6443835 52.8862222,33.2871035 C52.6301444,32.9298346 52.4174667,32.6466273 52.1874333,32.3895646 C51.6015,31.7403773 50.7594333,31.4179642 49.9868778,31.4266754 C49.0580556,31.4310365 48.1813222,31.8362335 47.5346556,32.5246377 C47.2742333,32.8034838 47.0398667,33.1171858 46.7664222,33.5005992 C45.9591333,34.6420838 44.8957556,36.3892223 43.9929778,38.0711108 L42.6127556,40.6460877 C41.9964333,41.8007338 41.4452,43.02498 41.0328667,44.1142646 C40.8245333,44.6588846 40.6552667,45.17301 40.5293889,45.6479185 C40.4078667,46.1271881 40.3123778,46.5367462 40.3080333,47.0421492 C40.3080333,47.9135435 40.2472667,50.6888992 40.1734889,53.1244531 L39.3358111,79.9672992 C39.3141111,80.8212712 38.9929333,81.5880646 38.5719222,82.0890954 C38.1379,82.5944985 37.6734889,82.8036331 37.2611444,82.8036331 L30.8635889,82.8036331 L30.8635889,68.3036331 C30.8635889,67.3799608 30.1170556,66.6305562 29.1969222,66.6305562 C28.2767889,66.6305562 27.5302556,67.3799608 27.5302556,68.3036331 L27.5302556,82.8036331 L21.2151444,82.8036331 C20.7637556,82.8036331 20.2733,82.5857873 19.8349222,82.0760231 C19.4009,81.57497 19.0797111,80.8125154 19.0580111,79.9672769 L18.2246778,53.1935846 C18.1508889,50.7580308 18.0857889,48.0088308 18.0857889,47.1722923 C18.0857889,46.8760238 18.0423889,46.6363835 17.9903,46.4011042 C17.7993222,45.5950604 17.4260667,44.7672888 16.9356111,43.8261273 C16.4451556,42.8980938 15.8288444,41.9003042 15.1473889,40.9679542 L4.41828,26.1757235 C4.01029111,25.61367 3.78025778,24.8512042 3.78025778,24.0539273 C3.77591778,23.0692546 4.14050222,22.0933042 4.73078,21.4833004 L4.76550222,21.4484446 C5.32105778,20.8602577 6.11094444,20.5465558 6.91827778,20.5465558 C7.63442222,20.5465558 8.32883333,20.7905462 8.86705556,21.2654546 L19.2142778,30.3715662 C20.2082,31.2429604 21.2672778,32.0272431 22.2351667,32.6197354 C22.7212778,32.9160038 23.1770111,33.1643554 23.6197222,33.3560677 C23.8410778,33.456285 24.0624333,33.5347077 24.2968111,33.6044192 C24.5355222,33.6697808 24.7829222,33.7220588 25.1084444,33.72642 L33.0077778,33.72642 C33.3463222,33.72207 33.6110778,33.6654308 33.8584667,33.5957081 C34.2924889,33.4649962 34.6787778,33.2820062 35.0868,33.0554381 C36.2933556,32.375745 37.6519111,31.2995996 38.8889111,30.0447919 L47.9904667,20.7208458 C48.5243222,20.1762258 49.2058,19.9104519 49.9045778,19.9104519 C50.6033667,19.9104519 51.2848,20.1762258 51.8230222,20.7252069 L60.8681333,30.0317531 C61.8099778,30.9990035 62.8429111,31.8573031 63.8194667,32.5109185 C64.3099222,32.8376927 64.7830111,33.1121777 65.2518,33.3300235 C65.4905111,33.4389519 65.7248889,33.5304469 65.9766222,33.6001585 C66.2327,33.66987 66.5018,33.7265092 66.8316556,33.7265092 L74.5486556,33.7265092 C74.8611556,33.7221592 75.1172333,33.6742312 75.3602889,33.6132308 C76.1849444,33.3866738 76.9878444,32.9640435 77.8906222,32.4107346 C78.7847222,31.8574035 79.7221778,31.1646269 80.6032889,30.3978 L91.0590667,21.3266 L91.0634111,21.32225 C91.6059444,20.8473415 92.3177444,20.6033512 93.0556333,20.6033512 C93.8846222,20.6033512 94.6919667,20.9170531 95.2561889,21.50089 L95.2952444,21.5400958 C95.8855222,22.137005 96.2457667,23.0824496 96.2414222,24.0323112 C96.2414222,24.8122104 96.0070444,25.557265 95.5903778,26.1149573 L83.6242222,42.1404577 Z" id="Fill-2"></path>
                    <path d="M29.18,26.4903846 C36.2373333,26.4903846 41.9577778,20.7479385 41.9577778,13.6634615 C41.9577778,6.57898462 36.2373333,0.836538462 29.18,0.836538462 C22.1226667,0.836538462 16.4022222,6.57898462 16.4022222,13.6634615 C16.4022222,20.7479385 22.1226667,26.4903846 29.18,26.4903846 Z M29.18,4.18269231 C34.3883333,4.18269231 38.6244444,8.43509615 38.6244444,13.6634615 C38.6244444,18.8918269 34.3883333,23.1442308 29.18,23.1442308 C23.9716667,23.1442308 19.7355556,18.8918269 19.7355556,13.6634615 C19.7355556,8.43509615 23.9716667,4.18269231 29.18,4.18269231 Z" id="Fill-3"></path>
                    <path d="M30.7644444,44.4938077 C30.7644444,46.7245769 27.4311111,46.7245769 27.4311111,44.4938077 C27.4311111,42.2630385 30.7644444,42.2630385 30.7644444,44.4938077" id="Fill-4"></path>
                    <path d="M30.7644444,52.3015 C30.7644444,54.5322692 27.4311111,54.5322692 27.4311111,52.3015 C27.4311111,50.0707308 30.7644444,50.0707308 30.7644444,52.3015" id="Fill-5"></path>
                    <path d="M71.8755556,44.4938077 C71.8755556,46.7245769 68.5422222,46.7245769 68.5422222,44.4938077 C68.5422222,42.2630385 71.8755556,42.2630385 71.8755556,44.4938077" id="Fill-6"></path>
                    <path d="M71.8755556,52.3015 C71.8755556,54.5322692 68.5422222,54.5322692 68.5422222,52.3015 C68.5422222,50.0707308 71.8755556,50.0707308 71.8755556,52.3015" id="Fill-7"></path>
                    <path d="M47.4311111,11.8420385 C47.4311111,11.8420385 50.1307778,13.4410538 53.5682222,13.4410538 C54.6489556,13.4410538 55.7991111,13.2842085 56.9623333,12.8702892 C57.1489667,12.8005777 57.3139,12.7134438 57.4961889,12.63501 C57.4701444,12.9748565 57.4441,13.3147031 57.4441,13.6632608 C57.4441,20.7477377 63.1645444,26.4901838 70.2218778,26.4901838 C77.2792111,26.4901838 82.9996556,20.7477377 82.9996556,13.6632608 C82.9996556,13.2929196 82.9736222,12.9312896 82.9432333,12.5696596 C83.1689222,12.6698658 83.3816,12.7831554 83.6203111,12.8702892 C84.7835333,13.2841973 85.9379778,13.4410538 87.0144222,13.4410538 C90.4519778,13.4410538 93.1515333,11.8420385 93.1515333,11.8420385 C93.6767111,11.5326977 93.9327778,10.8050765 93.7201111,10.2299731 C93.7201111,10.2299731 91.8277778,5.14103077 86.958,3.40694231 C85.7947778,2.99303423 84.6446667,2.83617769 83.5638889,2.83617769 C81.4414444,2.83617769 79.6055556,3.44615923 78.5031111,3.91234538 C76.2678889,1.99522231 73.3815556,0.836337692 70.2132222,0.836337692 C67.0708889,0.836337692 64.1932222,1.98217231 61.9666667,3.87319538 C60.8599,3.41570923 59.0673333,2.83623346 57.0057778,2.83623346 C55.9250444,2.83623346 54.7748889,2.99307885 53.6116667,3.40699808 C48.7418889,5.14108654 46.8495556,10.2300288 46.8495556,10.2300288 C46.6455667,10.8051435 46.9059889,11.5327981 47.4311556,11.8420942 L47.4311111,11.8420385 Z M83.5677778,6.18235385 C84.3750667,6.18235385 85.139,6.30870462 85.8464444,6.56140615 C87.6346667,7.19752115 88.8803333,8.56999077 89.6485556,9.68972538 C88.9107111,9.90757115 87.9948889,10.0949223 87.014,10.0949223 C86.2067111,10.0949223 85.4384444,9.96857154 84.731,9.71587 C82.9427778,9.079755 81.6971111,7.70728538 80.9288889,6.58755077 C81.6754111,6.369705 82.5868889,6.18235385 83.5677778,6.18235385 Z M70.2211111,4.18246923 C75.4294444,4.18246923 79.6655556,8.43487308 79.6655556,13.6632385 C79.6655556,18.8916038 75.4294444,23.1440077 70.2211111,23.1440077 C65.0127778,23.1440077 60.7766667,18.8916038 60.7766667,13.6632385 C60.7766667,8.43487308 65.0127778,4.18246923 70.2211111,4.18246923 Z M54.7344444,6.56136154 C55.4419111,6.30866 56.2057778,6.18230923 57.0131111,6.18230923 C57.9636333,6.18230923 58.849,6.35658808 59.5782222,6.57008385 C59.4523556,6.757435 59.3395111,6.95349731 59.2266556,7.14955962 C58.4497444,8.13423231 57.3386556,9.18424423 55.8498778,9.71583654 C55.1424111,9.96853808 54.3742111,10.0948888 53.5668778,10.0948888 C52.5859778,10.0948888 51.6745444,9.91189885 50.9366556,9.68969192 C51.7005444,8.56560731 52.9462111,7.19747654 54.7344333,6.56137269 L54.7344444,6.56136154 Z" id="Fill-8"></path>
                </g>
            </g>
        </g>
    </g>
</svg>