<?xml version="1.0" encoding="UTF-8"?>
<svg width="43px" height="80px" viewBox="0 0 43 80" version="1.1" xmlns="http://www.w3.org/2000/svg" xmlns:xlink="http://www.w3.org/1999/xlink">
    <!-- Generator: Sketch 50.2 (55047) - http://www.bohemiancoding.com/sketch -->
    <title>noun_593978</title>
    <desc>Created with Sketch.</desc>
    <defs></defs>
    <g id="Page-1" stroke="none" stroke-width="1" fill="none" fill-rule="evenodd">
        <g id="Homepage" transform="translate(-319.000000, -2622.000000)" fill="#9FC9EB" fill-rule="nonzero">
            <g id="why-us" transform="translate(200.000000, 2372.000000)">
                <g id="Group-4" transform="translate(119.000000, 248.000000)">
                    <g id="noun_593978" transform="translate(0.000000, 2.000000)">
                        <path d="M36.4566929,45.1338583 C37.7480315,30.8188976 33.9370079,16.2204724 25.4488189,5.51181102 L21.1023622,0 L16.7559055,5.51181102 C8.28346457,16.2362205 4.45669291,30.8346457 5.7480315,45.1496063 C2.09448819,49.0551181 0.0787401575,54.1102362 0.0787401575,59.480315 C0.0787401575,64.2047244 2.01574803,69.6220472 2.01574803,69.6220472 C2.01574803,69.6220472 3.22834646,61.6850394 7.90551181,56.5354331 C8.44094488,59.7952756 10.2677165,63.1181102 10.2677165,63.1181102 L31.9370079,63.1181102 C31.9370079,63.1181102 33.1811024,61.0551181 34.2992126,56.5354331 C38.7874016,61.6692913 40.1889764,69.6220472 40.1889764,69.6220472 C40.1889764,69.6220472 42.1417323,65.4173228 42.1417323,59.480315 C42.1417323,54.1102362 40.1102362,49.0551181 36.4566929,45.1338583 Z M2.66141732,59.2598425 C2.70866142,55.3858268 3.93700787,51.7007874 6.18897638,48.6299213 C6.44094488,50.3307087 6.75590551,52.015748 7.13385827,53.6535433 C5.32283465,55.2755906 3.81102362,57.1653543 2.66141732,59.2598425 Z M21.1023622,4.18897638 C21.1023622,4.18897638 25.1023622,8.99212598 27.0393701,12.4724409 L15.1496063,12.4724409 C16.9448819,8.96062992 21.1023622,4.18897638 21.1023622,4.18897638 Z M30.2047244,60.519685 L22.4094488,60.519685 L22.4094488,48.8346457 L19.8110236,48.8346457 L19.8110236,60.519685 L12.015748,60.519685 C6.12598425,45.7480315 6.97637795,28.5984252 13.7795276,15.0708661 L28.4566929,15.0708661 C35.2598425,28.5984252 36.0944882,45.7480315 30.2047244,60.519685 Z M35.0551181,53.6377953 C35.4488189,52 35.7637795,50.3307087 36.015748,48.6299213 C38.2677165,51.7007874 39.496063,55.3858268 39.5433071,59.2598425 C38.3937008,57.1653543 36.8818898,55.2755906 35.0551181,53.6377953 Z" id="Shape"></path>
                        <path d="M21.1023622,17.6692913 C18.2362205,17.6692913 15.9055118,20 15.9055118,22.8661417 C15.9055118,25.7322835 18.2362205,28.0629921 21.1023622,28.0629921 C23.9685039,28.0629921 26.2992126,25.7322835 26.2992126,22.8661417 C26.2992126,20 23.9685039,17.6692913 21.1023622,17.6692913 Z M21.1023622,25.4645669 C19.6692913,25.4645669 18.503937,24.2992126 18.503937,22.8661417 C18.503937,21.4330709 19.6692913,20.2677165 21.1023622,20.2677165 C22.5354331,20.2677165 23.7007874,21.4330709 23.7007874,22.8661417 C23.7007874,24.2992126 22.5354331,25.4645669 21.1023622,25.4645669 Z" id="Shape"></path>
                        <rect id="Rectangle-path" x="19.8110236" y="65.7165354" width="2.5984252" height="10.3937008"></rect>
                        <rect id="Rectangle-path" x="28.8976378" y="72.2047244" width="2.5984252" height="7.79527559"></rect>
                        <rect id="Rectangle-path" x="10.7086614" y="72.2047244" width="2.5984252" height="7.79527559"></rect>
                    </g>
                </g>
            </g>
        </g>
    </g>
</svg>