<?xml version="1.0" encoding="UTF-8"?>
<svg width="66px" height="59px" viewBox="0 0 66 59" version="1.1" xmlns="http://www.w3.org/2000/svg" xmlns:xlink="http://www.w3.org/1999/xlink">
    <!-- Generator: Sketch 50.2 (55047) - http://www.bohemiancoding.com/sketch -->
    <title>Page 1</title>
    <desc>Created with Sketch.</desc>
    <defs></defs>
    <g id="Page-1" stroke="none" stroke-width="1" fill="none" fill-rule="evenodd">
        <g id="Learning:-Programs" transform="translate(-290.000000, -2364.000000)" fill="#F16668">
            <g id="inclusions" transform="translate(286.000000, 2226.000000)">
                <path d="M37,175.824044 C40.4223017,175.824044 42.9997562,178.279324 42.9997562,181.212801 L42.9997562,193.974098 L31.0002438,193.974098 L31.0002438,181.212801 C31.0002438,178.279324 33.5776983,175.824044 37,175.824044 Z M55.0006096,171.78281 L67.0001219,177.502421 L67.0001219,193.974098 L55.0006096,193.974098 L55.0006096,171.78281 Z M18.9993904,171.78281 L18.9993904,193.974098 L6.99987809,193.974098 L6.99987809,177.502421 L18.9993904,171.78281 Z M37,159.18627 C39.0893205,159.18627 40.7495124,160.86063 40.7495124,162.967643 C40.7495124,165.074657 39.0893205,166.749016 37,166.749016 C34.9106795,166.749016 33.2504876,165.074657 33.2504876,162.967643 C33.2504876,160.86063 34.9106795,159.18627 37,159.18627 Z M37,156.161708 C33.2907185,156.161708 30.2506096,159.227795 30.2506096,162.967643 C30.2506096,166.707492 33.2907185,169.773579 37,169.773579 C40.7092815,169.773579 43.7493904,166.707492 43.7493904,162.967643 C43.7493904,159.227795 40.7092815,156.161708 37,156.161708 Z M37,151.812392 L51.9993904,159.375138 L51.9993904,193.974098 L45.9996343,193.974098 L45.9996343,181.212801 C45.9996343,176.500485 41.8893856,172.799481 37,172.799481 C32.1106144,172.799481 28.0003657,176.500485 28.0003657,181.212801 L28.0003657,193.974098 L22.0006096,193.974098 L22.0006096,159.375138 L37,151.812392 Z M35.4993904,141.957783 L35.4993904,144.699714 C34.1583631,144.489415 32.7140767,144.489415 31.1638492,144.722485 C30.2827942,144.856434 29.4151495,145.047981 28.5863947,145.290428 C28.7084282,145.072092 28.8090052,144.808213 28.9605413,144.628721 C29.5318189,143.95228 30.3847123,143.491497 31.4213264,143.11644 C32.4592815,142.741384 33.6420676,142.480184 34.7966921,142.170762 C35.034054,142.105127 35.2660517,142.028776 35.4993904,141.957783 Z M36.8122562,138.011654 C36.4850455,138.051838 36.1792913,138.2032 35.9459525,138.436271 C35.7662549,138.617102 35.0488053,138.96269 34.0229194,139.239963 C32.9983745,139.517237 31.697578,139.783795 30.3900764,140.256634 C29.0839158,140.729473 27.7335013,141.426007 26.6875,142.666372 C25.6414987,143.908077 25.0004876,145.670843 25.0004876,147.842152 C25.0004876,148.403397 25.3075829,148.91776 25.7970579,149.1803 C26.2892149,149.444179 26.88329,149.410691 27.3432624,149.094572 C28.1170351,148.574851 29.8576886,147.986816 31.5862728,147.724277 C33.171367,147.484508 34.7350049,147.547464 35.4993904,147.724277 L35.4993904,149.165565 L19.8200992,157.059164 C19.3105088,157.323043 18.9913443,157.85482 19.0007315,158.4308 L19.0007315,168.451505 L4.86764467,175.210558 C4.33927991,175.458364 4,175.992819 4,176.580854 L4,195.487719 C4,196.323559 4.67051365,197 5.50060956,197 L68.4993904,197 C69.3294863,197 70,196.323559 70,195.487719 L70,176.580854 C70,175.992819 69.6607201,175.458364 69.1323553,175.210558 L54.9992685,168.451505 L54.9992685,158.4308 C55.0086557,157.85482 54.6894912,157.323043 54.1799008,157.059164 L38.5006096,149.165565 L38.5006096,139.523935 C38.5032916,139.085922 38.3209119,138.669342 37.9963833,138.380013 C37.6731957,138.090683 37.2400439,137.958074 36.8122562,138.011654 Z" id="Page-1"></path>
            </g>
        </g>
    </g>
</svg>