<?xml version="1.0" encoding="UTF-8"?>
<svg width="48px" height="46px" viewBox="0 0 48 46" version="1.1" xmlns="http://www.w3.org/2000/svg" xmlns:xlink="http://www.w3.org/1999/xlink">
    <!-- Generator: Sketch 50.2 (55047) - http://www.bohemiancoding.com/sketch -->
    <title>Page 1</title>
    <desc>Created with Sketch.</desc>
    <defs></defs>
    <g id="Page-1" stroke="none" stroke-width="1" fill="none" fill-rule="evenodd">
        <g id="Learning:-QK-Portal" transform="translate(-940.000000, -1543.000000)" fill="#FFFFFF">
            <g id="features" transform="translate(300.000000, 1088.000000)">
                <path d="M656.084636,457.317873 C654.865868,456.089745 653.18774,455.489745 651.350252,455.611617 C648.209612,455.827243 645.490892,458.470977 645.481292,461.499297 C645.481292,464.611809 648.284396,466.205553 650.093804,466.064913 C652.278188,465.88679 654.115676,464.086785 654.275036,461.902401 C654.321908,461.189889 653.787548,460.580529 653.084396,460.524273 C652.381292,460.477397 651.762524,461.002397 651.706268,461.714913 C651.640642,462.614913 650.825036,463.505553 649.915628,463.496145 C648.743756,463.477397 648.040652,462.399249 648.059372,461.583633 C648.09687,459.896145 649.7375,458.386737 651.52814,458.180529 C654.06878,457.889904 655.362524,460.196145 655.212524,461.864913 C654.931273,464.986785 652.250012,467.715153 649.118924,467.930673 C647.22518,468.061925 645.500156,467.45255 644.281483,466.224417 C643.062715,464.996289 642.462715,463.290033 642.603355,461.396097 C642.65023,460.683585 642.115867,460.074225 641.412715,460.017969 C640.700203,459.980472 640.072075,460.505457 640.025227,461.217969 C639.837725,463.861713 640.700203,466.280529 642.453355,468.043089 C642.603355,468.202464 659.075276,484.590129 659.075276,484.590129 C658.062764,484.674504 657.050252,484.927627 656.3003,485.527617 C655.747196,485.968243 655.597196,486.830721 656.103423,487.336977 C657.003423,488.236977 657.687807,487.711977 657.912783,487.533854 C658.381532,487.158854 659.450271,487.083854 660.509679,487.158854 C660.509679,487.67447 660.359679,488.246342 659.900319,488.780726 C659.43157,489.31511 659.487817,490.130726 660.022196,490.599494 C660.275319,490.824494 661.0253,491.293238 661.840964,490.477617 C662.459732,489.858849 662.750324,489.118257 662.928452,488.424513 L672.969092,498.418113 C675.631604,501.080625 680.872292,502.561857 685.016132,498.418113 C688.944236,494.489985 688.044236,489.380673 685.034881,486.371073 C685.016132,486.361699 656.347201,457.580673 656.085121,457.318113 L656.084636,457.317873 Z M683.196956,488.180433 C685.756316,490.739793 685.334444,494.442993 683.187582,496.590033 C680.871966,498.905648 677.093982,498.896288 674.768862,496.590033 L664.512702,486.380433 L674.431422,479.405553 L683.196956,488.180433 Z M672.584636,477.549393 L663.931676,483.642993 L670.943996,475.908753 L672.584636,477.549393 Z M661.072316,482.958993 L648.575516,470.508753 C653.778716,471.089985 657.397436,466.224369 657.706556,462.652593 L669.125276,474.080913 L661.072316,482.958993 Z" id="Page-1"></path>
            </g>
        </g>
    </g>
</svg>