<?xml version="1.0" encoding="UTF-8"?>
<svg width="80px" height="80px" viewBox="0 0 80 80" version="1.1" xmlns="http://www.w3.org/2000/svg" xmlns:xlink="http://www.w3.org/1999/xlink">
    <!-- Generator: Sketch 50.2 (55047) - http://www.bohemiancoding.com/sketch -->
    <title>noun_641671</title>
    <desc>Created with Sketch.</desc>
    <defs></defs>
    <g id="Page-1" stroke="none" stroke-width="1" fill="none" fill-rule="evenodd">
        <g id="Homepage" transform="translate(-300.000000, -2481.000000)" fill="#FFB8CB" fill-rule="nonzero">
            <g id="why-us" transform="translate(200.000000, 2372.000000)">
                <g id="Group" transform="translate(100.000000, 109.000000)">
                    <g id="noun_641671">
                        <path d="M40,16.7716535 C27.1968504,16.7716535 16.7716535,27.1968504 16.7716535,40 C16.7716535,52.8031496 27.1968504,63.2283465 40,63.2283465 C52.8031496,63.2283465 63.2283465,52.8031496 63.2283465,40 C63.2283465,27.1968504 52.8031496,16.7716535 40,16.7716535 Z M40,60.6456693 C28.6141732,60.6456693 19.3543307,51.3858268 19.3543307,40 C19.3543307,28.6141732 28.6141732,19.3543307 40,19.3543307 C51.3858268,19.3543307 60.6456693,28.6141732 60.6456693,40 C60.6456693,51.3858268 51.3858268,60.6456693 40,60.6456693 Z" id="Shape"></path>
                        <rect id="Rectangle-path" x="38.7086614" y="0" width="2.58267717" height="12.8976378"></rect>
                        <rect id="Rectangle-path" x="38.7086614" y="67.0708661" width="2.58267717" height="12.9291339"></rect>
                        <polygon id="Shape" points="30.8188976 14.4724409 27.8582677 7.32283465 25.480315 8.31496063 28.4409449 15.4645669"></polygon>
                        <polygon id="Shape" points="49.1653543 65.496063 52.1417323 72.6771654 54.519685 71.6850394 51.5433071 64.503937"></polygon>
                        <rect id="Rectangle-path" transform="translate(68.601214, 28.139113) rotate(157.499572) translate(-68.601214, -28.139113) " x="64.7271006" y="26.8477422" width="7.74822713" height="2.58274238"></rect>
                        <rect id="Rectangle-path" transform="translate(11.399748, 51.846173) rotate(-22.500428) translate(-11.399748, -51.846173) " x="7.50988604" y="50.554802" width="7.77972399" height="2.58274238"></rect>
                        <rect id="Rectangle-path" transform="translate(11.384726, 28.156115) rotate(22.500428) translate(-11.384726, -28.156115) " x="7.51061242" y="26.8647438" width="7.74822713" height="2.58274238"></rect>
                        <rect id="Rectangle-path" transform="translate(68.586913, 51.846173) rotate(-157.499572) translate(-68.586913, -51.846173) " x="64.6970514" y="50.554802" width="7.77972399" height="2.58274238"></rect>
                        <polygon id="Shape" points="54.519685 8.31496063 52.1417323 7.32283465 49.1811024 14.4724409 51.5590551 15.4645669"></polygon>
                        <polygon id="Shape" points="25.480315 71.6850394 27.8582677 72.6771654 30.8346457 65.496063 28.4566929 64.503937"></polygon>
                        <rect id="Rectangle-path" transform="translate(63.719429, 16.271708) rotate(45.000000) translate(-63.719429, -16.271708) " x="62.4281029" y="9.82295082" width="2.5826524" height="12.8975141"></rect>
                        <rect id="Rectangle-path" transform="translate(16.290845, 63.717646) rotate(-135.000000) translate(-16.290845, -63.717646) " x="14.9995187" y="57.2531415" width="2.5826524" height="12.9290099"></rect>
                        <rect id="Rectangle-path" x="67.1023622" y="38.7086614" width="12.8976378" height="2.58267717"></rect>
                        <rect id="Rectangle-path" x="0" y="38.7086614" width="12.9291339" height="2.58267717"></rect>
                        <rect id="Rectangle-path" transform="translate(63.716473, 63.719285) rotate(-134.995949) translate(-63.716473, -63.719285) " x="57.2672602" y="62.4278675" width="12.8984261" height="2.58283503"></rect>
                        <rect id="Rectangle-path" transform="translate(16.295300, 16.286431) rotate(45.000000) translate(-16.295300, -16.286431) " x="9.83079507" y="14.9951045" width="12.9290099" height="2.5826524"></rect>
                    </g>
                </g>
            </g>
        </g>
    </g>
</svg>