<?xml version="1.0" encoding="UTF-8"?>
<svg width="56px" height="75px" viewBox="0 0 56 75" version="1.1" xmlns="http://www.w3.org/2000/svg" xmlns:xlink="http://www.w3.org/1999/xlink">
    <!-- Generator: Sketch 50.2 (55047) - http://www.bohemiancoding.com/sketch -->
    <title>noun_593962</title>
    <desc>Created with Sketch.</desc>
    <defs></defs>
    <g id="Page-1" stroke="none" stroke-width="1" fill="none" fill-rule="evenodd">
        <g id="Homepage" transform="translate(-313.000000, -2761.000000)" fill="#53466B" fill-rule="nonzero">
            <g id="why-us" transform="translate(200.000000, 2372.000000)">
                <g id="Group-5" transform="translate(113.000000, 389.000000)">
                    <g id="noun_593962">
                        <path d="M28,33.9271654 C36.1319149,33.9271654 42.6702128,23.7844488 42.6702128,15.3838583 C42.6702128,6.90944882 36.087234,0 28,0 C19.912766,0 13.3297872,6.90944882 13.3297872,15.3838583 C13.3297872,23.7844488 19.8829787,33.9271654 28,33.9271654 Z M28,2.42125984 C34.7319149,2.42125984 40.2276596,8.23818898 40.2276596,15.3838583 C40.2276596,22.632874 34.5829787,31.4911417 28,31.4911417 C21.4170213,31.4911417 15.7723404,22.632874 15.7723404,15.3838583 C15.7723404,8.23818898 21.2680851,2.42125984 28,2.42125984 Z" id="Shape"></path>
                        <path d="M40.7787234,33.484252 L40.1085106,33.2923228 C40.1085106,33.2923228 35.2829787,38.7549213 28,38.7549213 C20.6276596,38.7549213 15.8914894,33.2923228 15.8914894,33.2923228 L15.2212766,33.484252 C4.85531915,36.3484252 -1.53404255,46.4173228 0.357446809,56.9291339 L2.53191489,69.0501969 L8.44468085,69.0501969 L8.44468085,75 L10.0234043,74.5127953 C19.8085106,71.4566929 28,74.6309055 28,74.6309055 C28,74.6309055 37.2191489,71.4419291 45.9765957,74.5127953 L47.5553191,75 L47.5553191,69.0501969 L53.4680851,69.0501969 L55.6574468,56.9143701 C57.5489362,46.4320866 51.1446809,36.3484252 40.7787234,33.484252 Z M26.7787234,71.7814961 C24.1723404,71.1318898 18.9148936,70.0246063 10.887234,71.7667323 L10.887234,49.5324803 C16.0702128,48.1151575 21.5808511,48.1299213 26.7787234,49.5620079 L26.7787234,71.7814961 Z M45.112766,71.7519685 C39.9148936,70.4379921 34.4340426,70.4527559 29.2212766,71.7667323 L29.2212766,49.5472441 C34.4042553,48.1299213 39.9297872,48.1151575 45.112766,49.5324803 L45.112766,71.7519685 Z M53.2446809,56.5009843 L51.412766,66.628937 L47.5404255,66.628937 L47.5404255,47.7312992 C47.5404255,47.7312992 38.4851064,44.4094488 27.9702128,47.3622047 C17.5744681,44.3356299 8.42978723,47.7312992 8.42978723,47.7312992 L8.42978723,66.628937 L4.55744681,66.628937 L2.72553191,56.5009843 C1.10212766,47.4507874 6.43404255,38.769685 15.1914894,36.0088583 C18.9893617,39.4045276 23.3829787,41.1909449 27.9702128,41.1909449 C32.5574468,41.1909449 36.9510638,39.4045276 40.7489362,36.0088583 C49.5361702,38.769685 54.8680851,47.4507874 53.2446809,56.5009843 Z" id="Shape"></path>
                    </g>
                </g>
            </g>
        </g>
    </g>
</svg>