<?xml version="1.0" encoding="UTF-8"?>
<svg width="86px" height="65px" viewBox="0 0 86 65" version="1.1" xmlns="http://www.w3.org/2000/svg" xmlns:xlink="http://www.w3.org/1999/xlink">
    <!-- Generator: Sketch 50.2 (55047) - http://www.bohemiancoding.com/sketch -->
    <title>toddler</title>
    <desc>Created with Sketch.</desc>
    <defs></defs>
    <g id="Page-1" stroke="none" stroke-width="1" fill="none" fill-rule="evenodd">
        <g id="Centre:-Overview-|-Centre" transform="translate(-382.000000, -3290.000000)" fill="#5DBF88" fill-rule="nonzero">
            <g id="services" transform="translate(0.000000, 3020.000000)">
                <g id="toddler" transform="translate(382.000000, 270.000000)">
                    <path d="M86,16.2077922 C86,7.27020779 78.7667617,0 69.875,0 C60.9832383,0 53.75,7.27037662 53.75,16.2077922 C53.75,17.3210649 53.8632109,18.4081688 54.0770352,19.458974 C52.3214258,18.536987 50.3462812,18.0087143 48.2631328,18.0087143 L24.5304922,18.0087143 C14.9562734,18.0087143 7.16672266,25.8382597 7.16672266,35.4616364 C7.16672266,38.4953636 7.95751953,41.4902597 9.45529688,44.1213247 L13.0385742,50.4242987 L7.16672266,50.4242987 C3.21408203,50.4242987 0,53.6548831 0,57.6276494 C0,61.6004156 3.21408203,64.8311688 7.16672266,64.8311688 L19.7084453,64.8311688 C24.6477344,64.8311688 28.6667227,60.7915455 28.6667227,55.8268961 L28.6667227,46.8226234 L50.7458789,46.8226234 L55.9196523,59.8297143 C57.1303711,62.866987 60.017418,64.8313377 63.2998633,64.8313377 C66.9392422,64.8313377 70.0973906,62.3515455 70.9809063,58.8008571 L71.1314062,58.1976234 C71.5390664,56.561987 71.4253516,54.8702987 70.8025234,53.3102987 L61.5299766,30.007039 C63.9722422,31.5047403 66.8102422,32.4155844 69.875,32.4155844 C78.7669297,32.4155844 86,25.1453766 86,16.2077922 Z M25.0832773,55.8268961 C25.0832773,58.8060909 22.6722539,61.2294935 19.7082773,61.2294935 L7.16672266,61.2294935 C5.19141016,61.2294935 3.58344531,59.6132727 3.58344531,57.6278182 C3.58344531,55.6423636 5.19141016,54.0261429 7.16672266,54.0261429 L16.125,54.0261429 C16.7636172,54.0261429 17.3533555,53.6849351 17.6751836,53.1291429 C17.995332,52.5733506 17.9971797,51.8892468 17.6803906,51.3317662 L15.1173555,46.8226234 L25.0832773,46.8226234 L25.0832773,55.8268961 Z M25.0832773,43.2207792 L13.0701523,43.2207792 L12.5662461,42.3344156 C11.3782031,40.2451299 10.75,37.8691688 10.75,35.4616364 C10.75,27.8237143 16.9315859,21.6103896 24.5304922,21.6103896 L25.0834453,21.6103896 L25.0834453,43.2207792 L25.0832773,43.2207792 Z M67.4762383,54.6486234 C67.8157031,55.5034156 67.8786914,56.4265844 67.6564687,57.3235844 L67.5059687,57.9268182 C67.0213789,59.8719221 65.2926445,61.2296623 63.2734922,61.2296623 C61.4905039,61.2296623 59.9089102,60.1550519 59.2474492,58.4913896 L53.6221758,44.3534675 C53.3492266,43.6693636 52.691293,43.2209481 51.9582773,43.2209481 L28.6667227,43.2209481 L28.6667227,21.6103896 L48.2631328,21.6103896 C51.9480312,21.6103896 55.2128398,23.8315325 56.5811133,27.2697792 L67.4762383,54.6486234 Z M57.3332773,16.2077922 C57.3332773,9.25751948 62.9602305,3.60167532 69.875,3.60167532 C76.7897695,3.60167532 82.4167227,9.25751948 82.4167227,16.2077922 C82.4167227,23.1580649 76.7897695,28.8139091 69.875,28.8139091 C62.9602305,28.8139091 57.3332773,23.1580649 57.3332773,16.2077922 Z" id="Shape"></path>
                </g>
            </g>
        </g>
    </g>
</svg>